<?xml version="1.0" encoding="UTF-8" standalone="no"?>
<svg
   version="1.1"
   viewBox="-10 0 277.25837 62.083842"
   id="svg1"
   sodipodi:docname="acier_ouellette.svg"
   width="277.25836"
   height="62.083843"
   inkscape:version="1.4.2 (ebf0e940d0, 2025-05-08)"
   xmlns:inkscape="http://www.inkscape.org/namespaces/inkscape"
   xmlns:sodipodi="http://sodipodi.sourceforge.net/DTD/sodipodi-0.dtd"
   xmlns="http://www.w3.org/2000/svg"
   xmlns:svg="http://www.w3.org/2000/svg">
  <defs
     id="defs1" />
  <sodipodi:namedview
     id="namedview1"
     pagecolor="#ffffff"
     bordercolor="#000000"
     borderopacity="0.25"
     inkscape:showpageshadow="2"
     inkscape:pageopacity="0.0"
     inkscape:pagecheckerboard="0"
     inkscape:deskcolor="#d1d1d1"
     inkscape:zoom="4.4304659"
     inkscape:cx="116.46631"
     inkscape:cy="54.170375"
     inkscape:window-width="1890"
     inkscape:window-height="991"
     inkscape:window-x="15"
     inkscape:window-y="42"
     inkscape:window-maximized="0"
     inkscape:current-layer="svg1" />
  <path
     class="cls-24"
     d="m 40.721266,42.263845 a 1,1 0 0 1 -0.37,0.55 l -19.16,19.14 -0.16,0.13 q -5.59,-5.6 -11.2000001,-11.18 c -0.24,-0.25 -0.22,-0.4 0,-0.61 a 5.4,5.4 0 0 0 0.4200001,-0.41 l 18.9,-18.92 a 3.14,3.14 0 0 1 0.73,-0.93 l 9.64,-9.63 c 0.1,-0.1 0.2,-0.2 0.31,-0.29 0.11,-0.09 0.43,-0.48 0.71,-0.36 0.28,0.12 0.14,0.51 0.15,0.77 0.03,7.25 0.01,14.53 0.03,21.74 z"
     id="path601"
     style="fill:#1e1e1c" />
  <path
     class="cls-24"
     d="m 40.721266,42.263845 c 0,-0.31 -0.06,-0.61 -0.06,-0.92 v -20.65 a 1.79,1.79 0 0 0 -0.08,-0.91 1.88,1.88 0 0 0 -0.71,0.59 l -10.07,10 c -0.19,0.19 -0.34,0.45 -0.63,0.54 -0.22,-0.25 -0.44,-0.51 -0.67,-0.75 q -9.16,-9.11 -18.38,-18.24 c -0.5400001,-0.54 -0.5000001,-0.79 0,-1.3 q 5.19,-5.1200003 10.3,-10.29000025 c 0.46,-0.46 0.69,-0.43 1.13,0 q 9.33,9.35999995 18.68,18.67000025 a 1.51,1.51 0 0 1 0.5,1.18 q 0,10.88 0,21.75 a 1.77,1.77 0 0 1 -0.01,0.33 z"
     id="path602"
     style="fill:#1e1e1c" />
  <path
     class="cls-24"
     d="m 126.74127,13.993845 c 0,-4.0000003 0,-8.0000003 0,-12.0000003 0,-0.57 0.13,-0.77 0.74,-0.77 q 8.17,0 16.36,0 c 0.53,0 0.75,0.12 0.72,0.7 0,1.1 0,2.2 0,3.3 0,0.63 -0.22,0.73 -0.78,0.73 -3.59,0 -7.18,0 -10.77,0 -0.71,0 -0.91,0.2 -0.88,0.9 q 0.08,1.86 0,3.7200003 c 0,0.72 0.13,0.95 0.91,0.94 3.44,0 6.89,0 10.33,0 0.78,0 1,0.23 0.92,1 a 22.49,22.49 0 0 0 0,3 c 0.05,0.74 -0.23,0.87 -0.91,0.87 -3.47,0 -6.95,0 -10.42,0 -0.68,0 -0.85,0.19 -0.83,0.84 q 0.08,2.16 0,4.32 c 0,0.63 0.15,0.8 0.79,0.8 3.59,0 7.17,0 10.76,0 0.71,0 0.92,0.18 0.88,0.89 -0.06,1.09 0,2.2 0,3.3 0,0.43 -0.1,0.58 -0.56,0.58 -5.57,0 -11.13,0 -16.7,0 -0.66,0 -0.54,-0.38 -0.54,-0.76 z"
     id="path603"
     style="fill:#1e1e1c" />
  <path
     class="cls-24"
     d="m 94.871266,44.183845 c 0,-3.16 0,-5.76 0,-8.35 0,-0.59 0.16,-0.78 0.75,-0.76 1.33,0 2.66,0.05 4,0 0.630004,0 0.740004,0.22 0.740004,0.78 0,4.77 0,9.54 0,14.31 a 8.43,8.43 0 0 0 0.23,2 c 0.7,3 3.32,4.59 6.54,4.1 3.22,-0.49 4.82,-2.54 4.84,-6.35 0,-4.6 0,-9.2 0,-13.8 0,-0.9 0.26,-1.1 1.09,-1.05 1.24,0.06 2.48,0 3.73,0 0.42,0 0.68,0.05 0.67,0.58 -0.06,5.33 0.17,10.67 -0.11,16 -0.28,5.33 -3.34,8.54 -8.55,9.35 a 15.61,15.61 0 0 1 -7.12,-0.45 9,9 0 0 1 -6.570004,-7.9 c -0.48,-2.98 -0.13,-6.01 -0.24,-8.46 z"
     id="path604"
     style="fill:#1e1e1c" />
  <path
     class="cls-24"
     d="m 122.30127,47.903845 c 0,-4 0,-8 0,-12 0,-0.61 0.14,-0.81 0.79,-0.81 5.42,0 10.85,0 16.27,0 0.59,0 0.78,0.18 0.76,0.77 q -0.06,1.61 0,3.21 c 0,0.62 -0.21,0.76 -0.78,0.75 -3.58,0 -7.17,0 -10.76,0 -0.75,0 -1,0.2 -0.94,0.95 0.06,1.26 0.05,2.54 0,3.81 0,0.62 0.15,0.81 0.79,0.8 3.5,0 7,0 10.51,0 0.69,0 0.94,0.15 0.89,0.87 a 22.49,22.49 0 0 0 0,3 c 0,0.72 -0.13,1 -0.91,0.95 -3.47,0 -7,0 -10.42,0 -0.64,0 -0.9,0.12 -0.87,0.82 q 0.09,2.16 0,4.32 c 0,0.7 0.24,0.82 0.87,0.82 3.58,0 7.17,0 10.76,0 0.64,0 0.9,0.12 0.86,0.82 -0.07,1.1 0,2.2 0,3.3 0,0.46 -0.11,0.64 -0.61,0.64 -5.53,0 -11.07,0 -16.6,0 -0.62,0 -0.6,-0.3 -0.6,-0.73 0,-4.22 -0.01,-8.25 -0.01,-12.29 z"
     id="path605"
     style="fill:#1e1e1c" />
  <path
     class="cls-24"
     d="m 183.62127,47.863845 c 0,-4 0,-8 0,-11.94 0,-0.67 0.19,-0.85 0.86,-0.85 5.4,0 10.79,0 16.19,0 0.61,0 0.86,0.13 0.82,0.79 -0.05,1 -0.05,2.09 0,3.13 0,0.64 -0.17,0.82 -0.8,0.82 -3.59,0 -7.18,0 -10.77,0 -0.72,0 -1,0.15 -0.95,0.93 a 30.77,30.77 0 0 1 0,3.72 c 0,0.8 0.26,0.92 1,0.91 3.47,0 7,0 10.42,0 0.66,0 0.88,0.16 0.84,0.83 a 25.86,25.86 0 0 0 0,3 c 0,0.69 -0.14,0.9 -0.86,0.89 -3.51,0 -7,0 -10.51,0 -0.68,0 -0.86,0.18 -0.84,0.84 0,1.47 0,2.94 0,4.41 0,0.55 0.16,0.71 0.72,0.71 3.64,0 7.29,0 10.93,0 0.71,0 0.91,0.19 0.87,0.89 -0.06,1.07 0,2.15 0,3.22 0,0.53 -0.17,0.65 -0.68,0.65 -5.48,0 -11,0 -16.44,0 -0.61,0 -0.75,-0.2 -0.74,-0.77 -0.05,-4.11 -0.06,-8.14 -0.06,-12.18 z"
     id="path606"
     style="fill:#1e1e1c" />
  <path
     class="cls-24"
     d="m 249.38127,47.953845 c 0,-4 0,-8 0,-12 0,-0.66 0.17,-0.86 0.85,-0.86 q 8.08,0 16.18,0 c 0.68,0 0.87,0.21 0.84,0.86 a 22.49,22.49 0 0 0 0,3 c 0.06,0.8 -0.26,0.92 -1,0.92 -3.53,0 -7.06,0 -10.59,0 -0.76,0 -1,0.22 -0.93,0.95 0.06,1.3 0,2.6 0,3.9 0,0.55 0.16,0.71 0.72,0.71 3.53,0 7.06,0 10.58,0 0.7,0 0.94,0.16 0.89,0.87 a 27.24,27.24 0 0 0 0,3.13 c 0,0.69 -0.24,0.77 -0.83,0.77 -3.5,0 -7,0 -10.5,0 -0.63,0 -0.89,0.12 -0.86,0.82 q 0.08,2.16 0,4.32 c 0,0.7 0.23,0.82 0.86,0.82 3.59,0 7.17,0 10.76,0 0.63,0 0.9,0.12 0.86,0.82 a 27.24,27.24 0 0 0 0,3.13 c 0,0.6 -0.11,0.82 -0.78,0.82 q -8.13,0 -16.26,0 c -0.7,0 -0.83,-0.23 -0.83,-0.86 0.06,-4.17 0.04,-8.15 0.04,-12.12 z"
     id="path607"
     style="fill:#1e1e1c" />
  <path
     class="cls-24"
     d="m 102.39127,0.77384475 c 4.61,0 8.11,1.83999995 10.51,5.65999995 0.32,0.51 0.28,0.73 -0.28,1 -1.18,0.54 -2.33,1.14 -3.49,1.73 -0.29,0.15 -0.48,0.27 -0.74,-0.13 a 6.64,6.64 0 0 0 -6.84,-3.27 7.22,7.22 0 0 0 -6.080004,5.0000003 8.88,8.88 0 0 0 3.06,10.55 7,7 0 0 0 9.790004,-2.07 c 0.26,-0.39 0.43,-0.47 0.85,-0.25 1.17,0.62 2.36,1.21 3.56,1.76 0.46,0.22 0.48,0.42 0.23,0.82 a 11.58,11.58 0 0 1 -11.54,5.72 c -5.110004,-0.43 -9.000004,-2.88 -11.000004,-7.66 -2.93,-6.92 -0.2,-15.6900003 7.93,-18.2000003 a 14.82,14.82 0 0 1 4.040004,-0.65999995 z"
     id="path608"
     style="fill:#1e1e1c" />
  <path
     class="cls-24"
     d="m 1.3512659,19.563845 0.33,0.32 q 5.34,5.32 10.6700001,10.65 c 0.31,0.3 0.35,0.47 0,0.8 q -5.3500001,5.31 -10.6600001,10.65 c -0.32,0.32 -0.49,0.32 -0.80000001,0 q -5.32999999,-5.34 -10.66999999,-10.66 c -0.2899999,-0.28 -0.2999999,-0.43 0,-0.72 l 10.73999999,-10.71 a 4.29,4.29 0 0 1 0.39000001,-0.33 z"
     id="path609"
     style="fill:#1e1e1c" />
  <path
     class="cls-24"
     d="m 216.76127,50.413845 c 0,3.18 0,6.37 0,9.56 0,0.57 -0.12,0.79 -0.74,0.77 -1.33,-0.05 -2.66,-0.05 -4,0 -0.63,0 -0.73,-0.22 -0.73,-0.78 0,-6.35 0,-12.7 0,-19 0,-0.82 -0.2,-1 -1,-1 -1.86,0.06 -3.73,0 -5.59,0 -0.52,0 -0.76,-0.08 -0.74,-0.68 0.05,-1.19 0,-2.37 0,-3.56 0,-0.49 0.16,-0.62 0.63,-0.61 q 9.41,0 18.81,0 c 0.55,0 0.65,0.24 0.64,0.71 0,1.16 0,2.32 0,3.47 0,0.52 -0.15,0.69 -0.67,0.68 -2,0 -3.95,0 -5.93,0 -0.6,0 -0.75,0.19 -0.75,0.77 0.09,3.18 0.07,6.42 0.07,9.67 z"
     id="path610"
     style="fill:#1e1e1c" />
  <path
     class="cls-24"
     d="m 233.28127,50.303845 c 0,-3.13 0,-6.27 0,-9.4 0,-0.74 -0.14,-1 -1,-1 -1.89,0.06 -3.78,0 -5.67,0 -0.61,0 -0.78,-0.18 -0.75,-0.76 0,-1.13 0,-2.26 0,-3.39 0,-0.48 0.1,-0.71 0.65,-0.71 q 9.4,0 18.81,0 c 0.52,0 0.69,0.16 0.67,0.67 0,1.16 0,2.32 0,3.48 0,0.57 -0.18,0.71 -0.73,0.7 -1.92,0 -3.84,0 -5.76,0 -0.7,0 -0.91,0.18 -0.9,0.89 0,6.32 0,12.65 0,19 0,0.75 -0.16,1 -1,1 a 32.52,32.52 0 0 0 -3.56,0 c -0.69,0 -0.92,-0.14 -0.91,-0.87 0.18,-3.23 0.15,-6.42 0.15,-9.61 z"
     id="path611"
     style="fill:#1e1e1c" />
  <path
     class="cls-24"
     d="m 144.22127,47.943845 c 0,-4 0,-8 0,-12 0,-0.67 0.19,-0.88 0.86,-0.85 1.24,0.05 2.49,0.05 3.73,0 0.66,0 0.84,0.17 0.84,0.84 0,6 0,12 0,17.95 0,2.05 0,2.05 2.05,2.05 2.6,0 5.2,0 7.79,0 0.62,0 0.86,0.14 0.82,0.8 q -0.07,1.65 0,3.3 c 0,0.62 -0.2,0.74 -0.77,0.73 q -7.29,0 -14.57,0 c -0.63,0 -0.73,-0.22 -0.73,-0.78 -0.01,-4.03 -0.02,-8.03 -0.02,-12.04 z"
     id="path612"
     style="fill:#1e1e1c" />
  <path
     class="cls-24"
     d="m 163.96127,47.943845 c 0,-4 0,-8 0,-12 0,-0.67 0.19,-0.88 0.86,-0.85 q 1.86,0.08 3.72,0 c 0.66,0 0.8,0.2 0.8,0.81 q 0,9.48 0,19 c 0,1.07 0,1.07 1.11,1.07 2.91,0 5.82,0 8.73,0 0.64,0 0.83,0.18 0.8,0.81 0,1.13 0,2.26 0,3.39 0,0.46 -0.11,0.63 -0.61,0.63 -4.91,0 -9.83,0 -14.74,0 -0.67,0 -0.64,-0.33 -0.64,-0.78 q -0.02,-6.07 -0.03,-12.08 z"
     id="path613"
     style="fill:#1e1e1c" />
  <path
     class="cls-24"
     d="m 121.79127,14.053845 c 0,4 0,7.91 0,11.86 0,0.8 -0.24,1 -1,1 -1.26,-0.06 -2.54,0 -3.81,0 -0.47,0 -0.62,-0.12 -0.62,-0.61 q 0,-12.18 0,-24.3800003 c 0,-0.52 0.15,-0.68 0.66,-0.67 1.3,0 2.6,0.05 3.9,0 0.66,0 0.86,0.16 0.86,0.84 0,3.96 0.01,7.9600003 0.01,11.9600003 z"
     id="path614"
     style="fill:#1e1e1c" />
  <path
     class="cls-24"
     d="m 90.711266,44.313845 c -1.86,-7.42 -9,-11 -16.2,-9.23 -5.31,1.28 -8.8,5.27 -9.51,11 -1.2,9.65 6.3,16.52 15.58,14.85 6.48,-1.16 10.56,-6.27 10.56,-13.08 a 12.31,12.31 0 0 0 -0.43,-3.54 z m -8.59,10.81 a 7.44,7.44 0 0 1 -11.43,-4.92 9.61,9.61 0 0 1 1.21,-7.48 7.31,7.31 0 0 1 7.71,-3 7.43,7.43 0 0 1 5.79,5.94 9.6,9.6 0 0 1 0.21,2.27 c -0.06,2.93 -0.96,5.49 -3.49,7.19 z"
     id="path615"
     style="fill:#1e1e1c" />
  <path
     class="cls-24"
     d="m 168.52127,25.923845 c -1.58,-2.74 -3.16,-5.46 -4.73,-8.2 -0.12,-0.21 -0.6,-0.5 0.07,-0.74 a 7.17,7.17 0 0 0 5,-6.76 c 0.35,-4.6300003 -2.33,-8.5800003 -7.22,-8.9000003 -4.1,-0.26 -8.24,-0.08 -12.36,-0.11 -0.43,0 -0.61,0.14 -0.59,0.58 0,0.62 0,1.24 0,1.86 0,7.4200003 0,14.8400003 0,22.2600003 0,0.79 0.23,1 1,1 a 35,35 0 0 1 3.55,0 c 0.67,0 0.86,-0.17 0.85,-0.84 0,-2.51 0,-5 0,-7.53 0,-0.68 0.21,-0.88 0.86,-0.83 a 16.15,16.15 0 0 0 2.2,0 1.15,1.15 0 0 1 1.25,0.72 c 1.36,2.63 2.78,5.22 4.18,7.83 0.17,0.3 0.26,0.65 0.77,0.64 1.86,0 3.72,0 5.74,0 -0.28,-0.45 -0.41,-0.72 -0.57,-0.98 z m -8.55,-13 c -1.8,0.09 -3.61,0 -5.42,0 -0.43,0 -0.51,-0.18 -0.51,-0.56 0,-1 0,-2 0,-3.0000003 0,-1 0,-1.91 0,-2.87 0,-0.48 0.16,-0.64 0.63,-0.63 1.72,0 3.45,0 5.17,0 a 3.5006035,3.5006035 0 0 1 0.13,7.0000003 z"
     id="path616"
     style="fill:#1e1e1c" />
  <path
     class="cls-24"
     d="m 89.331266,26.313845 q -4.62,-12.26 -9.21,-24.5000003 a 0.82,0.82 0 0 0 -0.94,-0.61 c -1.72,0 -3.44,0.05 -5.16,0 a 1.05,1.05 0 0 0 -1.21,0.83 c -2.94,7.83 -5.92,15.6400003 -8.88,23.4600003 a 3.8,3.8 0 0 0 -0.42,1.36 c 1.81,0 3.56,0 5.31,0 a 0.64,0.64 0 0 0 0.71,-0.53 c 0.36,-1.1 0.79,-2.17 1.16,-3.27 a 0.74,0.74 0 0 1 0.82,-0.63 q 5,0 10,0 a 0.74,0.74 0 0 1 0.83,0.62 c 0.37,1.09 0.78,2.17 1.16,3.26 0.11,0.31 0.2,0.55 0.62,0.55 1.77,0 3.55,0 5.29,0 a 0.59,0.59 0 0 0 -0.08,-0.54 z m -9.39,-8.62 c -2.34,0 -4.68,0 -7,0 -0.31,0 -0.58,0 -0.42,-0.44 l 4,-11.2000003 c 1.07,3 2.09,5.9000003 3.1,8.7700003 0.26,0.74 0.5,1.49 0.78,2.23 0.14,0.45 0.1,0.64 -0.46,0.64 z"
     id="path617"
     style="fill:#1e1e1c" />
</svg>
