<?xml version="1.0" encoding="UTF-8" standalone="no"?>
<svg
   class="img-fluid"
   id="outputsvg"
   style="transform: matrix(0.6591, 0, 0, 0.6591, -28, 78); transform-origin: 50% 50% 0px; cursor: move; max-height: none; transition: transform 200ms ease-in-out 0s;"
   width="388"
   height="109"
   viewBox="0 0 3880 1090"
   version="1.1"
   sodipodi:docname="alva.svg"
   inkscape:version="1.2.2 (b0a8486541, 2022-12-01)"
   xmlns:inkscape="http://www.inkscape.org/namespaces/inkscape"
   xmlns:sodipodi="http://sodipodi.sourceforge.net/DTD/sodipodi-0.dtd"
   xmlns="http://www.w3.org/2000/svg"
   xmlns:svg="http://www.w3.org/2000/svg">
  <defs
     id="defs40" />
  <sodipodi:namedview
     id="namedview38"
     pagecolor="#ffffff"
     bordercolor="#000000"
     borderopacity="0.25"
     inkscape:showpageshadow="2"
     inkscape:pageopacity="0.0"
     inkscape:pagecheckerboard="0"
     inkscape:deskcolor="#d1d1d1"
     showgrid="false"
     inkscape:zoom="4.7711484"
     inkscape:cx="284.10351"
     inkscape:cy="41.080257"
     inkscape:window-width="1890"
     inkscape:window-height="991"
     inkscape:window-x="1095"
     inkscape:window-y="882"
     inkscape:window-maximized="0"
     inkscape:current-layer="g34" />
  <g
     id="l15Qw9yNuS5JCdAqX1SoWG2"
     fill="rgb(255,83,61)"
     style="transform: none;">
    <g
       id="g34"
       style="transform: none;">
      <path
         id="path2656"
         style="fill:#000000;fill-opacity:1;stroke:none;stroke-width:80;stroke-linecap:square;stroke-dasharray:none;stroke-opacity:1;stop-color:#000000"
         d="M 2047.5977,281.36719 1640,704.00391 1725.2344,702.59766 1814.0039,620 2116.0489,623.52167 2132.8551,710 h 78.473 l -87.6367,-427.83203 z m 19.718,78.32333 L 2102.08,545 1888.0078,540 Z"
         sodipodi:nodetypes="ccccccccccccc" />
      <path
         id="pg8Ik9WPK"
         d="M 2359.8109,708.19128 2515,285 2609.2411,285.99728 2481.1344,635.60319 2800,639 l -22,71 z"
         sodipodi:nodetypes="ccccccc"
         style="fill:#000000;fill-opacity:1" />
      <path
         id="pVEGVCjuf"
         d="m 2890.4466,281.52379 96.8658,-0.1566 59.8381,308.78099 L 3354.58,279 h 122.3799 L 3061.0575,711 2975,710 Z"
         sodipodi:nodetypes="cccccccc"
         style="fill:#000000;fill-opacity:1" />
      <path
         style="fill:none;fill-opacity:1;stroke:#000000;stroke-width:80;stroke-linecap:square;stop-color:#000000;stroke-dasharray:none"
         d="M 55,1090 C 341.95588,533.28717 750.36969,329.74785 869.49052,282.83568 988.61135,235.92351 1152.5002,242.78646 1200.1122,286.9061 1306.1667,385.18168 1247.2912,579.16081 1034,1090"
         id="path1111"
         sodipodi:nodetypes="czsc" />
      <path
         style="fill:none;fill-opacity:1;stroke:#000000;stroke-width:80;stroke-linecap:square;stop-color:#000000;stroke-dasharray:none"
         d="M 1649.4412,-6.0764634 C 1362.4853,550.63637 954.07144,754.17569 834.95064,801.08786 c -119.1209,46.91217 -283.0097,40.04922 -330.6217,-4.07042 -106.0545,-98.27558 -47.179,-292.25471 166.1122,-803.0939034"
         id="path1841"
         sodipodi:nodetypes="czsc" />
      <path
         id="path1263"
         style="fill:#000000;fill-opacity:1;stroke:none;stroke-width:80;stroke-linecap:square;stroke-dasharray:none;stroke-opacity:1;stop-color:#000000"
         d="m 3702.9805,288.06641 -407.5976,422.63671 85.2343,-1.40625 88.7695,-82.59766 302.045,3.52167 16.8062,86.47833 h 78.473 l -87.6367,-427.83202 z m 19.7179,78.32332 34.7644,185.30948 -214.0722,-5 z"
         sodipodi:nodetypes="ccccccccccccc" />
    </g>
  </g>
</svg>
