<?xml version="1.0" encoding="UTF-8" standalone="no"?>
<svg
   version="1.1"
   viewBox="-10 0 143.06 148.69"
   id="svg1"
   sodipodi:docname="ast.svg"
   width="143.06"
   height="148.69"
   inkscape:version="1.4.2 (ebf0e940d0, 2025-05-08)"
   xmlns:inkscape="http://www.inkscape.org/namespaces/inkscape"
   xmlns:sodipodi="http://sodipodi.sourceforge.net/DTD/sodipodi-0.dtd"
   xmlns="http://www.w3.org/2000/svg"
   xmlns:svg="http://www.w3.org/2000/svg">
  <defs
     id="defs1" />
  <sodipodi:namedview
     id="namedview1"
     pagecolor="#ffffff"
     bordercolor="#000000"
     borderopacity="0.25"
     inkscape:showpageshadow="2"
     inkscape:pageopacity="0.0"
     inkscape:pagecheckerboard="0"
     inkscape:deskcolor="#d1d1d1"
     inkscape:zoom="2.215233"
     inkscape:cx="68.615808"
     inkscape:cy="94.798156"
     inkscape:window-width="1890"
     inkscape:window-height="991"
     inkscape:window-x="15"
     inkscape:window-y="42"
     inkscape:window-maximized="0"
     inkscape:current-layer="svg1" />
  <polygon
     class="cls-6"
     points="102.23,67.92 101.84,67.41 "
     id="polygon166"
     style="fill:#1d1d1b"
     transform="translate(-10)" />
  <path
     class="cls-6"
     d="M 11.37,66.54 V 83.68 A 123.67,123.67 0 0 0 -9.72,99.88 L -1.64,87.02 Z"
     id="path167"
     style="fill:#1d1d1b" />
  <path
     class="cls-6"
     d="M 13.55,82.38 V 63.1 H 29 v -4.5 h 15.51 v 4.27 h 8.22 v 5 A 130.87,130.87 0 0 0 13.55,82.38 Z"
     id="path168"
     style="fill:#1d1d1b" />
  <polygon
     class="cls-6"
     points="72.04,11.05 69.17,25.5 63.69,18.37 39.83,56.45 36.84,56.45 36.84,60.98 24.89,60.98 63.69,0 "
     id="polygon168"
     style="fill:#1d1d1b"
     transform="translate(-10)" />
  <path
     class="cls-6"
     d="m 111.54,78.67 c -5.45,-3.17 -13.68,-6 -21.09,-7.43 A 102,102 0 0 0 72.32,69.67 112.1,112.1 0 0 0 56.76,70.89 l -0.69,0.1 a 123.22,123.22 0 0 0 -65.82,32.59 l -0.25,0.4 c 0.93,-0.6 31.3,-19.87 74.61,-22 43.31,-2.13 68.45,26.26 68.45,26.26 z"
     id="path169"
     style="fill:#1d1d1b" />
  <path
     class="cls-6"
     d="m 79.45,45.36 -1.87,4.12 h -3 v 8 h -3.76 v 8.51 a 107.81,107.81 0 0 0 -11,0.79 v 0 0 -9.28 h -3.76 v -8 h -3 l -1.8,-4.12 h 9.3 v -2.3 H 58 l 7.37,-37.55 7.39,37.55 h -2.63 v 2.3 z"
     id="path170"
     style="fill:#1d1d1b" />
  <path
     class="cls-6"
     d="M 109.93,74.51 A 61,61 0 0 0 92.24,67.93 v 0 l -0.39,-0.5 -3.77,-4.93 v 0 l -8.67,-11.24 3.73,-8.19 h -8.17 l -4,-20.2 36.42,48.28 z"
     id="path171"
     style="fill:#1d1d1b" />
  <polygon
     class="cls-6"
     points="78.18,103.56 85.01,102.3 85.12,102.28 85.12,100.47 78.28,101.73 78.18,101.75 "
     id="polygon171"
     style="fill:#1d1d1b"
     transform="translate(-10)" />
  <path
     class="cls-6"
     d="m 7.43,104.67 h -1.1 l -7.11,17.55 v 0.45 h 2.27 l 1.66,-4.32 h 7.41 l 1.6,4.24 v 0.08 h 2.29 v -0.4 l -7,-17.52 z m 2.33,11.62 H 3.93 l 2.93,-7.6 z"
     id="path172"
     style="fill:#1d1d1b" />
  <path
     class="cls-6"
     d="m 28.52,116.96 c -0.77,2.55 -2.34,3.78 -4.81,3.78 -3.3,0 -5.52,-2.79 -5.52,-6.94 0,-4.15 2.17,-6.95 5.52,-6.95 a 4.56,4.56 0 0 1 4.75,3.46 v 0.09 h 2.24 v -0.16 a 6.81,6.81 0 0 0 -6.99,-5.57 c -4.74,0 -7.8,3.58 -7.8,9.13 0,5.55 3.13,9.12 7.8,9.12 a 7,7 0 0 0 7,-5.9 v -0.15 h -2.2 z"
     id="path173"
     style="fill:#1d1d1b" />
  <path
     class="cls-6"
     d="m 40.37,104.67 h -1.1 l -7.12,17.55 v 0.45 h 2.26 l 1.66,-4.32 h 7.41 l 1.61,4.24 v 0.08 h 2.29 v -0.4 l -7,-17.52 z m 2.33,11.62 h -5.84 l 2.93,-7.6 z"
     id="path174"
     style="fill:#1d1d1b" />
  <path
     class="cls-6"
     d="m 55.8,104.92 h -5.55 v 17.75 h 5.55 c 4.51,0 7.54,-3.57 7.54,-8.9 0,-5.33 -3.03,-8.85 -7.54,-8.85 z m -3.27,2.18 h 3.24 c 3.16,0 5.29,2.68 5.29,6.67 0,3.99 -2.13,6.72 -5.31,6.72 h -3.22 z"
     id="path175"
     style="fill:#1d1d1b" />
  <polygon
     class="cls-6"
     points="76.92,122.67 86.36,122.67 86.36,120.49 79.2,120.49 79.2,114.55 85.87,114.55 85.87,112.47 79.2,112.47 79.2,107 86.15,107 86.15,104.92 76.92,104.92 "
     id="polygon175"
     style="fill:#1d1d1b"
     transform="translate(-10)" />
  <polygon
     class="cls-6"
     points="97.55,117.75 102.05,110.72 102.05,122.67 104.33,122.67 104.33,104.67 103.36,104.67 97.22,114.5 91.07,104.73 91.03,104.67 90.06,104.67 90.06,122.67 92.34,122.67 92.34,110.72 96.84,117.75 "
     id="polygon176"
     style="fill:#1d1d1b"
     transform="translate(-10)" />
  <polygon
     class="cls-6"
     points="107.6,122.67 114.99,122.67 114.99,120.74 112.44,120.74 112.44,106.85 114.81,106.85 114.81,104.92 107.78,104.92 107.78,106.85 110.16,106.85 110.16,120.74 107.6,120.74 "
     id="polygon177"
     style="fill:#1d1d1b"
     transform="translate(-10)" />
  <polygon
     class="cls-6"
     points="118.29,104.92 118.29,122.67 127.73,122.67 127.73,120.49 120.57,120.49 120.57,114.55 127.24,114.55 127.24,112.47 120.57,112.47 120.57,107 127.52,107 127.52,104.92 "
     id="polygon178"
     style="fill:#1d1d1b"
     transform="translate(-10)" />
  <path
     class="cls-6"
     d="m -4.41,143.51 c 0.07,1.9 1.77,2.59 3.27,2.59 1.5,0 3.14,-0.38 3.14,-2.43 0,-2.05 -1.92,-2.46 -3.49,-2.65 -2.66,-0.26 -5.32,-1.42 -5.32,-4.76 0,-3.34 2.63,-4.94 5.51,-4.94 2.88,0 5.51,1.45 5.51,4.89 H 1.69 c -0.12,-1.81 -1.53,-2.38 -3,-2.38 -1.47,0 -2.85,0.43 -2.85,2.35 0,1.92 1.48,2.17 3.12,2.43 3,0.39 5.74,1.21 5.74,5.08 0,3.87 -3,5 -5.83,5 -2.83,0 -5.87,-1.62 -5.87,-5.18 z"
     id="path178"
     style="fill:#1d1d1b" />
  <path
     class="cls-6"
     d="m 16.75,131.52 v 2.51 h -4.09 v 14.34 H 10 V 134.03 H 5.9 v -2.51 z"
     id="path179"
     style="fill:#1d1d1b" />
  <path
     class="cls-6"
     d="m 21.47,138.43 h 6 v 2.38 h -6 v 5.05 H 28 v 2.51 h -9.11 v -16.85 h 8.93 v 2.36 h -6.35 z"
     id="path180"
     style="fill:#1d1d1b" />
  <path
     class="cls-6"
     d="m 37.39,141.48 h -7.16 v -2.28 h 7.16 z"
     id="path181"
     style="fill:#1d1d1b" />
  <path
     class="cls-6"
     d="m 48.91,131.52 v 2.51 h -4.09 v 14.34 h -2.65 v -14.34 h -4.11 v -2.51 z"
     id="path182"
     style="fill:#1d1d1b" />
  <path
     class="cls-6"
     d="m 53.75,140.86 v 7.51 h -2.7 v -16.85 h 2.7 v 6.77 H 60 v -6.77 h 2.71 v 16.85 H 60 v -7.51 z"
     id="path183"
     style="fill:#1d1d1b" />
  <path
     class="cls-6"
     d="m 68.86,138.43 h 6 v 2.38 h -6 v 5.05 h 6.5 v 2.51 h -9.08 v -16.85 h 8.93 v 2.36 h -6.35 z"
     id="path184"
     style="fill:#1d1d1b" />
  <path
     class="cls-6"
     d="M 87.34,148.37 84,142.52 h -3 v 5.85 h -2.76 v -16.85 h 6 c 3.25,0 5.22,2.48 5.22,5.49 a 5.16,5.16 0 0 1 -2.91,5 l 3.57,6 v 0.41 z m -3.08,-8.23 c 1.48,0 2.61,-1.28 2.61,-3.11 a 2.8,2.8 0 0 0 -2.61,-3.08 H 81 v 6.19 z"
     id="path185"
     style="fill:#1d1d1b" />
  <path
     class="cls-6"
     d="m 95.14,138.43 h 6 v 2.38 h -6 v 5.05 h 6.5 v 2.51 h -9.08 v -16.85 h 8.93 v 2.36 h -6.35 z"
     id="path186"
     style="fill:#1d1d1b" />
  <path
     class="cls-6"
     d="m 106.14,143.51 c 0.07,1.9 1.77,2.59 3.27,2.59 1.5,0 3.15,-0.38 3.15,-2.47 0,-2.09 -1.92,-2.46 -3.49,-2.65 -2.66,-0.26 -5.32,-1.42 -5.32,-4.76 0,-3.34 2.63,-4.94 5.51,-4.94 2.88,0 5.51,1.45 5.51,4.89 h -2.53 c -0.12,-1.81 -1.52,-2.38 -3,-2.38 -1.3,0 -2.85,0.43 -2.85,2.35 0,1.92 1.47,2.17 3.12,2.43 3,0.39 5.74,1.21 5.74,5.08 0,3.87 -3,5 -5.83,5 -2.83,0 -5.86,-1.54 -5.93,-5.1 z"
     id="path187"
     style="fill:#1d1d1b" />
  <path
     class="cls-6"
     d="m 120.46,138.43 h 6 v 2.38 h -6 v 5.05 H 127 v 2.51 h -9.07 v -16.85 h 8.93 v 2.36 h -6.35 z"
     id="path188"
     style="fill:#1d1d1b" />
  <path
     class="cls-6"
     d="m 74.07,127 v 1.67 l -6.64,1.23 v -1.69 z"
     id="path189"
     style="fill:#1d1d1b" />
  <path
     class="cls-6"
     d="m 100.35,128.24 v 1.69 l -6.64,-1.26 v -1.7 z"
     id="path190"
     style="fill:#1d1d1b" />
</svg>
