<?xml version="1.0" encoding="UTF-8" standalone="no"?>
<svg
   version="1.1"
   viewBox="-10 0 350.48252 63.912791"
   id="svg1"
   sodipodi:docname="geo-plus.svg"
   width="350.48251"
   height="63.912792"
   inkscape:version="1.4.2 (ebf0e940d0, 2025-05-08)"
   xmlns:inkscape="http://www.inkscape.org/namespaces/inkscape"
   xmlns:sodipodi="http://sodipodi.sourceforge.net/DTD/sodipodi-0.dtd"
   xmlns="http://www.w3.org/2000/svg"
   xmlns:svg="http://www.w3.org/2000/svg">
  <defs
     id="defs1">
    <clipPath
       id="clip-path-6"
       transform="translate(-21 -10.33)">
      <path
         class="cls-1"
         d="M 571.66,972.21 H 552.22 A 3.24,3.24 0 0 1 549,969 v -4.61 a 3.24,3.24 0 0 1 3.24,-3.23 h 19.44 z"
         id="path6" />
    </clipPath>
    <clipPath
       id="clip-path-18"
       transform="translate(-21 -10.33)">
      <path
         class="cls-2"
         d="m 633,931.59 h 9.51 a 3,3 0 0 1 3,2.95 v 0 55 a 3,3 0 0 1 -3,3 H 633 a 3,3 0 0 1 -3,-2.95 v -55 a 3,3 0 0 1 3,-3 z"
         id="path13" />
    </clipPath>
    <clipPath
       id="clip-path-15"
       transform="translate(-21 -10.33)">
      <rect
         class="cls-2"
         x="547.67999"
         y="950.46997"
         width="193.10001"
         height="22.059999"
         id="rect11" />
    </clipPath>
    <clipPath
       id="clip-path-20"
       transform="translate(-21 -10.33)">
      <rect
         class="cls-2"
         x="547.67999"
         y="962.04999"
         width="36.23"
         height="24.33"
         id="rect14" />
    </clipPath>
    <clipPath
       id="clip-path-17"
       transform="translate(-21 -10.33)">
      <rect
         class="cls-2"
         x="547.67999"
         y="943.87"
         width="69.690002"
         height="18.190001"
         id="rect13" />
    </clipPath>
  </defs>
  <sodipodi:namedview
     id="namedview1"
     pagecolor="#ffffff"
     bordercolor="#000000"
     borderopacity="0.25"
     inkscape:showpageshadow="2"
     inkscape:pageopacity="0.0"
     inkscape:pagecheckerboard="0"
     inkscape:deskcolor="#d1d1d1"
     inkscape:zoom="2.215233"
     inkscape:cx="227.51557"
     inkscape:cy="18.056792"
     inkscape:window-width="1890"
     inkscape:window-height="991"
     inkscape:window-x="15"
     inkscape:window-y="42"
     inkscape:window-maximized="0"
     inkscape:current-layer="svg1" />
  <path
     class="cls-2"
     d="m 44.1,53.210357 a 27.41,27.41 0 0 1 -9.7,6.47 q -6.27,2.69 -16.15,2.69 -12.33,0 -20,-6.87 -7.67,-6.87 -7.75,-17.79 v -12.57 q 0,-10.87 7.49,-17.7800005 7.49,-6.90999969 19.24,-6.85999969 12.69,0 19.17,5.13999999 6.48,5.1400002 6.25,14.0800002 l -0.09,0.25 H 31.34 a 3.57,3.57 0 0 1 -3.48,-2.69 7,7 0 0 0 -2.34,-3.88 q -2.6,-2.15 -7.82,-2.15 a 10.84,10.84 0 0 0 -8.65,3.85 14.93,14.93 0 0 0 -3.27,10 v 12.65 q 0,6.28 3.23,10.11 3.23,3.83 9.17,3.82 a 28.2,28.2 0 0 0 6.67,-0.62 11.21,11.21 0 0 0 3.84,-1.61 v -10.83 c 0,0 -4.55,0.08 -7,-1.16 a 8.66,8.66 0 0 1 -4.75,-8.08 c 0,0 4.53,-0.36 14.36,-0.36 9.83,0 12.79,0.33 12.79,0.33 z"
     id="path641"
     style="fill:#010101" />
  <path
     class="cls-28"
     d="m 44.1,53.210357 a 27.41,27.41 0 0 1 -9.7,6.47 q -6.27,2.69 -16.15,2.69 -12.33,0 -20,-6.87 -7.67,-6.87 -7.75,-17.79 v -12.57 q 0,-10.87 7.49,-17.7800005 7.49,-6.90999969 19.24,-6.85999969 12.69,0 19.17,5.13999999 6.48,5.1400002 6.25,14.0800002 l -0.09,0.25 H 31.34 a 3.57,3.57 0 0 1 -3.48,-2.69 7,7 0 0 0 -2.34,-3.88 q -2.6,-2.15 -7.82,-2.15 a 10.84,10.84 0 0 0 -8.65,3.85 14.93,14.93 0 0 0 -3.27,10 v 12.65 q 0,6.28 3.23,10.11 3.23,3.83 9.17,3.82 a 28.2,28.2 0 0 0 6.67,-0.62 11.21,11.21 0 0 0 3.84,-1.61 v -10.83 c 0,0 -4.55,0.08 -7,-1.16 a 8.66,8.66 0 0 1 -4.75,-8.08 c 0,0 4.53,-0.36 14.36,-0.36 9.83,0 12.79,0.33 12.79,0.33 z"
     id="path642"
     style="fill:none;stroke:#000000;stroke-miterlimit:10" />
  <path
     class="cls-2"
     d="m 72,62.400357 q -11.21,0 -17.54,-6.17 a 20.71,20.71 0 0 1 -6.32,-15.58 v -1.62 q 0,-10.24 6,-16.7 6,-6.46 17.31,-6.41 10,0 15.44,5.41 5.44,5.41 5.49,14.85 v 7.39 c 0,0 -5.09,0.52 -14.42,0.52 a 135.42,135.42 0 0 1 -13.81,-0.52 l -0.09,0.25 a 8.35,8.35 0 0 0 2.83,5.68 c 1.67,1.46 4,2.17 7.19,2.17 a 32.31,32.31 0 0 0 7.34,-0.66 c 7,-1.69 10.4,6.42 10.4,6.42 a 29.82,29.82 0 0 1 -8.55,3.55 43.24,43.24 0 0 1 -11.32,1.45 m -0.58,-35.69 c -2.43,0 -4.28,0.71 -5.44,2.13 a 9.94,9.94 0 0 0 -2,5.77 l 0.09,0.21 a 37.09,37.09 0 0 0 6.77,0.34 c 5.35,0 6.51,-0.34 6.51,-0.34 v -1.08 a 8.71,8.71 0 0 0 -1.34,-5.25 c -0.89,-1.21 -2.43,-1.78 -4.57,-1.78"
     id="path643"
     style="fill:#010101" />
  <path
     class="cls-28"
     d="m 72,62.400357 q -11.21,0 -17.54,-6.17 a 20.71,20.71 0 0 1 -6.32,-15.58 v -1.62 q 0,-10.24 6,-16.7 6,-6.46 17.31,-6.41 10,0 15.44,5.41 5.44,5.41 5.49,14.85 v 7.39 c 0,0 -5.09,0.52 -14.42,0.52 a 135.42,135.42 0 0 1 -13.81,-0.52 l -0.09,0.25 a 8.35,8.35 0 0 0 2.83,5.68 c 1.67,1.46 4,2.17 7.19,2.17 a 32.31,32.31 0 0 0 7.34,-0.66 c 7,-1.69 10.4,6.42 10.4,6.42 a 29.82,29.82 0 0 1 -8.55,3.55 43.24,43.24 0 0 1 -11.32,1.45 m -0.58,-35.69 c -2.43,0 -4.28,0.71 -5.44,2.13 a 9.94,9.94 0 0 0 -2,5.77 l 0.09,0.21 a 37.09,37.09 0 0 0 6.77,0.34 c 5.35,0 6.51,-0.34 6.51,-0.34 v -1.08 a 8.71,8.71 0 0 0 -1.34,-5.25 c -0.89,-1.21 -2.43,-1.78 -4.57,-1.78"
     id="path644"
     style="fill:none;stroke:#000000;stroke-miterlimit:10" />
  <path
     class="cls-2"
     d="m 240.37,62.030357 h -9.48 a 3,3 0 0 1 -3,-2.95 v 0 -55.0000002 a 2.94,2.94 0 0 1 2.94,-2.95 h 9.53 a 3,3 0 0 1 2.95,2.94 v 0 55.0000002 a 3,3 0 0 1 -2.94,3 v 0"
     id="path645"
     style="fill:#010101" />
  <path
     class="cls-28"
     d="m 240.37,62.030357 h -9.48 a 3,3 0 0 1 -3,-2.95 v 0 -55.0000002 a 2.94,2.94 0 0 1 2.94,-2.95 h 9.53 a 3,3 0 0 1 2.95,2.94 v 0 55.0000002 a 3,3 0 0 1 -2.94,3 v 0"
     id="path646"
     style="fill:none;stroke:#000000;stroke-miterlimit:10" />
  <path
     class="cls-2"
     d="m 278.96,55.320357 a 15.36,15.36 0 0 1 -5.65,5.61 16.08,16.08 0 0 1 -8,2 q -7.67,0 -12,-4.85 -4.33,-4.85 -4.35,-15.12 v -21.73 a 4,4 0 0 1 4,-4 h 7.41 a 4,4 0 0 1 4,4 v 20.11 c 0,3.49 0.5,5.89 1.48,7.19 a 5.39,5.39 0 0 0 4.57,1.94 13.51,13.51 0 0 0 4.33,-0.62 8.47,8.47 0 0 0 3.18,-1.87 v -26.75 a 4,4 0 0 1 3.95,-4 h 7.47 a 4,4 0 0 1 4,4 v 35.78 a 5,5 0 0 1 -5,5 h -7.37 a 24.93,24.93 0 0 1 -1.09,-3.11 33.89,33.89 0 0 1 -0.77,-3.57"
     id="path647"
     style="fill:#010101" />
  <path
     class="cls-28"
     d="m 278.96,55.320357 a 15.36,15.36 0 0 1 -5.65,5.61 16.08,16.08 0 0 1 -8,2 q -7.67,0 -12,-4.85 -4.33,-4.85 -4.35,-15.12 v -21.73 a 4,4 0 0 1 4,-4 h 7.41 a 4,4 0 0 1 4,4 v 20.11 c 0,3.49 0.5,5.89 1.48,7.19 a 5.39,5.39 0 0 0 4.57,1.94 13.51,13.51 0 0 0 4.33,-0.62 8.47,8.47 0 0 0 3.18,-1.87 v -26.75 a 4,4 0 0 1 3.95,-4 h 7.47 a 4,4 0 0 1 4,4 v 35.78 a 5,5 0 0 1 -5,5 h -7.37 a 24.93,24.93 0 0 1 -1.09,-3.11 33.89,33.89 0 0 1 -0.77,-3.57"
     id="path648"
     style="fill:none;stroke:#000000;stroke-miterlimit:10" />
  <path
     class="cls-2"
     d="m 325.63,49.870357 a 3.62,3.62 0 0 0 -2,-3 q -2,-1.3 -7.27,-2.33 -8.34,-1.55 -12.59,-4.74 a 10.51,10.51 0 0 1 -4.24,-8.83 q 0,-5.91 5.3,-10 5.3,-4.09 14.32,-4.08 9.54,0 15.2,4 5.66,4 5.38,10.31 l -0.09,0.25 a 25.5,25.5 0 0 1 -6.9,0.81 34.5,34.5 0 0 1 -7.58,-0.81 5.37,5.37 0 0 0 -1.41,-4 c -1,-0.9 -2.49,-1.36 -4.64,-1.36 a 6.4,6.4 0 0 0 -3.94,1.2 3.68,3.68 0 0 0 -1.61,3.06 3.6,3.6 0 0 0 1.82,3 q 1.85,1.24 7.4,2.24 c 5.87,1.07 10.19,2.69 13,4.84 a 10.82,10.82 0 0 1 4.19,9.08 q 0,6 -5.72,10 -5.72,4 -15.12,3.9 -9.75,0 -15.43,-4.63 -5.68,-4.63 -5.41,-10.34 l 0.08,-0.24 c 2.29,-0.23 4.6,-0.35 6.9,-0.35 a 58.6,58.6 0 0 1 6.62,0.35 5.45,5.45 0 0 0 2,4.59 9.55,9.55 0 0 0 5.62,1.34 7.77,7.77 0 0 0 4.54,-1.1 3.58,3.58 0 0 0 1.55,-3.12"
     id="path649"
     style="fill:#010101" />
  <path
     class="cls-28"
     d="m 325.63,49.870357 a 3.62,3.62 0 0 0 -2,-3 q -2,-1.3 -7.27,-2.33 -8.34,-1.55 -12.59,-4.74 a 10.51,10.51 0 0 1 -4.24,-8.83 q 0,-5.91 5.3,-10 5.3,-4.09 14.32,-4.08 9.54,0 15.2,4 5.66,4 5.38,10.31 l -0.09,0.25 a 25.5,25.5 0 0 1 -6.9,0.81 34.5,34.5 0 0 1 -7.58,-0.81 5.37,5.37 0 0 0 -1.41,-4 c -1,-0.9 -2.49,-1.36 -4.64,-1.36 a 6.4,6.4 0 0 0 -3.94,1.2 3.68,3.68 0 0 0 -1.61,3.06 3.6,3.6 0 0 0 1.82,3 q 1.85,1.24 7.4,2.24 c 5.87,1.07 10.19,2.69 13,4.84 a 10.82,10.82 0 0 1 4.19,9.08 q 0,6 -5.72,10 -5.72,4 -15.12,3.9 -9.75,0 -15.43,-4.63 -5.68,-4.63 -5.41,-10.34 l 0.08,-0.24 c 2.29,-0.23 4.6,-0.35 6.9,-0.35 a 58.6,58.6 0 0 1 6.62,0.35 5.45,5.45 0 0 0 2,4.59 9.55,9.55 0 0 0 5.62,1.34 7.77,7.77 0 0 0 4.54,-1.1 3.58,3.58 0 0 0 1.55,-3.12"
     id="path650"
     style="fill:none;stroke:#000000;stroke-miterlimit:10" />
  <path
     class="cls-2"
     d="m 169.55,41.710357 h -19.44 a 3.24,3.24 0 0 1 -3.22,-3.21 v -4.61 a 3.24,3.24 0 0 1 3.24,-3.23 h 19.44 z"
     id="path651"
     style="fill:#010101" />
  <path
     class="cls-28"
     d="m 169.55,41.710357 h -19.44 a 3.24,3.24 0 0 1 -3.22,-3.21 v -4.61 a 3.24,3.24 0 0 1 3.24,-3.23 h 19.44 z"
     id="path652"
     style="fill:none;stroke:#000000;stroke-miterlimit:10" />
  <path
     class="cls-2"
     d="m 216.82,7.2703565 q -6.91,-5.4599997 -18.7,-5.4599997 h -22.14 a 3.15,3.15 0 0 0 -3.15,3.14 V 58.950357 a 3.16,3.16 0 0 0 3.15,3.15 h 9.09 a 3.16,3.16 0 0 0 3.14,-3.15 v -46.38 h 9.91 c 3.37,0 5.92,0.85 7.67,2.56 a 8.83,8.83 0 0 1 2.62,6.57 8.49,8.49 0 0 1 -2.65,6.47 c -1.76,1.67 -4.3,2.5 -7.64,2.5 h -6.58 v 10.71 h 6.58 q 11.78,0 18.7,-5.43 a 18.33,18.33 0 0 0 0,-28.6800005"
     id="path653"
     style="fill:#010101" />
  <path
     class="cls-28"
     d="m 216.82,7.2703565 q -6.91,-5.4599997 -18.7,-5.4599997 h -22.14 a 3.15,3.15 0 0 0 -3.15,3.14 V 58.950357 a 3.16,3.16 0 0 0 3.15,3.15 h 9.09 a 3.16,3.16 0 0 0 3.14,-3.15 v -46.38 h 9.91 c 3.37,0 5.92,0.85 7.67,2.56 a 8.83,8.83 0 0 1 2.62,6.57 8.49,8.49 0 0 1 -2.65,6.47 c -1.76,1.67 -4.3,2.5 -7.64,2.5 h -6.58 v 10.71 h 6.58 q 11.78,0 18.7,-5.43 a 18.33,18.33 0 0 0 0,-28.6800005"
     id="path654"
     style="fill:none;stroke:#000000;stroke-miterlimit:10" />
  <path
     class="cls-2"
     d="m 120.55,62.830357 a 23.43,23.43 0 1 1 23.43,-23.43 23.43,23.43 0 0 1 -23.43,23.43 m 0,-46.06 a 22.63,22.63 0 1 0 22.62,22.63 22.63,22.63 0 0 0 -22.62,-22.63"
     id="path655"
     style="fill:#010101" />
  <path
     class="cls-2"
     d="m 120.89,28.500357 c -3.23,0 -5.9,-2.06 -5.9,-4.59 0,-2.53 2.61,-4.55 5.9,-4.55 3.29,0 5.91,2.06 5.91,4.59 0,2.53 -2.72,4.55 -5.91,4.55 m 0,-8.33 c -2.8,0 -5.08,1.69 -5.08,3.77 0,2.08 2.28,3.77 5.08,3.77 2.8,0 5.08,-1.69 5.08,-3.77 0,-2.08 -2.31,-3.77 -5.08,-3.77"
     id="path656"
     style="fill:#010101" />
  <path
     class="cls-2"
     d="m 120.89,34.180357 c -6.32,0 -11.46,-3.83 -11.46,-8.54 0,-4.71 5.1,-8.54 11.46,-8.54 6.36,0 11.43,3.84 11.43,8.54 0,4.7 -5.14,8.54 -11.43,8.54 m 0,-16.27 c -5.86,0 -10.64,3.47 -10.64,7.73 0,4.26 4.78,7.72 10.64,7.72 5.86,0 10.64,-3.46 10.64,-7.72 0,-4.26 -4.77,-7.73 -10.64,-7.73"
     id="path657"
     style="fill:#010101" />
  <path
     class="cls-2"
     d="m 120.89,39.800357 c -8.89,0 -16.06,-5.35 -16.06,-11.92 0,-6.57 7.17,-11.93 16.06,-11.93 8.89,0 16,5.35 16,11.93 0,6.58 -7.22,11.92 -16,11.92 m 0,-23 c -8.4,0 -15.24,5 -15.24,11.11 0,6.11 6.81,11.1 15.24,11.1 8.43,0 15.25,-5 15.25,-11.1 0,-6.1 -6.88,-11.11 -15.25,-11.11"
     id="path658"
     style="fill:#010101" />
  <path
     class="cls-2"
     d="m 120.89,51.880357 c -12.12,0 -22,-8.08 -22,-18 a 15.14,15.14 0 0 1 1.15,-5.79 l 0.76,0.32 a 14.44,14.44 0 0 0 -1.1,5.47 c 0,9.45 9.5,17.14 21.17,17.14 11.67,0 21.17,-7.69 21.17,-17.14 a 15.1,15.1 0 0 0 -0.2,-2.42 l 0.81,-0.14 a 17.6,17.6 0 0 1 0.21,2.52 c 0,9.9 -9.87,18 -22,18"
     id="path659"
     style="fill:#010101" />
  <path
     class="cls-2"
     d="m 120.89,56.640357 c -12.38,0 -22.55,-7.95 -23.65,-18.5 l 0.8,-0.08 c 1.07,10.13 10.89,17.77 22.84,17.77 10.7,0 19.89,-6.19 22.33,-15.05 l 0.8,0.22 c -2.57,9.21 -12.08,15.64 -23.12,15.64"
     id="path660"
     style="fill:#010101" />
  <path
     class="cls-2"
     d="m 120.89,60.250357 c -12.34,0 -22.75,-9 -23.68,-20.45 l 0.81,-0.07 c 0.9,11 10.94,19.7 22.86,19.7 9.61,0 18.27,-5.65 21.55,-14 l 0.81,0.3 c -3.41,8.7 -12.38,14.54 -22.32,14.54"
     id="path661"
     style="fill:#010101" />
  <path
     class="cls-2"
     d="m 120.97,62.420357 h -0.81 c 0,-0.18 0.17,-17.58 0,-34.35 h 0.81 c 0.17,16.78 0,34.19 0,34.37"
     id="path662"
     style="fill:#010101" />
  <path
     class="cls-2"
     d="m 115.82,62.060357 c -1.42,-11.76 0,-18.58 3.61,-34.15 l 0.81,0.18 c -3.61,15.48 -5,22.25 -3.61,33.87 z"
     id="path663"
     style="fill:#010101" />
  <path
     class="cls-2"
     d="m 111.16,60.730357 c -1.89,-5.48 -1.44,-9.05 -0.56,-14.41 0.91,-5.59 4.22,-12.34 7.66,-18.79 l 0.72,0.39 c -3.4,6.39 -6.68,13.06 -7.57,18.53 -0.89,5.47 -1.3,8.71 0.52,14 z"
     id="path664"
     style="fill:#010101" />
  <path
     class="cls-2"
     d="m 106.1,57.760357 a 20.38,20.38 0 0 1 -0.24,-13.18 c 1.73,-5.88 5,-11.23 11,-17.88 l 0.61,0.55 c -5.86,6.56 -9.08,11.81 -10.78,17.57 a 19.51,19.51 0 0 0 0.2,12.68 z"
     id="path665"
     style="fill:#010101" />
  <path
     class="cls-2"
     d="m 102.12,53.830357 c -1.68,-5.34 -1.5,-8.54 0.81,-14.22 2.51,-6.1 10.56,-12.12 13,-13.83 l 0.47,0.67 c -2.36,1.67 -10.27,7.58 -12.69,13.47 -2.24,5.48 -2.42,8.54 -0.81,13.66 z"
     id="path666"
     style="fill:#010101" />
  <path
     class="cls-2"
     d="m 98.59,47.600357 a 16.1,16.1 0 0 1 4,-14.08 35.05,35.05 0 0 1 12.75,-8.75 l 0.32,0.76 a 34.17,34.17 0 0 0 -12.45,8.53 15.18,15.18 0 0 0 -3.89,13.36 z"
     id="path667"
     style="fill:#010101" />
  <path
     class="cls-2"
     d="m 97.94,39.170357 -0.81,-0.1 a 15.47,15.47 0 0 1 6.09,-10.39 c 4.46,-3.49 7.27,-4.12 11.44,-5.06 l 0.58,-0.14 0.18,0.81 -0.59,0.13 c -4.23,1 -6.78,1.53 -11.11,4.91 a 14.68,14.68 0 0 0 -5.77,9.84"
     id="path668"
     style="fill:#010101" />
  <path
     class="cls-2"
     d="m 98.94,32.700357 -0.76,-0.29 a 13.19,13.19 0 0 1 6.39,-7.64 c 3.86,-2.19 7.51,-2.31 10.91,-2.24 v 0.81 c -3.29,-0.07 -6.81,0 -10.5,2.13 a 12.5,12.5 0 0 0 -6,7.21"
     id="path669"
     style="fill:#010101" />
  <path
     class="cls-2"
     d="m 104.06,23.890357 -0.43,-0.69 c 3.48,-2.16 7.11,-2.68 12.51,-1.83 l -0.13,0.81 c -5.18,-0.81 -8.65,-0.32 -11.95,1.71"
     id="path670"
     style="fill:#010101" />
  <path
     class="cls-2"
     d="m 116.68,21.350357 c -2,-1 -3.74,-1.84 -8.36,-1 l -0.14,-0.81 c 4.88,-0.85 6.73,0.05 8.88,1.09 z"
     id="path671"
     style="fill:#010101" />
  <path
     class="cls-2"
     d="m 117.95,20.500357 -0.27,-0.24 c -1.36,-1.21 -2.1,-1.89 -5.16,-2.13 l 0.07,-0.81 c 3.33,0.26 4.25,1.09 5.65,2.34 l 0.28,0.24 z"
     id="path672"
     style="fill:#010101" />
  <path
     class="cls-2"
     d="m 119.24,19.950357 a 5.61,5.61 0 0 0 -2.09,-3.05 l 0.52,-0.63 a 6.37,6.37 0 0 1 2.37,3.37 z"
     id="path673"
     style="fill:#010101" />
  <path
     class="cls-2"
     d="m 120.89,45.920357 c -11,0 -19.94,-6.73 -19.94,-15 0,-8.27 8.91,-15 19.94,-15 h 0.41 v 3.75 h -0.8 v -2.93 c -10.35,0.17 -18.72,6.47 -18.72,14.16 0,7.69 8.54,14.16 19.11,14.16 10.57,0 19,-6.34 19,-14.13 a 10.87,10.87 0 0 0 -1.3,-5.14 l 0.72,-0.39 a 11.74,11.74 0 0 1 1.4,5.54 c 0,8.26 -8.94,15 -19.94,15"
     id="path674"
     style="fill:#010101" />
  <path
     class="cls-2"
     d="m 122.38,19.920357 -0.81,-0.24 a 8,8 0 0 1 1.87,-3.37 l 0.64,0.59 a 7.37,7.37 0 0 0 -1.68,3.06"
     id="path675"
     style="fill:#010101" />
  <path
     class="cls-2"
     d="m 123.7,20.500357 -0.58,-0.57 a 8.13,8.13 0 0 1 5.41,-2.59 l 0.08,0.8 a 7.35,7.35 0 0 0 -4.91,2.36"
     id="path676"
     style="fill:#010101" />
  <path
     class="cls-2"
     d="m 124.95,21.360357 -0.36,-0.75 a 10.85,10.85 0 0 1 9.12,-0.61 l -0.31,0.76 c -2.63,-1.08 -5.39,-0.88 -8.45,0.6"
     id="path677"
     style="fill:#010101" />
  <path
     class="cls-2"
     d="m 136.89,23.670357 c -3.34,-1.67 -6.1,-2.42 -11.14,-1.39 l -0.16,-0.81 c 5.27,-1 8.17,-0.29 11.66,1.46 z"
     id="path678"
     style="fill:#010101" />
  <path
     class="cls-2"
     d="m 141.05,29.770357 c -4.44,-5.3 -9.16,-6.36 -14.84,-6.3 v -0.81 c 5.95,-0.1 10.8,1 15.46,6.58 z"
     id="path679"
     style="fill:#010101" />
  <path
     class="cls-2"
     d="m 143.01,36.600357 a 16.6,16.6 0 0 0 -5.65,-7.45 c -3.48,-2.63 -7,-3.76 -11.18,-4.64 l 0.17,-0.8 c 4.3,0.9 7.91,2.06 11.5,4.79 a 17.43,17.43 0 0 1 5.9,7.81 z"
     id="path680"
     style="fill:#010101" />
  <path
     class="cls-2"
     d="m 143.22,45.350357 h -0.81 a 17.51,17.51 0 0 0 -5.07,-12.19 c -2.69,-2.9 -6.46,-5.34 -11.5,-7.46 l 0.31,-0.76 c 5.16,2.17 9,4.67 11.8,7.66 a 18.28,18.28 0 0 1 5.27,12.77"
     id="path681"
     style="fill:#010101" />
  <path
     class="cls-2"
     d="m 139.73,52.800357 -0.8,-0.15 c 1.61,-8.46 -1,-12.54 -3.53,-16.49 -2.36,-3.71 -6.51,-6.94 -10.27,-9.61 l 0.48,-0.67 c 3.82,2.71 8.08,6 10.5,9.82 2.42,3.82 5.29,8.32 3.64,17.1"
     id="path682"
     style="fill:#010101" />
  <path
     class="cls-2"
     d="m 135.46,57.390357 -0.81,-0.24 a 24,24 0 0 0 -1.68,-16.82 c -2.42,-4.84 -3.23,-6.29 -9,-13 l 0.62,-0.53 c 5.83,6.76 6.64,8.37 9.08,13.14 a 25,25 0 0 1 1.72,17.43"
     id="path683"
     style="fill:#010101" />
  <path
     class="cls-2"
     d="m 130.14,60.620357 -0.8,-0.22 c 1.36,-4.85 1.49,-6.67 0.8,-12.29 -0.55,-4.56 -3.08,-11.36 -7.53,-20.19 l 0.73,-0.38 c 4.5,8.93 7.06,15.82 7.61,20.49 0.69,5.75 0.57,7.63 -0.81,12.6"
     id="path684"
     style="fill:#010101" />
  <path
     class="cls-2"
     d="m 125.3,62.070357 -0.81,-0.12 a 48.36,48.36 0 0 0 0.3,-13.54 l -0.08,-0.89 a 138.94,138.94 0 0 0 -3.47,-19.39 l 0.81,-0.19 a 139.51,139.51 0 0 1 3.5,19.55 l 0.08,0.89 a 49,49 0 0 1 -0.32,13.74"
     id="path685"
     style="fill:#010101" />
</svg>
