<?xml version="1.0" encoding="utf-8"?>
<!-- Generator: Adobe Illustrator 25.2.0, SVG Export Plug-In . SVG Version: 6.00 Build 0)  -->
<svg version="1.1" id="Layer_1" xmlns="http://www.w3.org/2000/svg" xmlns:xlink="http://www.w3.org/1999/xlink" x="0px" y="0px"
	 viewBox="0 0 500 346.2" style="enable-background:new 0 0 500 346.2;" xml:space="preserve">
<image style="display:none;overflow:visible;" width="124" height="88" xlink:href="logo.png"  transform="matrix(3.9191 0 0 3.9191 7.5584 -1.2766)">
</image>
<rect x="10.7" y="62.2" width="25" height="176.2"/>
<rect x="365" y="62.2" width="25" height="176.2"/>
<rect x="212.6" y="114.3" width="25" height="124.1"/>
<rect x="308.4" y="114.3" width="25" height="124.1"/>
<polygon points="467.3,59.1 493.5,59.1 434.4,150.3 493.5,235.7 463.9,235.7 404.1,150.3 "/>
<path d="M237.6,114.3c0,0,3.7-28.1,35.7-28.1s35,28.1,35,28.1h25c0,0-0.9-52.1-61.4-52.1s-59.4,52.1-59.4,52.1H237.6z"/>
<path d="M112,64v25.3c0,0-22.5,2.8-22.5,34.5s0,66.1,0,66.1s6.1,19.4,20.9,20.9v25.3c0,0-47-3.3-47-44.2s0-86.8,0-86.8
	S70.7,62.2,112,64z"/>
<path d="M135.8,64v25.3c0,0,22.5,2.8,22.5,34.5s0,66.1,0,66.1s-6.1,19.4-20.9,20.9v25.3c0,0,47-3.3,47-44.2s0-86.8,0-86.8
	S177.1,62.2,135.8,64z"/>
<circle cx="23.2" cy="16.6" r="16.6"/>
<circle cx="377.6" cy="16.6" r="16.6"/>
<g>
	<path d="M13.2,314.8c2.8,1.9,7.9,3.8,12.7,3.8c7,0,10.3-3.5,10.3-7.9c0-4.6-2.7-7.1-9.8-9.7c-9.5-3.4-14-8.6-14-15
		c0-8.5,6.9-15.5,18.2-15.5c5.3,0,10,1.5,13,3.3l-2.4,7c-2.1-1.3-5.9-3.1-10.8-3.1c-5.7,0-8.8,3.3-8.8,7.2c0,4.4,3.2,6.3,10,9
		c9.2,3.5,13.9,8.1,13.9,15.9c0,9.3-7.2,15.8-19.8,15.8c-5.8,0-11.1-1.4-14.8-3.6L13.2,314.8z"/>
	<path d="M61.6,289c0-6.8-0.2-12.2-0.4-17.2h8.6l0.4,9.1h0.2c3.9-6.4,10.2-10.3,18.8-10.3c12.8,0,22.4,10.8,22.4,26.8
		c0,19-11.6,28.4-24,28.4c-7,0-13.1-3.1-16.3-8.3h-0.2v28.7h-9.5V289z M71.1,303.1c0,1.4,0.2,2.7,0.4,3.9
		c1.7,6.7,7.5,11.2,14.4,11.2c10.2,0,16-8.3,16-20.4c0-10.6-5.6-19.6-15.7-19.6c-6.5,0-12.7,4.7-14.5,11.9c-0.3,1.2-0.7,2.6-0.7,3.9
		V303.1z"/>
	<path d="M175.3,297.8c0,19.5-13.5,28-26.3,28c-14.3,0-25.3-10.5-25.3-27.2c0-17.7,11.6-28.1,26.2-28.1
		C165,270.6,175.3,281.6,175.3,297.8z M133.4,298.3c0,11.6,6.7,20.3,16,20.3c9.2,0,16-8.6,16-20.5c0-9-4.5-20.3-15.8-20.3
		C138.3,277.8,133.4,288.3,133.4,298.3z"/>
	<path d="M191.2,288.3c0-6.2-0.1-11.6-0.4-16.5h8.4l0.3,10.4h0.4c2.4-7.1,8.2-11.6,14.6-11.6c1.1,0,1.9,0.1,2.7,0.3v9.1
		c-1-0.2-2-0.3-3.3-0.3c-6.8,0-11.6,5.1-12.9,12.3c-0.2,1.3-0.4,2.8-0.4,4.5v28.2h-9.5V288.3z"/>
	<path d="M244.9,256.6v15.2h13.8v7.3h-13.8v28.5c0,6.5,1.9,10.3,7.2,10.3c2.5,0,4.4-0.3,5.6-0.7l0.4,7.2c-1.9,0.8-4.8,1.3-8.5,1.3
		c-4.5,0-8.1-1.4-10.4-4c-2.7-2.8-3.7-7.5-3.7-13.8v-28.8h-8.2v-7.3h8.2v-12.7L244.9,256.6z"/>
	<path d="M270.7,318.9c0-4,2.7-6.9,6.5-6.9s6.4,2.8,6.4,6.9c0,3.9-2.5,6.9-6.5,6.9C273.3,325.8,270.7,322.9,270.7,318.9z"/>
	<path d="M337,322.6c-2.5,1.3-8.1,3.1-15.2,3.1c-15.9,0-26.3-10.8-26.3-27c0-16.3,11.1-28.1,28.4-28.1c5.7,0,10.7,1.4,13.3,2.7
		l-2.2,7.4c-2.3-1.3-5.9-2.5-11.1-2.5c-12.1,0-18.7,9-18.7,20c0,12.2,7.9,19.8,18.3,19.8c5.5,0,9.1-1.4,11.8-2.6L337,322.6z"/>
	<path d="M399.2,297.8c0,19.5-13.5,28-26.3,28c-14.3,0-25.3-10.5-25.3-27.2c0-17.7,11.6-28.1,26.2-28.1
		C389,270.6,399.2,281.6,399.2,297.8z M357.3,298.3c0,11.6,6.7,20.3,16,20.3c9.2,0,16-8.6,16-20.5c0-9-4.5-20.3-15.8-20.3
		C362.2,277.8,357.3,288.3,357.3,298.3z"/>
	<path d="M415.2,286.1c0-5.5-0.1-9.9-0.4-14.3h8.4l0.4,8.5h0.3c2.9-5,7.9-9.7,16.6-9.7c7.2,0,12.7,4.4,15,10.6h0.2
		c1.6-2.9,3.7-5.2,5.9-6.9c3.2-2.4,6.7-3.7,11.7-3.7c7,0,17.4,4.6,17.4,22.9v31.1h-9.4v-29.9c0-10.2-3.7-16.3-11.5-16.3
		c-5.5,0-9.7,4-11.4,8.7c-0.4,1.3-0.8,3.1-0.8,4.8v32.6h-9.4V293c0-8.4-3.7-14.5-11-14.5c-6,0-10.4,4.8-11.9,9.6
		c-0.5,1.4-0.8,3.1-0.8,4.7v31.9h-9.4V286.1z"/>
</g>
<g>
</g>
<g>
</g>
<g>
</g>
<g>
</g>
<g>
</g>
<g>
</g>
</svg>
