<?xml version="1.0" encoding="UTF-8" standalone="no"?>
<svg
   version="1.1"
   id="Layer_1"
   x="0px"
   y="0px"
   width="162.92741"
   viewBox="0 0 162.92741 59.48983"
   enable-background="new 0 0 5906 1718"
   xml:space="preserve"
   sodipodi:docname="louise_chabot.svg"
   inkscape:version="1.4.2 (ebf0e940d0, 2025-05-08)"
   height="59.48983"
   xmlns:inkscape="http://www.inkscape.org/namespaces/inkscape"
   xmlns:sodipodi="http://sodipodi.sourceforge.net/DTD/sodipodi-0.dtd"
   xmlns="http://www.w3.org/2000/svg"
   xmlns:svg="http://www.w3.org/2000/svg"><defs
   id="defs21"><clipPath
     clipPathUnits="userSpaceOnUse"
     id="clipPath106"><path
       d="M 0,0 H 612 V 792 H 0 Z"
       transform="translate(-288.91611,-113.8939)"
       id="path106-8" /></clipPath><clipPath
     clipPathUnits="userSpaceOnUse"
     id="clipPath80"><path
       d="M 0,0 H 612 V 792 H 0 Z"
       transform="translate(-296.15661,-104.09631)"
       id="path80" /></clipPath><clipPath
     clipPathUnits="userSpaceOnUse"
     id="clipPath88"><path
       d="M 0,0 H 612 V 792 H 0 Z"
       transform="translate(-300.47641,-91.6708)"
       id="path88-7" /></clipPath><clipPath
     clipPathUnits="userSpaceOnUse"
     id="clipPath82"><path
       d="M 0,0 H 612 V 792 H 0 Z"
       transform="translate(-308.39121,-100.7385)"
       id="path82" /></clipPath><clipPath
     clipPathUnits="userSpaceOnUse"
     id="clipPath84"><path
       d="M 0,0 H 612 V 792 H 0 Z"
       transform="translate(-324.91021,-105.16731)"
       id="path84-6" /></clipPath><clipPath
     clipPathUnits="userSpaceOnUse"
     id="clipPath86"><path
       d="M 0,0 H 612 V 792 H 0 Z"
       transform="translate(-339.66311,-101.7709)"
       id="path86-8" /></clipPath><clipPath
     clipPathUnits="userSpaceOnUse"
     id="clipPath90"><path
       d="M 0,0 H 612 V 792 H 0 Z"
       transform="translate(-305.99951,-93.793705)"
       id="path90-0" /></clipPath><clipPath
     clipPathUnits="userSpaceOnUse"
     id="clipPath92"><path
       d="M 0,0 H 612 V 792 H 0 Z"
       transform="translate(-317.74911,-96.798602)"
       id="path92-8" /></clipPath><clipPath
     clipPathUnits="userSpaceOnUse"
     id="clipPath94"><path
       d="M 0,0 H 612 V 792 H 0 Z"
       transform="translate(-322.80081,-92.297905)"
       id="path94-6" /></clipPath><clipPath
     clipPathUnits="userSpaceOnUse"
     id="clipPath96"><path
       d="M 0,0 H 612 V 792 H 0 Z"
       transform="translate(-333.14571,-96.798602)"
       id="path96-1" /></clipPath><clipPath
     clipPathUnits="userSpaceOnUse"
     id="clipPath98"><path
       d="M 0,0 H 612 V 792 H 0 Z"
       transform="translate(-339.89141,-92.098202)"
       id="path98-4" /></clipPath><clipPath
     clipPathUnits="userSpaceOnUse"
     id="clipPath100"><path
       d="M 0,0 H 612 V 792 H 0 Z"
       transform="translate(-344.40561,-88.121402)"
       id="path100" /></clipPath><clipPath
     clipPathUnits="userSpaceOnUse"
     id="clipPath102"><path
       d="M 0,0 H 612 V 792 H 0 Z"
       id="path102-5" /></clipPath><clipPath
     clipPathUnits="userSpaceOnUse"
     id="clipPath104"><path
       d="M 0,0 H 612 V 792 H 0 Z"
       transform="translate(-357.26181,-92.229002)"
       id="path104-2" /></clipPath></defs><sodipodi:namedview
   id="namedview21"
   pagecolor="#ffffff"
   bordercolor="#000000"
   borderopacity="0.25"
   inkscape:showpageshadow="2"
   inkscape:pageopacity="0.0"
   inkscape:pagecheckerboard="0"
   inkscape:deskcolor="#d1d1d1"
   inkscape:zoom="2.8284271"
   inkscape:cx="69.650018"
   inkscape:cy="57.629202"
   inkscape:window-width="1890"
   inkscape:window-height="991"
   inkscape:window-x="15"
   inkscape:window-y="42"
   inkscape:window-maximized="0"
   inkscape:current-layer="Layer_1"
   showgrid="false" />





















<path
   id="path79"
   d="m 0,0 v -3.502 h 2.297 c 0.43,0 0.782,0.053 1.056,0.164 0.274,0.109 0.487,0.25 0.641,0.424 0.155,0.174 0.261,0.37 0.319,0.589 0.058,0.218 0.087,0.44 0.087,0.666 0,0.257 -0.034,0.489 -0.101,0.694 C 4.231,-0.76 4.116,-0.586 3.951,-0.444 3.787,-0.303 3.57,-0.193 3.299,-0.115 3.03,-0.038 2.689,0 2.277,0 Z m 0,2.18 h 1.699 c 0.359,0 0.684,0.026 0.973,0.077 C 2.962,2.309 3.209,2.4 3.41,2.528 3.613,2.657 3.768,2.834 3.874,3.058 3.98,3.284 4.033,3.567 4.033,3.908 4.033,4.242 3.991,4.52 3.908,4.742 3.824,4.965 3.696,5.143 3.522,5.278 3.348,5.413 3.127,5.509 2.861,5.567 2.594,5.626 2.277,5.655 1.911,5.655 H 0 Z M -3.261,-5.963 V 8.095 H 1.911 C 2.881,8.095 3.708,8.006 4.39,7.826 5.072,7.645 5.628,7.391 6.059,7.063 6.49,6.735 6.803,6.336 7,5.867 7.197,5.397 7.294,4.872 7.294,4.294 7.294,3.979 7.249,3.675 7.16,3.382 7.069,3.089 6.928,2.814 6.734,2.557 6.542,2.3 6.294,2.066 5.992,1.857 5.69,1.648 5.326,1.467 4.902,1.312 5.827,1.087 6.513,0.722 6.957,0.217 7.4,-0.288 7.623,-0.936 7.623,-1.727 7.623,-2.325 7.506,-2.881 7.275,-3.396 7.043,-3.911 6.705,-4.36 6.257,-4.743 5.81,-5.125 5.258,-5.424 4.602,-5.64 3.947,-5.855 3.196,-5.963 2.354,-5.963 Z"
   style="fill:#000000;fill-opacity:1;fill-rule:nonzero;stroke:none"
   transform="matrix(1.0314739,0,0,-1.0314739,43.551865,14.360678)"
   clip-path="url(#clipPath80)" /><path
   id="path81"
   d="M 0,0 H 5.21 V -2.605 H -3.261 V 11.453 H 0 Z"
   style="fill:#000000;fill-opacity:1;fill-rule:nonzero;stroke:none"
   transform="matrix(1.0314739,0,0,-1.0314739,56.171536,17.824164)"
   clip-path="url(#clipPath82)" /><path
   id="path83"
   d="M 0,0 C 0,0.695 -0.091,1.321 -0.271,1.877 -0.451,2.434 -0.709,2.904 -1.047,3.29 -1.385,3.676 -1.798,3.971 -2.286,4.178 -2.775,4.384 -3.332,4.487 -3.956,4.487 -4.587,4.487 -5.148,4.384 -5.64,4.178 -6.132,3.971 -6.547,3.676 -6.885,3.29 -7.222,2.904 -7.481,2.434 -7.661,1.877 -7.841,1.321 -7.932,0.695 -7.932,0 c 0,-0.701 0.091,-1.33 0.271,-1.886 0.18,-0.557 0.439,-1.028 0.776,-1.414 0.338,-0.386 0.753,-0.68 1.245,-0.883 0.492,-0.202 1.053,-0.304 1.684,-0.304 0.624,0 1.181,0.102 1.67,0.304 0.488,0.203 0.901,0.497 1.239,0.883 0.338,0.386 0.596,0.857 0.776,1.414 C -0.091,-1.33 0,-0.701 0,0 m 3.338,0 c 0,-1.016 -0.175,-1.962 -0.526,-2.837 -0.351,-0.875 -0.844,-1.635 -1.481,-2.282 -0.636,-0.646 -1.403,-1.153 -2.301,-1.52 -0.897,-0.366 -1.893,-0.549 -2.986,-0.549 -1.093,0 -2.091,0.183 -2.992,0.549 -0.9,0.367 -1.67,0.874 -2.311,1.52 -0.64,0.647 -1.135,1.407 -1.485,2.282 -0.351,0.875 -0.526,1.821 -0.526,2.837 0,1.016 0.175,1.962 0.526,2.837 0.35,0.874 0.845,1.634 1.485,2.277 0.641,0.643 1.411,1.148 2.311,1.514 0.901,0.368 1.899,0.551 2.992,0.551 1.093,0 2.089,-0.185 2.986,-0.555 C -0.072,6.254 0.695,5.747 1.331,5.104 1.968,4.461 2.461,3.702 2.812,2.827 3.163,1.953 3.338,1.01 3.338,0"
   style="fill:#000000;fill-opacity:1;fill-rule:nonzero;stroke:none"
   transform="matrix(1.0314739,0,0,-1.0314739,73.21045,13.25597)"
   clip-path="url(#clipPath84)" /><path
   id="path85-5"
   d="m 0,0 c 0.077,0 0.154,-0.014 0.232,-0.043 0.077,-0.029 0.151,-0.08 0.221,-0.15 l 1.293,-1.36 c -0.565,-0.741 -1.275,-1.298 -2.127,-1.674 -0.852,-0.377 -1.861,-0.565 -3.025,-0.565 -1.068,0 -2.025,0.182 -2.87,0.545 -0.847,0.364 -1.564,0.865 -2.153,1.505 -0.588,0.641 -1.04,1.399 -1.355,2.277 -0.316,0.878 -0.473,1.832 -0.473,2.861 0,1.049 0.18,2.013 0.54,2.891 0.361,0.878 0.864,1.634 1.511,2.272 0.646,0.637 1.419,1.132 2.32,1.485 0.901,0.354 1.895,0.531 2.982,0.531 0.527,0 1.024,-0.046 1.491,-0.14 0.466,-0.094 0.901,-0.221 1.307,-0.386 C 0.298,9.885 0.672,9.689 1.013,9.46 1.354,9.232 1.656,8.98 1.92,8.704 L 0.82,7.227 C 0.749,7.137 0.666,7.055 0.569,6.98 0.472,6.907 0.338,6.87 0.164,6.87 0.048,6.87 -0.062,6.896 -0.164,6.947 -0.267,6.999 -0.377,7.061 -0.492,7.135 -0.608,7.209 -0.735,7.29 -0.873,7.377 -1.012,7.463 -1.176,7.544 -1.365,7.618 -1.555,7.692 -1.777,7.755 -2.031,7.806 -2.285,7.857 -2.583,7.883 -2.924,7.883 -3.515,7.883 -4.056,7.778 -4.545,7.569 -5.034,7.36 -5.454,7.061 -5.804,6.673 -6.155,6.282 -6.428,5.812 -6.624,5.258 -6.82,4.705 -6.919,4.085 -6.919,3.396 c 0,-0.721 0.099,-1.36 0.295,-1.92 0.196,-0.559 0.463,-1.03 0.801,-1.413 0.337,-0.383 0.732,-0.674 1.181,-0.873 0.451,-0.2 0.933,-0.3 1.448,-0.3 0.296,0 0.566,0.015 0.811,0.044 0.244,0.028 0.47,0.079 0.68,0.149 0.208,0.071 0.408,0.162 0.598,0.276 0.19,0.112 0.381,0.252 0.574,0.419 0.077,0.064 0.161,0.117 0.251,0.159 C -0.189,-0.021 -0.097,0 0,0"
   style="fill:#000000;fill-opacity:1;fill-rule:nonzero;stroke:none"
   transform="matrix(1.0314739,0,0,-1.0314739,88.427673,16.759273)"
   clip-path="url(#clipPath86)" /><path
   id="path87-9"
   d="M 0,0 C 0,0.496 -0.065,0.943 -0.194,1.34 -0.322,1.738 -0.506,2.074 -0.747,2.35 -0.989,2.626 -1.285,2.837 -1.634,2.984 -1.983,3.131 -2.38,3.205 -2.826,3.205 -3.277,3.205 -3.677,3.131 -4.028,2.984 -4.38,2.837 -4.677,2.626 -4.918,2.35 -5.158,2.074 -5.344,1.738 -5.472,1.34 -5.601,0.943 -5.665,0.496 -5.665,0 c 0,-0.501 0.064,-0.95 0.193,-1.348 0.128,-0.397 0.314,-0.733 0.554,-1.009 0.241,-0.276 0.538,-0.486 0.89,-0.63 0.351,-0.146 0.751,-0.218 1.202,-0.218 0.446,0 0.843,0.072 1.192,0.218 0.349,0.144 0.645,0.354 0.887,0.63 0.241,0.276 0.425,0.612 0.553,1.009 C -0.065,-0.95 0,-0.501 0,0 M 2.384,0 C 2.384,-0.432 2.34,-0.846 2.25,-1.244 2.161,-1.642 2.032,-2.015 1.864,-2.364 1.696,-2.714 1.49,-3.037 1.243,-3.336 0.999,-3.635 0.72,-3.898 0.407,-4.128 L 2.949,-6.906 H 1.034 c -0.276,0 -0.527,0.034 -0.752,0.101 -0.224,0.065 -0.424,0.2 -0.599,0.402 l -1.248,1.399 C -1.766,-5.045 -1.972,-5.077 -2.181,-5.1 -2.39,-5.123 -2.605,-5.135 -2.826,-5.135 c -0.781,0 -1.493,0.131 -2.137,0.394 -0.642,0.261 -1.193,0.623 -1.65,1.085 -0.457,0.462 -0.811,1.005 -1.061,1.63 -0.251,0.625 -0.376,1.3 -0.376,2.026 0,0.726 0.125,1.401 0.376,2.026 0.25,0.625 0.604,1.167 1.061,1.626 0.457,0.461 1.008,0.821 1.65,1.083 0.644,0.262 1.356,0.393 2.137,0.393 0.782,0 1.492,-0.132 2.133,-0.397 C -0.051,4.467 0.496,4.105 0.951,3.646 1.406,3.186 1.758,2.645 2.009,2.02 2.26,1.395 2.384,0.722 2.384,0"
   style="fill:#000000;fill-opacity:1;fill-rule:nonzero;stroke:none"
   transform="matrix(1.0314739,0,0,-1.0314739,48.007623,27.177263)"
   clip-path="url(#clipPath88)" /><path
   id="path89-3"
   d="m 0,0 v -4.535 c 0,-0.354 0.08,-0.628 0.241,-0.82 0.161,-0.194 0.398,-0.289 0.71,-0.289 0.235,0 0.454,0.047 0.658,0.144 0.205,0.097 0.403,0.232 0.597,0.406 V 0 H 4.342 V -7.147 H 3.019 c -0.266,0 -0.441,0.119 -0.524,0.358 l -0.13,0.414 C 2.227,-6.509 2.083,-6.629 1.937,-6.738 1.79,-6.846 1.633,-6.937 1.465,-7.012 1.297,-7.089 1.117,-7.148 0.923,-7.193 0.731,-7.236 0.519,-7.257 0.289,-7.257 c -0.39,0 -0.736,0.068 -1.036,0.202 -0.302,0.136 -0.555,0.326 -0.762,0.57 -0.207,0.243 -0.363,0.53 -0.469,0.861 -0.106,0.331 -0.158,0.694 -0.158,1.089 V 0 Z"
   style="fill:#000000;fill-opacity:1;fill-rule:nonzero;stroke:none"
   transform="matrix(1.0314739,0,0,-1.0314739,53.704554,24.987541)"
   clip-path="url(#clipPath90)" /><path
   id="path91"
   d="M 0,0 -1.792,-1.813 C -1.898,-1.919 -1.999,-1.993 -2.095,-2.036 -2.192,-2.08 -2.32,-2.102 -2.481,-2.102 h -1.283 l 0.938,1.688 c 0.079,0.134 0.17,0.236 0.276,0.307 C -2.445,-0.036 -2.283,0 -2.068,0 Z m -2.743,-4.37 c -0.409,0 -0.728,-0.116 -0.958,-0.348 -0.23,-0.231 -0.382,-0.566 -0.455,-1.002 h 2.667 c 0,0.169 -0.021,0.335 -0.065,0.496 -0.044,0.16 -0.116,0.304 -0.214,0.43 -0.098,0.127 -0.228,0.229 -0.39,0.307 -0.16,0.078 -0.356,0.117 -0.585,0.117 m -0.042,1.475 c 0.474,0 0.907,-0.074 1.3,-0.22 0.393,-0.147 0.73,-0.361 1.012,-0.641 0.284,-0.28 0.504,-0.624 0.662,-1.031 0.159,-0.406 0.238,-0.867 0.238,-1.381 0,-0.162 -0.007,-0.293 -0.02,-0.393 C 0.393,-6.662 0.367,-6.743 0.33,-6.802 0.293,-6.862 0.245,-6.903 0.182,-6.927 0.12,-6.95 0.041,-6.961 -0.056,-6.961 h -4.12 c 0.069,-0.597 0.25,-1.03 0.544,-1.299 0.294,-0.269 0.673,-0.404 1.137,-0.404 0.248,0 0.462,0.03 0.641,0.09 0.179,0.06 0.339,0.127 0.479,0.2 0.14,0.074 0.268,0.14 0.386,0.2 0.117,0.059 0.24,0.089 0.368,0.089 0.171,0 0.299,-0.062 0.386,-0.185 l 0.621,-0.765 c -0.22,-0.253 -0.458,-0.459 -0.713,-0.618 -0.256,-0.158 -0.517,-0.282 -0.786,-0.371 -0.268,-0.09 -0.537,-0.153 -0.807,-0.187 -0.269,-0.034 -0.525,-0.051 -0.768,-0.051 -0.501,0 -0.971,0.081 -1.409,0.244 -0.44,0.163 -0.823,0.405 -1.151,0.728 -0.329,0.321 -0.589,0.721 -0.779,1.199 -0.191,0.477 -0.286,1.033 -0.286,1.667 0,0.478 0.081,0.931 0.245,1.358 0.162,0.427 0.397,0.802 0.703,1.123 0.305,0.323 0.675,0.577 1.109,0.766 0.435,0.188 0.925,0.282 1.471,0.282"
   style="fill:#000000;fill-opacity:1;fill-rule:nonzero;stroke:none"
   transform="matrix(1.0314739,0,0,-1.0314739,65.823965,21.888068)"
   clip-path="url(#clipPath92)" /><path
   id="path93-8"
   d="m 0,0 c -0.156,0 -0.298,-0.014 -0.424,-0.044 -0.127,-0.031 -0.243,-0.073 -0.351,-0.128 -0.108,-0.056 -0.208,-0.126 -0.301,-0.211 -0.091,-0.084 -0.183,-0.182 -0.275,-0.292 v -3.033 c 0.161,-0.179 0.335,-0.305 0.523,-0.376 0.189,-0.071 0.387,-0.106 0.593,-0.106 0.198,0 0.38,0.038 0.545,0.117 0.166,0.078 0.309,0.203 0.431,0.375 0.122,0.173 0.217,0.397 0.285,0.673 0.069,0.275 0.104,0.611 0.104,1.005 0,0.377 -0.028,0.694 -0.082,0.951 C 0.992,-0.811 0.915,-0.603 0.816,-0.445 0.717,-0.286 0.599,-0.172 0.462,-0.103 0.324,-0.034 0.17,0 0,0 M -3.488,-5.651 V 4.666 h 2.137 V 0.737 c 0.266,0.263 0.569,0.473 0.906,0.631 0.338,0.159 0.734,0.238 1.189,0.238 0.372,0 0.717,-0.08 1.034,-0.241 0.317,-0.162 0.591,-0.396 0.82,-0.707 0.23,-0.31 0.41,-0.69 0.542,-1.141 0.13,-0.45 0.195,-0.962 0.195,-1.537 0,-0.537 -0.074,-1.033 -0.223,-1.488 C 2.963,-3.963 2.754,-4.359 2.484,-4.693 2.215,-5.029 1.894,-5.29 1.519,-5.48 1.145,-5.668 0.731,-5.762 0.276,-5.762 c -0.212,0 -0.402,0.021 -0.569,0.062 -0.168,0.041 -0.322,0.1 -0.462,0.176 -0.14,0.076 -0.268,0.167 -0.386,0.272 -0.117,0.106 -0.231,0.221 -0.341,0.345 L -1.557,-5.265 C -1.59,-5.413 -1.648,-5.514 -1.734,-5.569 -1.819,-5.624 -1.93,-5.651 -2.068,-5.651 Z"
   style="fill:#000000;fill-opacity:1;fill-rule:nonzero;stroke:none"
   transform="matrix(1.0314739,0,0,-1.0314739,71.034662,26.53042)"
   clip-path="url(#clipPath94)" /><path
   id="path95-8"
   d="M 0,0 -1.792,-1.813 C -1.898,-1.919 -1.999,-1.993 -2.095,-2.036 -2.192,-2.08 -2.32,-2.102 -2.481,-2.102 h -1.283 l 0.938,1.688 c 0.079,0.134 0.17,0.236 0.276,0.307 C -2.445,-0.036 -2.283,0 -2.068,0 Z m -2.743,-4.37 c -0.409,0 -0.728,-0.116 -0.958,-0.348 -0.23,-0.231 -0.382,-0.566 -0.455,-1.002 h 2.667 c 0,0.169 -0.021,0.335 -0.065,0.496 -0.044,0.16 -0.115,0.304 -0.214,0.43 -0.098,0.127 -0.228,0.229 -0.389,0.307 -0.161,0.078 -0.357,0.117 -0.586,0.117 m -0.042,1.475 c 0.474,0 0.907,-0.074 1.3,-0.22 0.393,-0.147 0.73,-0.361 1.012,-0.641 0.284,-0.28 0.504,-0.624 0.662,-1.031 0.159,-0.406 0.238,-0.867 0.238,-1.381 0,-0.162 -0.007,-0.293 -0.02,-0.393 C 0.393,-6.662 0.367,-6.743 0.33,-6.802 0.293,-6.862 0.245,-6.903 0.182,-6.927 0.12,-6.95 0.041,-6.961 -0.056,-6.961 h -4.12 c 0.069,-0.597 0.25,-1.03 0.544,-1.299 0.294,-0.269 0.673,-0.404 1.137,-0.404 0.248,0 0.462,0.03 0.641,0.09 0.179,0.06 0.339,0.127 0.479,0.2 0.14,0.074 0.268,0.14 0.386,0.2 0.117,0.059 0.24,0.089 0.368,0.089 0.171,0 0.299,-0.062 0.386,-0.185 l 0.621,-0.765 c -0.22,-0.253 -0.458,-0.459 -0.713,-0.618 -0.256,-0.158 -0.517,-0.282 -0.786,-0.371 -0.269,-0.09 -0.537,-0.153 -0.807,-0.187 -0.269,-0.034 -0.525,-0.051 -0.768,-0.051 -0.501,0 -0.971,0.081 -1.409,0.244 -0.44,0.163 -0.823,0.405 -1.151,0.728 -0.329,0.321 -0.589,0.721 -0.779,1.199 -0.191,0.477 -0.286,1.033 -0.286,1.667 0,0.478 0.081,0.931 0.245,1.358 0.162,0.427 0.397,0.802 0.703,1.123 0.305,0.323 0.675,0.577 1.109,0.766 0.435,0.188 0.925,0.282 1.471,0.282"
   style="fill:#000000;fill-opacity:1;fill-rule:nonzero;stroke:none"
   transform="matrix(1.0314739,0,0,-1.0314739,81.70515,21.888068)"
   clip-path="url(#clipPath96)" /><path
   id="path97-4"
   d="m 0,0 c -0.065,-0.078 -0.127,-0.14 -0.186,-0.186 -0.06,-0.047 -0.144,-0.069 -0.255,-0.069 -0.106,0 -0.201,0.025 -0.286,0.076 -0.085,0.05 -0.181,0.107 -0.286,0.169 -0.106,0.061 -0.229,0.118 -0.373,0.169 -0.142,0.05 -0.319,0.076 -0.53,0.076 -0.262,0 -0.489,-0.049 -0.679,-0.145 -0.191,-0.097 -0.348,-0.235 -0.472,-0.414 -0.124,-0.179 -0.216,-0.399 -0.275,-0.658 -0.06,-0.259 -0.09,-0.553 -0.09,-0.879 0,-0.685 0.132,-1.211 0.396,-1.578 0.264,-0.368 0.628,-0.552 1.092,-0.552 0.249,0 0.445,0.032 0.589,0.094 0.145,0.061 0.268,0.13 0.37,0.207 0.101,0.075 0.193,0.145 0.279,0.21 0.084,0.063 0.191,0.096 0.32,0.096 0.17,0 0.298,-0.062 0.386,-0.186 L 0.621,-4.335 C 0.399,-4.588 0.168,-4.794 -0.076,-4.952 -0.319,-5.11 -0.568,-5.235 -0.824,-5.324 -1.079,-5.414 -1.335,-5.476 -1.593,-5.51 -1.85,-5.544 -2.1,-5.562 -2.343,-5.562 c -0.437,0 -0.853,0.082 -1.252,0.248 -0.397,0.166 -0.746,0.406 -1.047,0.721 -0.301,0.314 -0.54,0.701 -0.717,1.161 -0.176,0.459 -0.265,0.983 -0.265,1.571 0,0.515 0.077,0.996 0.231,1.444 0.153,0.448 0.381,0.836 0.682,1.164 0.301,0.329 0.674,0.588 1.116,0.777 0.444,0.187 0.958,0.282 1.541,0.282 0.56,0 1.052,-0.09 1.475,-0.269 0.423,-0.179 0.804,-0.442 1.144,-0.786 z"
   style="fill:#000000;fill-opacity:1;fill-rule:nonzero;stroke:none"
   transform="matrix(1.0314739,0,0,-1.0314739,88.663158,26.736408)"
   clip-path="url(#clipPath98)" /><path
   id="path99"
   d="M 0,0 C 0.492,0 0.853,0.173 1.085,0.52 1.318,0.868 1.434,1.395 1.434,2.102 1.434,2.809 1.318,3.336 1.085,3.68 0.853,4.025 0.492,4.197 0,4.197 -0.505,4.197 -0.875,4.025 -1.11,3.68 -1.343,3.336 -1.461,2.809 -1.461,2.102 -1.461,1.395 -1.343,0.868 -1.11,0.52 -0.875,0.173 -0.505,0 0,0 M 0,5.782 C 0.542,5.782 1.036,5.698 1.481,5.528 1.927,5.357 2.31,5.114 2.629,4.797 2.948,4.48 3.196,4.095 3.373,3.642 3.55,3.19 3.639,2.681 3.639,2.115 3.639,1.546 3.55,1.033 3.373,0.575 3.196,0.118 2.948,-0.27 2.629,-0.589 2.31,-0.909 1.927,-1.155 1.481,-1.327 1.036,-1.499 0.542,-1.585 0,-1.585 c -0.547,0 -1.044,0.086 -1.493,0.258 -0.447,0.172 -0.833,0.418 -1.157,0.738 -0.324,0.319 -0.574,0.707 -0.751,1.164 -0.177,0.458 -0.266,0.971 -0.266,1.54 0,0.566 0.089,1.075 0.266,1.527 0.177,0.453 0.427,0.838 0.751,1.155 0.324,0.317 0.71,0.56 1.157,0.731 0.449,0.17 0.946,0.254 1.493,0.254"
   style="fill:#000000;fill-opacity:1;fill-rule:nonzero;stroke:none"
   transform="matrix(1.0314739,0,0,-1.0314739,93.319443,30.838373)"
   clip-path="url(#clipPath100)" /><path
   id="path101-3"
   d="m 351.262,86.646 h -2.136 v 7.147 h 2.136 z m 0.248,9.104 c 0,-0.169 -0.035,-0.329 -0.104,-0.478 -0.069,-0.149 -0.162,-0.28 -0.282,-0.393 -0.119,-0.113 -0.259,-0.202 -0.417,-0.269 -0.158,-0.066 -0.327,-0.1 -0.507,-0.1 -0.174,0 -0.337,0.034 -0.489,0.1 -0.151,0.067 -0.286,0.156 -0.403,0.269 -0.117,0.113 -0.21,0.244 -0.275,0.393 -0.067,0.149 -0.101,0.309 -0.101,0.478 0,0.175 0.034,0.338 0.101,0.49 0.065,0.152 0.158,0.285 0.275,0.4 0.117,0.115 0.252,0.205 0.403,0.269 0.152,0.064 0.315,0.096 0.489,0.096 0.18,0 0.349,-0.032 0.507,-0.096 0.158,-0.064 0.298,-0.154 0.417,-0.269 0.12,-0.115 0.213,-0.248 0.282,-0.4 0.069,-0.152 0.104,-0.315 0.104,-0.49"
   style="fill:#000000;fill-opacity:1;fill-rule:nonzero;stroke:none"
   transform="matrix(1.0314739,0,0,-1.0314739,-261.92594,121.7333)"
   clip-path="url(#clipPath102)" /><path
   id="path103-5"
   d="m 0,0 c -0.056,-0.088 -0.114,-0.149 -0.176,-0.186 -0.062,-0.036 -0.141,-0.055 -0.238,-0.055 -0.101,0 -0.202,0.022 -0.302,0.065 -0.102,0.044 -0.211,0.091 -0.328,0.142 -0.117,0.05 -0.249,0.097 -0.396,0.141 -0.147,0.043 -0.315,0.065 -0.504,0.065 -0.271,0 -0.478,-0.052 -0.623,-0.154 -0.144,-0.104 -0.218,-0.248 -0.218,-0.432 0,-0.133 0.048,-0.243 0.141,-0.33 0.095,-0.088 0.221,-0.165 0.376,-0.231 0.157,-0.067 0.334,-0.131 0.531,-0.189 0.198,-0.06 0.4,-0.127 0.607,-0.201 0.207,-0.073 0.408,-0.16 0.606,-0.258 0.198,-0.099 0.375,-0.221 0.531,-0.366 0.156,-0.144 0.281,-0.32 0.376,-0.527 0.094,-0.207 0.141,-0.455 0.141,-0.744 0,-0.354 -0.065,-0.68 -0.194,-0.979 -0.128,-0.299 -0.32,-0.556 -0.575,-0.771 -0.254,-0.216 -0.569,-0.384 -0.944,-0.504 -0.375,-0.119 -0.805,-0.179 -1.292,-0.179 -0.244,0 -0.487,0.023 -0.731,0.069 -0.244,0.046 -0.478,0.108 -0.706,0.187 -0.227,0.077 -0.437,0.171 -0.631,0.279 -0.192,0.108 -0.358,0.223 -0.496,0.348 l 0.496,0.785 c 0.06,0.092 0.131,0.165 0.214,0.217 0.082,0.053 0.191,0.079 0.323,0.079 0.125,0 0.236,-0.027 0.335,-0.082 0.099,-0.055 0.206,-0.115 0.32,-0.18 0.115,-0.064 0.25,-0.124 0.404,-0.178 0.154,-0.056 0.348,-0.084 0.582,-0.084 0.165,0 0.306,0.018 0.42,0.052 0.116,0.035 0.207,0.082 0.276,0.142 0.069,0.06 0.12,0.126 0.151,0.2 0.033,0.073 0.049,0.149 0.049,0.227 0,0.142 -0.049,0.26 -0.144,0.351 -0.097,0.092 -0.224,0.171 -0.38,0.238 -0.156,0.067 -0.334,0.129 -0.534,0.186 -0.2,0.058 -0.403,0.123 -0.61,0.197 -0.207,0.073 -0.41,0.162 -0.609,0.265 -0.201,0.104 -0.379,0.234 -0.534,0.393 -0.157,0.158 -0.284,0.353 -0.38,0.582 -0.096,0.23 -0.144,0.508 -0.144,0.834 0,0.304 0.058,0.592 0.176,0.865 0.116,0.274 0.292,0.514 0.527,0.721 0.233,0.206 0.528,0.37 0.882,0.493 0.353,0.121 0.767,0.182 1.24,0.182 0.258,0 0.507,-0.024 0.748,-0.069 C -0.995,1.56 -0.77,1.496 -0.558,1.413 -0.347,1.33 -0.154,1.232 0.021,1.12 0.196,1.008 0.349,0.884 0.483,0.751 Z"
   style="fill:#000000;fill-opacity:1;fill-rule:nonzero;stroke:none"
   transform="matrix(1.0314739,0,0,-1.0314739,106.58028,26.601491)"
   clip-path="url(#clipPath104)" /><path
   id="path105-0"
   d="m 0,0 c -5.185,-2.06 -12.048,1.331 -15.939,-8.029 -0.03,-0.07 0.039,-0.142 0.111,-0.118 5.737,1.997 11.939,-2.945 15.933,8.045 C 0.129,-0.037 0.065,0.026 0,0 m -14.773,-9.513 c -2.66,0 -5.001,-1.268 -6.479,-3.217 -0.047,-0.061 0.005,-0.149 0.082,-0.141 4.291,0.452 8.184,-2.598 8.749,-6.902 0.279,-2.123 -0.304,-4.159 -1.477,-5.76 -0.051,-0.068 0.004,-0.164 0.088,-0.154 4.26,0.51 7.463,4.297 7.118,8.701 -0.328,4.185 -3.883,7.471 -8.081,7.473 M -29.097,2.19 c 4.412,-0.142 7.946,-3.764 7.946,-8.21 0,-1.611 -0.466,-3.113 -1.268,-4.381 -0.036,-0.058 0.013,-0.132 0.079,-0.121 3.447,0.578 6.078,3.565 6.094,7.173 0.018,4.31 -3.76,7.626 -8.059,7.316 -1.776,-0.127 -3.426,-0.707 -4.838,-1.624 -0.069,-0.045 -0.036,-0.151 0.046,-0.153 m -1.132,-0.824 c -0.019,0.06 -0.092,0.082 -0.14,0.04 -2.197,-1.951 -5.374,-6.466 -3.999,-11.615 2.917,-10.919 10.862,-22.417 12.274,-24.406 0.067,-0.094 0.211,-0.044 0.212,0.071 0.032,3.888 2.579,7.312 6.247,8.485 0.074,0.024 0.102,0.112 0.052,0.171 -1.002,1.165 -8.868,9.971 -14.646,27.254"
   style="display:inline;fill:#000000;fill-opacity:1;fill-rule:nonzero;stroke:none"
   transform="matrix(1.0314739,0,0,-1.0314739,36.083478,4.2547156)"
   clip-path="url(#clipPath106)" /><path
   d="M 3.9256986,55.680325 V 43.392236 H 1.4381409e-5 V 59.187889 H 11.730609 V 55.680325 Z M 19.163836,47.619896 c -3.623709,0 -6.202117,2.485493 -6.202117,5.946599 0,3.484335 2.578408,5.92337 6.202117,5.92337 3.623708,0 6.178888,-2.439035 6.178888,-5.92337 0,-3.461106 -2.55518,-5.946599 -6.178888,-5.946599 z m 0,8.734067 c -1.579565,0 -2.671324,-1.138216 -2.671324,-2.787468 0,-1.626023 1.091759,-2.787468 2.671324,-2.787468 1.556336,0 2.648095,1.161445 2.648095,2.787468 0,1.649252 -1.091759,2.787468 -2.648095,2.787468 z m 15.865381,-8.432091 v 7.061586 c -0.650409,0.720096 -1.370505,1.114987 -2.067372,1.114987 -1.231132,0 -2.067372,-0.766553 -2.067372,-2.369348 v -5.807225 h -3.763082 v 6.387948 c 0,3.205588 1.951227,5.180045 4.808382,5.180045 1.207903,0 2.183517,-0.394892 3.089444,-1.091759 v 0.789783 h 3.763082 V 47.921872 Z m 8.525025,-1.765396 c 1.207903,0 2.206746,-0.905927 2.206746,-2.11383 0,-1.231132 -0.998843,-2.137059 -2.206746,-2.137059 -1.231131,0 -2.206745,0.905927 -2.206745,2.137059 0,1.207903 0.975614,2.11383 2.206745,2.11383 z m -1.858312,1.765396 v 11.266017 h 3.763082 V 47.921872 Z m 9.221888,7.41002 -3.344962,-0.02323 c 0.255518,2.996528 2.648095,4.181202 5.551707,4.181202 2.950071,0 5.272961,-1.161445 5.272961,-3.763082 0,-1.997686 -1.416963,-3.019757 -3.507564,-3.414649 l -2.090601,-0.348433 c -0.905928,-0.162602 -1.184674,-0.511036 -1.184674,-0.905927 0,-0.41812 0.441349,-0.766554 1.416963,-0.766554 1.0453,0 1.858312,0.371662 1.927998,1.207903 h 3.321733 c -0.162602,-2.973299 -2.578408,-3.879227 -5.249731,-3.879227 -2.996529,0 -5.017443,1.393735 -5.017443,3.763082 0,1.974457 1.370505,3.066215 3.298504,3.39142 l 2.276432,0.394891 c 0.743325,0.116145 1.184674,0.394892 1.184674,0.789783 0,0.487807 -0.62718,0.766554 -1.626023,0.766554 -1.184674,0 -2.067372,-0.418121 -2.229974,-1.393734 z m 14.727123,-7.711996 c -3.484335,0 -5.876912,2.508722 -5.876912,5.92337 0,3.437878 2.462264,5.946599 6.155659,5.946599 2.648095,0 4.738696,-1.370505 5.412334,-3.577251 h -3.80954 c -0.348434,0.41812 -0.83624,0.603951 -1.672481,0.603951 -1.533107,0 -2.299661,-0.905927 -2.555179,-2.067372 h 8.153344 c 0.557494,-3.995371 -1.835083,-6.829297 -5.807225,-6.829297 z m 0.09292,2.787469 c 1.277589,0 2.090601,0.580722 2.299661,1.881541 H 63.34528 c 0.301976,-1.138217 1.068529,-1.881541 2.392577,-1.881541 z m 21.045367,5.412333 c -2.578408,0 -4.367033,-1.904769 -4.367033,-4.529635 0,-2.624866 1.788625,-4.529636 4.367033,-4.529636 2.090601,0 3.484335,1.207903 3.902455,3.18236 h 4.041829 C 94.216472,45.8545 91.1038,43.090261 86.806453,43.090261 c -4.761925,0 -8.362404,3.437877 -8.362404,8.199802 0,4.761924 3.600479,8.199802 8.362404,8.199802 4.297347,0 7.410019,-2.764239 7.921055,-6.852526 h -4.041829 c -0.41812,1.974457 -1.811854,3.182359 -3.902455,3.182359 z m 17.003566,-8.199802 c -1.20791,0 -2.18352,0.371663 -3.08945,1.045301 v -5.969828 h -3.786309 v 16.49252 h 3.786309 v -7.084815 c 0.65041,-0.720096 1.37051,-1.068529 2.04414,-1.068529 1.25437,0 2.06738,0.720096 2.06738,2.32289 v 5.830454 h 3.76308 v -6.434405 c 0,-3.205589 -1.95123,-5.133588 -4.78515,-5.133588 z m 15.37755,0.301976 v 0.580723 c -0.83624,-0.557494 -1.83508,-0.882699 -3.08944,-0.882699 -3.04299,0 -5.59817,2.55518 -5.59817,5.92337 0,3.344962 2.55518,5.946599 5.59817,5.946599 1.25436,0 2.2532,-0.348434 3.08944,-0.905927 v 0.603951 h 3.76308 V 47.921872 Z m -2.32289,8.362404 c -1.53311,0 -2.67132,-1.184673 -2.67132,-2.74101 0,-1.556336 1.13821,-2.74101 2.67132,-2.74101 0.81301,0 1.60279,0.20906 2.32289,0.998843 v 3.484335 c -0.7201,0.789782 -1.50988,0.998842 -2.32289,0.998842 z m 15.49369,-8.617922 c -1.23113,0 -2.22997,0.325205 -3.06621,0.85947 v -5.830455 h -3.78631 v 16.49252 h 3.78631 v -0.557494 c 0.83624,0.534265 1.83508,0.85947 3.06621,0.85947 3.04299,0 5.59817,-2.555179 5.59817,-5.92337 0,-3.344962 -2.55518,-5.900141 -5.59817,-5.900141 z m -0.74332,8.66438 c -0.81301,0 -1.62602,-0.20906 -2.32289,-0.975614 v -3.530792 c 0.69687,-0.766554 1.50988,-0.975614 2.32289,-0.975614 1.53311,0 2.64809,1.184674 2.64809,2.717781 0,1.579565 -1.11498,2.764239 -2.64809,2.764239 z m 14.07673,-8.710838 c -3.62371,0 -6.20212,2.485493 -6.20212,5.946599 0,3.484335 2.57841,5.92337 6.20212,5.92337 3.62371,0 6.17889,-2.439035 6.17889,-5.92337 0,-3.461106 -2.55518,-5.946599 -6.17889,-5.946599 z m 0,8.734067 c -1.57957,0 -2.67133,-1.138216 -2.67133,-2.787468 0,-1.626023 1.09176,-2.787468 2.67133,-2.787468 1.55633,0 2.64809,1.161445 2.64809,2.787468 0,1.649252 -1.09176,2.787468 -2.64809,2.787468 z m 16.84096,-0.789782 c -0.67364,0.255517 -1.27759,0.464578 -1.99768,0.464578 -1.09176,0 -1.7654,-0.534265 -1.7654,-1.69571 v -3.18236 h 3.83277 v -3.228817 h -3.83277 v -3.832768 h -3.76308 v 3.832768 h -2.20675 v 3.228817 h 2.20675 v 3.298504 c 0,3.042986 1.85831,5.040672 4.92453,5.040672 0.65041,0 1.85831,-0.06969 3.01975,-0.557494 z"
   id="text1"
   style="font-weight:bold;font-size:23.2289px;font-family:Campton;-inkscape-font-specification:'Campton Bold';stroke-width:5.20911;stroke-linecap:square;paint-order:stroke fill markers"
   aria-label="Louise Chabot" /></svg>
