<svg id="svg" xmlns="http://www.w3.org/2000/svg" xmlns:xlink="http://www.w3.org/1999/xlink" width="400" height="568.6666666666667" viewBox="0, 0, 400,568.6666666666667"><g id="svgg"><path id="path0" d="M349.879 51.167 L 299.941 102.000 296.283 102.000 L 292.626 102.000 292.812 100.583 C 292.915 99.804,293.226 96.617,293.505 93.500 C 293.784 90.383,294.095 87.142,294.197 86.298 L 294.383 84.762 295.775 85.245 C 304.599 88.308,314.858 81.024,315.279 71.397 C 315.891 57.407,299.318 49.498,289.637 59.160 L 288.192 60.601 285.804 58.371 C 276.784 49.947,261.296 43.960,241.000 41.051 L 236.833 40.454 236.737 37.561 L 236.641 34.667 208.487 34.667 L 180.333 34.667 180.333 36.929 L 180.333 39.192 175.129 39.606 C 167.208 40.237,154.390 42.102,150.417 43.203 C 149.862 43.357,149.667 43.270,149.667 42.872 C 149.667 42.388,148.654 42.333,139.667 42.333 L 129.667 42.333 129.667 46.094 L 129.667 49.854 127.083 51.123 C 117.883 55.642,109.694 63.578,106.963 70.622 L 106.170 72.667 100.085 72.667 L 94.000 72.667 94.000 78.660 L 94.000 84.653 100.908 84.743 L 107.815 84.833 109.219 101.161 C 109.991 110.141,110.595 117.516,110.561 117.550 C 110.500 117.611,6.129 7.777,2.096 3.409 L 0.026 1.167 0.013 8.023 L 0.000 14.880 56.000 73.964 C 86.800 106.461,112.000 133.159,112.000 133.294 C 112.000 133.429,114.843 166.594,118.318 206.994 L 124.635 280.448 109.032 296.307 C 100.450 305.030,73.907 332.041,50.047 356.331 L 6.667 400.496 10.162 403.992 L 13.658 407.487 20.079 400.887 C 39.445 380.983,125.520 293.453,125.635 293.547 C 125.709 293.608,126.782 305.423,128.021 319.803 C 129.259 334.183,130.376 346.276,130.503 346.678 C 130.882 347.870,132.959 349.935,134.189 350.341 L 135.333 350.718 135.333 359.359 L 135.333 368.000 146.000 368.000 L 156.667 368.000 156.667 359.333 L 156.667 350.667 196.786 350.667 L 236.905 350.667 238.157 352.695 C 255.859 381.374,301.167 367.204,299.250 333.588 C 299.159 331.981,299.133 330.667,299.194 330.667 C 299.254 330.667,315.371 347.617,335.009 368.333 C 354.646 389.050,370.816 405.993,370.940 405.984 C 371.065 405.975,372.721 404.501,374.620 402.709 L 378.073 399.450 326.563 345.193 C 277.507 293.522,275.059 290.887,275.201 289.885 C 275.282 289.307,278.344 256.508,282.005 217.000 C 285.666 177.492,288.752 144.454,288.862 143.583 L 289.063 142.000 302.031 142.000 L 315.000 142.000 315.000 122.023 C 315.000 102.052,315.000 102.046,314.307 101.940 C 313.764 101.856,322.910 92.363,356.803 57.833 L 399.991 13.833 399.995 7.083 C 399.998 3.371,399.959 0.333,399.908 0.333 C 399.858 0.333,377.345 23.208,349.879 51.167 M225.000 48.833 L 225.000 51.333 208.500 51.333 L 192.000 51.333 192.000 48.833 L 192.000 46.333 208.500 46.333 L 225.000 46.333 225.000 48.833 M180.333 57.167 L 180.333 63.000 208.500 63.000 L 236.667 63.000 236.667 57.715 L 236.667 52.430 240.750 53.048 C 261.186 56.144,274.989 62.077,280.316 70.053 C 281.059 71.166,281.667 72.209,281.667 72.371 C 281.667 72.542,253.786 72.667,215.667 72.667 L 149.667 72.667 149.667 64.189 C 149.667 56.402,149.714 55.698,150.250 55.543 C 154.863 54.209,173.495 51.463,178.583 51.367 L 180.333 51.333 180.333 57.167 M129.556 72.555 C 129.485 72.626,127.065 72.643,124.179 72.592 L 118.930 72.500 120.437 70.453 C 121.980 68.359,125.325 65.456,128.000 63.891 L 129.500 63.014 129.593 67.720 C 129.644 70.308,129.627 72.484,129.556 72.555 M282.216 87.583 C 282.097 89.004,281.750 92.829,281.444 96.083 L 280.887 102.000 278.444 102.000 L 276.000 102.000 275.982 114.250 L 275.965 126.500 262.320 140.333 L 248.675 154.167 248.671 147.750 L 248.667 141.333 213.500 141.333 L 178.333 141.333 178.333 152.998 L 178.333 164.663 208.274 164.748 L 238.215 164.833 217.197 186.222 C 205.637 197.986,196.057 207.535,195.909 207.444 C 195.761 207.352,180.248 191.052,161.436 171.222 C 142.624 151.392,126.423 134.330,125.434 133.307 L 123.635 131.448 121.651 108.474 C 120.561 95.838,119.668 85.388,119.668 85.250 C 119.667 85.112,156.289 85.000,201.049 85.000 L 282.431 85.000 282.216 87.583 M304.667 122.167 L 304.667 131.667 297.287 131.667 L 289.907 131.667 290.117 129.917 C 290.233 128.954,290.329 127.588,290.330 126.880 C 290.334 125.195,302.106 112.755,303.750 112.698 L 304.667 112.667 304.667 122.167 M276.522 142.000 C 276.820 142.000,277.000 142.341,277.000 142.905 C 277.000 144.376,264.685 276.711,264.414 278.150 L 264.167 279.466 233.571 247.245 C 216.743 229.523,202.966 214.930,202.956 214.815 C 202.884 214.008,275.843 140.361,275.939 141.143 C 275.997 141.616,276.258 142.000,276.522 142.000 M159.211 182.833 C 175.535 200.067,188.928 214.317,188.974 214.500 C 189.019 214.683,177.006 227.109,162.278 242.112 C 140.312 264.490,135.485 269.251,135.417 268.612 C 135.260 267.130,125.000 147.408,125.006 147.121 C 125.013 146.734,125.264 146.996,159.211 182.833 M229.492 257.008 C 253.266 282.082,263.001 292.564,263.002 293.091 C 263.004 293.499,262.833 295.730,262.622 298.049 L 262.239 302.265 260.203 302.650 C 244.726 305.575,233.948 318.158,233.422 333.917 L 233.252 339.000 187.293 339.000 L 141.333 339.000 141.333 338.115 C 141.333 337.629,140.279 324.993,138.991 310.036 C 137.702 295.079,136.690 282.635,136.741 282.383 C 136.809 282.043,195.488 221.857,195.908 221.695 C 195.949 221.680,211.062 237.570,229.492 257.008 M270.488 318.844 C 280.730 321.512,286.027 333.033,281.363 342.500 C 274.356 356.725,253.844 354.513,249.830 339.099 C 246.704 327.100,258.349 315.682,270.488 318.844 M262.101 324.681 C 254.802 327.570,252.662 337.337,258.099 342.945 C 265.141 350.208,277.333 345.386,277.409 335.308 C 277.469 327.335,269.454 321.771,262.101 324.681 M32.000 528.333 L 32.000 568.667 197.833 568.667 L 363.667 568.667 363.667 528.333 L 363.667 488.000 197.833 488.000 L 32.000 488.000 32.000 528.333 " stroke="none" fill="#000000" fill-rule="evenodd"></path></g></svg>