<?xml version="1.0" encoding="UTF-8" standalone="no"?>
<svg
   version="1.1"
   viewBox="-10 0 456.41398 65.328559"
   id="svg1"
   sodipodi:docname="openmind.svg"
   width="456.41397"
   height="65.32856"
   inkscape:version="1.4.2 (ebf0e940d0, 2025-05-08)"
   xmlns:inkscape="http://www.inkscape.org/namespaces/inkscape"
   xmlns:sodipodi="http://sodipodi.sourceforge.net/DTD/sodipodi-0.dtd"
   xmlns="http://www.w3.org/2000/svg"
   xmlns:svg="http://www.w3.org/2000/svg">
  <defs
     id="defs1">
    <clipPath
       id="clip-path-6"
       transform="translate(-21 -10.33)">
      <path
         class="cls-1"
         d="M 571.66,972.21 H 552.22 A 3.24,3.24 0 0 1 549,969 v -4.61 a 3.24,3.24 0 0 1 3.24,-3.23 h 19.44 z"
         id="path6" />
    </clipPath>
    <clipPath
       id="clip-path-18"
       transform="translate(-21 -10.33)">
      <path
         class="cls-2"
         d="m 633,931.59 h 9.51 a 3,3 0 0 1 3,2.95 v 0 55 a 3,3 0 0 1 -3,3 H 633 a 3,3 0 0 1 -3,-2.95 v -55 a 3,3 0 0 1 3,-3 z"
         id="path13" />
    </clipPath>
    <clipPath
       id="clip-path-15"
       transform="translate(-21 -10.33)">
      <rect
         class="cls-2"
         x="547.67999"
         y="950.46997"
         width="193.10001"
         height="22.059999"
         id="rect11" />
    </clipPath>
    <clipPath
       id="clip-path-20"
       transform="translate(-21 -10.33)">
      <rect
         class="cls-2"
         x="547.67999"
         y="962.04999"
         width="36.23"
         height="24.33"
         id="rect14" />
    </clipPath>
    <clipPath
       id="clip-path-17"
       transform="translate(-21 -10.33)">
      <rect
         class="cls-2"
         x="547.67999"
         y="943.87"
         width="69.690002"
         height="18.190001"
         id="rect13" />
    </clipPath>
  </defs>
  <sodipodi:namedview
     id="namedview1"
     pagecolor="#ffffff"
     bordercolor="#000000"
     borderopacity="0.25"
     inkscape:showpageshadow="2"
     inkscape:pageopacity="0.0"
     inkscape:pagecheckerboard="0"
     inkscape:deskcolor="#d1d1d1"
     inkscape:zoom="2.215233"
     inkscape:cx="227.51557"
     inkscape:cy="18.056792"
     inkscape:window-width="1890"
     inkscape:window-height="991"
     inkscape:window-x="15"
     inkscape:window-y="42"
     inkscape:window-maximized="0"
     inkscape:current-layer="svg1" />
  <path
     class="cls-24"
     d="m 176.32604,32.755623 c 0,-5.47 0,-10.94 0,-16.41 0,-0.56 0.13,-0.73 0.78,-0.72 1.78,0 3.57,0 5.35,0 a 0.82,0.82 0 0 1 0.93,0.57 c 0.32,0.77 0.75,1.5 1.06,2.26 0.31,0.76 0.46,0.74 1.14,0.34 a 31.85,31.85 0 0 1 9.59,-3.88 17.67,17.67 0 0 1 9.88,0.6 8,8 0 0 1 3.94,3.1 c 0.34,0.51 0.57,0.43 1,0.16 a 31,31 0 0 1 9.51,-3.87 18.67,18.67 0 0 1 8.38,0.11 9,9 0 0 1 6.9,6.64 17.19,17.19 0 0 1 0.65,4.66 q 0,11.49 0,23 c 0,0.56 -0.14,0.71 -0.78,0.71 -2.9,0 -5.81,0 -8.71,0 -0.71,0 -0.8,-0.19 -0.8,-0.76 0,-6.81 0,-13.62 0,-20.43 a 13.67,13.67 0 0 0 -0.3,-3 c -0.65,-2.93 -2.72,-4.14 -6,-3.54 a 13.48,13.48 0 0 0 -4.49,1.8 c -0.93,0.55 -1.81,1.18 -2.74,1.73 a 1,1 0 0 0 -0.55,1 c 0,7.47 0,14.94 0,22.42 0,0.6 -0.16,0.75 -0.83,0.74 -2.93,0 -5.85,0 -8.78,0 -0.71,0 -0.81,-0.19 -0.81,-0.75 q 0,-10.5 0,-21 a 11,11 0 0 0 -0.43,-3.11 c -0.64,-2.15 -2.26,-3.14 -4.74,-3 a 11.49,11.49 0 0 0 -5.1,1.67 c -1.16,0.69 -2.27,1.46 -3.43,2.16 -0.37,0.23 -0.35,0.51 -0.35,0.83 v 15.79 c 0,2.23 0,4.46 0,6.69 0,0.49 -0.15,0.62 -0.68,0.61 -3,0 -6,0 -8.94,0 -0.63,0 -0.74,-0.19 -0.74,-0.7 0.1,-5.44 0.09,-10.93 0.09,-16.42 z"
     id="path618"
     style="fill:#1e1e1c" />
  <path
     class="cls-24"
     d="m 261.57604,32.815623 c 0,-5.49 0,-11 0,-16.47 0,-0.56 0.13,-0.73 0.78,-0.72 1.81,0 3.62,0 5.42,0 a 0.77,0.77 0 0 1 0.84,0.5 c 0.38,0.87 0.84,1.71 1.21,2.57 0.19,0.46 0.37,0.46 0.8,0.22 a 35.57,35.57 0 0 1 8.42,-3.6 20.79,20.79 0 0 1 11.12,-0.16 9.61,9.61 0 0 1 6.83,6.71 22,22 0 0 1 0.95,6.82 c 0,6.88 0,13.76 0,20.64 0,0.55 -0.17,0.67 -0.76,0.66 -2.87,0 -5.75,0 -8.63,0 -0.66,0 -0.88,-0.1 -0.88,-0.76 0,-6.88 0,-13.76 0,-20.64 a 7.15,7.15 0 0 0 -1.07,-4.13 c -1.28,-1.93 -3.4,-2.65 -6.22,-2.17 a 16.62,16.62 0 0 0 -6.19,2.52 c -0.76,0.49 -1.8,0.84 -2.2,1.51 -0.4,0.67 -0.11,1.6 -0.11,2.42 0,6.81 0,13.62 0,20.44 0,0.6 -0.17,0.75 -0.84,0.75 -2.9,0 -5.81,0 -8.71,0 -0.7,0 -0.82,-0.19 -0.82,-0.77 0.07,-5.44 0.06,-10.89 0.06,-16.34 z"
     id="path619"
     style="fill:#1e1e1c" />
  <path
     class="cls-24"
     d="m 140.61604,19.165623 a 40.45,40.45 0 0 1 7.95,-3.58 22.9,22.9 0 0 1 10.14,-0.9 c 4.78,0.68 7.6,3.28 8.88,7.35 a 20.37,20.37 0 0 1 0.89,6.14 c 0,7 0,14 0,21 0,0.61 -0.18,0.74 -0.84,0.74 -2.82,0 -5.65,0 -8.47,0 -0.73,0 -1,-0.11 -1,-0.83 0,-6.88 0,-13.76 0,-20.64 a 9.07,9.07 0 0 0 -0.17,-2.28 c -0.82,-3 -3.4,-4.46 -6.91,-3.88 a 16.07,16.07 0 0 0 -5.95,2.33 c -0.88,0.55 -2.08,0.94 -2.52,1.7 -0.44,0.76 -0.15,1.86 -0.15,2.81 0,6.7 0,13.4 0,20.1 0,0.57 -0.16,0.71 -0.79,0.71 -3,0 -5.91,0 -8.86,0 -0.49,0 -0.64,-0.1 -0.64,-0.56 q 0,-16.57 0,-33.14 c 0,-0.42 0.07,-0.6 0.61,-0.59 1.85,0 3.71,0 5.57,0 a 0.76,0.76 0 0 1 0.83,0.52 c 0.43,1 0.92,2 1.43,3 z"
     id="path620"
     style="fill:#1e1e1c" />
  <path
     class="cls-24"
     d="m 253.60604,32.755623 c 0,5.49 0,11 0,16.47 0,0.59 -0.19,0.7 -0.8,0.7 -2.93,0 -5.85,0 -8.78,0 -0.62,0 -0.81,-0.11 -0.81,-0.7 q 0,-16.47 0,-32.94 c 0,-0.5 0.12,-0.65 0.71,-0.65 q 4.46,0 8.93,0 c 0.59,0 0.75,0.12 0.75,0.66 -0.01,5.48 0,10.97 0,16.46 z"
     id="path621"
     style="fill:#1e1e1c" />
  <path
     class="cls-24"
     d="m 399.80604,25.215623 a 1.52,1.52 0 0 0 0.8,0.09 c 3.25,0 6.51,0 9.77,0 0.53,0 0.76,0.07 0.74,0.62 -0.05,1.32 0,2.64 0,4 0,0.42 -0.11,0.54 -0.59,0.54 q -9.66,0 -19.32,0 c -0.47,0 -0.66,-0.12 -0.59,-0.54 a 2.43,2.43 0 0 0 0,-0.27 8.68,8.68 0 0 1 0.12,-3.11 c 0.38,-0.93 1.42,-1.63 2.18,-2.43 3.06,-3.23 6.13,-6.45 9.17,-9.7 a 8.62,8.62 0 0 0 2.66,-5.0000002 3.54,3.54 0 0 0 -3.35,-4 c -2.45,-0.32 -4.36,0.83 -4.74,2.94 -0.11,0.58 -0.36,0.63 -0.88,0.62 -1.47,0 -2.95,0 -4.43,0 -0.73,0 -0.83,-0.23 -0.77,-0.79 a 8.07,8.07 0 0 1 5.14,-6.73 12.49,12.49 0 0 1 10.84,0.11 c 4.82,2.3 6.3,7.43 3.58,12.0000002 a 34,34 0 0 1 -4.92,5.89 c -1.66,1.76 -3.33,3.51 -5,5.26 -0.14,0.18 -0.22,0.34 -0.41,0.5 z"
     id="path622"
     style="fill:#1e1e1c" />
  <path
     class="cls-24"
     d="m 414.62604,34.525623 a 5.82,5.82 0 0 1 3.12,-1.55 c 2.78,-0.34 5.37,-0.07 7.2,2.13 a 5.53,5.53 0 0 1 1.26,3.53 c 0.05,3.8 0,7.61 0,11.41 0,0.45 -0.21,0.53 -0.64,0.52 -1.2,0 -2.4,0 -3.59,0 -0.61,0 -0.71,-0.2 -0.71,-0.68 0,-3.1 0,-6.2 0,-9.3 a 7.09,7.09 0 0 0 -0.23,-1.89 2.46,2.46 0 0 0 -2.3,-2 c -1.68,-0.17 -3,0.36 -3.54,1.48 a 4.17,4.17 0 0 0 -0.47,2 c 0,3.21 0,6.42 0,9.63 0,0.55 -0.12,0.77 -0.79,0.75 -1.22,-0.05 -2.44,0 -3.67,0 -0.47,0 -0.6,-0.14 -0.6,-0.55 q 0,-8.17 0,-16.34 c 0,-0.43 0.17,-0.54 0.62,-0.54 1.19,0 2.39,0 3.59,0 0.52,0 0.76,0.12 0.69,0.61 a 6.27,6.27 0 0 0 0.06,0.79 z"
     id="path623"
     style="fill:#1e1e1c" />
  <path
     class="cls-24"
     d="m 437.23604,32.855623 a 9.76,9.76 0 0 1 6.06,1.52 l 0.18,0.12 c 1.26,1 1.25,1.16 -0.06,2 -0.68,0.44 -1.37,0.87 -2,1.32 a 0.56,0.56 0 0 1 -0.82,0 c -1.36,-1.21 -3,-1.22 -4.77,-0.9 a 1.21,1.21 0 0 0 -1.12,1.14 1.24,1.24 0 0 0 0.93,1.21 14.21,14.21 0 0 0 3,0.64 9.78,9.78 0 0 1 4.74,1.87 4.48,4.48 0 0 1 1.57,4.25 c -0.38,2.85 -2,4.28 -5.41,4.77 a 16.14,16.14 0 0 1 -6.49,-0.35 7.39,7.39 0 0 1 -3.42,-2 c -0.27,-0.27 -0.38,-0.46 0.08,-0.73 1,-0.59 2,-1.22 2.91,-1.87 0.36,-0.24 0.61,-0.25 0.88,0.09 1,1.22 4.33,1.39 5.63,0.81 a 1.27,1.27 0 0 0 0.87,-1.11 1.18,1.18 0 0 0 -0.84,-1.19 10.83,10.83 0 0 0 -2.65,-0.59 14.43,14.43 0 0 1 -3.56,-1 4.92,4.92 0 0 1 -3.19,-5.53 c 0.23,-2 1.89,-3.57 4.27,-4.15 a 12,12 0 0 1 3.21,-0.32 z"
     id="path624"
     style="fill:#1e1e1c" />
  <path
     class="cls-24"
     d="m 446.36604,16.675623 c -0.65,0.44 -1.22,0.86 -1.83,1.24 a 19.69,19.69 0 0 1 -9.22,3.31 c -0.4,0.08 -0.4,0.08 -0.47,-0.15 a 27.49,27.49 0 0 0 9.73,-11.8500002 1.26,1.26 0 0 0 -0.11,-1.32 16.77,16.77 0 0 0 -8.29,-6.62 18.72,18.72 0 0 0 -9.6,-0.63000002 17.09,17.09 0 0 0 -7.27,3.32000002 15.16,15.16 0 0 0 -4.86,7.2000002 43.29,43.29 0 0 0 4.17,4.18 24.55,24.55 0 0 0 12.26,5.82 12.6,12.6 0 0 0 3.33,0.13 1.77,1.77 0 0 1 -0.82,0.63 39,39 0 0 1 -13.21,4.17 7.62,7.62 0 0 1 -1.17,0.13 v 0 a 16.72,16.72 0 0 0 9.41,4 c 8.31,0.87 16.17,-4.34 17.8,-11.83 a 3.47,3.47 0 0 0 0.15,-1.73 z"
     id="path625"
     style="fill:#1e1e1c" />
  <path
     class="cls-24"
     d="m 248.27604,0.46562278 c 3.29,0 5.86,2.22000002 5.91,5.12000002 0.05,2.9 -2.57,5.2700002 -5.81,5.2700002 -3.24,0 -5.76,-2.2500002 -5.77,-5.2100002 -0.01,-2.96 2.39,-5.17000002 5.67,-5.18000002 z"
     id="path626"
     style="fill:#1e1e1c" />
  <path
     class="cls-24"
     d="m 365.55604,25.715623 c 0,-8.33 0,-16.6700002 0,-25.00000022 0,-0.67 0.28,-0.74 0.88,-0.71 0.35,0 0.44,0.14 0.42,0.42 0,0.11 0,0.23 0,0.34 V 50.645623 c 0,0.36 0.15,0.76 -0.59,0.74 -0.74,-0.02 -0.7,-0.17 -0.7,-0.66 q 0,-12.49 -0.01,-25.01 z"
     id="path627"
     style="fill:#1e1e1c" />
  <path
     class="cls-24"
     d="m 40.816035,15.385623 a 22.25,22.25 0 0 0 -12.82,-12.6400002 29.85,29.85 0 0 0 -15.37,-1.71 c -8.2799999,1.11 -14.7499999,4.75 -18.7599999,11.3800002 -4.6700001,7.7 -4.9400001,15.79 -1.72,24 a 22,22 0 0 0 13.09,12.64 30,30 0 0 0 15.3099999,1.53 c 7.65,-1.09 13.65,-4.47 17.82,-10.35 a 24.44,24.44 0 0 0 4.31,-14.56 26,26 0 0 0 -1.86,-10.29 z m -10.11,18.38 a 13.83,13.83 0 0 1 -10.41,9 c -7.79,1.68 -14.9099999,-1.35 -17.9999999,-8.78 a 20.44,20.44 0 0 1 -1.48000002,-7.58 c 0,-5 1.21000002,-9.32 4.63000002,-13 5.5799999,-6.0000002 15.6299999,-6.5000002 21.5299999,-1 a 15.5,15.5 0 0 1 4.7,8.93 22.25,22.25 0 0 1 -0.97,12.43 z"
     id="path628"
     style="fill:#1e1e1c" />
  <path
     class="cls-24"
     d="m 341.88604,0.62562278 c 0,-0.51 -0.17,-0.6 -0.7,-0.56 -2.93,0.24 -5.87,0.48 -8.81,0.66 -0.72,0 -0.86,0.24 -0.85,0.84000002 0,5.08 0,10.1600002 0,15.4100002 a 18.48,18.48 0 0 0 -12.19,-2 c -6.19,1 -10.81,3.81 -13.51,8.94 a 19.75,19.75 0 0 0 -1.67,13 c 1.84,10.4 11.56,14.71 21.33,13.63 a 15.57,15.57 0 0 0 8,-3.4 c 0.48,-0.38 0.68,-0.32 1,0.14 0.5,0.74 1.09,1.43 1.61,2.15 a 1,1 0 0 0 0.92,0.46 c 1.4,0 2.81,0 4.2,0 0.56,0 0.67,-0.17 0.67,-0.62 q -0.03,-24.32 0,-48.65000022 z m -10.89,39.75000022 a 14.14,14.14 0 0 1 -6.66,2.47 c -4.09,0.29 -7.47,-1.6 -9,-5.15 a 12.47,12.47 0 0 1 0.06,-10.07 c 1.71,-4 5.87,-5.82 10.7,-4.78 a 13.14,13.14 0 0 1 5,2.26 1,1 0 0 1 0.44,0.87 c 0,2.25 0,4.51 0,6.76 0,2.25 0,4.46 0,6.69 a 1,1 0 0 1 -0.54,0.95 z"
     id="path629"
     style="fill:#1e1e1c" />
  <path
     class="cls-24"
     d="m 85.156035,27.705623 a 15.81,15.81 0 0 0 -5.86,-9.18 c -5.08,-4 -15.73,-5.71 -22.51,-0.86 -0.3,0.22 -0.48,0.23 -0.73,-0.07 -0.43,-0.53 -0.93,-1 -1.36,-1.56 a 1.07,1.07 0 0 0 -1,-0.4 c -1.32,0 -2.65,0 -4,0 -0.6,0 -0.7,0.16 -0.7,0.66 0,3.87 0,7.74 0,11.61 q 0,18.32 0,36.62 c 0,0.72 0.21,0.85 1,0.79 2.81,-0.23 5.62,-0.41 8.44,-0.57 0.68,0 0.84,-0.24 0.84,-0.84 0,-4.9 0,-9.79 0,-14.85 a 17.48,17.48 0 0 0 10.39,1.5 c 6.63,-0.84 11.47,-3.89 14.19,-9.4 a 19.76,19.76 0 0 0 1.3,-13.45 z m -11.41,10.65 c -1.71,3.57 -5.55,5.18 -10,4.33 a 13.41,13.41 0 0 1 -3.94,-1.4 0.83,0.83 0 0 1 -0.51,-0.82 c 0,-2.57 0,-5.14 0,-7.72 0,-2.58 0,-5.1 0,-7.65 0,-0.26 0,-0.51 0.29,-0.7 a 12.13,12.13 0 0 1 8.86,-1.56 7.42,7.42 0 0 1 5.62,4.67 13.06,13.06 0 0 1 -0.32,10.85 z"
     id="path630"
     style="fill:#1e1e1c" />
  <path
     class="cls-24"
     d="m 125.06604,24.435623 a 14.75,14.75 0 0 0 -9.57,-8.85 22.25,22.25 0 0 0 -9.26,-0.73 c -6.600005,0.69 -11.570005,3.54 -14.380005,9 a 19.42,19.42 0 0 0 -1.51,13.36 c 1.26,5.87 5,10 11.370005,12.07 a 34.28,34.28 0 0 0 11.63,1.41 22.6,22.6 0 0 0 12.47,-3.83 0.66,0.66 0 0 0 0.29,-1 c -0.82,-1.81 -1.62,-3.63 -2.36,-5.46 -0.25,-0.62 -0.48,-0.64 -1.07,-0.32 a 21.79,21.79 0 0 1 -14.1,2.48 c -4.26,-0.68 -7.32,-3.45 -7.73,-7.12 h 25.35 c 0.3,0 0.38,-0.09 0.39,-0.35 a 25.94,25.94 0 0 0 -1.52,-10.66 z m -24.13,4.87 c 0.71,-4.3 3.7,-6.67 7.92,-6.73 a 7.59,7.59 0 0 1 7.94,6.73 z"
     id="path631"
     style="fill:#1e1e1c" />
  <path
     class="cls-24"
     d="m 405.73604,37.815623 c -0.06,-2.5 -1.62,-4.12 -4.37,-4.67 a 18.11,18.11 0 0 0 -7.26,0.06 5.81,5.81 0 0 0 -3.48,2.08 c -0.25,0.31 -0.29,0.51 0.13,0.75 0.89,0.52 1.76,1.07 2.62,1.64 0.34,0.23 0.54,0.21 0.79,-0.1 a 2.68,2.68 0 0 1 1.81,-0.92 10.27,10.27 0 0 1 3.41,0.07 1.67,1.67 0 0 1 1.44,1.33 6.82,6.82 0 0 1 0.16,1.5 c 0,0.46 -0.2,0.58 -0.68,0.57 -1.38,0 -2.75,0 -4.12,0 a 7.68,7.68 0 0 0 -4.34,1.31 4.78,4.78 0 0 0 -1.74,5.52 5,5 0 0 0 4.13,3.62 c 2.38,0.51 4.76,0.7 6.7,-1.35 a 3.15,3.15 0 0 1 0,0.53 c -0.11,0.64 0.18,0.83 0.88,0.8 1.12,-0.05 2.24,0 3.36,0 0.42,0 0.58,-0.13 0.58,-0.51 0.02,-4.07 0.07,-8.15 -0.02,-12.23 z m -4.83,6.29 a 6.81,6.81 0 0 1 -0.15,1.35 2.39,2.39 0 0 1 -2,1.72 4.92,4.92 0 0 1 -2.84,-0.23 1.73,1.73 0 0 1 -1.09,-1.86 1.81,1.81 0 0 1 1.58,-1.55 11.81,11.81 0 0 1 2.34,-0.12 14,14 0 0 0 1.46,0 c 0.6,-0.07 0.79,0.18 0.7,0.69 z"
     id="path632"
     style="fill:#1e1e1c" />
  <path
     class="cls-24"
     d="m 414.52604,12.295623 a 37.88,37.88 0 0 0 3.54,3.75 21.77,21.77 0 0 0 10.64,5.41 11.26,11.26 0 0 0 2.94,0.22 1.56,1.56 0 0 1 -0.74,0.52 35.18,35.18 0 0 1 -11.87,3.19 5.92,5.92 0 0 1 -1,0.08 11.83,11.83 0 0 1 -4.11,-7.54 11.56,11.56 0 0 1 0.49,-5.31 1.87,1.87 0 0 1 0.11,-0.32 z"
     id="path633"
     style="fill:#1e1e1c" />
</svg>
