<?xml version="1.0" encoding="UTF-8" standalone="no"?>
<!-- Created with Inkscape (http://www.inkscape.org/) -->

<svg
   version="1.1"
   id="svg1"
   width="326.53333"
   height="326.53333"
   viewBox="0 0 326.53333 326.53333"
   sodipodi:docname="optimiste.svg"
   inkscape:version="1.4.2 (ebf0e940d0, 2025-05-08)"
   xmlns:inkscape="http://www.inkscape.org/namespaces/inkscape"
   xmlns:sodipodi="http://sodipodi.sourceforge.net/DTD/sodipodi-0.dtd"
   xmlns="http://www.w3.org/2000/svg"
   xmlns:svg="http://www.w3.org/2000/svg">
  <defs
     id="defs1" />
  <sodipodi:namedview
     id="namedview1"
     pagecolor="#ffffff"
     bordercolor="#000000"
     borderopacity="0.25"
     inkscape:showpageshadow="2"
     inkscape:pageopacity="0.0"
     inkscape:pagecheckerboard="0"
     inkscape:deskcolor="#d1d1d1"
     inkscape:zoom="1.7367282"
     inkscape:cx="124.08389"
     inkscape:cy="197.4978"
     inkscape:window-width="1890"
     inkscape:window-height="991"
     inkscape:window-x="15"
     inkscape:window-y="42"
     inkscape:window-maximized="0"
     inkscape:current-layer="group-R5"
     showgrid="false">
    <inkscape:page
       x="0"
       y="0"
       inkscape:label="1"
       id="page1"
       width="326.53333"
       height="326.53333"
       margin="0"
       bleed="0" />
  </sodipodi:namedview>
  <g
     id="g1"
     inkscape:groupmode="layer"
     inkscape:label="1">
    <g
       id="group-R5">
      <g
         id="path2"
         style="opacity:1;fill:#000000;stroke-width:0.99750002;stroke-dasharray:none"
         transform="matrix(0.13333333,0,0,-0.13333333,0,326.53333)">
        <path
           style="baseline-shift:baseline;display:inline;overflow:visible;fill:#000000;enable-background:accumulate;stop-color:#000000;stop-opacity:1;stroke-width:0.99750002;stroke-dasharray:none"
           d="M 1224.52,20 C 560.348,20 20,560.34 20,1224.52 c 0,664.18 540.348,1204.53 1204.52,1204.53 664.18,0 1204.53,-540.35 1204.53,-1204.53 C 2429.05,560.34 1888.7,20 1224.52,20 Z m 0,2429.05 C 549.316,2449.05 0,1899.73 0,1224.52 0,549.32 549.316,0 1224.52,0 c 675.21,0 1224.53,549.32 1224.53,1224.52 0,675.21 -549.32,1224.53 -1224.53,1224.53"
           id="path15" />
        <path
           style="baseline-shift:baseline;display:inline;overflow:visible;enable-background:accumulate;stop-color:#000000;stop-opacity:1;fill:#000000;stroke-width:0.99750002;stroke-dasharray:none"
           d="M 1224.5195,-5.625 C 546.26468,-5.625 -5.625,546.26868 -5.625,1224.5195 c 0,678.2608 551.88968,1230.1563 1230.1445,1230.1563 678.2609,0 1230.1563,-551.8954 1230.1563,-1230.1563 0,-678.25084 -551.8954,-1230.1445 -1230.1563,-1230.1445 z m 0,11.25 c 672.1592,0 1218.9063,546.74541 1218.9063,1218.8945 0,672.1592 -546.7471,1218.9063 -1218.9063,1218.9063 C 552.36639,2443.4258 5.625,1896.6787 5.625,1224.5195 5.625,552.37038 552.36639,5.625 1224.5195,5.625 Z m 0,8.75 C 557.2967,14.375 14.375,557.28869 14.375,1224.5195 c 0,667.2309 542.92165,1210.1563 1210.1445,1210.1563 667.2309,0 1210.1563,-542.9254 1210.1563,-1210.1563 0,-667.23082 -542.9255,-1210.1445 -1210.1563,-1210.1445 z m 0,11.25 c 661.1292,0 1198.9063,537.76538 1198.9063,1198.8945 0,661.1292 -537.7771,1198.9063 -1198.9063,1198.9063 C 563.39842,2423.4258 25.625,1885.6487 25.625,1224.5195 25.625,563.39037 563.39836,25.625 1224.5195,25.625 Z"
           id="path16" />
      </g>
      <g
         id="path3"
         style="opacity:1;fill:#000000"
         transform="matrix(0.13333333,0,0,-0.13333333,0,326.53333)">
        <path
           id="path13"
           style="baseline-shift:baseline;display:inline;overflow:visible;vector-effect:none;fill:#000000;enable-background:accumulate;stop-color:#000000;stop-opacity:1"
           d="M 1224.5215 2040.4112 C 774.6927 2040.4112 408.64747 1674.3533 408.64747 1224.5225 C 408.64747 774.70167 774.6927 408.64842 1224.5215 408.64842 C 1674.3524 408.64842 2040.4102 774.7016 2040.4102 1224.5225 C 2040.4102 1674.3534 1674.3524 2040.4112 1224.5215 2040.4112 z M 1224.5215 2009.1514 C 1657.2207 2009.1514 2009.1504 1657.2217 2009.1504 1224.5225 C 2009.1504 791.82336 1657.2208 439.89354 1224.5215 439.89354 C 791.82534 439.89354 439.89259 791.8233 439.89259 1224.5225 C 439.89259 1657.2217 791.82542 2009.1514 1224.5215 2009.1514 z " />
      </g>
      <path
         id="path4"
         d="m 785.453,1417.17 256.917,256.94 h 363.44 L 1662.8,1417.17 V 1053.79 L 1405.81,796.84 h -41.86 v 22.859 c -36.85,8.36 -54.58,10.281 -62.12,29.68 377.09,100.519 335.88,778.681 -79.13,778.681 -414.884,0 -456.114,-678.162 -79.1,-778.681 -7.45,-19.399 -25.22,-21.32 -62.03,-29.68 V 796.84 h -0.67 -38.53 l -256.917,256.95 z m 437.247,178.74 c 95.12,0 182.51,-124.6 176.45,-361.67 v -2.4 c -6.19,-118.72 -33.32,-266.539 -101.86,-329.078 V 1403.2 c 0,30.83 25.86,48.82 46.46,53.96 v 35.96 H 1101.8 v -35.96 c 20.53,-5.14 46.42,-23.13 46.42,-53.96 V 902.762 c -68.5,62.578 -95.71,210.358 -101.8,329.078 v 2.4 c -6.13,237.07 81.26,361.67 176.28,361.67 z m 241.05,-938.82 339.17,339.148 V 1476.01 L 1463.7,1815.22 H 983.977 L 644.762,1476.01 V 996.238 L 983.977,657.09 h 479.773"
         style="fill:#000000;fill-opacity:1;fill-rule:nonzero;stroke:none"
         transform="matrix(0.13333333,0,0,-0.13333333,0,326.53333)" />
      <path
         id="path5"
         d="m 1698.31,650.871 v 0.188 c -29.33,-0.188 -53.03,22.703 -53.03,56.711 0,34.039 23.7,56.742 53.03,56.742 28.52,0 52.78,-22.703 52.78,-56.742 0,-34.008 -24.26,-56.899 -52.78,-56.899 z m 0,130.828 c -39.33,0 -74.38,-27.179 -74.38,-73.929 0,-46.711 35.05,-73.938 74.38,-73.938 39.12,0 74.1,27.227 74.1,73.938 0,46.75 -34.98,73.929 -74.1,73.929"
         style="fill:#000000;fill-opacity:1;fill-rule:nonzero;stroke:none"
         transform="matrix(0.13333333,0,0,-0.13333333,0,326.53333)" />
      <path
         id="path6"
         d="m 1700.99,714.988 h -15 v 19.223 h 11.93 c 6.43,0 15.26,-0.621 15.26,-8.859 0,-8.75 -4.48,-10.364 -12.19,-10.364 z m 30.34,8.641 c 0,18.18 -12.11,24.062 -32.63,24.062 h -29.72 V 668.09 h 17.01 v 33.461 h 8.04 l 18.35,-33.461 h 20.15 l -20.36,34.781 c 10.55,0.809 19.16,6.098 19.16,20.758"
         style="fill:#000000;fill-opacity:1;fill-rule:nonzero;stroke:none"
         transform="matrix(0.13333333,0,0,-0.13333333,0,326.53333)" />
      <text
         xml:space="preserve"
         style="font-weight:bold;font-family:Campton;-inkscape-font-specification:'Campton Bold';text-align:start;writing-mode:lr-tb;direction:ltr;text-anchor:start;fill:#000000;stroke:none;stroke-width:3;stroke-linecap:square;stroke-dasharray:none;stroke-opacity:1;paint-order:stroke fill markers;fill-opacity:1"
         x="18.425449"
         y="310.92947"
         id="text17"><tspan
           sodipodi:role="line"
           id="tspan17"
           x="18.425449"
           y="310.92947" /></text>
      <text
         xml:space="preserve"
         style="font-style:normal;font-variant:normal;font-weight:bold;font-stretch:normal;font-family:Helvetica;-inkscape-font-specification:'Helvetica Bold';text-align:start;writing-mode:lr-tb;direction:ltr;text-anchor:start;fill:#000000;fill-opacity:1;stroke:none;stroke-width:3;stroke-linecap:square;stroke-dasharray:none;stroke-opacity:1;paint-order:stroke fill markers"
         x="18.569399"
         y="306.17917"
         id="text18"><tspan
           sodipodi:role="line"
           id="tspan18"
           x="18.569399"
           y="306.17917"
           style="font-style:normal;font-variant:normal;font-weight:bold;font-stretch:normal;font-family:Helvetica;-inkscape-font-specification:'Helvetica Bold'" /></text>
      <path
         d="m 41.754947,108.27109 q -6.397428,-3.64328 -7.907542,-9.04668 -1.317467,-4.701071 1.306446,-9.308545 3.511137,-6.165396 9.178535,-6.71306 3.167251,-0.281417 5.520484,0.905086 l -2.907069,5.104683 q -2.039963,-0.503276 -3.378552,-0.233995 -2.383907,0.486086 -3.941266,3.220738 -1.585674,2.784373 -0.247196,5.675658 1.321904,2.881845 5.432168,5.222605 4.110265,2.34076 7.128128,1.82062 3.010728,-0.54614 4.502017,-3.16478 1.529044,-2.684929 0.574513,-5.094174 -0.501087,-1.316958 -2.097888,-2.906735 l 2.878754,-5.054962 q 3.616708,2.937633 4.56197,7.097504 0.9547,4.143298 -1.471004,8.402727 -3.001456,5.27042 -8.100294,6.36136 -5.115411,1.0815 -11.032204,-2.28805 z M 34.787153,89.904573 Z m 37.783917,-3.69192 -3.425774,4.22036 -21.827404,-17.717865 3.425775,-4.220359 z m -6.788854,-23.1849 8.477604,9.227782 q 1.200026,1.306216 2.115488,1.68247 1.618759,0.662525 3.219926,-0.808475 2.050619,-1.883912 1.286453,-4.23805 -0.432555,-1.260199 -1.787424,-2.734959 l -7.651779,-8.328881 4.0591,-3.729114 14.064823,15.309411 -3.890557,3.574271 -1.98714,-2.162981 q 0.0083,0.121841 0.106199,0.67943 0.09786,0.55759 0.03403,1.108328 -0.166827,1.707255 -0.767806,2.829173 -0.586933,1.109015 -1.766741,2.19291 -3.39897,3.122648 -6.823988,1.762655 -1.898867,-0.741887 -4.311823,-3.368364 L 61.680979,66.795577 Z M 68.21708,60.039737 Z M 92.449628,42.221442 q 3.511911,-2.117033 7.014616,-0.776636 3.519036,1.330551 5.931466,5.332497 2.50106,4.148956 2.18531,8.058413 -0.31574,3.909456 -3.82765,6.026489 -2.20516,1.3293 -4.076304,1.254664 -1.115482,-0.04022 -2.83428,-0.785714 l 1.348993,2.237823 -4.557318,2.747219 -14.494288,-24.044346 4.63899,-2.796452 5.159652,8.559264 q 0.133715,-1.77314 0.801589,-3.066552 0.765421,-1.574916 2.709224,-2.746669 z m 7.748352,15.550508 q 1.79679,-1.083133 1.91684,-3.137547 0.12005,-2.054415 -1.30771,-4.422914 -1.142216,-1.894799 -2.380597,-2.840819 -2.348984,-1.790904 -4.848159,-0.284365 -2.531843,1.526233 -2.090863,4.4005 0.248466,1.520486 1.420218,3.464288 1.378533,2.286826 3.297164,3.179105 1.91863,0.892278 3.993107,-0.358248 z m 36.00533,-14.67117 q 3.40369,-0.772829 4.8237,-3.735618 1.43861,-2.967013 0.38706,-7.59826 -1.04733,-4.612648 -3.62618,-6.66747 -2.56448,-2.077644 -5.96817,-1.304815 -3.40368,0.772829 -4.8609,3.744064 -1.45721,2.971236 -0.40566,7.602483 1.05156,4.631248 3.64901,6.681846 2.59745,2.050599 6.00114,1.27777 z m 10.93937,-12.634595 q 1.67658,7.383956 -1.58001,12.250179 -2.37972,3.904354 -8.25713,5.238856 -5.87741,1.334502 -9.70988,-1.159334 -5.05734,-2.978494 -6.73391,-10.362451 -1.71036,-7.532751 1.59861,-12.254403 2.37973,-3.904353 8.25713,-5.238855 5.87741,-1.334502 9.70988,1.159334 5.00495,2.833922 6.71531,10.366674 z M 130.71749,18.940177 Z m 38.08248,14.978252 q 0.0113,-2.403146 -1.08613,-4.25841 -1.0784,-1.855173 -3.53877,-1.866788 -2.95625,-0.01395 -4.0757,2.784493 -0.5792,1.484961 -0.59,3.773672 -0.0171,3.623792 1.90229,5.101475 1.1403,0.863669 2.70426,0.871052 2.26964,0.01071 3.46042,-1.738382 1.20986,-1.749006 1.22363,-4.667112 z m -3.03853,-10.86689 q 3.64287,0.0172 6.14775,2.718317 2.52396,2.70121 2.49938,7.908027 -0.0259,5.492906 -2.51896,8.361163 -2.47396,2.868346 -6.36477,2.849979 -2.47943,-0.0117 -4.11382,-1.259166 -0.89317,-0.690845 -1.74523,-2.010906 l -0.0511,10.833231 -5.37847,-0.02539 0.13677,-28.971264 5.20681,0.02458 -0.0145,3.070687 q 0.88373,-1.350013 1.87919,-2.127307 1.81847,-1.383746 4.31698,-1.371951 z m 13.04693,5.265785 0.61563,-3.822522 2.86218,0.460961 0.92192,-5.724368 5.31011,0.855204 -0.92193,5.724369 3.33294,0.536777 -0.61562,3.822522 -3.33294,-0.536777 -1.7468,10.846172 q -0.20319,1.26162 0.0654,1.633288 0.27159,0.352837 1.90981,0.616677 0.2448,0.03942 0.50842,0.08188 0.28548,0.02666 0.55214,0.05029 l -0.64595,4.010824 -2.55724,-0.315256 q -3.82492,-0.480782 -4.98484,-2.15512 -0.75525,-1.068244 -0.44592,-2.98892 l 2.0349,-12.635037 z m 23.6192,-1.824809 -5.32683,-1.416867 1.2894,-4.847596 5.32683,1.416868 z m -5.96417,0.979283 5.32682,1.416867 -5.34389,20.090796 -5.32683,-1.416867 z m 35.53857,13.289374 q 1.2356,0.599242 2.20383,1.662348 0.96824,1.063106 1.36383,2.738781 0.31501,1.361031 -0.10121,2.918566 -0.28614,1.027087 -1.16836,2.846162 L 228.54798,62.70005 223.53694,60.269794 229.31296,48.36 q 0.51602,-1.063988 0.50571,-1.916887 -0.0196,-1.620509 -1.77002,-2.469434 -2.02501,-0.98209 -3.61289,0.325171 -0.82749,0.700952 -1.43506,1.953711 l -5.40149,11.137545 -4.92523,-2.388642 5.40149,-11.137545 q 0.80731,-1.664625 0.83029,-2.586169 0.0397,-1.655346 -1.76221,-2.52924 -2.09365,-1.015381 -3.47192,-0.0092 -0.76923,0.580825 -1.50996,2.108162 l -5.45975,11.257672 -4.95956,-2.405288 9.05521,-18.671262 4.75362,2.305415 -1.32333,2.728613 q 1.61698,-1.017585 2.72317,-1.244212 1.95703,-0.407518 4.22229,0.691091 2.14514,1.04035 3.00879,2.625065 0.63952,1.391228 0.52285,3.030445 1.76001,-1.181388 3.55891,-1.262845 1.8847,-0.03984 3.7381,0.859019 z m 18.71626,10.293667 -4.41079,-3.305672 3.00827,-4.013977 4.4108,3.305672 z m -5.89778,-1.321577 4.4108,3.305672 -12.46776,16.635873 -4.41079,-3.305672 z m 3.86934,21.356368 q -0.89747,1.151157 -0.91998,1.987452 -0.046,1.483783 1.8928,3.402038 1.13889,1.126808 2.1386,1.445156 1.01328,0.331763 1.684,-0.34615 0.64389,-0.650797 0.43691,-1.526328 -0.20697,-0.875531 -2.87316,-5.15008 -1.89122,-3.105339 -1.99605,-5.060352 -0.11825,-1.941454 1.59879,-3.67691 2.02557,-2.047297 5.0742,-1.928692 3.07559,0.118461 5.99062,3.002551 2.76588,2.736533 3.40136,5.56535 0.66245,2.828674 -1.76282,5.795198 l -3.8641,-3.823097 q 0.65644,-0.82619 0.74675,-1.595414 0.14079,-1.416855 -1.39129,-2.932679 -1.26092,-1.247537 -2.19227,-1.390923 -0.91779,-0.129971 -1.44095,0.398801 -0.6573,0.664355 -0.38297,1.52604 0.26092,0.875244 2.96707,5.055172 1.76832,2.822774 1.83421,5.061215 0.0389,2.238585 -1.61105,3.90625 -2.17313,2.196438 -5.19536,1.969798 -2.99526,-0.226783 -6.41194,-3.607205 -3.48447,-3.447495 -3.70338,-6.561755 -0.19194,-3.114404 2.06167,-5.392191 z m 13.29818,-7.529082 z m 6.05402,13.263966 3.09449,-2.326971 1.74236,2.317058 4.63412,-3.484725 3.23254,4.298753 -4.63412,3.484724 2.02893,2.698153 -3.09449,2.326971 -2.02893,-2.698153 -8.78043,6.602636 q -1.02134,0.768015 -1.08561,1.222029 -0.049,0.442551 0.94824,1.768762 0.14902,0.198169 0.3095,0.411582 0.18719,0.217194 0.36291,0.419145 l -3.24693,2.4416 -1.62371,-2.000599 q -2.42222,-2.999008 -2.0967,-5.009693 0.19673,-1.293385 1.7516,-2.462602 l 10.22859,-7.691613 z m 14.43513,21.347711 q -0.90325,-1.658148 -2.4435,-2.013666 -1.53112,-0.33877 -3.43424,0.393868 l 4.04184,7.419793 q 1.82877,-1.14823 2.23453,-2.71585 0.43164,-1.559989 -0.39863,-3.084145 z m 3.93601,-2.144093 q 1.24084,2.277861 1.38113,4.568808 0.1403,2.29096 -1.0543,4.48375 -1.04072,1.95694 -3.01124,3.44302 -1.15581,0.86852 -3.53566,2.12148 L 273.3867,98.150458 q -2.69209,1.596797 -2.91251,3.823622 -0.1484,1.36226 0.60887,2.75243 0.8029,1.47391 2.14215,1.93891 0.72594,0.25613 1.73974,0.20341 l 2.65502,4.87395 q -1.72501,0.70077 -4.22105,0.10574 -3.94042,-0.89417 -6.23961,-5.11491 -1.89775,-3.48379 -1.10408,-7.369463 0.79368,-3.885676 5.85187,-6.641063 4.73996,-2.582035 8.57376,-1.564625 3.84292,1.034158 5.93227,4.869673 z m 0.18248,0.33498 z"
         id="text2"
         style="font-weight:bold;font-size:39.0611px;font-family:Helvetica;-inkscape-font-specification:'Helvetica Bold';stroke-width:9.76527;stroke-linecap:square;paint-order:stroke fill markers"
         inkscape:transform-center-x="6.8560238"
         inkscape:transform-center-y="-105.90892"
         aria-label="Club Optimiste" />
      <text
         xml:space="preserve"
         style="font-weight:bold;font-family:Helvetica;-inkscape-font-specification:'Helvetica Bold';text-align:start;writing-mode:lr-tb;direction:ltr;text-anchor:start;fill:#000000;stroke-width:3;stroke-linecap:square;paint-order:stroke fill markers"
         x="14.970679"
         y="302.29254"
         id="text3"><tspan
           sodipodi:role="line"
           id="tspan2"
           x="14.970679"
           y="302.29254" /></text>
      <path
         d="m 295.26181,211.89219 q 1.91538,0.33686 3.06294,-0.11484 2.09078,-0.829 3.15575,-4.13285 0.63781,-1.97868 0.60003,-3.35352 -0.0802,-2.61091 -2.34933,-3.34234 -1.32517,-0.42715 -2.42578,0.50058 -1.08246,0.93359 -2.4287,3.24501 l -1.54819,2.62707 q -2.28979,3.87092 -3.91205,5.11145 -2.72347,2.10795 -6.66268,0.83819 -3.5943,-1.15859 -5.12974,-4.53916 -1.53543,-3.38058 0.0971,-8.44527 1.36339,-4.22966 4.574,-6.48117 3.19831,-2.27553 7.51109,-1.04566 l -1.73203,5.3733 q -2.46117,-0.63302 -4.10969,0.99982 -1.09297,1.09052 -1.71908,3.03289 -0.69632,2.16021 -0.24043,3.72995 0.4559,1.56973 2.01706,2.07296 1.43409,0.46226 2.55166,-0.58025 0.73529,-0.66474 2.23081,-3.12844 l 2.5936,-4.25393 q 1.70331,-2.7975 3.41694,-3.94846 2.66031,-1.78764 6.23645,-0.63491 3.66691,1.18199 5.19244,4.77981 1.51323,3.57381 -0.13687,8.69296 -1.68522,5.22807 -5.02876,7.45678 -3.36169,2.22286 -7.53688,0.87702 z M 277.69658,200.2385 Z m 23.91461,-21.97398 q 0.25441,0.55281 0.39287,1.10962 0.12203,0.53542 0.17299,1.46548 l 0.0679,1.24007 q 0.079,1.74167 0.41706,2.53631 0.57356,1.34496 2.12421,1.54865 1.38045,0.18134 2.10386,-0.4931 0.70697,-0.69584 0.85105,-1.79264 0.22853,-1.73975 -0.60136,-3.32999 -0.8274,-1.60914 -3.52413,-2.02109 z m -2.94481,2.94112 q 0.007,-1.51876 -0.19207,-2.19897 -0.34014,-1.21812 -1.38021,-1.35474 -1.26699,-0.16643 -1.8565,0.66025 -0.60594,0.80529 -0.8295,2.50723 -0.25089,1.90994 0.5903,2.82838 0.62516,0.65922 1.79167,1.00481 l -0.68311,5.20035 q -2.68182,-0.52541 -4.2452,-2.09657 -2.4424,-2.49458 -1.75929,-7.69492 0.44464,-3.38495 2.13256,-5.83713 1.68791,-2.45217 5.41325,-1.96281 l 9.45518,1.24201 q 0.98334,0.12917 2.38767,0.27517 1.06643,0.0824 1.47942,-0.13269 0.41298,-0.21506 0.72837,-0.71226 l 0.79423,0.10433 -0.77005,5.86221 q -0.65633,0.16386 -1.21715,0.18637 -0.56082,0.0225 -1.26796,-0.0127 1.06371,1.27469 1.7234,2.84257 0.77372,1.8714 0.48557,4.065 -0.36764,2.79874 -2.19706,4.42438 -1.84585,1.60425 -4.77695,1.21923 -3.80098,-0.49929 -5.11789,-3.65396 -0.71546,-1.7291 -0.70271,-4.90147 z m -8.58586,-1.41638 z m -0.85249,-19.18731 -0.002,5.51204 -5.01614,-0.002 0.002,-5.51204 z m 2.47761,5.51288 0.002,-5.51204 20.78936,0.007 -0.002,5.51204 z m -1.98589,-22.4466 q -0.44052,-3.19306 0.96213,-5.44669 1.38115,-2.26992 5.25438,-2.80427 l 13.86809,-1.91325 0.76112,5.517 -12.52662,1.72818 q -1.62487,0.22417 -2.43403,0.77863 -1.47761,1.0125 -1.17003,3.24197 0.37796,2.73961 2.84266,3.43926 1.30108,0.3596 3.20936,0.0963 l 11.14737,-1.5379 0.74028,5.36585 -20.55651,2.83599 -0.71681,-5.19581 3.00412,-0.41445 q -1.73045,-0.82021 -2.55724,-1.64956 -1.47638,-1.49063 -1.82827,-4.04129 z m 0.21701,1.99167 z m 2.30543,-13.37501 -3.71912,1.0765 -0.80604,-2.78476 -5.56952,1.61209 -1.49543,-5.16646 5.56952,-1.61209 -0.93862,-3.24278 3.71912,-1.07649 0.93862,3.24277 10.55276,-3.05449 q 1.22749,-0.35529 1.44879,-0.7569 0.20299,-0.3963 -0.25837,-1.9902 -0.0689,-0.23817 -0.14318,-0.49466 -0.0979,-0.26951 -0.19042,-0.5207 l 3.90232,-1.12953 0.8075,2.44679 q 1.19944,3.66368 0.18116,5.42774 -0.64318,1.13924 -2.5119,1.68014 l -12.29324,3.55827 z m -8.01836,-22.79039 q 0.76863,1.72468 2.27576,2.20146 1.49936,0.45937 3.45468,-0.11972 l -3.43946,-7.71751 q -1.91422,0.99928 -2.44327,2.52969 -0.55424,1.52076 0.15229,3.10608 z m -4.09394,1.82454 q -1.05591,-2.36926 -1.01371,-4.66412 0.0422,-2.29485 1.40726,-4.38579 1.19294,-1.86805 3.27531,-3.192843 1.22118,-0.773932 3.69307,-1.833816 l 5.79195,12.996079 q 2.81047,-1.37782 3.20714,-3.58009 0.25619,-1.34616 -0.38823,-2.79211 -0.68323,-1.53305 -1.9813,-2.103 -0.70329,-0.313 -1.71807,-0.34101 l -2.25933,-5.069521 q 1.77525,-0.561478 4.21611,0.230012 3.8569,1.204464 5.81343,5.594559 1.61492,3.62357 0.51498,7.43389 -1.09994,3.81032 -6.36108,6.15506 -4.93015,2.19721 -8.67098,0.87837 -3.74859,-1.33626 -5.52655,-5.32567 z m -0.15528,-0.34842 z m 1.5186,-14.683898 -5.7851,-9.294445 4.37195,-2.721214 5.7851,9.294446 z m -33.10009,-19.936113 3.80287,-3.212264 5.42762,6.425546 17.6739,-14.92903 3.81533,4.516824 -17.6739,14.929031 5.45224,6.454687 -3.80288,3.212265 z m -5.46193,-13.172542 q -1.4877,-1.223757 -2.27147,-2.732843 -0.79849,-1.521201 -0.70678,-3.22391 0.0763,-1.443751 0.71653,-2.522347 0.62815,-1.063866 2.39715,-3.214404 l 7.7545,-9.427018 4.28635,3.525874 -8.03318,9.765802 q -1.06624,1.296215 -1.27864,2.455111 -0.34639,1.591999 1.25915,2.912687 1.66446,1.369154 3.45436,0.964563 1.76305,-0.401977 3.45935,-2.464137 l 7.14868,-8.690532 4.18324,3.441059 -17.799,21.637952 -4.18324,-3.441059 6.31265,-7.674182 q -2.0643,0.648106 -3.70572,0.211676 -1.66826,-0.433816 -2.99393,-1.524292 z M 228.52316,48.103382 q 1.64377,0.929159 3.13888,0.415925 1.4785,-0.52262 2.70581,-2.151223 l -7.35547,-4.157753 q -0.94433,1.941924 -0.45925,3.486841 0.45909,1.552134 1.97003,2.40621 z m -2.20558,3.901886 q -2.25811,-1.276421 -3.58927,-3.146227 -1.33115,-1.869806 -1.47762,-4.362587 -0.15225,-2.211235 0.73361,-4.514841 0.52127,-1.348522 1.87783,-3.670883 l 12.38641,7.001543 q 1.43959,-2.779331 0.44846,-4.785568 -0.59482,-1.234496 -1.97293,-2.013488 -1.46113,-0.825919 -2.84361,-0.51193 -0.75152,0.166738 -1.58391,0.747854 l -4.8317,-2.731165 q 1.09303,-1.507326 3.52592,-2.323013 3.81681,-1.326037 8.00096,1.039096 3.45359,1.952173 4.83594,5.669364 1.38235,3.717191 -1.45206,8.73153 -2.65608,4.698867 -6.44762,5.863917 -3.80815,1.155665 -7.61041,-0.993602 z m -0.33208,-0.187709 z m -9.57561,3.723335 7.85379,-2.111352 3.42038,1.933402 -5.99418,3.162522 z m 9.57561,-3.723335 z M 203.69736,41.72482 q -0.14228,-0.05512 -0.22431,-0.107359 -0.10671,-0.04134 -0.43773,-0.190043 l 2.01197,-5.19313 q 0.45952,0.239392 0.82611,0.401874 0.36658,0.162481 0.59778,0.252055 3.05897,1.185135 4.87998,-0.400222 1.02099,-0.893055 1.92362,-3.22285 l 3.58986,-9.265826 5.1042,1.977521 -7.51044,19.385316 -4.83744,-1.874166 1.30916,-3.379092 q -1.92483,1.483771 -3.0719,1.857533 -1.88442,0.640349 -4.16086,-0.241611 z m -10.78799,-7.457651 q 1.84072,0.42083 3.12689,-0.498145 1.26757,-0.923227 1.97846,-2.834581 l -8.23673,-1.883111 q -0.35019,2.130773 0.55604,3.472722 0.88337,1.356291 2.57534,1.743115 z m -0.99894,4.369372 q -2.52865,-0.578111 -4.33851,-1.989696 -1.80985,-1.411586 -2.66237,-3.758632 -0.77763,-2.07558 -0.58679,-4.536259 0.11428,-1.441239 0.75084,-4.054361 l 13.87043,3.171107 q 0.58557,-3.074768 -0.9374,-4.71424 -0.92271,-1.013114 -2.46593,-1.365932 -1.63619,-0.374072 -2.87135,0.321787 -0.67257,0.374489 -1.30425,1.169188 l -5.41058,-1.236987 q 0.61685,-1.756769 2.71531,-3.233503 3.27891,-2.361185 7.96436,-1.28998 3.86736,0.884169 6.25405,4.051521 2.38669,3.167351 1.10295,8.782459 -1.20299,5.26184 -4.50367,7.461528 -3.31927,2.195436 -7.57709,1.222 z m -0.37186,-0.08502 z m -3.64382,1.475595 3.83017,0.875668 4.36271,6.847325 -5.89401,-1.347508 z m 3.64382,-1.475595 z m -15.8908,-17.386247 q -0.0873,-1.457049 -0.6231,-2.09954 -0.9461,-1.143953 -3.66892,-1.302151 -1.59942,-0.09293 -2.56007,0.328882 -0.97969,0.420703 -1.03501,1.372737 -0.0531,0.913953 0.68087,1.434222 0.73397,0.520269 5.55995,1.966066 3.47164,1.080534 4.84239,2.478419 1.37187,1.378845 1.23027,3.816053 -0.16705,2.875145 -2.53333,4.800998 -2.38643,1.943788 -6.48018,1.705937 -3.8843,-0.225682 -6.23079,-1.928623 -2.36664,-1.685007 -2.50716,-5.514164 l 5.4266,0.31529 q 0.0534,1.053876 0.49401,1.690835 0.83075,1.156356 2.98235,1.281366 1.77078,0.102884 2.56449,-0.405044 0.77467,-0.509035 0.81782,-1.251622 0.0542,-0.932994 -0.72117,-1.398353 -0.77426,-0.4844 -5.56769,-1.832781 -3.19266,-0.949696 -4.72151,-2.586026 -1.5087,-1.654265 -1.37263,-3.99627 0.17922,-3.084592 2.59709,-4.911923 2.39772,-1.809396 7.19598,-1.530613 4.89345,0.284315 7.11598,2.476782 2.20238,2.210402 2.01652,5.409239 z m -5.00381,14.439203 z m -21.58093,-3.926053 q 1.87707,-0.204824 2.79161,-1.494151 0.89558,-1.287259 0.94172,-3.326011 l -8.3994,0.916538 q 0.36651,2.128026 1.66205,3.099447 1.27864,0.99245 3.00402,0.804177 z m 0.4862,4.455661 q -2.57859,0.281375 -4.75077,-0.460085 -2.17219,-0.741459 -3.74595,-2.680193 -1.41414,-1.706733 -2.03921,-4.094336 -0.36373,-1.399261 -0.61753,-4.076795 l 14.14435,-1.543424 q -0.45307,-3.097069 -2.42876,-4.147759 -1.20348,-0.655304 -2.77718,-0.483582 -1.66851,0.182066 -2.60787,1.24387 -0.51295,0.573995 -0.84973,1.531673 l -5.51743,0.602059 q 0.008,-1.861903 1.5074,-3.944132 2.32548,-3.304332 7.10346,-3.825703 3.94374,-0.430338 7.23565,1.781376 3.29192,2.211714 3.91674,7.937711 0.58551,5.365753 -1.8134,8.524609 -2.41787,3.160925 -6.75977,3.634711 z m -0.3792,0.04138 z"
         id="text4"
         style="font-weight:bold;font-size:39.0611px;font-family:Helvetica;-inkscape-font-specification:'Helvetica Bold';letter-spacing:3.15px;stroke-width:3;stroke-linecap:square;paint-order:stroke fill markers"
         inkscape:transform-center-x="10.836814"
         inkscape:transform-center-y="117.24148"
         transform="rotate(128.16986,162.57601,161.95578)"
         aria-label="Sainte-Thérèse" />
    </g>
  </g>
</svg>
