<?xml version="1.0" encoding="UTF-8" standalone="no"?>
<svg
   version="1.1"
   id="Layer_1"
   x="0px"
   y="0px"
   width="100%"
   viewBox="0 0 5906 1718"
   enable-background="new 0 0 5906 1718"
   xml:space="preserve"
   sodipodi:docname="samtec.svg"
   inkscape:version="1.4.2 (ebf0e940d0, 2025-05-08)"
   xmlns:inkscape="http://www.inkscape.org/namespaces/inkscape"
   xmlns:sodipodi="http://sodipodi.sourceforge.net/DTD/sodipodi-0.dtd"
   xmlns="http://www.w3.org/2000/svg"
   xmlns:svg="http://www.w3.org/2000/svg"><defs
   id="defs21" /><sodipodi:namedview
   id="namedview21"
   pagecolor="#ffffff"
   bordercolor="#000000"
   borderopacity="0.25"
   inkscape:showpageshadow="2"
   inkscape:pageopacity="0.0"
   inkscape:pagecheckerboard="0"
   inkscape:deskcolor="#d1d1d1"
   inkscape:zoom="0.14663432"
   inkscape:cx="2571.0216"
   inkscape:cy="716.06702"
   inkscape:window-width="1890"
   inkscape:window-height="991"
   inkscape:window-x="15"
   inkscape:window-y="42"
   inkscape:window-maximized="0"
   inkscape:current-layer="Layer_1"
   showgrid="false" />


<path
   fill="#fe5f02"
   opacity="1"
   stroke="none"
   d="m 3805.0627,2 c 0.8255,13.656631 0.6338,27.313158 0.616,40.96991 -0.066,50.653694 -0.075,101.30746 -0.1045,151.96121 -0,1.66614 0,3.33229 0.01,4.99843 0.01,4.04327 1.9673,6.22305 6.0752,6.22224 3.6651,-7.3e-4 7.3301,-0.14195 10.9951,-0.1436 64.6504,-0.029 129.3006,-0.0542 193.951,-0.0575 10.3261,-5.3e-4 11.144,0.77744 11.1406,10.48874 -0.025,70.31516 -0.069,140.63034 -0.114,210.9455 -0,2.3291 0.1343,4.68872 -0.1814,6.98077 -0.6428,4.67194 -3.507,6.87252 -8.229,6.89942 -205.8391,1.1726 0,0 -205.8391,1.1726 -5.885,0.0335 -7.3245,2.28501 -7.6997,8.23993 -0.1465,2.32389 -0.04,4.664 -0.04,6.99674 0.011,327.58441 0.023,655.16872 0.034,982.75322 2e-4,10.9967 -0.1128,21.9946 0.012,32.9899 0.1126,9.9266 0.523,10.2391 10.0518,10.2361 64.3171,-0.021 128.634,-0.046 192.9511,-0.07 1.6663,-6e-4 3.3323,-0.01 4.9986,0.01 11.7876,0.1108 11.8264,0.1446 11.8247,11.6308 -0.01,48.9877 -0.032,97.9754 -0.022,146.963 0,25.3256 0.068,50.651 0.3079,76.8961 C 3893.9583,1720 3761.9163,1720 3628.9373,1720 c -6.595,-2.5762 -12.2283,-5.2083 -17.9146,-7.7197 -47.6106,-21.0283 -78.1196,-56.4446 -89.7373,-107.4187 -1.9058,-8.3625 -2.7109,-17.1525 -2.7148,-25.7454 -0.07,-152.6161 0.2399,-305.2322 0.1106,-457.8481 -0.1873,-220.58469 -0.6624,-441.1691 -1.0101,-661.75364 -0.025,-16.01046 -0.01,-16.09835 -15.9067,-16.10687 -67.2915,-0.036 -134.5828,-0.0153 -202.2798,-0.0153 -4.1914,-3.61834 -3.2798,-8.84683 -3.2842,-13.69354 -0.041,-46.98456 0.032,-93.96924 0.01,-140.95383 -0.014,-23.99081 -0.1453,-47.98167 -0.2671,-71.9723 -0.051,-10.00394 0.6123,-10.80872 10.6955,-10.80953 65.9785,-0.005 131.9571,0.0416 197.9356,0.0151 4.2295,-0.002 8.459,-0.47454 12.9082,-0.7414 0.479,-2.3651 1.0725,-3.9311 1.0732,-5.49739 0.033,-65.31012 0.013,-130.620268 -0.2761,-196.834939 C 3613.3752,2 3708.7502,2 3805.0627,2 Z"
   id="path3"
   sodipodi:nodetypes="csssssssssssscsssssssccssssssccsssscccc" />
<path
   fill="#fe5f03"
   opacity="1"
   stroke="none"
   d="m 7.760455,674.6474 c 6.287952,-30.45691 21.988717,-55.73163 45.049695,-75.84528 24.29419,-21.18927 52.40619,-35.13818 85.46187,-36.5697 17.61143,-0.76269 35.23533,-1.74957 52.85397,-1.75696 254.64659,-0.10681 509.29326,-0.0644 763.93987,-0.0579 0.99994,6e-5 2.00018,-0.0189 2.99975,1.9e-4 9.4281,0.17968 10.11157,0.7163 10.12189,10.43719 0.0608,57.32855 0.0433,114.65704 0.0323,171.98559 -4.3e-4,2.32911 -0.0629,4.67432 -0.33759,6.9834 -0.40265,3.38477 -2.23108,5.49036 -5.84717,5.5932 -1.66503,0.0474 -3.33227,0.0216 -4.99847,0.0214 -210.31665,-0.0242 -420.6333,-0.049 -630.94995,-0.0742 -0.33331,0 -0.6666,-0.002 -0.99991,-0.005 -15.68881,-0.14338 -15.72565,-0.14338 -15.75113,16.1604 -0.0422,26.99774 -0.0837,53.99578 -0.0181,80.9934 0.0268,10.99085 0.49625,11.29541 11.19117,11.29358 168.98636,-0.0286 337.97296,0.0889 506.95868,-0.25274 19.30896,-0.0391 36.64062,5.53863 53.77771,13.14117 19.41833,8.61456 36.30871,20.92377 50.53015,36.51971 15.64166,17.15357 28.08502,36.58851 33.07739,59.55066 2.52441,11.61109 3.26843,23.79694 3.31372,35.72869 0.28082,73.9931 0.203,147.988 0.0469,221.9819 -0.0204,9.6377 0.27996,19.6601 -2.15754,28.815 -3.30957,12.4302 -8.08007,24.7393 -14.06152,36.1358 -13.41785,25.5654 -32.49579,46.3535 -58.00763,60.3126 -9.82171,5.3739 -20.65332,9.0333 -31.26062,12.812 -19.36542,6.8983 -39.60882,7.6565 -59.92212,7.6544 -266.31164,-0.027 -532.62335,-0.031 -799.869388,-0.1226 C 2,1306.6249 2,1237.2498 2.926709,1166.7808 c 3.259625,-1.1217 5.592538,-1.1735 7.925457,-1.1737 217.998934,-0.024 435.997904,-0.043 653.996834,-0.062 2.33307,-2e-4 4.66846,0.092 6.99866,0.016 3.96936,-0.129 6.15454,-2.2497 6.35968,-6.2077 0.15509,-2.9912 0.14996,-5.9929 0.14734,-8.9899 -0.0197,-22.6661 -1.03199,-45.3849 0.18933,-67.9833 1.19641,-22.1383 -2.66382,-19.5179 -19.52631,-19.524 -172.33237,-0.063 -344.66479,-0.044 -516.99707,-0.168 -6.93959,-0 -13.98846,-0.6404 -20.79591,-1.9627 -17.45193,-3.3906 -33.319553,-10.615 -48.636005,-19.7289 C 60.645123,1033.89 50.200092,1025.0449 41.153782,1015.0482 25.171595,997.38666 13.077818,977.10523 7.911027,953.37335 7.189674,950.06006 7.089594,677.89679 7.760455,674.6474 Z"
   id="path4"
   sodipodi:nodetypes="sssssssssscscsscssssssssssscccscssssscssss" />





<path
   fill="#fe5f03"
   opacity="1"
   stroke="none"
   d="m 3416.2187,1368.7308 c 0.027,6.064 -3.9956,7.1055 -9.0387,7.0911 -83.9976,-0.023 -171.7628,0.036 -255.7603,-0.015 -16.7837,-0.01 -16.7359,-0.073 -16.7351,-16.4207 0.01,-197.3277 2e-4,-394.65532 -0.013,-591.98296 0,-2.32879 0.5193,-4.95575 -0.3767,-6.90436 -0.9341,-2.03137 -3.0957,-4.5094 -5.0638,-4.8587 -5.2065,-0.92395 -10.5981,-1.04834 -15.9167,-1.05981 -61.6633,-0.13282 -123.3267,-0.18818 -184.99,-0.25006 -2.3318,-0.002 -4.6794,-0.008 -6.9927,0.23992 -6.2871,0.67487 -8.154,2.51948 -8.75,8.70002 -0.2234,2.31317 -0.084,4.66272 -0.084,6.99572 0.025,197.6612 0.052,395.32233 0.081,592.98363 0,11.5887 -1.0113,12.5603 -14.6724,12.5667 -74.3313,0.035 -148.6626,0.015 -222.9939,0.018 -9.6663,4e-4 -19.3347,0.1511 -28.998,-0.01 -8.5201,-0.1415 -9.1285,-0.8682 -9.3233,-9.1225 -0.07,-2.9981 -0.01,-5.9996 -0.01,-8.9995 -0.019,-195.9945 -0.037,-391.98894 -0.056,-587.98344 -3e-4,-0.99994 0.019,-2.00037 0,-2.99982 -0.2456,-10.79193 -1.5088,-12.12482 -12.1641,-12.13452 -44.332,-0.0402 -88.6643,-0.0285 -132.9963,-0.043 -22.9993,-0.008 -45.9988,-0.0592 -68.998,-0.0344 -12.2771,0.0132 -13.8252,1.56867 -13.824,13.78553 0.01,98.99725 0.045,197.99456 0.058,296.99185 0.013,98.9973 0.01,197.9945 0.012,296.9918 3e-4,1.6666 0.068,3.3359 0,4.9994 -0.2996,7.089 -1.1758,8.2009 -8.0662,8.4896 -6.9892,0.293 -13.9968,0.1985 -20.9963,0.1958 -74.3311,-0.029 -148.6619,-0.068 -222.9929,-0.1156 -18.5364,-0.012 -18.5181,-0.03 -18.5176,-18.6106 0.01,-214.9941 -0.1184,-429.9884 0.1177,-644.98229 0.043,-39.14331 11.2441,-74.8786 37.7519,-104.62067 18.0088,-20.20618 41.0713,-32.13629 66.7886,-39.91742 19.4773,-5.89331 39.4563,-6.76532 59.3342,-6.83685 114.3286,-0.4115 228.6597,-0.20716 342.9898,-0.19531 36.0842,0.004 68.9414,10.2099 97.883,31.89911 10.655,7.98516 20.4368,17.06713 28.1131,28.17559 2.3879,3.45569 5.3081,6.54364 8.2854,10.16565 5.9255,-7.24933 11.3046,-13.44067 16.2534,-19.95886 13.9541,-18.38086 32.8884,-29.78583 53.6787,-38.53412 14.1601,-5.95825 28.843,-9.83911 44.3633,-10.17242 17.9753,-0.38593 35.9441,-1.50147 53.9167,-1.52863 101.3306,-0.15289 202.6614,-0.17584 303.9915,0.0397 14.6306,0.0311 29.4778,0.281 43.8447,2.69201 38.2456,6.4184 70.3328,23.82422 92.5967,56.68122 15.0185,22.16448 24.7822,46.31903 26.3706,73.32843 0.7617,12.94769 1.7248,25.91314 1.7336,38.87115 0.1165,167.99536 0.1756,335.99101 -0.011,503.98611 -0.035,31.302 0,0 0.1771,132.4032 z"
   id="path10"
   sodipodi:nodetypes="ccscssssssscssssscssssssssssssssssssssccssssssscsc" />
<path
   fill="#FE5F02"
   opacity="1.000000"
   stroke="none"
   d=" M1658.000000,562.604065   C1728.655029,562.598389 1798.310303,562.651428 1867.965210,562.551147   C1889.525513,562.520081 1910.439697,566.034851 1930.370483,574.119385   C1957.014404,584.927063 1977.768555,603.195068 1993.907349,626.785217   C2006.090332,644.592957 2013.952759,664.233032 2018.480225,685.327820   C2021.431763,699.080688 2022.751221,712.867615 2022.743774,726.951355   C2022.637817,926.251404 2022.696411,1125.551514 2022.745850,1324.851685   C2022.748291,1334.512817 2023.140259,1344.173706 2023.149414,1353.834961   C2023.155029,1359.729004 2022.774902,1365.623291 2022.542358,1372.249146   C2018.215332,1372.445679 2014.967773,1372.722290 2011.720093,1372.722412   C1750.763428,1372.738159 1489.806885,1372.675781 1228.850220,1372.791260   C1191.283203,1372.807861 1158.127441,1361.143433 1130.378052,1336.002197   C1099.111084,1307.673950 1081.467773,1272.487305 1081.401611,1229.609253   C1081.296387,1161.287476 1081.722656,1092.963501 1081.289551,1024.644531   C1081.044678,986.020020 1092.698853,951.648315 1117.573975,922.598389   C1138.629272,898.009521 1165.461182,882.049438 1197.876709,875.565247   C1212.136841,872.712769 1226.226807,872.291077 1240.547119,872.296631   C1401.186768,872.358826 1561.826294,872.356567 1722.465942,872.377869   C1737.337036,872.379822 1737.398071,872.399414 1737.409668,857.724915   C1737.427734,835.062256 1737.504272,812.397705 1737.246704,789.737488   C1737.133423,779.780334 1736.180298,769.835022 1735.768555,759.877747   C1735.601196,755.830566 1733.804443,753.638977 1729.748169,753.521118   C1725.085083,753.385559 1720.418457,753.304871 1715.753418,753.304688   C1507.454712,753.298035 1299.156128,753.301880 1090.857422,753.308594   C1077.629883,753.309021 1077.535645,753.324036 1077.531860,740.312378   C1077.515625,684.988342 1077.558594,629.664307 1077.586914,574.340271   C1077.588013,572.341431 1077.666016,570.342712 1077.700684,568.343811   C1077.773682,564.133667 1080.066284,562.411682 1084.099365,562.567383   C1085.763550,562.631653 1087.431763,562.597900 1089.098145,562.597900   C1278.398804,562.600464 1467.699341,562.602051 1658.000000,562.604065  M1657.000000,1075.916626   C1565.083984,1075.914673 1473.167969,1075.902588 1381.251953,1075.921997   C1368.410278,1075.924805 1368.379517,1076.010986 1368.377686,1088.626831   C1368.373901,1115.934692 1368.385742,1143.242432 1368.396240,1170.550293   C1368.400391,1181.442627 1368.892090,1181.943481 1379.487061,1181.943237   C1483.058960,1181.941162 1586.630859,1181.934692 1690.202759,1181.940186   C1702.856567,1181.940796 1715.510498,1182.061646 1728.163940,1182.016113   C1736.217773,1181.987183 1737.608276,1180.481812 1737.590820,1172.889404   C1737.526733,1144.920166 1737.509155,1116.951050 1737.474121,1088.981812   C1737.471191,1086.650757 1737.492065,1084.319214 1737.458252,1081.988647   C1737.405518,1078.361572 1735.357422,1076.486938 1731.923584,1076.172974   C1729.277954,1075.931030 1726.602539,1075.960449 1723.940430,1075.957275   C1702.293579,1075.932007 1680.646851,1075.927368 1657.000000,1075.916626  z"
   id="path11" />

<path
   fill="#FE5F02"
   opacity="1.000000"
   stroke="none"
   d=" M3908.205078,698.036743   C3909.708984,688.274719 3910.136963,678.193604 3912.920898,668.811462   C3920.739502,642.460022 3935.116455,619.752869 3955.592773,601.477112   C3979.365723,580.258850 4006.807861,566.626465 4038.885986,561.894043   C4052.863525,559.832092 4066.672852,559.399109 4080.594971,559.393982   C4282.564453,559.319641 4484.534180,559.436218 4686.503906,559.240662   C4706.067871,559.221680 4725.152344,562.178162 4743.366211,568.239685   C4771.709961,577.672058 4794.844727,595.264343 4813.292969,618.915649   C4825.108887,634.064392 4833.918457,650.859253 4839.023926,669.232971   C4842.377441,681.302551 4844.561035,693.680176 4844.526367,706.572937   C4844.217773,821.220642 4844.360840,935.869507 4844.371582,1050.518066   C4844.371582,1051.517822 4844.418457,1052.517944 4844.399902,1053.517090   C4844.239746,1062.194946 4842.911133,1063.510742 4834.536621,1063.385498   C4822.214844,1063.201416 4809.893066,1062.880371 4797.571289,1062.879517   C4604.600586,1062.865845 4411.629395,1062.894409 4218.658691,1062.912964   C4209.740723,1062.913818 4200.823242,1062.913086 4191.043945,1062.913086   C4190.699219,1067.409302 4190.247070,1070.606445 4190.241211,1073.804321   C4190.191895,1100.466919 4190.183594,1127.129761 4190.250488,1153.792236   C4190.280273,1165.736694 4190.370605,1165.746826 4202.725586,1165.746460   C4411.027344,1165.739136 4619.329590,1165.732056 4827.631348,1165.714233   C4844.284180,1165.712769 4844.287109,1165.676270 4844.288574,1182.077515   C4844.294434,1242.068481 4844.298340,1302.059448 4844.302734,1362.050415   C4844.302734,1364.050049 4844.223145,1366.053345 4844.313477,1368.048706   C4844.543945,1373.123779 4841.740723,1375.317749 4837.089844,1375.658569   C4834.435059,1375.853149 4831.762695,1375.856201 4829.098145,1375.857300   C4762.108398,1375.884888 4695.119141,1375.912720 4628.129395,1375.915894   C4436.824707,1375.925049 4245.520020,1376.147583 4054.216553,1375.674927   C4026.656738,1375.606812 4000.512695,1367.942017 3976.932373,1352.507446   C3961.153809,1342.179443 3947.128418,1330.102783 3936.197266,1314.848389   C3920.094727,1292.376953 3908.819580,1267.863770 3908.867188,1238.751221   C3911.316406,1236.658936 3913.407959,1235.601562 3913.715088,1234.163208   C3914.328125,1231.291748 3913.995361,1228.211304 3913.995361,1225.217163   C3914.000732,1053.467285 3914.000000,881.717346 3913.998535,709.967468   C3913.998535,707.637634 3913.905518,705.305298 3913.984375,702.978516   C3914.123535,698.859253 3911.631592,697.927856 3908.205078,698.036743  M4207.232422,861.870911   C4306.460449,861.881775 4405.688965,861.892151 4504.916992,861.904175   C4518.901855,861.905823 4532.887695,862.019409 4546.871094,861.890869   C4559.089844,861.778564 4559.116699,861.625427 4558.509766,849.863708   C4558.458496,848.869873 4558.555176,847.869141 4558.564453,846.871460   C4558.828125,818.600647 4559.127930,790.330139 4559.325195,762.058899   C4559.375977,754.787964 4556.970703,752.838013 4549.455078,753.444153   C4544.819824,753.818054 4540.180176,754.432495 4535.541992,754.438171   C4426.325195,754.570984 4317.108887,754.635681 4207.892090,754.712708   C4203.896973,754.715515 4199.798340,754.186584 4195.948730,754.936401   C4193.916016,755.332520 4191.702637,757.650818 4190.699707,759.663879   C4189.747559,761.575745 4190.156250,764.220642 4190.155273,766.543457   C4190.144531,794.513611 4190.122559,822.483887 4190.243652,850.453613   C4190.258789,853.970886 4191.075195,857.484802 4191.630859,861.871887   C4196.774902,861.871887 4201.041016,861.871887 4207.232422,861.870911  z"
   id="path13" />
<path
   fill="#fe5f02"
   opacity="1"
   stroke="none"
   d="m 5546,1165.7053 c 22.3286,0.062 43.6572,0.1292 64.9858,0.1801 2.3326,0.01 4.6709,0.012 6.9956,-0.1444 4.7129,-0.3162 7.3374,-2.8472 7.5015,-7.6243 0.091,-2.6608 -0.083,-5.3298 -0.082,-7.9951 0.018,-52.99 0.043,-105.98 0.076,-158.97005 0,-2.33173 -0.045,-4.67633 0.1709,-6.99237 0.3662,-3.91095 2.7002,-6.03449 6.5732,-6.12836 4.3272,-0.10498 8.6616,0.11589 12.9927,0.11878 249.8774,0.16638 0,0 249.8774,0.16638 2.2447,0.001 4.4131,2.86279 5.085,4.88238 0.9033,2.71302 0.3628,5.92139 0.3647,8.91712 0.054,80.98502 -0.086,161.97062 0.2305,242.95442 0.1367,34.945 -11.9726,65.1797 -34.3452,91.2371 -17.915,20.8649 -40.582,34.7357 -67.2207,42.7094 -14.7285,4.4088 -29.4917,5.0492 -44.4326,5.1008 -53.3228,0.1846 -106.6465,0.052 -159.9702,0.043 -163.9698,-0.028 -327.9395,-0.013 -491.9092,-0.1676 -11.3013,-0.011 -22.8599,-0.01 -33.8413,-2.2545 -16.2696,-3.3251 -31.8985,-9.0917 -46.5591,-17.3678 -34.8291,-19.6609 -56.836,-49.087 -68.749,-86.9488 -3.9937,-12.6937 -4.4434,-25.5074 -4.5039,-38.3911 -0.7046,-150.2815 -1.4947,-300.56376 -1.5508,-450.84617 -0.013,-34.56281 1.1015,-69.24927 10.2085,-103.0813 9.708,-36.06348 26.7783,-67.41364 57.6758,-89.52106 17.1831,-12.29468 36.5922,-19.46185 57.5825,-23.76434 21.9013,-4.4892 43.727,-3.32971 65.5927,-3.34729 204.9624,-0.16474 409.9249,-0.18085 614.8873,0.0411 35.3803,0.0383 67.2143,10.86579 94.7729,33.86921 26.125,21.80615 41.1939,49.49218 48.5913,82.43707 3.1265,13.92462 3.5234,27.65643 3.5347,41.60913 0.044,57.65613 0.012,115.31225 0.01,172.96838 -5e-4,2.33283 0.013,4.66608 -0.023,6.99848 -0.074,4.76013 -2.1529,7.55804 -7.2691,7.39624 -1.6641,-0.0526 -3.332,0.007 -4.998,0.007 -82.3184,-0.005 -164.6368,-0.002 -246.9551,-0.024 -15.9868,-0.004 -15.9068,-0.0745 -15.8696,-16.26972 0.094,-40.65887 0.1118,-81.31811 0.093,-121.97717 -0,-9.61981 -1.2231,-10.75928 -11.0757,-10.76154 -116.3115,-0.0272 -232.623,-0.0337 -348.9345,-0.0328 -7.6958,6e-5 -9.0523,1.23193 -9.2622,9.2962 -0.209,7.99188 -0.022,15.99378 -0.025,23.99127 -0.053,121.64356 -0.1089,243.2872 -0.1504,364.9307 -10e-4,1.9966 0.1811,3.9928 0.2607,5.9899 0.1978,4.9614 2.8994,7.157 7.7276,7.0574 5.33,-0.1101 10.6606,-0.2755 15.9907,-0.2766 88.3164,-0.018 176.6333,-0.014 265.9497,-0.015 z"
   id="path14"
   sodipodi:nodetypes="cssscsssssscssssssssscsssssssscssscsssssssssssc" />
<path
   fill="#020202"
   opacity="1.000000"
   stroke="none"
   d=" M5734.000000,213.076416   C5783.991699,213.091980 5832.983398,213.106583 5881.975098,213.124451   C5884.307617,213.125305 5886.640625,213.150101 5888.973145,213.172211   C5893.596680,213.216064 5895.518066,215.834320 5895.541992,220.168884   C5895.556641,222.834106 5895.425781,225.499924 5895.426270,228.165466   C5895.438965,295.486877 5895.456055,362.808258 5895.486328,430.129669   C5895.490234,438.586884 5894.891602,439.381348 5886.612305,439.456696   C5873.949219,439.571960 5861.284180,439.494781 5848.619629,439.494385   C5280.714844,439.476440 4712.810059,439.457886 4144.905273,439.439606   C4140.906250,439.439453 4136.907715,439.458252 4132.908691,439.438721   C4128.791016,439.418549 4126.812988,437.250183 4126.848145,433.206787   C4126.879883,429.541443 4127.052734,425.876801 4127.052734,422.211853   C4127.045898,356.223022 4127.028320,290.234192 4126.996582,224.245361   C4126.991211,213.539368 4127.480469,213.051086 4138.269043,213.088974   C4148.600098,213.125244 4158.931152,213.076859 4169.262207,213.076843   C4690.508301,213.075821 5211.753906,213.076004 5734.000000,213.076416  z"
   id="path15" />
<path
   fill="#FE4C04"
   opacity="1.000000"
   stroke="none"
   d=" M3907.844482,698.913086   C3911.631592,697.927856 3914.123535,698.859253 3913.984375,702.978516   C3913.905518,705.305298 3913.998535,707.637634 3913.998535,709.967468   C3914.000000,881.717346 3914.000732,1053.467285 3913.995361,1225.217163   C3913.995361,1228.211304 3914.328125,1231.291748 3913.715088,1234.163208   C3913.407959,1235.601562 3911.316406,1236.658936 3909.236328,1237.936279   C3908.067139,1231.714844 3907.369141,1225.445679 3907.366943,1219.176392   C3907.312988,1052.037109 3907.328857,884.897827 3907.341797,717.758545   C3907.342285,711.768799 3907.434326,705.779114 3907.844482,698.913086  z"
   id="path16" />
<path
   fill="#020202"
   opacity="1.000000"
   stroke="none"
   d=" M473.999939,438.555237   C321.352264,438.564514 169.704620,438.574860 18.056978,438.579285   C9.247316,438.579529 8.861856,438.226807 8.861004,429.797821   C8.854100,361.473083 8.850654,293.148346 8.906965,224.823654   C8.909590,221.638672 9.489408,218.454178 9.895871,214.291931   C14.173928,214.291931 17.445459,214.290741 20.716990,214.292130   C33.714996,214.297638 46.713005,214.309235 59.711010,214.309250   C1100.250000,214.309967 2140.788818,214.314651 3181.327881,214.263306   C3196.790771,214.262543 3196.104248,214.831665 3196.050781,228.939285   C3195.798340,295.592865 3196.069824,362.248566 3196.215820,428.903351   C3196.235107,437.683655 3195.640137,438.476776 3186.666748,438.565674   C3182.001221,438.611877 3177.334473,438.555725 3172.668457,438.555725   C2273.445557,438.554932 1374.222778,438.554962 473.999939,438.555237  z"
   id="path17" />
<path
   fill="#020202"
   opacity="1"
   stroke="none"
   d="m 1991.9995,1715.3604 c -661.1689,4e-4 -1982.8776998,-0.053 -1982.8776998,-0.053 0.032542,-70.9073 -0.023825,-141.8151 -0.044148,-212.7225 -0.00294,-9.8516 -0.010848,-9.8835 9.995979,-9.9104 13.998211,-0.038 27.996567,-0.029 41.994858,-0.029 1115.559411,-2e-4 2231.119011,6e-4 3346.678311,4e-4 4.9993,0 10.001,-0.1129 14.9971,0.01 4.3865,0.1074 6.7009,2.3536 6.5737,6.9316 -0.1296,4.6635 -0.1555,9.3308 -0.1557,13.9965 -0.01,62.9939 -5e-4,125.9878 0,188.9817 2e-4,3.6085 -0.01,7.6262 0,10.089 -0.1277,2.1369 -0.2233,2.5923 -1.6433,2.6808 -478.5066,0.082 -957.0143,0.032 -1435.5213,0.025 z"
   id="path18"
   sodipodi:nodetypes="ccsssssscszscc" />
<path
   fill="#020202"
   opacity="1"
   stroke="none"
   d="m 4128.3535,1675.9988 c -1.2899,-58.9467 0,38.9643 -0.4561,-176.9595 -0.01,-4.1085 1.9321,-6.1844 5.9604,-6.3597 1.6626,-0.072 3.3316,0.014 4.9976,0.014 581.2573,0.01 1162.5141,0.012 1743.7715,0.017 1.6665,0 3.3378,-0.1023 4.998,0 6.0464,0.3675 6.8091,1.0829 6.8105,7.1619 0.013,70.3216 -0.01,140.6433 -0.039,210.965 -5e-4,0.6525 0.1426,2.5 -0.6611,3.2674 -1.9173,1.8307 -5.0767,1.1735 -7.8594,1.2156 -576.2565,0.043 -1152.5153,0.024 -1728.7725,0.01 -9.2143,-2e-4 -18.4292,-0.23 -28.7485,-0.3674 -0.011,-12.988 -0,-38.9643 -0,-38.9643 z"
   id="path19"
   sodipodi:nodetypes="csscsscsasscc" />


</svg>
