<?xml version="1.0" encoding="UTF-8" standalone="no"?>
<!-- Created with Inkscape (http://www.inkscape.org/) -->

<svg
   version="1.1"
   id="svg1"
   width="267.40067"
   height="77.999352"
   viewBox="0 0 267.40067 77.999352"
   sodipodi:docname="spiralengineering.svg"
   inkscape:version="1.4.2 (ebf0e940d0, 2025-05-08)"
   xmlns:inkscape="http://www.inkscape.org/namespaces/inkscape"
   xmlns:sodipodi="http://sodipodi.sourceforge.net/DTD/sodipodi-0.dtd"
   xmlns="http://www.w3.org/2000/svg"
   xmlns:svg="http://www.w3.org/2000/svg">
  <defs
     id="defs1">
    <inkscape:path-effect
       effect="simplify"
       id="path-effect2"
       is_visible="true"
       lpeversion="1.3"
       threshold="64.516129"
       steps="1"
       smooth_angles="360"
       helper_size="0"
       simplify_individual_paths="false"
       simplify_just_coalesce="false" />
  </defs>
  <sodipodi:namedview
     id="namedview1"
     pagecolor="#ffffff"
     bordercolor="#000000"
     borderopacity="0.25"
     inkscape:showpageshadow="2"
     inkscape:pageopacity="0.0"
     inkscape:pagecheckerboard="0"
     inkscape:deskcolor="#d1d1d1"
     showgrid="false"
     inkscape:zoom="2.8284271"
     inkscape:cx="145.31044"
     inkscape:cy="81.31728"
     inkscape:window-width="1920"
     inkscape:window-height="1011"
     inkscape:window-x="0"
     inkscape:window-y="32"
     inkscape:window-maximized="1"
     inkscape:current-layer="g1" />
  <g
     inkscape:groupmode="layer"
     inkscape:label="Image"
     id="g1"
     style="display:inline"
     transform="translate(-0.96400001,-0.50064751)">
    <path
       style="fill:none;fill-rule:evenodd;stroke:#000000;stroke-width:2.68987;stroke-linecap:square;stroke-linejoin:miter;stroke-dasharray:none;paint-order:stroke fill markers"
       id="path1"
       sodipodi:type="arc"
       sodipodi:cx="73.730377"
       sodipodi:cy="39.5"
       sodipodi:rx="37.655064"
       sodipodi:ry="37.655064"
       sodipodi:start="1.5707963"
       sodipodi:end="2.8187067"
       sodipodi:arc-type="arc"
       d="M 73.730377,77.155064 A 37.655064,37.655064 0 0 1 38.02119,51.448129"
       sodipodi:open="true" />
    <path
       style="display:inline;fill:none;fill-rule:evenodd;stroke:#000000;stroke-width:2.69102;stroke-linecap:square;stroke-linejoin:miter;stroke-dasharray:none;paint-order:stroke fill markers"
       id="circle1"
       sodipodi:type="arc"
       sodipodi:cx="73.729576"
       sodipodi:cy="39.5"
       sodipodi:rx="37.655064"
       sodipodi:ry="37.655064"
       sodipodi:start="4.2114795"
       sodipodi:end="0.69115038"
       sodipodi:arc-type="arc"
       d="m 55.64673,6.4710051 a 37.655064,37.655064 0 0 1 47.11751,9.0520829 37.655064,37.655064 0 0 1 -0.0209,47.979153"
       sodipodi:open="true" />
    <path
       id="path2"
       style="fill:none;fill-rule:evenodd;stroke:#000000;stroke-width:2.69102;stroke-linecap:square;stroke-linejoin:miter;stroke-dasharray:none;paint-order:stroke fill markers"
       d="m 97.294134,58.994298 5.449166,4.507943" />
    <path
       id="text12"
       style="font-size:26.3582px;font-family:Gardenia-Bold;-inkscape-font-specification:Gardenia-Bold;fill-rule:evenodd;stroke-width:5.91084;stroke-linecap:square;paint-order:stroke fill markers"
       d="m 110.56122,32.035016 c -0.52057,7e-6 -1.05958,0.123621 -1.5999,0.374017 v 7.643435 c 0.0791,1.47606 0.21016,3.822953 0.42103,7.065012 h -0.079 l -6.29959,-14.812824 c -0.61029,-0.170883 -1.24283,-0.250052 -1.94022,-0.260942 a 36.146147,44.805198 0 0 1 0.87714,5.051408 v 0.0022 l 5.59612,12.999275 c 0.65895,0.237223 1.42293,0.367494 2.34546,0.367494 0.89618,0 1.6095,-0.130271 2.16302,-0.367494 V 32.409033 c -0.46126,-0.250396 -0.96356,-0.37401 -1.48411,-0.374017 z"
       transform="scale(1.1133538,0.89818709)" />
    <path
       d="m 123.58942,40.053465 c -0.21086,0.342657 -0.3163,0.764388 -0.3163,1.265194 0,0.448089 0.10544,0.843462 0.3163,1.212477 h 2.7149 v 4.9817 c -0.81711,0.448089 -1.766,0.658955 -2.84669,0.658955 -3.05755,0 -4.50725,-2.214089 -4.50725,-6.87949 0,-4.349103 1.84507,-6.905849 5.03442,-6.905849 1.34426,0 2.50402,0.44809 3.47928,1.31791 1.1334,-0.237223 1.63421,-0.975253 1.52877,-2.214088 -1.29155,-1.080687 -3.37385,-1.818716 -5.24528,-1.818716 -2.55674,0 -4.58632,0.86982 -6.08874,2.609462 -1.50242,1.765999 -2.26681,4.085521 -2.26681,7.011281 0,6.246893 2.79397,9.620743 7.96018,9.620743 2.34588,0 4.84991,-0.817104 6.19418,-1.950507 v -8.909072 z"
       id="text11"
       style="font-size:26.3582px;font-family:Gardenia-Bold;-inkscape-font-specification:Gardenia-Bold;fill-rule:evenodd;stroke-width:5.91084;stroke-linecap:square;paint-order:stroke fill markers"
       transform="scale(1.1133538,0.89818709)"
       aria-label="G" />
    <path
       d="m 133.13111,50.09594 c 0.97525,0.500805 2.45131,0.500805 3.37384,0 V 32.409587 c -1.05432,-0.500805 -2.24044,-0.500805 -3.37384,0 z"
       id="text10"
       style="font-size:26.3582px;font-family:Gardenia-Bold;-inkscape-font-specification:Gardenia-Bold;fill-rule:evenodd;stroke-width:5.91084;stroke-linecap:square;paint-order:stroke fill markers"
       transform="scale(1.1133538,0.89818709)"
       aria-label="I" />
    <path
       d="m 142.40921,50.464954 c 0.57988,0 1.10704,-0.131791 1.55513,-0.369014 v -7.485729 c -0.0527,-1.528776 -0.15815,-3.716506 -0.34265,-6.536834 h 0.0791 l 6.03603,14.022563 c 0.65895,0.237223 1.42334,0.369014 2.34588,0.369014 0.89618,0 1.60785,-0.131791 2.16137,-0.369014 V 32.409587 c -0.92254,-0.500805 -2.00322,-0.500805 -3.08391,0 v 7.643878 c 0.0791,1.47606 0.21087,3.821939 0.42173,7.063998 h -0.0791 l -6.29961,-14.813308 c -0.65896,-0.184508 -1.34427,-0.263582 -2.10866,-0.263582 -0.76439,0 -1.50241,0.07907 -2.21409,0.263582 V 50.09594 c 0.44809,0.237223 0.97526,0.369014 1.52878,0.369014 z"
       id="text9"
       style="font-size:26.3582px;font-family:Gardenia-Bold;-inkscape-font-specification:Gardenia-Bold;fill-rule:evenodd;stroke-width:5.91084;stroke-linecap:square;paint-order:stroke fill markers"
       transform="scale(1.1133538,0.89818709)"
       aria-label="N" />
    <path
       d="m 168.92556,50.464954 c 0.23723,-0.395373 0.34266,-0.817104 0.34266,-1.265193 0,-0.474448 -0.10543,-0.896179 -0.34266,-1.291552 h -6.9322 v -5.667013 h 5.66701 c 0.44809,-0.73803 0.44809,-1.739641 0,-2.504029 h -5.66701 v -5.060774 h 6.69498 c 0.23722,-0.421732 0.34266,-0.843463 0.34266,-1.291552 0,-0.500806 -0.10544,-0.922537 -0.34266,-1.265194 h -10.06883 v 18.345307 z"
       id="text8"
       style="font-size:26.3582px;font-family:Gardenia-Bold;-inkscape-font-specification:Gardenia-Bold;fill-rule:evenodd;stroke-width:5.91084;stroke-linecap:square;paint-order:stroke fill markers"
       transform="scale(1.1133538,0.89818709)"
       aria-label="E" />
    <path
       d="m 182.92178,50.464954 c 0.23722,-0.395373 0.34266,-0.817104 0.34266,-1.265193 0,-0.474448 -0.10544,-0.896179 -0.34266,-1.291552 h -6.93221 v -5.667013 h 5.66702 c 0.44809,-0.73803 0.44809,-1.739641 0,-2.504029 h -5.66702 v -5.060774 h 6.69499 c 0.23722,-0.421732 0.34265,-0.843463 0.34265,-1.291552 0,-0.500806 -0.10543,-0.922537 -0.34265,-1.265194 h -10.06884 v 18.345307 z"
       id="text7"
       style="font-size:26.3582px;font-family:Gardenia-Bold;-inkscape-font-specification:Gardenia-Bold;fill-rule:evenodd;stroke-width:5.91084;stroke-linecap:square;paint-order:stroke fill markers"
       transform="scale(1.1133538,0.89818709)"
       aria-label="E" />
    <path
       d="m 195.54735,42.662927 c 2.31953,-0.764388 3.71651,-2.504029 3.71651,-5.060774 0,-3.558357 -2.71489,-5.482506 -7.59116,-5.482506 h -5.06078 V 50.09594 c 0.97526,0.500805 2.45132,0.500805 3.37385,0 v -7.011282 h 2.24045 l 3.98009,6.958565 c 0.55352,0.28994 1.18612,0.421731 1.89779,0.421731 0.65896,0 1.26519,-0.131791 1.81872,-0.421731 z m -5.56158,-8.065609 h 2.18774 c 2.39859,0 3.63743,1.080686 3.63743,2.978477 0,2.029581 -1.31791,3.162984 -3.82194,3.162984 h -2.00323 z"
       id="text6"
       style="font-size:26.3582px;font-family:Gardenia-Bold;-inkscape-font-specification:Gardenia-Bold;fill-rule:evenodd;stroke-width:5.91084;stroke-linecap:square;paint-order:stroke fill markers"
       transform="scale(1.1133538,0.89818709)"
       aria-label="R" />
    <path
       d="m 202.42687,50.09594 c 0.97525,0.500805 2.45131,0.500805 3.37385,0 V 32.409587 c -1.05433,-0.500805 -2.24045,-0.500805 -3.37385,0 z"
       id="text5"
       style="font-size:26.3582px;font-family:Gardenia-Bold;-inkscape-font-specification:Gardenia-Bold;fill-rule:evenodd;stroke-width:5.91084;stroke-linecap:square;paint-order:stroke fill markers"
       transform="scale(1.1133538,0.89818709)"
       aria-label="I" />
    <path
       d="m 211.70496,50.464954 c 0.57988,0 1.10704,-0.131791 1.55513,-0.369014 v -7.485729 c -0.0527,-1.528776 -0.15815,-3.716506 -0.34266,-6.536834 h 0.0791 l 6.03602,14.022563 c 0.65896,0.237223 1.42335,0.369014 2.34588,0.369014 0.89618,0 1.60785,-0.131791 2.16138,-0.369014 V 32.409587 c -0.92254,-0.500805 -2.00323,-0.500805 -3.08391,0 v 7.643878 c 0.0791,1.47606 0.21086,3.821939 0.42173,7.063998 h -0.0791 l -6.29961,-14.813308 c -0.65895,-0.184508 -1.34426,-0.263582 -2.10865,-0.263582 -0.76439,0 -1.50242,0.07907 -2.21409,0.263582 V 50.09594 c 0.44809,0.237223 0.97525,0.369014 1.52878,0.369014 z"
       id="text4"
       style="font-size:26.3582px;font-family:Gardenia-Bold;-inkscape-font-specification:Gardenia-Bold;fill-rule:evenodd;stroke-width:5.91084;stroke-linecap:square;paint-order:stroke fill markers"
       transform="scale(1.1133538,0.89818709)"
       aria-label="N" />
    <path
       d="m 235.08468,40.053465 c -0.21086,0.342657 -0.31629,0.764388 -0.31629,1.265194 0,0.448089 0.10543,0.843462 0.31629,1.212477 h 2.7149 v 4.9817 c -0.8171,0.448089 -1.766,0.658955 -2.84669,0.658955 -3.05755,0 -4.50725,-2.214089 -4.50725,-6.87949 0,-4.349103 1.84508,-6.905849 5.03442,-6.905849 1.34427,0 2.50403,0.44809 3.47928,1.31791 1.1334,-0.237223 1.63421,-0.975253 1.52878,-2.214088 -1.29156,-1.080687 -3.37385,-1.818716 -5.24529,-1.818716 -2.55674,0 -4.58632,0.86982 -6.08874,2.609462 -1.50242,1.765999 -2.26681,4.085521 -2.26681,7.011281 0,6.246893 2.79397,9.620743 7.96018,9.620743 2.34588,0 4.84991,-0.817104 6.19418,-1.950507 v -8.909072 z"
       id="text2"
       style="font-size:26.3582px;font-family:Gardenia-Bold;-inkscape-font-specification:Gardenia-Bold;fill-rule:evenodd;stroke-width:5.91084;stroke-linecap:square;paint-order:stroke fill markers"
       transform="scale(1.1133538,0.89818709)"
       aria-label="G" />
    <path
       style="font-size:26.3582px;font-family:Gardenia-Bold;-inkscape-font-specification:Gardenia-Bold;fill-rule:evenodd;stroke-width:5.91084;stroke-linecap:square;paint-order:stroke fill markers"
       d="m 6.9019107,50.913044 c 4.2963863,0 6.9585653,-2.135014 6.9585653,-5.587939 0,-1.502417 -0.579881,-2.793969 -1.212478,-3.531998 C 12.3317,41.45045 11.883611,41.107793 11.330088,40.765137 10.091253,40.079824 9.6695218,40.000749 8.2725372,39.55266 6.9546271,39.10457 6.0320901,38.709197 5.5049261,38.340182 4.9514039,37.997526 4.6878219,37.444004 4.6878219,36.679616 c 0,-1.396985 1.1334026,-2.266805 2.9521184,-2.266805 1.2915519,0 2.8203277,0.527164 3.8482977,1.291551 1.054328,-0.131791 1.60785,-0.975253 1.528775,-2.214088 -1.265193,-1.080687 -3.5056404,-1.818716 -5.5352219,-1.818716 -1.8977904,0 -3.426566,0.474447 -4.5599686,1.423343 -1.1334026,0.975253 -1.713283,2.240447 -1.713283,3.848297 0,1.60785 0.5798804,2.820327 1.7396412,3.637431 1.1597608,0.817105 1.9241486,1.133403 3.4792824,1.660567 0.790746,0.263582 1.3442682,0.448089 1.6869249,0.57988 0.3426566,0.131791 0.7116714,0.342657 1.1597608,0.606239 0.8434622,0.527164 1.0806862,1.186119 1.0806862,2.214089 -0.07907,1.555134 -1.4233428,2.530387 -3.7165063,2.530387 -1.449701,0 -3.0575512,-0.632597 -4.1118792,-1.60785 -1.054328,0.131791 -1.66056657,1.054328 -1.55513377,2.293163 1.39698457,1.238836 3.79558077,2.05594 5.93059497,2.05594 z M 20.291871,44.08627 h 1.713283 c 4.823551,0 7.564804,-2.214089 7.564804,-6.088744 0,-3.769223 -2.741253,-5.877879 -7.591162,-5.877879 H 16.918022 V 50.09594 c 0.975253,0.500805 2.451312,0.500805 3.373849,0 z m 0,-9.409877 h 2.187731 c 2.398596,0 3.637432,1.15976 3.637432,3.347491 0,2.34588 -1.265194,3.505641 -3.821939,3.505641 H 20.291871 Z M 32.416627,50.09594 c 0.975253,0.500805 2.451312,0.500805 3.373849,0 V 32.409587 c -1.054328,-0.500805 -2.240447,-0.500805 -3.373849,0 z m 16.684758,-7.433013 c 2.319522,-0.764388 3.716506,-2.504029 3.716506,-5.060774 0,-3.558357 -2.714894,-5.482506 -7.591161,-5.482506 H 40.165955 V 50.09594 c 0.975254,0.500805 2.451313,0.500805 3.37385,0 v -7.011282 h 2.240447 l 3.980088,6.958565 c 0.553522,0.28994 1.186119,0.421731 1.89779,0.421731 0.658955,0 1.265194,-0.131791 1.818716,-0.421731 z m -5.56158,-8.065609 h 2.18773 c 2.398597,0 3.637432,1.080686 3.637432,2.978477 0,2.029581 -1.31791,3.162984 -3.821939,3.162984 h -2.003223 z m 11.8612,15.867636 c 0.764388,0 1.344268,-0.131791 1.739641,-0.369014 l 1.080686,-3.901014 h 6.141461 l 1.080686,3.901014 c 0.395373,0.237223 1.001612,0.369014 1.818716,0.369014 0.711671,0 1.265193,-0.131791 1.713283,-0.369014 L 63.572047,32.409587 c -0.685313,-0.237223 -1.449701,-0.369014 -2.266805,-0.369014 -0.790746,0 -1.528776,0.131791 -2.214089,0.369014 L 53.687722,50.09594 c 0.448089,0.237223 1.001611,0.369014 1.713283,0.369014 z m 5.877878,-15.630412 h 0.05272 l 2.424954,8.803639 H 58.880287 Z M 74.431635,47.697343 V 32.409587 c -1.054328,-0.500805 -2.240447,-0.500805 -3.373849,0 v 18.055367 h 10.200623 c 0.237224,-0.342656 0.342657,-0.817104 0.342657,-1.370626 0,-0.527164 -0.105433,-1.001612 -0.342657,-1.396985 z m 20.084963,2.767611 c 0.237223,-0.395373 0.342656,-0.817104 0.342656,-1.265193 0,-0.474448 -0.105433,-0.896179 -0.342656,-1.291552 h -6.932207 v -5.667013 h 5.667013 c 0.448089,-0.73803 0.448089,-1.739641 0,-2.504029 h -5.667013 v -5.060774 h 6.694983 c 0.237224,-0.421732 0.342656,-0.843463 0.342656,-1.291552 0,-0.500806 -0.105432,-0.922537 -0.342656,-1.265194 H 84.210541 v 18.345307 z"
       id="text1"
       transform="scale(1.1133538,0.89818709)"
       aria-label="SPIRALE" />
  </g>
</svg>
