<?xml version="1.0" encoding="UTF-8" standalone="no"?>
<svg
   version="1.1"
   viewBox="-10 0 202.37021 174.61545"
   id="svg1"
   sodipodi:docname="vitro_vision.svg"
   width="202.37021"
   height="174.61545"
   inkscape:version="1.4.2 (ebf0e940d0, 2025-05-08)"
   xmlns:inkscape="http://www.inkscape.org/namespaces/inkscape"
   xmlns:sodipodi="http://sodipodi.sourceforge.net/DTD/sodipodi-0.dtd"
   xmlns="http://www.w3.org/2000/svg"
   xmlns:svg="http://www.w3.org/2000/svg">
  <defs
     id="defs1">
    <clipPath
       id="clip-path-6"
       transform="translate(-21 -10.33)">
      <path
         class="cls-1"
         d="M 571.66,972.21 H 552.22 A 3.24,3.24 0 0 1 549,969 v -4.61 a 3.24,3.24 0 0 1 3.24,-3.23 h 19.44 z"
         id="path6" />
    </clipPath>
    <clipPath
       id="clip-path-18"
       transform="translate(-21 -10.33)">
      <path
         class="cls-2"
         d="m 633,931.59 h 9.51 a 3,3 0 0 1 3,2.95 v 0 55 a 3,3 0 0 1 -3,3 H 633 a 3,3 0 0 1 -3,-2.95 v -55 a 3,3 0 0 1 3,-3 z"
         id="path13" />
    </clipPath>
    <clipPath
       id="clip-path-15"
       transform="translate(-21 -10.33)">
      <rect
         class="cls-2"
         x="547.67999"
         y="950.46997"
         width="193.10001"
         height="22.059999"
         id="rect11" />
    </clipPath>
    <clipPath
       id="clip-path-20"
       transform="translate(-21 -10.33)">
      <rect
         class="cls-2"
         x="547.67999"
         y="962.04999"
         width="36.23"
         height="24.33"
         id="rect14" />
    </clipPath>
    <clipPath
       id="clip-path-17"
       transform="translate(-21 -10.33)">
      <rect
         class="cls-2"
         x="547.67999"
         y="943.87"
         width="69.690002"
         height="18.190001"
         id="rect13" />
    </clipPath>
  </defs>
  <sodipodi:namedview
     id="namedview1"
     pagecolor="#ffffff"
     bordercolor="#000000"
     borderopacity="0.25"
     inkscape:showpageshadow="2"
     inkscape:pageopacity="0.0"
     inkscape:pagecheckerboard="0"
     inkscape:deskcolor="#d1d1d1"
     inkscape:zoom="8.860932"
     inkscape:cx="145.35717"
     inkscape:cy="90.735376"
     inkscape:window-width="1890"
     inkscape:window-height="991"
     inkscape:window-x="15"
     inkscape:window-y="42"
     inkscape:window-maximized="0"
     inkscape:current-layer="svg1"
     showgrid="false" />
  <path
     style="baseline-shift:baseline;display:inline;overflow:visible;vector-effect:none;stroke-miterlimit:10;enable-background:accumulate;stop-color:#000000;stop-opacity:1;opacity:1"
     d="m 151.30859,46.253906 c -2.5994,-0.197663 -5.2129,0.07128 -7.71679,0.796875 -5.73178,1.596469 -34.28286,8.575043 -73.621097,18.22461 l 0.0332,-0.0059 c -2.393877,0.41653 -4.643956,1.427976 -6.544922,2.941406 l -0.002,0.002 -0.002,0.002 c -0.896331,0.729571 -2.483096,2.252711 -4.337891,6.246093 -1.403359,3.004421 -2.409261,6.178635 -2.990234,9.44336 v 0.0039 0.0039 c -2.189898,13.559371 -3.315538,20.357761 -3.796875,30.054691 -0.160321,3.21644 -0.329827,7.88494 -0.339844,13.56445 0,0.97 -0.134705,5.99957 3.554688,8.57031 1.078651,0.75467 2.500837,1.265 5.246094,1.47852 h 0.002 c 4.264296,0.32183 6.394874,0.14974 11.527343,-1.23633 6.337013,-1.70574 50.097748,-12.35659 110.238278,-27.13672 l 0.0137,-0.004 0.0137,-0.004 c 2.13202,-0.65139 4.07803,-1.80269 5.67383,-3.35938 l 0.004,-0.006 0.006,-0.004 c 2.35647,-2.43476 3.77084,-5.62734 3.99609,-9.007814 0.1959,-1.567525 0.11376,-3.157521 -0.24804,-4.695313 l -0.002,-0.0039 v -0.0039 c -0.46042,-1.833851 -1.31259,-3.544972 -2.49609,-5.019532 l 0.0195,0.02539 -23.29101,-33.195313 -0.0117,-0.01563 c -1.94915,-2.375339 -4.39813,-4.291263 -7.17188,-5.613281 l -0.002,-0.002 c -2.43896,-1.148292 -5.06591,-1.840456 -7.75391,-2.044922 z M 151.23242,47.25 c 2.56665,0.195236 5.07544,0.858624 7.4043,1.955078 2.63892,1.258193 4.96728,3.082177 6.82226,5.341797 8.9e-4,0.0011 0.003,8.75e-4 0.004,0.002 l 23.26758,33.164063 0.01,0.01172 c 1.09247,1.361135 1.87713,2.942165 2.30274,4.634766 0.33467,1.424526 0.41322,2.897732 0.23047,4.349609 l -0.002,0.01563 v 0.01367 c -0.2057,3.147613 -1.52297,6.120609 -3.71484,8.388669 -1.47937,1.44189 -3.28245,2.51068 -5.25781,3.11524 -0.002,6e-4 -0.004,0.001 -0.006,0.002 -60.11618,14.77409 -103.791048,25.40094 -110.232423,27.13477 -5.086588,1.37367 -6.977346,1.52301 -11.191406,1.20507 h -0.002 c -2.651881,-0.20648 -3.829097,-0.6581 -4.75,-1.30273 h -0.002 c -3.169716,-2.20864 -3.125025,-6.71638 -3.125,-7.74805 v -0.002 c 0.01003,-5.65938 0.180188,-10.31058 0.339844,-13.51367 v -0.002 c 0.478548,-9.64076 1.592194,-16.381476 3.78125,-29.935552 l 0.002,-0.0078 c 0.565933,-3.176199 1.544788,-6.266366 2.910156,-9.189454 1.805206,-3.886617 3.238831,-5.222149 4.0625,-5.892578 1.769172,-1.407566 3.862464,-2.348768 6.089844,-2.736328 l 0.01758,-0.002 0.01563,-0.0039 C 109.54878,56.598096 138.03306,49.637661 143.86328,48.013672 h 0.004 l 0.002,-0.002 c 2.38899,-0.692293 4.88317,-0.950312 7.36328,-0.761719 z"
     id="path152" />
  <path
     style="baseline-shift:baseline;display:inline;overflow:visible;vector-effect:none;stroke-miterlimit:10;enable-background:accumulate;stop-color:#000000;stop-opacity:1;opacity:1"
     d="m 116.0957,37.052734 c -2.60968,-0.1865 -5.23122,0.10135 -7.73828,0.84961 -5.73364,1.596878 -34.271118,8.563855 -73.617186,18.21289 l 0.0332,-0.0059 c -2.390237,0.418184 -4.63716,1.429545 -6.535156,2.941406 l -0.002,0.002 -0.002,0.002 c -0.896331,0.729572 -2.482948,2.252817 -4.347656,6.25586 -1.406903,2.998898 -2.408132,6.172502 -2.978516,9.435547 l -0.002,0.002 v 0.0039 c -2.189905,13.559409 -3.313584,20.367768 -3.794922,30.054687 -0.160313,3.2263 -0.33178,7.88494 -0.341797,13.56445 0,0.97 -0.134705,5.99957 3.554688,8.57032 1.079853,0.7657 2.495293,1.26512 5.246093,1.47851 4.2548,0.33194 6.396669,0.1615 11.529297,-1.22461 h 0.002 c 6.333866,-1.7148 50.097751,-12.36831 110.238278,-27.14843 l 0.0137,-0.004 0.0137,-0.004 c 2.13049,-0.653842 4.07465,-1.805212 5.67187,-3.359373 l 0.006,-0.0039 0.004,-0.0059 c 2.35469,-2.434476 3.76612,-5.62654 3.98633,-9.00586 0.20663,-1.565533 0.12293,-3.154928 -0.25,-4.689453 v -0.002 c -0.45285,-1.83554 -1.30179,-3.549954 -2.48633,-5.023437 l 0.0215,0.02539 -23.29297,-33.246093 -0.0117,-0.01563 c -1.95294,-2.370536 -4.39992,-4.28447 -7.16992,-5.611329 l -0.002,-0.002 h -0.002 c -2.43648,-1.144151 -5.05854,-1.838284 -7.74219,-2.046875 h -0.002 z m -0.0742,0.998047 c 2.56321,0.199229 5.06936,0.860324 7.39649,1.953125 2.63544,1.263111 4.96337,3.086697 6.82226,5.341797 0.001,0.0014 0.003,0.0025 0.004,0.0039 l 23.26563,33.212891 0.01,0.01172 c 1.09329,1.359978 1.87696,2.942572 2.29492,4.636718 0.34436,1.417983 0.42298,2.88753 0.23047,4.333985 l -0.002,0.01758 -0.002,0.01758 c -0.20064,3.147621 -1.5156,6.120545 -3.70704,8.388672 -1.48066,1.43858 -3.28057,2.506645 -5.2539,3.113281 -0.002,6.07e-4 -0.004,0.0013 -0.006,0.002 C 86.95804,113.85807 43.284365,124.48375 36.839844,126.22852 c -5.087372,1.37388 -6.986206,1.52337 -11.191407,1.19531 -2.664891,-0.20651 -3.828622,-0.64604 -4.748046,-1.29883 l -0.002,-0.002 -0.002,-0.002 c -3.169716,-2.20863 -3.126978,-6.71638 -3.126953,-7.74804 v -0.002 c 0.01003,-5.65937 0.18018,-10.30043 0.339844,-13.51367 0.478575,-9.63131 1.593901,-16.383832 3.783203,-29.939451 l 0.002,-0.0059 c 0.5554,-3.174151 1.52967,-6.260493 2.898438,-9.177734 v -0.002 c 1.815291,-3.896957 3.248596,-5.231915 4.072265,-5.902344 1.766407,-1.406105 3.856087,-2.34723 6.080078,-2.736328 l 0.01758,-0.002 0.01563,-0.0039 C 74.32827,47.437951 102.80417,40.487374 108.63477,38.863281 l 0.004,-0.002 h 0.004 c 2.39069,-0.713529 4.89034,-0.988154 7.3789,-0.810547 z"
     id="path153" />
  <path
     style="baseline-shift:baseline;display:inline;overflow:visible;vector-effect:none;stroke-miterlimit:10;enable-background:accumulate;stop-color:#000000;stop-opacity:1;opacity:1"
     d="m 134.87695,42.802734 c -2.61197,-0.195298 -5.23653,0.08656 -7.74804,0.830078 -5.73402,1.596985 -34.281167,8.573632 -73.617191,18.222657 l 0.03125,-0.0059 c -2.390238,0.418184 -4.63716,1.429545 -6.535157,2.941407 l -0.002,0.002 -0.002,0.002 c -0.896331,0.729571 -2.482905,2.253095 -4.347656,6.246094 -1.407363,3.00198 -2.408813,6.179115 -2.978516,9.445312 v 0.002 l -0.002,0.0039 c -2.189898,13.559371 -3.313585,20.357763 -3.794922,30.054693 -0.160269,3.2154 -0.341797,7.88387 -0.341797,13.56445 0,0.96666 -0.143472,5.9902 3.554688,8.57031 1.077525,0.75427 2.49172,1.26493 5.248047,1.47852 4.264297,0.32183 6.39669,0.1497 11.539062,-1.23633 6.333524,-1.71471 50.087721,-12.35658 110.238281,-27.13672 l 0.0117,-0.002 0.01,-0.004 c 5.56415,-1.63812 9.4617,-6.652072 9.67774,-12.447266 0.45614,-3.475654 -0.5367,-6.987314 -2.75,-9.707031 l 0.0215,0.02734 -23.28125,-33.175781 -0.0117,-0.01367 c -1.95042,-2.373729 -4.39938,-4.291593 -7.17187,-5.615235 h -0.002 c -2.4351,-1.150071 -5.06072,-1.844115 -7.7461,-2.046875 z m -0.0742,0.998047 c 2.56282,0.193507 5.06854,0.855749 7.39258,1.953125 2.63869,1.259762 4.96733,3.083178 6.82422,5.341797 0.001,0.0014 0.003,0.0025 0.004,0.0039 l 23.25781,33.144532 0.0117,0.01367 c 2.04688,2.515224 2.96217,5.762473 2.53125,8.976563 l -0.004,0.02539 v 0.02344 c -0.19475,5.374247 -3.80065,10.017277 -8.95898,11.537107 -8.6e-4,2.5e-4 -0.001,0.002 -0.002,0.002 -60.13118,14.77533 -103.795016,25.39177 -110.240229,27.13671 -5.097628,1.37397 -6.985469,1.52325 -11.201172,1.20508 -2.663673,-0.20641 -3.829478,-0.657 -4.751953,-1.30273 -3.18184,-2.21989 -3.126953,-6.71667 -3.126954,-7.75 0,-5.65942 0.180114,-10.31103 0.339844,-13.51563 0.478576,-9.64131 1.593896,-16.381844 3.783203,-29.937497 l 0.002,-0.0059 c 0.554786,-3.177493 1.529047,-6.267032 2.898438,-9.1875 v -0.002 c 1.815249,-3.887001 3.248596,-5.22215 4.072266,-5.892579 1.766406,-1.406105 3.858039,-2.34723 6.082031,-2.736328 l 0.01563,-0.002 0.01758,-0.0039 C 93.089799,53.178174 121.57407,46.217739 127.4043,44.59375 l 0.004,-0.002 h 0.004 c 2.39535,-0.70913 4.89946,-0.977281 7.39062,-0.791016 z"
     id="path154" />
  <path
     style="baseline-shift:baseline;display:inline;overflow:visible;vector-effect:none;fill:#1d1d1b;stroke-miterlimit:10;enable-background:accumulate;stop-color:#000000;stop-opacity:1;opacity:1"
     d="m 94.617187,32.222656 c -2.590494,-0.195376 -5.194362,0.07845 -7.6875,0.808594 -5.74393,1.597034 -34.282152,8.575348 -73.61914,18.224609 l 0.0332,-0.0059 c -2.389263,0.415139 -4.6361017,1.421539 -6.5351563,2.929687 l -0.00391,0.0039 -0.00391,0.002 C 5.9103501,54.92067 4.3227845,56.438046 2.4589844,60.4375 c -2.6e-4,5.48e-4 2.599e-4,0.0014 0,0.002 -4.942e-4,0.0011 -0.00146,8.92e-4 -0.00195,0.002 -1.4227961,2.999957 -2.44509244,6.1747 -3.03906255,9.441406 v 0.0039 l -0.001953,0.0059 C -2.7739209,83.452185 -3.8878212,90.250685 -4.3691406,99.947266 c -0.1703892,3.227784 -0.3415471,7.895744 -0.3515625,13.564454 0,0.97333 -0.1251022,6.00922 3.5644531,8.58008 1.0772097,0.75404 2.4926901,1.26516 5.2480469,1.46875 4.2555808,0.33199 6.3955031,0.14929 11.5273441,-1.22657 h 0.002 c 6.344928,-1.71511 50.097799,-12.3666 110.238286,-27.136714 l 0.01,-0.002 0.0117,-0.0039 c 5.56824,-1.63442 9.47003,-6.649237 9.6875,-12.447265 0.45827,-3.473035 -0.53472,-6.984103 -2.75,-9.699219 -7.73996,-11.050371 -15.49319,-22.093799 -23.25977,-33.13086 l -0.01,-0.01563 -0.0117,-0.01367 c -1.94701,-2.378045 -4.39601,-4.295948 -7.17188,-5.615235 -2.433886,-1.155198 -5.061183,-1.849166 -7.748043,-2.046875 z m -0.07422,0.998047 c 2.563618,0.18864 5.070326,0.850914 7.392581,1.953125 2.6367,1.253146 4.96294,3.073193 6.81445,5.330078 7.76989,11.041794 15.52629,22.089416 23.26953,33.144531 l 0.0117,0.01563 0.0117,0.01367 c 2.04817,2.510308 2.96405,5.755981 2.53125,8.966797 l -0.004,0.02539 v 0.02344 c -0.19607,5.376883 -3.80661,10.020704 -8.96875,11.53711 -8.5e-4,2.51e-4 -0.001,0.0017 -0.002,0.002 C 65.47834,108.99778 21.813181,119.6246 15.359375,121.36914 c -5.086348,1.36355 -6.987651,1.52131 -11.1914063,1.19336 h -0.00195 c -2.6630535,-0.19654 -3.82752461,-0.64528 -4.74999997,-1.29102 -3.17044473,-2.20914 -3.13671873,-6.73309 -3.13671873,-7.75976 0.00998,-5.65047 0.1800231,-10.30151 0.3496093,-13.513673 v -0.002 c 0.4785375,-9.640536 1.5846775,-16.383286 3.77343755,-29.935547 l 0.001953,-0.0039 c 3.8115e-4,-0.0024 -3.8123e-4,-0.0035 0,-0.0059 0.5787792,-3.178271 1.57233072,-6.266783 2.95703122,-9.185547 h 0.00195 v -0.002 C 5.1753228,56.973301 6.6018198,55.648472 7.4316406,54.962891 9.1997562,53.558729 11.2911,52.62089 13.515625,52.234375 l 0.01758,-0.002 0.01563,-0.0059 C 52.888646,42.576607 81.36382,35.617851 87.203125,33.994141 l 0.0039,-0.002 h 0.0039 c 2.377615,-0.696307 4.861571,-0.957807 7.332032,-0.771484 z"
     id="path155" />
  <path
     class="cls-8"
     d="m -4.18,106.03176 a 19.49,19.49 0 0 0 8.44,5.43 c 5.78,1.81 10.3,0 24.31,-3.52 4.14,-1 8.31,-1.92 12.45,-2.91 23.73,-5.649997 25.95,-6.169997 32.91,-7.869997 12.52,-3.06 10.23,-2.57 13.34,-3.28 3.11,-0.71 15.67,-3.53 27.92,-6.54 5.66,-1.39 10.85,-2.14 13.47,-6.1 a 14,14 0 0 0 2,-5.73 12.65,12.65 0 0 0 -1.11,-6.35 27.5,27.5 0 0 1 4.31,6.31 13.11,13.11 0 0 1 1,2.71 12.63,12.63 0 0 1 0.24,4.53 15.33,15.33 0 0 1 -0.76,3.26 17.06,17.06 0 0 1 -5.15,7.09 c -3.05,2.48 -6.06,3 -11.83,4.15 -3.59,0.72 -9.22,1.89 -16.49,3.559997 l -75.84,18.62 c -4.24,1.26 -7.9,2.13 -10.73,2.73 -7.18,1.52 -9.86,1.5 -12.47,0.59 a 9.55,9.55 0 0 1 -4.13,-2.49 c -2.09,-2.29 -2.23,-5.2 -2.36,-8.23 a 24.07,24.07 0 0 1 0.48,-5.96 z"
     id="path156"
     style="fill:#000000;stroke:none;stroke-miterlimit:10" />
  <path
     class="cls-18"
     d="M -10,65.171763"
     id="path157"
     style="fill:#1d1d1b;stroke:#000000;stroke-miterlimit:10" />
  <path
     style="font-size:43.1147px;font-family:'Brush Script MT';-inkscape-font-specification:'Brush Script MT';stroke-width:9.66854;stroke-linecap:square;paint-order:stroke fill markers"
     d="m 71.374812,4.4499311 q 0,0.1894689 -0.484198,0.9683966 -0.484198,0.7578756 -1.431543,2.2525747 -0.947344,1.473647 -2.294679,3.7893776 -1.347334,2.294679 -2.778877,5.094608 -1.642063,3.220972 -2.378887,5.073557 -0.715771,1.831532 -0.715771,3.157815 0,1.052604 1.115761,1.852584 1.347334,-1.052605 2.652564,-2.5052 1.305231,-1.452594 2.568357,-3.242023 1.284178,-1.789428 2.947294,-4.526201 1.684168,-2.736773 2.989398,-5.031452 -0.06316,-0.189469 -0.147365,-0.378938 -0.06316,-0.189469 -0.06316,-0.315782 0,-0.9894482 0.39999,-1.8525843 0.39999,-0.8631361 0.989448,-1.684168 0.610511,-0.8210319 1.810481,-2.315731 0.315781,-0.3999899 0.778928,-0.3999899 0.757875,0 0.757875,0.9683966 0,0.9683966 -0.79998,3.0525545 -0.778927,2.0631061 -2.315731,4.8630351 -1.536803,2.799929 -3.831482,6.273526 -2.273626,3.452544 -5.157764,7.22087 -2.926242,3.81043 -4.189368,3.81043 -0.715771,0 -1.621012,-0.79998 -0.90524,-0.778928 -1.557855,-2.147314 -0.652615,-1.368387 -0.652615,-2.926242 0,-0.926292 0.378938,-2.378887 0.39999,-1.452595 1.221021,-3.473597 0.842084,-2.042053 1.894689,-4.020951 1.09471,-2.084158 1.915742,-3.452544 0.842083,-1.368387 1.894688,-3.0315024 1.052605,-1.684168 1.052605,-1.8315327 0,-0.3157815 -0.421042,-0.3157815 -1.221021,0 -3.263075,1.2420739 -2.021002,1.2420739 -5.284077,3.7683257 -1.242074,0.968397 -1.557855,1.263126 -0.336834,0.273677 -0.336834,0.463146 0,0.252626 0.39999,0.252626 0.168417,0 1.136813,-0.126313 0.968397,-0.126313 1.536804,-0.126313 0.947344,0 0.947344,0.336834 0,0.294729 -0.39999,0.463146 -0.378938,0.168417 -1.073657,0.336834 -0.673667,0.168417 -1.852585,0.463146 -1.263126,0.336834 -2.673616,0.968397 -1.431543,0.631562 -1.642064,0.631562 -0.39999,0 -0.484198,-0.294729 -0.105261,-0.294729 -0.105261,-0.968396 0,-2.989399 0.989449,-4.61041 0.989448,-1.6420641 3.536752,-3.4104405 2.90519,-2.0210016 5.557755,-3.3472839 2.652564,-1.3473343 4.568305,-1.9578452 1.936794,-0.63156303 2.842034,-0.63156303 0.884188,0 1.747324,1.13681343 0.884188,1.1368133 0.884188,2.3999393 z m 11.578656,7.7471729 q -0.526303,0 -1.010501,-0.39999 -0.463146,-0.39999 -0.463146,-1.010501 0,-0.9262922 0.884188,-2.0631056 0.884188,-1.1368134 1.831533,-1.1368134 0.631563,0 1.052605,0.3999899 0.421042,0.3789378 0.421042,1.1157613 0,0.9052398 -0.863136,1.9999498 -0.863136,1.094709 -1.852585,1.094709 z m 1.431543,9.410288 v 1.536804 q -2.042054,2.631512 -3.81043,3.978847 -1.768377,1.326282 -3.010451,1.326282 -1.726272,0 -2.568356,-1.810481 -0.842084,-1.81048 -0.842084,-3.957794 0,-0.821032 0.168417,-1.557856 0.168417,-0.757875 0.39999,-1.242074 0.231573,-0.484198 0.863136,-1.515751 2.989398,-4.652514 5.473546,-4.652514 1.284178,0 1.284178,0.989449 0,0.673667 -0.842084,2.10521 -0.821032,1.431542 -1.473647,2.042053 -1.831533,1.768377 -2.399939,2.463096 -0.547355,0.694719 -0.547355,1.578908 0,0.757875 0.568407,1.263126 0.568406,0.50525 1.473647,0.50525 0.989448,0 2.168366,-0.715771 1.19997,-0.736824 3.094659,-2.336784 z m 7.199817,-10.926039 h 0.90524 q 1.115762,-1.9999498 2.021002,-2.8209817 0.90524,-0.842084 2.063106,-0.842084 1.157865,0 1.157865,0.5263025 0,0.2526252 -0.90524,1.3683865 -0.90524,1.1157617 -1.368387,1.8736367 0.715772,0.08421 1.263126,0.147365 0.568407,0.06316 0.884189,0.10526 -1.19997,2.231523 -3.010451,4.568306 -0.589458,-0.0421 -0.989448,-0.06316 -0.39999,-0.0421 -0.821032,-0.06316 -0.39999,-0.0421 -0.989449,-0.08421 -1.136813,1.831533 -1.915741,3.284128 -0.757876,1.431542 -1.178918,2.631512 -0.39999,1.19997 -0.39999,2.273627 0,1.452595 1.157866,1.452595 0.79998,0 2.084158,-0.842084 1.30523,-0.863136 3.473596,-2.631513 v 1.410491 q -5.684067,6.168265 -8.399788,6.168265 -0.947344,0 -1.536803,-0.736823 -0.568406,-0.736824 -0.568406,-1.894689 0,-0.778928 0.315781,-1.852585 0.336834,-1.073657 1.178918,-3.242023 -0.29473,0.252625 -0.568407,0.50525 -0.252625,0.231573 -0.484198,0.442094 -0.210521,0.189469 -0.463147,0.421042 -0.252625,0.210521 -0.50525,0.442094 v -1.452595 q 2.210471,-1.852585 5.347233,-6.505099 -0.315781,-0.02105 -0.589458,-0.02105 -0.273678,-0.02105 -0.652616,-0.02105 -1.242073,0 -1.852584,0.168417 -0.252625,0.06316 -0.484199,0.147365 -0.210521,0.06316 -0.294729,0.06316 -0.08421,0 -0.08421,-0.126313 0,-0.694719 0.863136,-2.084157 0.694719,-1.178918 1.30523,-1.747325 0.631563,-0.568406 1.515751,-0.757875 0.90524,-0.210521 2.526252,-0.210521 z m 3.178867,12.547051 v -1.368386 q 1.136813,-1.347335 1.726272,-2.294679 -0.673667,-0.231573 -0.989448,-0.568407 -0.29473,-0.336834 -0.29473,-1.010501 0,-0.757875 0.631563,-1.915741 0.631563,-1.157865 1.557856,-2.168366 0.926292,-1.010501 1.684168,-1.30523 0.294729,-0.147365 0.568406,-0.147365 0.421038,0 0.421038,0.39999 0,0.357886 -0.652611,1.452595 4.336731,-0.673667 5.473551,-0.673667 0.44209,0 0.61051,0.08421 0.35788,0.189469 0.58945,0.884188 0.23158,0.69472 0.23158,1.389439 0,0.442094 -0.39999,0.968396 -0.37894,0.505251 -1.32628,1.494699 -1.11577,1.19997 -1.87364,2.610461 -0.75788,1.410491 -0.75788,2.126262 0,0.989449 1.22103,0.989449 1.28417,0 4.46304,-2.610461 v 1.410491 q -1.74732,1.831533 -2.88414,2.884138 -1.13681,1.052605 -2.10521,1.684168 -0.96839,0.61051 -1.72627,0.61051 -0.88419,0 -1.473647,-0.799979 -0.589458,-0.821032 -0.589458,-2.357836 0,-0.90524 0.463146,-2.063105 0.463146,-1.157866 1.347339,-2.5052 0.90524,-1.368387 2.021,-2.715721 -0.58946,0.126313 -1.32629,0.273677 -0.73682,0.126313 -1.557851,0.273678 -0.821032,0.147364 -1.263126,0.231573 -1.30523,2.61046 -3.789378,4.736722 z m 26.336175,-1.663116 v 1.410491 q -1.38944,1.263126 -2.23152,1.684168 -0.84208,0.421042 -2.42099,0.336833 -2.73677,3.242024 -4.82093,3.242024 -1.17892,0 -2.14732,-0.778928 -0.96839,-0.778928 -1.55785,-2.126262 -0.56841,-1.347334 -0.56841,-3.01045 0,-1.347335 0.88419,-2.989398 0.90524,-1.642064 2.31573,-3.052555 1.43154,-1.431543 3.05256,-2.294679 1.62101,-0.884188 3.01045,-0.884188 0.98944,0 1.55785,0.315782 0.56841,0.294729 0.56841,0.842084 0,0.421042 -0.4842,0.968396 0.79998,0.168417 1.09471,0.568407 0.29473,0.378938 0.29473,1.410491 0,1.0105 -0.4842,2.547304 -0.46315,1.536803 -1.28418,2.884137 l 0.37894,0.378938 h 0.31578 q 0.35789,0 0.69472,-0.168417 0.35789,-0.189469 0.63156,-0.378937 0.27368,-0.210521 1.19997,-0.905241 z m -4.33673,-5.536702 q -1.74732,1.052605 -2.9894,1.915741 -1.24207,0.842084 -2.10521,1.726272 -0.86313,0.863136 -1.15786,1.747325 -0.52631,2.357835 -0.52631,2.547304 0,1.389438 1.9368,1.389438 0.90524,0 3.0315,-1.557855 -0.35789,-0.989449 -0.35789,-1.894689 0,-1.326282 0.54736,-2.694669 0.54735,-1.389439 1.62101,-3.178867 z"
     id="text1"
     transform="scale(1.0581456,0.94504955)"
     aria-label="Vitro" />
  <path
     style="font-size:43.1147px;font-family:'Brush Script MT';-inkscape-font-specification:'Brush Script MT';stroke-width:9.66854;stroke-linecap:square;paint-order:stroke fill markers"
     d="m 34.912578,158.64291 q 0,0.18946 -0.484198,0.96839 -0.484199,0.75788 -1.431543,2.25258 -0.947345,1.47364 -2.294679,3.78937 -1.347334,2.29468 -2.778877,5.09461 -1.642064,3.22097 -2.378887,5.07356 -0.715772,1.83153 -0.715772,3.15781 0,1.05261 1.115761,1.85259 1.347335,-1.05261 2.652565,-2.5052 1.30523,-1.4526 2.568356,-3.24202 1.284178,-1.78943 2.947294,-4.52621 1.684168,-2.73677 2.989398,-5.03145 -0.06316,-0.18947 -0.147364,-0.37894 -0.06316,-0.18946 -0.06316,-0.31578 0,-0.98945 0.39999,-1.85258 0.39999,-0.86314 0.989449,-1.68417 0.610511,-0.82103 1.81048,-2.31573 0.315782,-0.39999 0.778928,-0.39999 0.757876,0 0.757876,0.9684 0,0.96839 -0.79998,3.05255 -0.778928,2.06311 -2.315731,4.86304 -1.536803,2.79992 -3.831482,6.27352 -2.273627,3.45255 -5.157765,7.22087 -2.926241,3.81043 -4.189367,3.81043 -0.715772,0 -1.621012,-0.79998 -0.90524,-0.77893 -1.557856,-2.14731 -0.652615,-1.36839 -0.652615,-2.92624 0,-0.9263 0.378938,-2.37889 0.39999,-1.4526 1.221022,-3.4736 0.842084,-2.04205 1.894689,-4.02095 1.094709,-2.08416 1.915741,-3.45254 0.842084,-1.36839 1.894689,-3.03151 1.052605,-1.68416 1.052605,-1.83153 0,-0.31578 -0.421042,-0.31578 -1.221022,0 -3.263075,1.24207 -2.021002,1.24208 -5.284078,3.76833 -1.242073,0.9684 -1.557855,1.26313 -0.336834,0.27367 -0.336834,0.46314 0,0.25263 0.39999,0.25263 0.168417,0 1.136814,-0.12632 0.968396,-0.12631 1.536803,-0.12631 0.947345,0 0.947345,0.33684 0,0.29472 -0.39999,0.46314 -0.378938,0.16842 -1.073657,0.33683 -0.673668,0.16842 -1.852585,0.46315 -1.263126,0.33683 -2.673617,0.9684 -1.431543,0.63156 -1.642064,0.63156 -0.39999,0 -0.484198,-0.29473 -0.10526,-0.29473 -0.10526,-0.9684 0,-2.98939 0.989448,-4.61041 0.989449,-1.64206 3.536753,-3.41044 2.90519,-2.021 5.557754,-3.34728 2.652565,-1.34733 4.568306,-1.95784 1.936793,-0.63157 2.842033,-0.63157 0.884189,0 1.747325,1.13682 0.884188,1.13681 0.884188,2.39994 z m 11.578655,7.74717 q -0.526302,0 -1.0105,-0.39999 -0.463147,-0.39999 -0.463147,-1.0105 0,-0.9263 0.884189,-2.06311 0.884188,-1.13681 1.831532,-1.13681 0.631563,0 1.052605,0.39999 0.421042,0.37894 0.421042,1.11576 0,0.90524 -0.863136,1.99995 -0.863136,1.09471 -1.852585,1.09471 z m 1.431543,9.41029 v 1.5368 q -2.042054,2.63151 -3.81043,3.97885 -1.768376,1.32628 -3.01045,1.32628 -1.726272,0 -2.568356,-1.81048 -0.842084,-1.81048 -0.842084,-3.9578 0,-0.82103 0.168416,-1.55785 0.168417,-0.75788 0.39999,-1.24208 0.231573,-0.48419 0.863136,-1.51575 2.989399,-4.65251 5.473546,-4.65251 1.284178,0 1.284178,0.98945 0,0.67366 -0.842084,2.10521 -0.821031,1.43154 -1.473647,2.04205 -1.831532,1.76838 -2.399939,2.4631 -0.547354,0.69472 -0.547354,1.5789 0,0.75788 0.568406,1.26313 0.568407,0.50525 1.473647,0.50525 0.989449,0 2.168366,-0.71577 1.19997,-0.73682 3.094659,-2.33678 z m -0.273678,0.58946 v -0.50526 q 5.431442,-5.72617 7.473496,-8.02085 0.463146,-2.5894 2.231522,-2.5894 0.442094,0 0.947345,0.25262 l 0.126312,0.39999 q -0.08421,0.25263 -0.08421,0.71577 0,0.39999 0.294729,1.4947 0.315782,1.07366 0.484198,1.81048 0.168417,0.73683 0.168417,1.66312 0,1.38944 -0.631563,2.67362 -0.631563,1.26312 -1.831532,2.44204 -1.19997,1.15786 -3.094659,2.37889 0.757876,0.12631 1.19997,0.12631 0.863136,0 1.852584,-0.42104 1.010501,-0.4421 2.042054,-1.15787 1.052605,-0.73682 2.442044,-1.89469 v 1.41049 q -2.694669,2.63152 -4.820931,3.9999 -2.126262,1.34734 -3.663066,1.34734 -1.978897,0 -3.663065,-1.68417 -0.989449,-1.0105 -1.242074,-1.93679 -0.231573,-0.9263 -0.231573,-2.5052 z m 7.852433,-3.22098 -0.378937,-3.0736 q -1.305231,1.47364 -5.578807,5.66301 1.263126,0.27368 1.726272,0.73683 0.463146,0.46314 1.30523,1.78942 1.431543,-0.58945 2.189419,-1.59996 0.778928,-1.03155 0.778928,-2.79992 0,-0.21053 -0.02105,-0.37894 0,-0.16842 -0.02105,-0.33684 z m 14.315426,-6.77877 q -0.526302,0 -1.010501,-0.39999 -0.463146,-0.39999 -0.463146,-1.0105 0,-0.9263 0.884188,-2.06311 0.884188,-1.13681 1.831533,-1.13681 0.631563,0 1.052605,0.39999 0.421042,0.37894 0.421042,1.11576 0,0.90524 -0.863136,1.99995 -0.863136,1.09471 -1.852585,1.09471 z m 1.431543,9.41029 v 1.5368 q -2.042054,2.63151 -3.81043,3.97885 -1.768377,1.32628 -3.010451,1.32628 -1.726272,0 -2.568356,-1.81048 -0.842084,-1.81048 -0.842084,-3.9578 0,-0.82103 0.168417,-1.55785 0.168417,-0.75788 0.39999,-1.24208 0.231573,-0.48419 0.863136,-1.51575 2.989398,-4.65251 5.473546,-4.65251 1.284178,0 1.284178,0.98945 0,0.67366 -0.842084,2.10521 -0.821032,1.43154 -1.473647,2.04205 -1.831533,1.76838 -2.399939,2.4631 -0.547355,0.69472 -0.547355,1.5789 0,0.75788 0.568407,1.26313 0.568407,0.50525 1.473647,0.50525 0.989449,0 2.168366,-0.71577 1.19997,-0.73682 3.094659,-2.33678 z m 13.347032,-0.0421 v 1.41049 q -1.389438,1.26313 -2.231522,1.68417 -0.842084,0.42104 -2.420992,0.33683 -2.736773,3.24203 -4.820931,3.24203 -1.178917,0 -2.147314,-0.77893 -0.968396,-0.77893 -1.557855,-2.12626 -0.568407,-1.34734 -0.568407,-3.01045 0,-1.34734 0.884188,-2.9894 0.905241,-1.64206 2.315731,-3.05255 1.431543,-1.43155 3.052555,-2.29468 1.621011,-0.88419 3.01045,-0.88419 0.989449,0 1.557855,0.31578 0.568407,0.29473 0.568407,0.84208 0,0.42105 -0.484198,0.9684 0.79998,0.16842 1.094709,0.56841 0.294729,0.37893 0.294729,1.41049 0,1.0105 -0.484198,2.5473 -0.463146,1.53681 -1.284178,2.88414 l 0.378938,0.37894 h 0.315781 q 0.357886,0 0.69472,-0.16842 0.357885,-0.18947 0.631563,-0.37894 0.273677,-0.21052 1.199969,-0.90524 z m -4.336732,-5.5367 q -1.747325,1.05261 -2.989398,1.91574 -1.242074,0.84209 -2.10521,1.72627 -0.863137,0.86314 -1.157866,1.74733 -0.526302,2.35783 -0.526302,2.5473 0,1.38944 1.936793,1.38944 0.90524,0 3.031502,-1.55786 -0.357886,-0.98944 -0.357886,-1.89468 0,-1.32629 0.547355,-2.69467 0.547355,-1.38944 1.621012,-3.17887 z m 18.483747,1.76838 q -3.705169,4.12621 -3.705169,5.74722 0,0.90524 0.736823,0.90524 0.610511,0 1.578908,-0.63156 0.989448,-0.65262 3.073611,-2.29468 v 1.45259 q -2.989403,2.9473 -4.589362,4.25253 -1.59996,1.30523 -2.610461,1.30523 -1.726272,0 -1.726272,-2.27363 0,-0.67367 0.210521,-1.32628 0.210521,-0.65262 0.568407,-1.34734 0.378938,-0.71577 1.136813,-2.021 0.757876,-1.32628 1.747324,-2.9894 -1.199969,0.61052 -3.01045,2.421 -1.178917,1.13681 -1.999949,2.16836 -0.821032,1.0105 -1.768377,2.27363 -0.926292,1.24207 -1.368386,1.68417 -0.421042,0.42104 -0.863136,0.42104 -0.673668,0 -1.242074,-1.41049 -0.568407,-1.41049 -0.568407,-3.28413 0,-1.15787 0.252625,-1.81048 0.273678,-0.65262 1.052605,-1.85258 1.452595,-2.23153 2.5052,-3.26308 1.052605,-1.05261 2.021002,-1.05261 0.673667,0 1.073657,0.23158 0.421042,0.23157 0.421042,0.71577 0,0.21052 -0.126313,0.44209 -0.126312,0.23158 -0.294729,0.42105 -0.147365,0.18946 -0.652615,0.73682 -3.326232,3.68412 -3.326232,4.77883 0,0.61051 0.39999,0.61051 0.252625,0 0.968396,-0.79998 0.736824,-0.82104 1.873637,-2.12627 1.157866,-1.32628 2.715721,-2.75782 1.578908,-1.43154 3.578857,-2.75783 1.115761,-0.77892 1.852585,-0.77892 0.336834,0 0.652615,0.92629 0.336834,0.92629 0.336834,1.87364 0,0.46314 -0.905241,1.41049 z m 21.009993,11.05235 -1.30523,-0.94735 q -0.29473,-0.25262 -0.29473,-0.5263 0,-0.27368 0.98945,-1.89469 0.71577,-1.15786 1.91574,-3.17886 1.22103,-2.02101 1.95785,-3.32624 0.73682,-1.30523 1.78943,-3.41044 1.07365,-2.12626 1.95784,-4.14726 2.04206,-4.65251 2.04206,-5.93669 0,-1.51575 -1.17892,-1.51575 -0.88419,0 -2.52625,0.90524 -1.62101,0.88419 -3.36834,2.33678 -1.74732,1.4526 -2.90519,3.0315 -1.15786,1.57891 -1.15786,2.77888 0,0.18947 0.10526,0.29473 0.10526,0.0842 0.37893,0.0842 0.50525,0 1.64207,-0.58946 0.50525,-0.25263 0.50525,0.0842 0,0.33683 -1.59996,1.74732 -1.59996,1.38944 -2.35784,1.38944 -0.65261,0 -1.83153,-1.11576 -1.15786,-1.13681 -1.15786,-2.06311 0,-0.35788 0.65261,-1.70522 0.65262,-1.34733 1.78943,-3.0315 1.13681,-1.70522 2.39994,-2.94729 1.45259,-1.4526 3.30518,-2.58941 1.87363,-1.13682 3.57885,-1.76838 1.72628,-0.63156 2.77888,-0.63156 1.51575,0 2.35784,1.15786 0.86313,1.13682 0.86313,3.19992 0,2.73678 -2.14731,7.91559 -2.14732,5.17882 -6.61036,12.12601 0.0632,0.21052 0.14736,0.46315 0.0842,0.23157 0.0842,0.44209 0,0.0421 -0.0631,0.16842 -0.0632,0.10526 -0.14737,0.23157 -0.0842,0.12632 -0.10526,0.16842 l -1.5368,2.52625 q -0.25263,0.4421 -0.5263,0.4421 -0.25263,0 -0.42105,-0.16842 z m 23.57836,-11.05235 q -3.70517,4.12621 -3.70517,5.74722 0,0.90524 0.73682,0.90524 0.61051,0 1.57891,-0.63156 0.98945,-0.65262 3.0736,-2.29468 v 1.45259 q -2.98939,2.9473 -4.58935,4.25253 -1.59996,1.30523 -2.61046,1.30523 -1.72628,0 -1.72628,-2.27363 0,-0.67367 0.21052,-1.32628 0.21053,-0.65262 0.56841,-1.34734 0.37894,-0.71577 1.13681,-2.021 0.75788,-1.32628 1.74733,-2.9894 -1.19997,0.61052 -3.01045,2.421 -1.17892,1.13681 -1.99995,2.16836 -0.82103,1.0105 -1.76838,2.27363 -0.92629,1.24207 -1.36838,1.68417 -0.42105,0.42104 -0.86314,0.42104 -0.67367,0 -1.24207,-1.41049 -0.56841,-1.41049 -0.56841,-3.28413 0,-1.15787 0.25262,-1.81048 0.27368,-0.65262 1.05261,-1.85258 1.45259,-2.23153 2.5052,-3.26308 1.0526,-1.05261 2.021,-1.05261 0.67367,0 1.07366,0.23158 0.42104,0.23157 0.42104,0.71577 0,0.21052 -0.12631,0.44209 -0.12631,0.23158 -0.29473,0.42105 -0.14737,0.18946 -0.65262,0.73682 -3.32623,3.68412 -3.32623,4.77883 0,0.61051 0.39999,0.61051 0.25263,0 0.9684,-0.79998 0.73682,-0.82104 1.87363,-2.12627 1.15787,-1.32628 2.71573,-2.75782 1.5789,-1.43154 3.57885,-2.75783 1.11576,-0.77892 1.85259,-0.77892 0.33683,0 0.65261,0.92629 0.33684,0.92629 0.33684,1.87364 0,0.46314 -0.90524,1.41049 z m 14.23121,3.85253 v 1.41049 q -2.25258,2.21047 -3.68412,3.43149 -1.41049,1.22103 -2.65256,1.89469 -1.22103,0.67367 -2.39994,0.67367 -1.15787,0 -2.12627,-0.90524 -0.96839,-0.92629 -1.51575,-2.39994 -0.54735,-1.4947 -0.54735,-3.15781 0,-1.43155 0.63156,-2.54731 0.63156,-1.11576 2.44205,-2.88414 2.14731,-2.10521 3.97884,-3.24202 1.85259,-1.15787 2.90519,-1.15787 0.75788,0 1.28418,0.52631 0.5263,0.5263 0.5263,1.32628 0,0.67367 -0.69472,1.91574 -0.69472,1.24207 -1.55785,2.16837 -0.86314,0.90524 -1.36839,0.90524 -0.54735,0 -0.54735,-0.58946 0.0211,-0.16842 0.0211,-0.31578 0.0211,-0.14737 0.0211,-0.29473 0,-0.25263 -0.18947,-0.27368 -0.16841,-0.0421 -0.42104,0.14736 -2.10521,1.47365 -2.88414,2.08416 -0.77893,0.58946 -1.24207,1.19997 -0.4421,0.61051 -0.4421,1.28418 0,1.24207 0.79998,2.021 0.79998,0.77893 2.08416,0.77893 1.32628,0 3.17887,-1.0105 1.87364,-1.03155 4.39989,-2.9894 z"
     id="text1-8"
     transform="scale(1.0581456,0.94504953)"
     aria-label="Vision Inc" />
</svg>
