<?xml version="1.0" encoding="UTF-8" standalone="no"?>
<svg
   version="1.1"
   width="12.372mm"
   height="12.463999mm"
   viewBox="0 0 12.372 12.463999"
   id="svg134"
   sodipodi:docname="welmek.svg"
   inkscape:version="1.4.2 (ebf0e940d0, 2025-05-08)"
   xmlns:inkscape="http://www.inkscape.org/namespaces/inkscape"
   xmlns:sodipodi="http://sodipodi.sourceforge.net/DTD/sodipodi-0.dtd"
   xmlns="http://www.w3.org/2000/svg"
   xmlns:svg="http://www.w3.org/2000/svg"
   xmlns:rdf="http://www.w3.org/1999/02/22-rdf-syntax-ns#"
   xmlns:cc="http://creativecommons.org/ns#"
   xmlns:dc="http://purl.org/dc/elements/1.1/">
  <defs
     id="defs134" />
  <sodipodi:namedview
     id="namedview134"
     pagecolor="#ffffff"
     bordercolor="#000000"
     borderopacity="0.25"
     inkscape:showpageshadow="2"
     inkscape:pageopacity="0.0"
     inkscape:pagecheckerboard="0"
     inkscape:deskcolor="#d1d1d1"
     inkscape:document-units="mm"
     inkscape:zoom="4.2962095"
     inkscape:cx="47.367337"
     inkscape:cy="42.828452"
     inkscape:window-width="1890"
     inkscape:window-height="991"
     inkscape:window-x="15"
     inkscape:window-y="42"
     inkscape:window-maximized="0"
     inkscape:current-layer="svg134" />
  <title
     id="title1">SVG Image created as pcb_ruler-B_Cu.svg date 2025/05/24 15:26:28 </title>
  <desc
     id="desc1">Image generated by PCBNEW </desc>
  <path
     style="fill:#000000;fill-opacity:1;fill-rule:evenodd;stroke:#000000;stroke-width:0.1;stroke-linecap:round;stroke-linejoin:round;stroke-opacity:1"
     d="m 4.0170004,0.68499839 2.286,0.63500001 2.286,-0.63500001 0.381,4.19100001 h 0.381 l -0.381,-4.82600001 -2.667,0.762 -2.667,-0.762 -0.381,4.82600001 h 0.381 z"
     id="path8" />
  <path
     style="fill:#000000;fill-opacity:1;fill-rule:evenodd;stroke:#000000;stroke-width:0.1;stroke-linecap:round;stroke-linejoin:round;stroke-opacity:1"
     d="m 10.7723,5.1299984 -0.381,-0.381 -2.4129996,4.191 -1.905,-3.302 v -4.064 l -1.8023,-0.508 -0.0254,0.508 1.4467,0.381 v 3.81 l 2.286,4.191 z"
     id="path62" />
  <path
     style="fill:#000000;fill-opacity:1;fill-rule:evenodd;stroke:#000000;stroke-width:0.1;stroke-linecap:round;stroke-linejoin:round;stroke-opacity:1"
     d="m 6.9380004,5.7649984 v -3.81 l 1.4224,-0.381 -0.0254,-0.508 -1.778,0.508 v 4.064 l -1.905,3.302 -2.4130004,-4.191 -0.381,0.381 2.7940004,4.826 z"
     id="path5" />
  <g
     style="fill:none;stroke:#000000;stroke-width:0.4233;stroke-linecap:round;stroke-linejoin:round;stroke-opacity:1"
     id="g133"
     transform="matrix(1,0,0,-1,-104.7977,143.306)">
    <path
       style="fill:#000000;fill-opacity:1;fill-rule:evenodd;stroke:none"
       d="m 105.3576,130.842 h 0.5321 l 0.336,1.2815 0.3695,-1.2815 h 0.518 l 0.5573,1.9461 h -0.4901 l -0.3136,-1.3068 -0.3528,1.2956 h -0.5292 l -0.3387,-1.3348 -0.3024,1.346 h -0.546 z"
       id="path128" />
    <path
       style="fill:#000000;fill-opacity:1;fill-rule:evenodd;stroke:none"
       d="m 107.8595,130.842 h 1.3944 v 0.4256 h -0.9099 v 0.3482 h 0.8315 v 0.4256 h -0.8315 v 0.321 h 0.9099 v 0.4257 h -1.3944 z"
       id="path129" />
    <path
       style="fill:#000000;fill-opacity:1;fill-rule:evenodd;stroke:none"
       d="m 109.5927,130.842 h 1.288 v 0.4283 h -0.8036 v 1.5178 h -0.4844 z"
       id="path130" />
    <path
       style="fill:#000000;fill-opacity:1;fill-rule:evenodd;stroke:none"
       d="m 111.1539,130.842 h 0.4704 v 1.0936 l 0.4032,-0.7935 h 0.3667 l 0.4117,0.8439 v -1.144 h 0.4704 v 1.9461 h -0.462 l -0.5797,-1.1357 -0.6131,1.1357 h -0.4676 z"
       id="path131" />
    <path
       style="fill:#000000;fill-opacity:1;fill-rule:evenodd;stroke:none"
       d="m 113.6725,130.842 h 1.3944 v 0.4256 h -0.91 v 0.3482 h 0.8316 v 0.4256 h -0.8316 v 0.321 h 0.91 v 0.4257 h -1.3944 z"
       id="path132" />
    <path
       style="fill:#000000;fill-opacity:1;fill-rule:evenodd;stroke:none"
       d="m 115.4056,130.842 h 0.4985 v 0.9618 l 0.616,-0.9618 h 0.6496 l -0.7113,1.0488 0.6665,0.8973 h -0.5852 l -0.6356,-0.8778 v 0.8778 h -0.4985 z"
       id="path133" />
  </g>
  <metadata
     id="metadata134">
    <rdf:RDF>
      <cc:Work
         rdf:about="">
        <dc:title>SVG Image created as pcb_ruler-B_Cu.svg date 2025/05/24 15:26:28 </dc:title>
      </cc:Work>
    </rdf:RDF>
  </metadata>
</svg>
