G04 #@! TF.GenerationSoftware,KiCad,Pcbnew,9.0.2*
G04 #@! TF.CreationDate,2025-05-24T20:46:17-04:00*
G04 #@! TF.ProjectId,pcb_ruler,7063625f-7275-46c6-9572-2e6b69636164,rev?*
G04 #@! TF.SameCoordinates,Original*
G04 #@! TF.FileFunction,Soldermask,Top*
G04 #@! TF.FilePolarity,Negative*
%FSLAX46Y46*%
G04 Gerber Fmt 4.6, Leading zero omitted, Abs format (unit mm)*
G04 Created by KiCad (PCBNEW 9.0.2) date 2025-05-24 20:46:17*
%MOMM*%
%LPD*%
G01*
G04 APERTURE LIST*
%ADD10C,0.200000*%
%ADD11C,0.300000*%
%ADD12C,9.400000*%
G04 APERTURE END LIST*
D10*
X207000000Y-151130000D02*
X207000000Y-152400000D01*
X258000000Y-151130000D02*
X258000000Y-152400000D01*
X245000000Y-151130000D02*
X245000000Y-152400000D01*
X359000000Y-151130000D02*
X359000000Y-152400000D01*
X330200000Y-133350000D02*
X330200000Y-127000000D01*
X262000000Y-151130000D02*
X262000000Y-152400000D01*
X319087500Y-127000000D02*
X319087500Y-128270000D01*
X180000000Y-151130000D02*
X180000000Y-152400000D01*
X262731250Y-127000000D02*
X262731250Y-127635000D01*
X165893750Y-127000000D02*
X165893750Y-127635000D01*
X167000000Y-151130000D02*
X167000000Y-152400000D01*
X280987500Y-127000000D02*
X280987500Y-128270000D01*
X230187500Y-127000000D02*
X230187500Y-128270000D01*
X176212500Y-127000000D02*
X176212500Y-128270000D01*
X116000000Y-150495000D02*
X116000000Y-152400000D01*
X377031250Y-127000000D02*
X377031250Y-127635000D01*
X358000000Y-151130000D02*
X358000000Y-152400000D01*
X164306250Y-127000000D02*
X164306250Y-127635000D01*
X226218750Y-127000000D02*
X226218750Y-127635000D01*
X132000000Y-151130000D02*
X132000000Y-152400000D01*
X159000000Y-151130000D02*
X159000000Y-152400000D01*
X99218750Y-127000000D02*
X99218750Y-127635000D01*
X188118750Y-127000000D02*
X188118750Y-127635000D01*
X333375000Y-127000000D02*
X333375000Y-129540000D01*
X257175000Y-127000000D02*
X257175000Y-129540000D01*
X283368750Y-127000000D02*
X283368750Y-127635000D01*
X254793750Y-127000000D02*
X254793750Y-127635000D01*
X249237500Y-127000000D02*
X249237500Y-128270000D01*
X166000000Y-150495000D02*
X166000000Y-152400000D01*
X296068750Y-127000000D02*
X296068750Y-127635000D01*
X124618750Y-127000000D02*
X124618750Y-127635000D01*
X376237500Y-127000000D02*
X376237500Y-128270000D01*
X81756250Y-127000000D02*
X81756250Y-127635000D01*
X135731250Y-127000000D02*
X135731250Y-127635000D01*
X292893750Y-127000000D02*
X292893750Y-127635000D01*
X101600000Y-133350000D02*
X101600000Y-127000000D01*
X276225000Y-127000000D02*
X276225000Y-129540000D01*
X350000000Y-151130000D02*
X350000000Y-152400000D01*
X274637500Y-127000000D02*
X274637500Y-128270000D01*
X252000000Y-151130000D02*
X252000000Y-152400000D01*
X357981250Y-127000000D02*
X357981250Y-127635000D01*
X325000000Y-151130000D02*
X325000000Y-152400000D01*
X92868750Y-127000000D02*
X92868750Y-127635000D01*
X260000000Y-151130000D02*
X260000000Y-152400000D01*
X84931250Y-127000000D02*
X84931250Y-127635000D01*
X161925000Y-127000000D02*
X161925000Y-129540000D01*
X310356250Y-127000000D02*
X310356250Y-127635000D01*
X159543750Y-127000000D02*
X159543750Y-127635000D01*
X188000000Y-151130000D02*
X188000000Y-152400000D01*
X293687500Y-127000000D02*
X293687500Y-128270000D01*
X240506250Y-127000000D02*
X240506250Y-127635000D01*
X296862500Y-127000000D02*
X296862500Y-128270000D01*
X250031250Y-127000000D02*
X250031250Y-127635000D01*
X232000000Y-151130000D02*
X232000000Y-152400000D01*
X362743750Y-127000000D02*
X362743750Y-127635000D01*
X110000000Y-151130000D02*
X110000000Y-152400000D01*
X300037500Y-127000000D02*
X300037500Y-128270000D01*
X138906250Y-127000000D02*
X138906250Y-127635000D01*
X190500000Y-127000000D02*
X190500000Y-132080000D01*
X162718750Y-127000000D02*
X162718750Y-127635000D01*
X138000000Y-151130000D02*
X138000000Y-152400000D01*
X379000000Y-151130000D02*
X379000000Y-152400000D01*
X336000000Y-150495000D02*
X336000000Y-152400000D01*
X256381250Y-127000000D02*
X256381250Y-127635000D01*
X316706250Y-127000000D02*
X316706250Y-127635000D01*
X274000000Y-151130000D02*
X274000000Y-152400000D01*
X277812500Y-127000000D02*
X277812500Y-128270000D01*
X87312500Y-127000000D02*
X87312500Y-128270000D01*
X257000000Y-151130000D02*
X257000000Y-152400000D01*
X139700000Y-127000000D02*
X139700000Y-132080000D01*
X111918750Y-127000000D02*
X111918750Y-127635000D01*
X207168750Y-127000000D02*
X207168750Y-127635000D01*
X178000000Y-151130000D02*
X178000000Y-152400000D01*
X365125000Y-127000000D02*
X365125000Y-129540000D01*
X311943750Y-127000000D02*
X311943750Y-127635000D01*
X225425000Y-127000000D02*
X225425000Y-129540000D01*
X263000000Y-151130000D02*
X263000000Y-152400000D01*
X239000000Y-151130000D02*
X239000000Y-152400000D01*
X256000000Y-150495000D02*
X256000000Y-152400000D01*
X199231250Y-127000000D02*
X199231250Y-127635000D01*
X374650000Y-127000000D02*
X374650000Y-130810000D01*
X281000000Y-148590000D02*
X281000000Y-152400000D01*
X342900000Y-127000000D02*
X342900000Y-132080000D01*
X335000000Y-151130000D02*
X335000000Y-152400000D01*
X230000000Y-151130000D02*
X230000000Y-152400000D01*
X332581250Y-127000000D02*
X332581250Y-127635000D01*
X169068750Y-127000000D02*
X169068750Y-127635000D01*
X175000000Y-151130000D02*
X175000000Y-152400000D01*
X307181250Y-127000000D02*
X307181250Y-127635000D01*
X278606250Y-127000000D02*
X278606250Y-127635000D01*
X90000000Y-151130000D02*
X90000000Y-152400000D01*
X112712500Y-127000000D02*
X112712500Y-128270000D01*
X158000000Y-151130000D02*
X158000000Y-152400000D01*
X339000000Y-151130000D02*
X339000000Y-152400000D01*
X316000000Y-150495000D02*
X316000000Y-152400000D01*
X204000000Y-151130000D02*
X204000000Y-152400000D01*
X315000000Y-151130000D02*
X315000000Y-152400000D01*
X208000000Y-151130000D02*
X208000000Y-152400000D01*
X227012500Y-127000000D02*
X227012500Y-128270000D01*
X223000000Y-151130000D02*
X223000000Y-152400000D01*
X130175000Y-127000000D02*
X130175000Y-129540000D01*
X351000000Y-148590000D02*
X351000000Y-152400000D01*
X308000000Y-151130000D02*
X308000000Y-152400000D01*
X338137500Y-127000000D02*
X338137500Y-128270000D01*
X348456250Y-127000000D02*
X348456250Y-127635000D01*
X296000000Y-150495000D02*
X296000000Y-152400000D01*
X107000000Y-151130000D02*
X107000000Y-152400000D01*
X197643750Y-127000000D02*
X197643750Y-127635000D01*
X233362500Y-127000000D02*
X233362500Y-128270000D01*
X168000000Y-151130000D02*
X168000000Y-152400000D01*
X366000000Y-150495000D02*
X366000000Y-152400000D01*
X241300000Y-127000000D02*
X241300000Y-132080000D01*
X242887500Y-127000000D02*
X242887500Y-128270000D01*
X169862500Y-127000000D02*
X169862500Y-128270000D01*
X123825000Y-127000000D02*
X123825000Y-129540000D01*
X194468750Y-127000000D02*
X194468750Y-127635000D01*
X254000000Y-133350000D02*
X254000000Y-127000000D01*
X108743750Y-127000000D02*
X108743750Y-127635000D01*
X349000000Y-151130000D02*
X349000000Y-152400000D01*
X79375000Y-127000000D02*
X79375000Y-129540000D01*
X249000000Y-151130000D02*
X249000000Y-152400000D01*
X273000000Y-151130000D02*
X273000000Y-152400000D01*
X245268750Y-127000000D02*
X245268750Y-127635000D01*
X238918750Y-127000000D02*
X238918750Y-127635000D01*
X320675000Y-127000000D02*
X320675000Y-129540000D01*
X77787500Y-127000000D02*
X77787500Y-128270000D01*
X293000000Y-151130000D02*
X293000000Y-152400000D01*
X284000000Y-151130000D02*
X284000000Y-152400000D01*
X200000000Y-151130000D02*
X200000000Y-152400000D01*
X242000000Y-151130000D02*
X242000000Y-152400000D01*
X125412500Y-127000000D02*
X125412500Y-128270000D01*
X85000000Y-151130000D02*
X85000000Y-152400000D01*
X79000000Y-151130000D02*
X79000000Y-152400000D01*
X205581250Y-127000000D02*
X205581250Y-127635000D01*
X148431250Y-127000000D02*
X148431250Y-127635000D01*
X142081250Y-127000000D02*
X142081250Y-127635000D01*
X80000000Y-151130000D02*
X80000000Y-152400000D01*
X286000000Y-150495000D02*
X286000000Y-152400000D01*
X312000000Y-151130000D02*
X312000000Y-152400000D01*
X124000000Y-151130000D02*
X124000000Y-152400000D01*
X119000000Y-151130000D02*
X119000000Y-152400000D01*
X143000000Y-151130000D02*
X143000000Y-152400000D01*
X233000000Y-151130000D02*
X233000000Y-152400000D01*
X330000000Y-151130000D02*
X330000000Y-152400000D01*
X156000000Y-150495000D02*
X156000000Y-152400000D01*
X140493750Y-127000000D02*
X140493750Y-127635000D01*
X327818750Y-127000000D02*
X327818750Y-127635000D01*
X261000000Y-148590000D02*
X261000000Y-152400000D01*
X217487500Y-127000000D02*
X217487500Y-128270000D01*
X356393750Y-127000000D02*
X356393750Y-127635000D01*
X193000000Y-151130000D02*
X193000000Y-152400000D01*
X344000000Y-151130000D02*
X344000000Y-152400000D01*
X216000000Y-150495000D02*
X216000000Y-152400000D01*
X187000000Y-151130000D02*
X187000000Y-152400000D01*
X82550000Y-127000000D02*
X82550000Y-130810000D01*
X123031250Y-127000000D02*
X123031250Y-127635000D01*
X324643750Y-127000000D02*
X324643750Y-127635000D01*
X174625000Y-127000000D02*
X174625000Y-129540000D01*
X197000000Y-151130000D02*
X197000000Y-152400000D01*
X103187500Y-127000000D02*
X103187500Y-128270000D01*
X173000000Y-151130000D02*
X173000000Y-152400000D01*
X264318750Y-127000000D02*
X264318750Y-127635000D01*
X339725000Y-127000000D02*
X339725000Y-129540000D01*
X119856250Y-127000000D02*
X119856250Y-127635000D01*
X269081250Y-127000000D02*
X269081250Y-127635000D01*
X192087500Y-127000000D02*
X192087500Y-128270000D01*
X323056250Y-127000000D02*
X323056250Y-127635000D01*
X220662500Y-127000000D02*
X220662500Y-128270000D01*
X115093750Y-127000000D02*
X115093750Y-127635000D01*
X354806250Y-127000000D02*
X354806250Y-127635000D01*
X181768750Y-127000000D02*
X181768750Y-127635000D01*
X111125000Y-127000000D02*
X111125000Y-129540000D01*
X338931250Y-127000000D02*
X338931250Y-127635000D01*
X170000000Y-151130000D02*
X170000000Y-152400000D01*
X323000000Y-151130000D02*
X323000000Y-152400000D01*
X338000000Y-151130000D02*
X338000000Y-152400000D01*
X191000000Y-148590000D02*
X191000000Y-152400000D01*
X93000000Y-151130000D02*
X93000000Y-152400000D01*
X219000000Y-151130000D02*
X219000000Y-152400000D01*
X134143750Y-127000000D02*
X134143750Y-127635000D01*
X308768750Y-127000000D02*
X308768750Y-127635000D01*
X373062500Y-127000000D02*
X373062500Y-128270000D01*
X158750000Y-127000000D02*
X158750000Y-130810000D01*
X348000000Y-151130000D02*
X348000000Y-152400000D01*
X202000000Y-151130000D02*
X202000000Y-152400000D01*
X148000000Y-151130000D02*
X148000000Y-152400000D01*
X280000000Y-151130000D02*
X280000000Y-152400000D01*
X126000000Y-150495000D02*
X126000000Y-152400000D01*
X153193750Y-127000000D02*
X153193750Y-127635000D01*
X214000000Y-151130000D02*
X214000000Y-152400000D01*
X364000000Y-151130000D02*
X364000000Y-152400000D01*
X96000000Y-150495000D02*
X96000000Y-152400000D01*
X112000000Y-151130000D02*
X112000000Y-152400000D01*
X299243750Y-127000000D02*
X299243750Y-127635000D01*
X131000000Y-148590000D02*
X131000000Y-152400000D01*
X116681250Y-127000000D02*
X116681250Y-127635000D01*
X177000000Y-151130000D02*
X177000000Y-152400000D01*
X309562500Y-127000000D02*
X309562500Y-128270000D01*
X152400000Y-133350000D02*
X152400000Y-127000000D01*
X379412500Y-127000000D02*
X379412500Y-128270000D01*
X253000000Y-151130000D02*
X253000000Y-152400000D01*
X361156250Y-127000000D02*
X361156250Y-127635000D01*
X141287500Y-127000000D02*
X141287500Y-128270000D01*
X97000000Y-151130000D02*
X97000000Y-152400000D01*
X137318750Y-127000000D02*
X137318750Y-127635000D01*
X324000000Y-151130000D02*
X324000000Y-152400000D01*
X312737500Y-127000000D02*
X312737500Y-128270000D01*
X134000000Y-151130000D02*
X134000000Y-152400000D01*
X78581250Y-127000000D02*
X78581250Y-127635000D01*
X95250000Y-127000000D02*
X95250000Y-130810000D01*
X370000000Y-151130000D02*
X370000000Y-152400000D01*
X270668750Y-127000000D02*
X270668750Y-127635000D01*
X155575000Y-127000000D02*
X155575000Y-129540000D01*
X115000000Y-151130000D02*
X115000000Y-152400000D01*
X213000000Y-151130000D02*
X213000000Y-152400000D01*
X219075000Y-127000000D02*
X219075000Y-129540000D01*
X257968750Y-127000000D02*
X257968750Y-127635000D01*
X193675000Y-127000000D02*
X193675000Y-129540000D01*
X146000000Y-150495000D02*
X146000000Y-152400000D01*
X114300000Y-127000000D02*
X114300000Y-132080000D01*
X88106250Y-127000000D02*
X88106250Y-127635000D01*
X268287500Y-127000000D02*
X268287500Y-128270000D01*
X304006250Y-127000000D02*
X304006250Y-127635000D01*
X232568750Y-127000000D02*
X232568750Y-127635000D01*
X151606250Y-127000000D02*
X151606250Y-127635000D01*
X218281250Y-127000000D02*
X218281250Y-127635000D01*
X363537500Y-127000000D02*
X363537500Y-128270000D01*
X144000000Y-151130000D02*
X144000000Y-152400000D01*
X81000000Y-148590000D02*
X81000000Y-152400000D01*
X104775000Y-127000000D02*
X104775000Y-129540000D01*
X347000000Y-151130000D02*
X347000000Y-152400000D01*
X350837500Y-127000000D02*
X350837500Y-128270000D01*
X285750000Y-127000000D02*
X285750000Y-130810000D01*
X93662500Y-127000000D02*
X93662500Y-128270000D01*
X172243750Y-127000000D02*
X172243750Y-127635000D01*
X345000000Y-151130000D02*
X345000000Y-152400000D01*
X349250000Y-127000000D02*
X349250000Y-130810000D01*
X150000000Y-151130000D02*
X150000000Y-152400000D01*
X129000000Y-151130000D02*
X129000000Y-152400000D01*
X130968750Y-127000000D02*
X130968750Y-127635000D01*
X359568750Y-127000000D02*
X359568750Y-127635000D01*
X244000000Y-151130000D02*
X244000000Y-152400000D01*
X131762500Y-127000000D02*
X131762500Y-128270000D01*
X224631250Y-127000000D02*
X224631250Y-127635000D01*
X221000000Y-148590000D02*
X221000000Y-152400000D01*
X119062500Y-127000000D02*
X119062500Y-128270000D01*
X227806250Y-127000000D02*
X227806250Y-127635000D01*
X113000000Y-151130000D02*
X113000000Y-152400000D01*
X327025000Y-127000000D02*
X327025000Y-129540000D01*
X187325000Y-127000000D02*
X187325000Y-129540000D01*
X126206250Y-127000000D02*
X126206250Y-127635000D01*
X165000000Y-151130000D02*
X165000000Y-152400000D01*
X102000000Y-151130000D02*
X102000000Y-152400000D01*
X101000000Y-148590000D02*
X101000000Y-152400000D01*
X211000000Y-148590000D02*
X211000000Y-152400000D01*
X309000000Y-151130000D02*
X309000000Y-152400000D01*
X288131250Y-127000000D02*
X288131250Y-127635000D01*
X236000000Y-150495000D02*
X236000000Y-152400000D01*
X299000000Y-151130000D02*
X299000000Y-152400000D01*
X180975000Y-127000000D02*
X180975000Y-129540000D01*
X128587500Y-127000000D02*
X128587500Y-128270000D01*
X222000000Y-151130000D02*
X222000000Y-152400000D01*
X266000000Y-150495000D02*
X266000000Y-152400000D01*
X94456250Y-127000000D02*
X94456250Y-127635000D01*
X147000000Y-151130000D02*
X147000000Y-152400000D01*
X371475000Y-127000000D02*
X371475000Y-129540000D01*
X127000000Y-151130000D02*
X127000000Y-152400000D01*
X328612500Y-127000000D02*
X328612500Y-128270000D01*
X192881250Y-127000000D02*
X192881250Y-127635000D01*
X91281250Y-127000000D02*
X91281250Y-127635000D01*
X213518750Y-127000000D02*
X213518750Y-127635000D01*
X243000000Y-151130000D02*
X243000000Y-152400000D01*
X163512500Y-127000000D02*
X163512500Y-128270000D01*
X100000000Y-151130000D02*
X100000000Y-152400000D01*
X273050000Y-127000000D02*
X273050000Y-130810000D01*
X161000000Y-148590000D02*
X161000000Y-152400000D01*
X369887500Y-127000000D02*
X369887500Y-128270000D01*
X177800000Y-133350000D02*
X177800000Y-127000000D01*
X356000000Y-150495000D02*
X356000000Y-152400000D01*
X334962500Y-127000000D02*
X334962500Y-128270000D01*
X319881250Y-127000000D02*
X319881250Y-127635000D01*
X196850000Y-127000000D02*
X196850000Y-130810000D01*
X331787500Y-127000000D02*
X331787500Y-128270000D01*
X180181250Y-127000000D02*
X180181250Y-127635000D01*
X195262500Y-127000000D02*
X195262500Y-128270000D01*
X123000000Y-151130000D02*
X123000000Y-152400000D01*
X297000000Y-151130000D02*
X297000000Y-152400000D01*
X281781250Y-127000000D02*
X281781250Y-127635000D01*
X109537500Y-127000000D02*
X109537500Y-128270000D01*
X173037500Y-127000000D02*
X173037500Y-128270000D01*
X246062500Y-127000000D02*
X246062500Y-128270000D01*
X203000000Y-151130000D02*
X203000000Y-152400000D01*
X219868750Y-127000000D02*
X219868750Y-127635000D01*
X341000000Y-148590000D02*
X341000000Y-152400000D01*
X331000000Y-148590000D02*
X331000000Y-152400000D01*
X328000000Y-151130000D02*
X328000000Y-152400000D01*
X228000000Y-151130000D02*
X228000000Y-152400000D01*
X247650000Y-127000000D02*
X247650000Y-130810000D01*
X189000000Y-151130000D02*
X189000000Y-152400000D01*
X210000000Y-151130000D02*
X210000000Y-152400000D01*
X352425000Y-127000000D02*
X352425000Y-129540000D01*
X365918750Y-127000000D02*
X365918750Y-127635000D01*
X361000000Y-148590000D02*
X361000000Y-152400000D01*
X319000000Y-151130000D02*
X319000000Y-152400000D01*
X121443750Y-127000000D02*
X121443750Y-127635000D01*
X251000000Y-148590000D02*
X251000000Y-152400000D01*
X127000000Y-133350000D02*
X127000000Y-127000000D01*
X265906250Y-127000000D02*
X265906250Y-127635000D01*
X91000000Y-148590000D02*
X91000000Y-152400000D01*
X117000000Y-151130000D02*
X117000000Y-152400000D01*
X150812500Y-127000000D02*
X150812500Y-128270000D01*
X154781250Y-127000000D02*
X154781250Y-127635000D01*
X329406250Y-127000000D02*
X329406250Y-127635000D01*
X298450000Y-127000000D02*
X298450000Y-130810000D01*
X111000000Y-148590000D02*
X111000000Y-152400000D01*
X95000000Y-151130000D02*
X95000000Y-152400000D01*
X149225000Y-127000000D02*
X149225000Y-129540000D01*
X269000000Y-151130000D02*
X269000000Y-152400000D01*
X165100000Y-127000000D02*
X165100000Y-132080000D01*
X156368750Y-127000000D02*
X156368750Y-127635000D01*
X186531250Y-127000000D02*
X186531250Y-127635000D01*
X270000000Y-151130000D02*
X270000000Y-152400000D01*
X265000000Y-151130000D02*
X265000000Y-152400000D01*
X145000000Y-151130000D02*
X145000000Y-152400000D01*
X336550000Y-127000000D02*
X336550000Y-130810000D01*
X146843750Y-127000000D02*
X146843750Y-127635000D01*
X369000000Y-151130000D02*
X369000000Y-152400000D01*
X307000000Y-151130000D02*
X307000000Y-152400000D01*
X211931250Y-127000000D02*
X211931250Y-127635000D01*
X271462500Y-127000000D02*
X271462500Y-128270000D01*
X215900000Y-127000000D02*
X215900000Y-132080000D01*
X200025000Y-127000000D02*
X200025000Y-129540000D01*
X244475000Y-127000000D02*
X244475000Y-129540000D01*
X304000000Y-151130000D02*
X304000000Y-152400000D01*
X238000000Y-151130000D02*
X238000000Y-152400000D01*
X98000000Y-151130000D02*
X98000000Y-152400000D01*
X272000000Y-151130000D02*
X272000000Y-152400000D01*
X278000000Y-151130000D02*
X278000000Y-152400000D01*
X222250000Y-127000000D02*
X222250000Y-130810000D01*
X265112500Y-127000000D02*
X265112500Y-128270000D01*
X179387500Y-127000000D02*
X179387500Y-128270000D01*
X215000000Y-151130000D02*
X215000000Y-152400000D01*
X243681250Y-127000000D02*
X243681250Y-127635000D01*
X174000000Y-151130000D02*
X174000000Y-152400000D01*
X289718750Y-127000000D02*
X289718750Y-127635000D01*
X300000000Y-151130000D02*
X300000000Y-152400000D01*
X283000000Y-151130000D02*
X283000000Y-152400000D01*
X303212500Y-127000000D02*
X303212500Y-128270000D01*
X292000000Y-151130000D02*
X292000000Y-152400000D01*
X372000000Y-151130000D02*
X372000000Y-152400000D01*
X210343750Y-127000000D02*
X210343750Y-127635000D01*
X209550000Y-127000000D02*
X209550000Y-130810000D01*
X96837500Y-127000000D02*
X96837500Y-128270000D01*
X295275000Y-127000000D02*
X295275000Y-129540000D01*
X216693750Y-127000000D02*
X216693750Y-127635000D01*
X237331250Y-127000000D02*
X237331250Y-127635000D01*
X212000000Y-151130000D02*
X212000000Y-152400000D01*
X86000000Y-150495000D02*
X86000000Y-152400000D01*
X342000000Y-151130000D02*
X342000000Y-152400000D01*
X133350000Y-127000000D02*
X133350000Y-130810000D01*
X92000000Y-151130000D02*
X92000000Y-152400000D01*
X163000000Y-151130000D02*
X163000000Y-152400000D01*
X314000000Y-151130000D02*
X314000000Y-152400000D01*
X347662500Y-127000000D02*
X347662500Y-128270000D01*
X142875000Y-127000000D02*
X142875000Y-129540000D01*
X185737500Y-127000000D02*
X185737500Y-128270000D01*
X208756250Y-127000000D02*
X208756250Y-127635000D01*
X121000000Y-148590000D02*
X121000000Y-152400000D01*
X298000000Y-151130000D02*
X298000000Y-152400000D01*
X346000000Y-150495000D02*
X346000000Y-152400000D01*
X346075000Y-127000000D02*
X346075000Y-129540000D01*
X157956250Y-127000000D02*
X157956250Y-127635000D01*
X280193750Y-127000000D02*
X280193750Y-127635000D01*
X205000000Y-151130000D02*
X205000000Y-152400000D01*
X182562500Y-127000000D02*
X182562500Y-128270000D01*
X150018750Y-127000000D02*
X150018750Y-127635000D01*
X231775000Y-127000000D02*
X231775000Y-129540000D01*
X290512500Y-127000000D02*
X290512500Y-128270000D01*
X212725000Y-127000000D02*
X212725000Y-129540000D01*
X242093750Y-127000000D02*
X242093750Y-127635000D01*
X226000000Y-150495000D02*
X226000000Y-152400000D01*
X303000000Y-151130000D02*
X303000000Y-152400000D01*
X302418750Y-127000000D02*
X302418750Y-127635000D01*
X351631250Y-127000000D02*
X351631250Y-127635000D01*
X82000000Y-151130000D02*
X82000000Y-152400000D01*
X282575000Y-127000000D02*
X282575000Y-129540000D01*
X292100000Y-127000000D02*
X292100000Y-132080000D01*
X279000000Y-151130000D02*
X279000000Y-152400000D01*
X237000000Y-151130000D02*
X237000000Y-152400000D01*
X168275000Y-127000000D02*
X168275000Y-129540000D01*
X355600000Y-133350000D02*
X355600000Y-127000000D01*
X321000000Y-148590000D02*
X321000000Y-152400000D01*
X203200000Y-133350000D02*
X203200000Y-127000000D01*
X353218750Y-127000000D02*
X353218750Y-127635000D01*
X373000000Y-151130000D02*
X373000000Y-152400000D01*
X83343750Y-127000000D02*
X83343750Y-127635000D01*
X287337500Y-127000000D02*
X287337500Y-128270000D01*
X80168750Y-127000000D02*
X80168750Y-127635000D01*
X258762500Y-127000000D02*
X258762500Y-128270000D01*
X153000000Y-151130000D02*
X153000000Y-152400000D01*
X305593750Y-127000000D02*
X305593750Y-127635000D01*
X157000000Y-151130000D02*
X157000000Y-152400000D01*
X335756250Y-127000000D02*
X335756250Y-127635000D01*
X343693750Y-127000000D02*
X343693750Y-127635000D01*
X288925000Y-127000000D02*
X288925000Y-129540000D01*
X162000000Y-151130000D02*
X162000000Y-152400000D01*
X317000000Y-151130000D02*
X317000000Y-152400000D01*
X330993750Y-127000000D02*
X330993750Y-127635000D01*
X364331250Y-127000000D02*
X364331250Y-127635000D01*
X248443750Y-127000000D02*
X248443750Y-127635000D01*
X285000000Y-151130000D02*
X285000000Y-152400000D01*
X77000000Y-151130000D02*
X77000000Y-152400000D01*
X343000000Y-151130000D02*
X343000000Y-152400000D01*
X315912500Y-127000000D02*
X315912500Y-128270000D01*
X340000000Y-151130000D02*
X340000000Y-152400000D01*
X284162500Y-127000000D02*
X284162500Y-128270000D01*
X231000000Y-148590000D02*
X231000000Y-152400000D01*
X250825000Y-127000000D02*
X250825000Y-129540000D01*
X103981250Y-127000000D02*
X103981250Y-127635000D01*
X291306250Y-127000000D02*
X291306250Y-127635000D01*
X286543750Y-127000000D02*
X286543750Y-127635000D01*
X195000000Y-151130000D02*
X195000000Y-152400000D01*
X99000000Y-151130000D02*
X99000000Y-152400000D01*
X176000000Y-150495000D02*
X176000000Y-152400000D01*
X332000000Y-151130000D02*
X332000000Y-152400000D01*
X142000000Y-151130000D02*
X142000000Y-152400000D01*
X259556250Y-127000000D02*
X259556250Y-127635000D01*
X321468750Y-127000000D02*
X321468750Y-127635000D01*
X310000000Y-151130000D02*
X310000000Y-152400000D01*
X275000000Y-151130000D02*
X275000000Y-152400000D01*
X306000000Y-150495000D02*
X306000000Y-152400000D01*
X118268750Y-127000000D02*
X118268750Y-127635000D01*
X267000000Y-151130000D02*
X267000000Y-152400000D01*
X259000000Y-151130000D02*
X259000000Y-152400000D01*
X300831250Y-127000000D02*
X300831250Y-127635000D01*
X227000000Y-151130000D02*
X227000000Y-152400000D01*
X224000000Y-151130000D02*
X224000000Y-152400000D01*
X322000000Y-151130000D02*
X322000000Y-152400000D01*
X189706250Y-127000000D02*
X189706250Y-127635000D01*
X184150000Y-127000000D02*
X184150000Y-130810000D01*
X320000000Y-151130000D02*
X320000000Y-152400000D01*
X161131250Y-127000000D02*
X161131250Y-127635000D01*
X311000000Y-148590000D02*
X311000000Y-152400000D01*
X360000000Y-151130000D02*
X360000000Y-152400000D01*
X118000000Y-151130000D02*
X118000000Y-152400000D01*
X221456250Y-127000000D02*
X221456250Y-127635000D01*
X378000000Y-151130000D02*
X378000000Y-152400000D01*
X183356250Y-127000000D02*
X183356250Y-127635000D01*
X86518750Y-127000000D02*
X86518750Y-127635000D01*
X114000000Y-151130000D02*
X114000000Y-152400000D01*
X175418750Y-127000000D02*
X175418750Y-127635000D01*
X202406250Y-127000000D02*
X202406250Y-127635000D01*
X127793750Y-127000000D02*
X127793750Y-127635000D01*
X290000000Y-151130000D02*
X290000000Y-152400000D01*
X289000000Y-151130000D02*
X289000000Y-152400000D01*
X201612500Y-127000000D02*
X201612500Y-128270000D01*
X295000000Y-151130000D02*
X295000000Y-152400000D01*
X372268750Y-127000000D02*
X372268750Y-127635000D01*
X268000000Y-151130000D02*
X268000000Y-152400000D01*
X358775000Y-127000000D02*
X358775000Y-129540000D01*
X291000000Y-148590000D02*
X291000000Y-152400000D01*
X345281250Y-127000000D02*
X345281250Y-127635000D01*
X333000000Y-151130000D02*
X333000000Y-152400000D01*
X152000000Y-151130000D02*
X152000000Y-152400000D01*
X341312500Y-127000000D02*
X341312500Y-128270000D01*
X315118750Y-127000000D02*
X315118750Y-127635000D01*
X337000000Y-151130000D02*
X337000000Y-152400000D01*
X239712500Y-127000000D02*
X239712500Y-128270000D01*
X129381250Y-127000000D02*
X129381250Y-127635000D01*
X128000000Y-151130000D02*
X128000000Y-152400000D01*
X305000000Y-151130000D02*
X305000000Y-152400000D01*
X380000000Y-151130000D02*
X380000000Y-152400000D01*
X87000000Y-151130000D02*
X87000000Y-152400000D01*
X136000000Y-150495000D02*
X136000000Y-152400000D01*
X196000000Y-150495000D02*
X196000000Y-152400000D01*
X350043750Y-127000000D02*
X350043750Y-127635000D01*
X353000000Y-151130000D02*
X353000000Y-152400000D01*
X277018750Y-127000000D02*
X277018750Y-127635000D01*
X223837500Y-127000000D02*
X223837500Y-128270000D01*
X185000000Y-151130000D02*
X185000000Y-152400000D01*
X253206250Y-127000000D02*
X253206250Y-127635000D01*
X209000000Y-151130000D02*
X209000000Y-152400000D01*
X143668750Y-127000000D02*
X143668750Y-127635000D01*
X166687500Y-127000000D02*
X166687500Y-128270000D01*
X380206250Y-127000000D02*
X380206250Y-127635000D01*
X188912500Y-127000000D02*
X188912500Y-128270000D01*
X122000000Y-151130000D02*
X122000000Y-152400000D01*
X318000000Y-151130000D02*
X318000000Y-152400000D01*
X240000000Y-151130000D02*
X240000000Y-152400000D01*
X201000000Y-148590000D02*
X201000000Y-152400000D01*
X234950000Y-127000000D02*
X234950000Y-130810000D01*
X378618750Y-127000000D02*
X378618750Y-127635000D01*
X110331250Y-127000000D02*
X110331250Y-127635000D01*
X365000000Y-151130000D02*
X365000000Y-152400000D01*
X153987500Y-127000000D02*
X153987500Y-128270000D01*
X146050000Y-127000000D02*
X146050000Y-130810000D01*
X377000000Y-151130000D02*
X377000000Y-152400000D01*
X80962500Y-127000000D02*
X80962500Y-128270000D01*
X122237500Y-127000000D02*
X122237500Y-128270000D01*
X294000000Y-151130000D02*
X294000000Y-152400000D01*
X370681250Y-127000000D02*
X370681250Y-127635000D01*
X78000000Y-151130000D02*
X78000000Y-152400000D01*
X325437500Y-127000000D02*
X325437500Y-128270000D01*
X277000000Y-151130000D02*
X277000000Y-152400000D01*
X354012500Y-127000000D02*
X354012500Y-128270000D01*
X342106250Y-127000000D02*
X342106250Y-127635000D01*
X190000000Y-151130000D02*
X190000000Y-152400000D01*
X88900000Y-127000000D02*
X88900000Y-132080000D01*
X225000000Y-151130000D02*
X225000000Y-152400000D01*
X361950000Y-127000000D02*
X361950000Y-130810000D01*
X125000000Y-151130000D02*
X125000000Y-152400000D01*
X230981250Y-127000000D02*
X230981250Y-127635000D01*
X97631250Y-127000000D02*
X97631250Y-127635000D01*
X266700000Y-127000000D02*
X266700000Y-132080000D01*
X301000000Y-148590000D02*
X301000000Y-152400000D01*
X108000000Y-151130000D02*
X108000000Y-152400000D01*
X106362500Y-127000000D02*
X106362500Y-128270000D01*
X100806250Y-127000000D02*
X100806250Y-127635000D01*
X137000000Y-151130000D02*
X137000000Y-152400000D01*
X302000000Y-151130000D02*
X302000000Y-152400000D01*
X376000000Y-150495000D02*
X376000000Y-152400000D01*
X145256250Y-127000000D02*
X145256250Y-127635000D01*
X217000000Y-151130000D02*
X217000000Y-152400000D01*
X287000000Y-151130000D02*
X287000000Y-152400000D01*
X311150000Y-127000000D02*
X311150000Y-130810000D01*
X367506250Y-127000000D02*
X367506250Y-127635000D01*
X130000000Y-151130000D02*
X130000000Y-152400000D01*
X183000000Y-151130000D02*
X183000000Y-152400000D01*
X106000000Y-150495000D02*
X106000000Y-152400000D01*
X307975000Y-127000000D02*
X307975000Y-129540000D01*
X369093750Y-127000000D02*
X369093750Y-127635000D01*
X215106250Y-127000000D02*
X215106250Y-127635000D01*
X371000000Y-148590000D02*
X371000000Y-152400000D01*
X326000000Y-150495000D02*
X326000000Y-152400000D01*
X171450000Y-127000000D02*
X171450000Y-130810000D01*
X89693750Y-127000000D02*
X89693750Y-127635000D01*
X144462500Y-127000000D02*
X144462500Y-128270000D01*
X326231250Y-127000000D02*
X326231250Y-127635000D01*
X192000000Y-151130000D02*
X192000000Y-152400000D01*
X248000000Y-151130000D02*
X248000000Y-152400000D01*
X327000000Y-151130000D02*
X327000000Y-152400000D01*
X279400000Y-133350000D02*
X279400000Y-127000000D01*
X234156250Y-127000000D02*
X234156250Y-127635000D01*
X203993750Y-127000000D02*
X203993750Y-127635000D01*
X198000000Y-151130000D02*
X198000000Y-152400000D01*
X167481250Y-127000000D02*
X167481250Y-127635000D01*
X184943750Y-127000000D02*
X184943750Y-127635000D01*
X228600000Y-133350000D02*
X228600000Y-127000000D01*
X264000000Y-151130000D02*
X264000000Y-152400000D01*
X375000000Y-151130000D02*
X375000000Y-152400000D01*
X85725000Y-127000000D02*
X85725000Y-129540000D01*
X323850000Y-127000000D02*
X323850000Y-130810000D01*
X357187500Y-127000000D02*
X357187500Y-128270000D01*
X235000000Y-151130000D02*
X235000000Y-152400000D01*
X141000000Y-148590000D02*
X141000000Y-152400000D01*
X104000000Y-151130000D02*
X104000000Y-152400000D01*
X255000000Y-151130000D02*
X255000000Y-152400000D01*
X223043750Y-127000000D02*
X223043750Y-127635000D01*
X251618750Y-127000000D02*
X251618750Y-127635000D01*
X337343750Y-127000000D02*
X337343750Y-127635000D01*
X214312500Y-127000000D02*
X214312500Y-128270000D01*
X229000000Y-151130000D02*
X229000000Y-152400000D01*
X313000000Y-151130000D02*
X313000000Y-152400000D01*
X218000000Y-151130000D02*
X218000000Y-152400000D01*
X282000000Y-151130000D02*
X282000000Y-152400000D01*
X184000000Y-151130000D02*
X184000000Y-152400000D01*
X340518750Y-127000000D02*
X340518750Y-127635000D01*
X88000000Y-151130000D02*
X88000000Y-152400000D01*
X375443750Y-127000000D02*
X375443750Y-127635000D01*
X107156250Y-127000000D02*
X107156250Y-127635000D01*
X83000000Y-151130000D02*
X83000000Y-152400000D01*
X102393750Y-127000000D02*
X102393750Y-127635000D01*
X181000000Y-148590000D02*
X181000000Y-152400000D01*
X204787500Y-127000000D02*
X204787500Y-128270000D01*
X367000000Y-151130000D02*
X367000000Y-152400000D01*
X276000000Y-150495000D02*
X276000000Y-152400000D01*
X160337500Y-127000000D02*
X160337500Y-128270000D01*
X98425000Y-127000000D02*
X98425000Y-129540000D01*
X254000000Y-151130000D02*
X254000000Y-152400000D01*
X284956250Y-127000000D02*
X284956250Y-127635000D01*
X304800000Y-133350000D02*
X304800000Y-127000000D01*
X362000000Y-151130000D02*
X362000000Y-152400000D01*
X179000000Y-151130000D02*
X179000000Y-152400000D01*
X267493750Y-127000000D02*
X267493750Y-127635000D01*
X107950000Y-127000000D02*
X107950000Y-130810000D01*
X178593750Y-127000000D02*
X178593750Y-127635000D01*
X273843750Y-127000000D02*
X273843750Y-127635000D01*
X139000000Y-151130000D02*
X139000000Y-152400000D01*
X229393750Y-127000000D02*
X229393750Y-127635000D01*
X164000000Y-151130000D02*
X164000000Y-152400000D01*
X250000000Y-151130000D02*
X250000000Y-152400000D01*
X171000000Y-148590000D02*
X171000000Y-152400000D01*
X155000000Y-151130000D02*
X155000000Y-152400000D01*
X172000000Y-151130000D02*
X172000000Y-152400000D01*
X120650000Y-127000000D02*
X120650000Y-130810000D01*
X196056250Y-127000000D02*
X196056250Y-127635000D01*
X360362500Y-127000000D02*
X360362500Y-128270000D01*
X177006250Y-127000000D02*
X177006250Y-127635000D01*
X368300000Y-127000000D02*
X368300000Y-132080000D01*
X117475000Y-127000000D02*
X117475000Y-129540000D01*
X169000000Y-151130000D02*
X169000000Y-152400000D01*
X191293750Y-127000000D02*
X191293750Y-127635000D01*
X199000000Y-151130000D02*
X199000000Y-152400000D01*
X238125000Y-127000000D02*
X238125000Y-129540000D01*
X81000000Y-148590000D02*
X81000000Y-152400000D01*
X352000000Y-151130000D02*
X352000000Y-152400000D01*
X234000000Y-151130000D02*
X234000000Y-152400000D01*
X334168750Y-127000000D02*
X334168750Y-127635000D01*
X275431250Y-127000000D02*
X275431250Y-127635000D01*
X220000000Y-151130000D02*
X220000000Y-152400000D01*
X306387500Y-127000000D02*
X306387500Y-128270000D01*
X76993750Y-127000000D02*
X76993750Y-127635000D01*
X170656250Y-127000000D02*
X170656250Y-127635000D01*
X317500000Y-127000000D02*
X317500000Y-132080000D01*
X334000000Y-151130000D02*
X334000000Y-152400000D01*
X294481250Y-127000000D02*
X294481250Y-127635000D01*
X288000000Y-151130000D02*
X288000000Y-152400000D01*
X149000000Y-151130000D02*
X149000000Y-152400000D01*
X271000000Y-148590000D02*
X271000000Y-152400000D01*
X322262500Y-127000000D02*
X322262500Y-128270000D01*
X113506250Y-127000000D02*
X113506250Y-127635000D01*
X261143750Y-127000000D02*
X261143750Y-127635000D01*
X206000000Y-150495000D02*
X206000000Y-152400000D01*
X154000000Y-151130000D02*
X154000000Y-152400000D01*
X346868750Y-127000000D02*
X346868750Y-127635000D01*
X194000000Y-151130000D02*
X194000000Y-152400000D01*
X236537500Y-127000000D02*
X236537500Y-128270000D01*
X84000000Y-151130000D02*
X84000000Y-152400000D01*
X109000000Y-151130000D02*
X109000000Y-152400000D01*
X297656250Y-127000000D02*
X297656250Y-127635000D01*
X100012500Y-127000000D02*
X100012500Y-128270000D01*
X301625000Y-127000000D02*
X301625000Y-129540000D01*
X151000000Y-148590000D02*
X151000000Y-152400000D01*
X260350000Y-127000000D02*
X260350000Y-130810000D01*
X246856250Y-127000000D02*
X246856250Y-127635000D01*
X84137500Y-127000000D02*
X84137500Y-128270000D01*
X200818750Y-127000000D02*
X200818750Y-127635000D01*
X373856250Y-127000000D02*
X373856250Y-127635000D01*
X92075000Y-127000000D02*
X92075000Y-129540000D01*
X105000000Y-151130000D02*
X105000000Y-152400000D01*
X252412500Y-127000000D02*
X252412500Y-128270000D01*
X206375000Y-127000000D02*
X206375000Y-129540000D01*
X211137500Y-127000000D02*
X211137500Y-128270000D01*
X94000000Y-151130000D02*
X94000000Y-152400000D01*
X160000000Y-151130000D02*
X160000000Y-152400000D01*
X313531250Y-127000000D02*
X313531250Y-127635000D01*
X318293750Y-127000000D02*
X318293750Y-127635000D01*
X134937500Y-127000000D02*
X134937500Y-128270000D01*
X269875000Y-127000000D02*
X269875000Y-129540000D01*
X132556250Y-127000000D02*
X132556250Y-127635000D01*
X329000000Y-151130000D02*
X329000000Y-152400000D01*
X247000000Y-151130000D02*
X247000000Y-152400000D01*
X263525000Y-127000000D02*
X263525000Y-129540000D01*
X135000000Y-151130000D02*
X135000000Y-152400000D01*
X344487500Y-127000000D02*
X344487500Y-128270000D01*
X255587500Y-127000000D02*
X255587500Y-128270000D01*
X96043750Y-127000000D02*
X96043750Y-127635000D01*
X103000000Y-151130000D02*
X103000000Y-152400000D01*
X374000000Y-151130000D02*
X374000000Y-152400000D01*
X366712500Y-127000000D02*
X366712500Y-128270000D01*
X115887500Y-127000000D02*
X115887500Y-128270000D01*
X136525000Y-127000000D02*
X136525000Y-129540000D01*
X157162500Y-127000000D02*
X157162500Y-128270000D01*
X246000000Y-150495000D02*
X246000000Y-152400000D01*
X355000000Y-151130000D02*
X355000000Y-152400000D01*
X357000000Y-151130000D02*
X357000000Y-152400000D01*
X314325000Y-127000000D02*
X314325000Y-129540000D01*
X147637500Y-127000000D02*
X147637500Y-128270000D01*
X368000000Y-151130000D02*
X368000000Y-152400000D01*
X140000000Y-151130000D02*
X140000000Y-152400000D01*
X261937500Y-127000000D02*
X261937500Y-128270000D01*
X363000000Y-151130000D02*
X363000000Y-152400000D01*
X182000000Y-151130000D02*
X182000000Y-152400000D01*
X120000000Y-151130000D02*
X120000000Y-152400000D01*
X198437500Y-127000000D02*
X198437500Y-128270000D01*
X207962500Y-127000000D02*
X207962500Y-128270000D01*
X186000000Y-150495000D02*
X186000000Y-152400000D01*
X377825000Y-127000000D02*
X377825000Y-129540000D01*
X173831250Y-127000000D02*
X173831250Y-127635000D01*
X138112500Y-127000000D02*
X138112500Y-128270000D01*
X89000000Y-151130000D02*
X89000000Y-152400000D01*
X354000000Y-151130000D02*
X354000000Y-152400000D01*
X90487500Y-127000000D02*
X90487500Y-128270000D01*
X133000000Y-151130000D02*
X133000000Y-152400000D01*
X105568750Y-127000000D02*
X105568750Y-127635000D01*
X241000000Y-148590000D02*
X241000000Y-152400000D01*
X272256250Y-127000000D02*
X272256250Y-127635000D01*
X235743750Y-127000000D02*
X235743750Y-127635000D01*
D11*
G36*
X272860519Y-146933161D02*
G01*
X272860519Y-146590000D01*
X274154274Y-146590000D01*
X274154274Y-146933161D01*
X273674581Y-146933161D01*
X273674581Y-148133614D01*
X274083932Y-147878014D01*
X274276273Y-148189546D01*
X273634403Y-148580212D01*
X273232379Y-148580212D01*
X273232379Y-146933161D01*
X272860519Y-146933161D01*
G37*
G36*
X271139096Y-146933161D02*
G01*
X271139096Y-146590000D01*
X272432850Y-146590000D01*
X272432850Y-146933161D01*
X271953157Y-146933161D01*
X271953157Y-148133614D01*
X272362508Y-147878014D01*
X272554849Y-148189546D01*
X271912979Y-148580212D01*
X271510955Y-148580212D01*
X271510955Y-146933161D01*
X271139096Y-146933161D01*
G37*
G36*
X192860519Y-146933161D02*
G01*
X192860519Y-146590000D01*
X194154274Y-146590000D01*
X194154274Y-146933161D01*
X193674581Y-146933161D01*
X193674581Y-148133614D01*
X194083932Y-147878014D01*
X194276273Y-148189546D01*
X193634403Y-148580212D01*
X193232379Y-148580212D01*
X193232379Y-146933161D01*
X192860519Y-146933161D01*
G37*
G36*
X192445673Y-146822641D02*
G01*
X192214396Y-146893355D01*
X192033470Y-146972453D01*
X191894417Y-147058091D01*
X191802122Y-147137603D01*
X191727609Y-147227050D01*
X191669479Y-147327366D01*
X191627215Y-147440087D01*
X191718361Y-147370592D01*
X191811863Y-147320163D01*
X191913415Y-147288828D01*
X192033635Y-147277787D01*
X192135754Y-147286723D01*
X192229950Y-147312995D01*
X192317934Y-147356678D01*
X192396540Y-147415853D01*
X192464074Y-147489497D01*
X192521144Y-147579305D01*
X192562116Y-147677669D01*
X192587598Y-147788897D01*
X192596493Y-147915383D01*
X192585322Y-148056285D01*
X192553164Y-148180716D01*
X192500994Y-148291517D01*
X192429460Y-148391009D01*
X192343287Y-148473858D01*
X192241119Y-148541378D01*
X192128549Y-148590311D01*
X192005982Y-148620158D01*
X191871336Y-148630404D01*
X191711231Y-148618213D01*
X191577355Y-148583979D01*
X191465038Y-148529898D01*
X191365939Y-148454345D01*
X191284988Y-148361915D01*
X191220917Y-148250607D01*
X191176499Y-148128853D01*
X191148775Y-147991634D01*
X191139096Y-147836371D01*
X191144892Y-147711441D01*
X191607187Y-147711441D01*
X191612280Y-147914500D01*
X191629143Y-148059796D01*
X191653837Y-148160115D01*
X191686453Y-148224888D01*
X191732215Y-148269547D01*
X191793142Y-148297304D01*
X191874267Y-148307393D01*
X191951123Y-148296852D01*
X192014627Y-148266522D01*
X192068073Y-148215436D01*
X192105128Y-148149898D01*
X192130300Y-148057075D01*
X192139881Y-147928206D01*
X192129986Y-147807340D01*
X192104465Y-147724666D01*
X192067341Y-147669797D01*
X192015193Y-147628024D01*
X191957733Y-147603509D01*
X191892951Y-147595181D01*
X191813445Y-147602702D01*
X191742131Y-147624612D01*
X191675273Y-147660191D01*
X191607187Y-147711441D01*
X191144892Y-147711441D01*
X191148051Y-147643352D01*
X191173577Y-147472946D01*
X191214033Y-147322462D01*
X191268300Y-147189494D01*
X191340925Y-147064158D01*
X191430589Y-146950913D01*
X191538387Y-146848783D01*
X191666050Y-146757306D01*
X191850959Y-146659549D01*
X192077431Y-146574363D01*
X192352372Y-146503904D01*
X192445673Y-146822641D01*
G37*
G36*
X304088768Y-133321786D02*
G01*
X304222644Y-133356020D01*
X304334962Y-133410101D01*
X304434061Y-133485654D01*
X304515012Y-133578084D01*
X304579082Y-133689392D01*
X304623500Y-133811146D01*
X304651224Y-133948365D01*
X304660904Y-134103628D01*
X304651948Y-134296647D01*
X304626422Y-134467053D01*
X304585967Y-134617537D01*
X304531699Y-134750505D01*
X304459074Y-134875841D01*
X304369410Y-134989086D01*
X304261612Y-135091216D01*
X304133950Y-135182693D01*
X303949040Y-135280450D01*
X303722569Y-135365636D01*
X303447627Y-135436095D01*
X303354327Y-135117358D01*
X303585604Y-135046644D01*
X303766530Y-134967546D01*
X303905583Y-134881908D01*
X303997877Y-134802396D01*
X304072391Y-134712949D01*
X304130520Y-134612633D01*
X304172784Y-134499912D01*
X304081638Y-134569407D01*
X303988137Y-134619836D01*
X303886585Y-134651171D01*
X303766364Y-134662212D01*
X303664246Y-134653276D01*
X303570049Y-134627004D01*
X303482066Y-134583321D01*
X303403459Y-134524146D01*
X303335925Y-134450502D01*
X303278856Y-134360694D01*
X303237884Y-134262330D01*
X303212401Y-134151102D01*
X303203507Y-134024616D01*
X303204524Y-134011793D01*
X303660119Y-134011793D01*
X303670013Y-134132659D01*
X303695534Y-134215333D01*
X303732659Y-134270202D01*
X303784806Y-134311975D01*
X303842266Y-134336490D01*
X303907048Y-134344818D01*
X303986554Y-134337297D01*
X304057868Y-134315387D01*
X304124726Y-134279808D01*
X304192812Y-134228558D01*
X304187720Y-134025499D01*
X304170856Y-133880203D01*
X304146162Y-133779884D01*
X304113546Y-133715111D01*
X304067785Y-133670452D01*
X304006857Y-133642695D01*
X303925733Y-133632606D01*
X303848877Y-133643147D01*
X303785373Y-133673477D01*
X303731926Y-133724563D01*
X303694871Y-133790101D01*
X303669699Y-133882924D01*
X303660119Y-134011793D01*
X303204524Y-134011793D01*
X303214678Y-133883714D01*
X303246836Y-133759283D01*
X303299006Y-133648482D01*
X303370539Y-133548990D01*
X303456712Y-133466141D01*
X303558880Y-133398621D01*
X303671450Y-133349688D01*
X303794017Y-133319841D01*
X303928664Y-133309595D01*
X304088768Y-133321786D01*
G37*
G36*
X253036706Y-135395917D02*
G01*
X252605984Y-135262438D01*
X253348360Y-133701605D01*
X252473849Y-133701605D01*
X252473849Y-133359787D01*
X253807781Y-133359787D01*
X253807781Y-133667166D01*
X253036706Y-135395917D01*
G37*
G36*
X242860519Y-146933161D02*
G01*
X242860519Y-146590000D01*
X244154274Y-146590000D01*
X244154274Y-146933161D01*
X243674581Y-146933161D01*
X243674581Y-148133614D01*
X244083932Y-147878014D01*
X244276273Y-148189546D01*
X243634403Y-148580212D01*
X243232379Y-148580212D01*
X243232379Y-146933161D01*
X242860519Y-146933161D01*
G37*
G36*
X241331437Y-147827700D02*
G01*
X241331437Y-147348129D01*
X241131890Y-147348129D01*
X241131890Y-147007899D01*
X241331437Y-147007899D01*
X241331437Y-146590000D01*
X241766556Y-146590000D01*
X241769364Y-147007899D01*
X242593684Y-147007899D01*
X242593684Y-147309417D01*
X242040840Y-148630404D01*
X241654570Y-148488255D01*
X242125470Y-147348129D01*
X241768021Y-147348129D01*
X241714898Y-147827700D01*
X241331437Y-147827700D01*
G37*
G36*
X101460904Y-135006838D02*
G01*
X101460904Y-135350000D01*
X100167149Y-135350000D01*
X100167149Y-135006838D01*
X100646842Y-135006838D01*
X100646842Y-133806385D01*
X100237491Y-134061985D01*
X100045150Y-133750453D01*
X100687020Y-133359787D01*
X101089044Y-133359787D01*
X101089044Y-135006838D01*
X101460904Y-135006838D01*
G37*
G36*
X113650278Y-148630404D02*
G01*
X113500580Y-148620734D01*
X113375319Y-148593688D01*
X113270481Y-148551392D01*
X113174841Y-148491530D01*
X113099042Y-148422039D01*
X113040648Y-148342442D01*
X112997931Y-148253233D01*
X112972435Y-148159690D01*
X112963834Y-148060341D01*
X112974050Y-147941178D01*
X113004867Y-147824036D01*
X113056622Y-147709392D01*
X113139078Y-147580038D01*
X113242418Y-147450578D01*
X113386740Y-147295006D01*
X113551639Y-147134221D01*
X113768004Y-146936092D01*
X112917916Y-146936092D01*
X112966765Y-146590000D01*
X114289218Y-146590000D01*
X114289218Y-146911667D01*
X113877791Y-147319431D01*
X113721884Y-147485945D01*
X113612177Y-147614476D01*
X113522714Y-147737674D01*
X113469295Y-147834905D01*
X113436512Y-147931295D01*
X113426186Y-148020163D01*
X113434565Y-148097767D01*
X113458063Y-148160320D01*
X113495917Y-148211161D01*
X113546506Y-148249024D01*
X113610934Y-148272878D01*
X113693265Y-148281503D01*
X113801255Y-148269151D01*
X113890003Y-148234120D01*
X113968540Y-148175160D01*
X114050837Y-148080491D01*
X114329396Y-148290052D01*
X114248614Y-148386900D01*
X114157011Y-148469142D01*
X114053768Y-148537714D01*
X113940994Y-148587607D01*
X113807873Y-148619187D01*
X113650278Y-148630404D01*
G37*
G36*
X111963293Y-146544082D02*
G01*
X112394015Y-146677561D01*
X111651639Y-148238394D01*
X112526151Y-148238394D01*
X112526151Y-148580212D01*
X111192218Y-148580212D01*
X111192218Y-148272833D01*
X111963293Y-146544082D01*
G37*
G36*
X202957589Y-133359787D02*
G01*
X202907275Y-133684385D01*
X202179309Y-133684385D01*
X202179309Y-134113642D01*
X202253873Y-134084160D01*
X202330007Y-134064916D01*
X202473622Y-134050505D01*
X202573854Y-134059257D01*
X202666901Y-134085054D01*
X202754379Y-134128053D01*
X202832445Y-134186406D01*
X202899749Y-134259984D01*
X202956856Y-134350680D01*
X202997613Y-134449988D01*
X203023201Y-134564374D01*
X203032205Y-134696650D01*
X203020953Y-134827833D01*
X202988074Y-134947226D01*
X202933775Y-135057152D01*
X202860201Y-135155261D01*
X202769645Y-135238487D01*
X202660223Y-135307745D01*
X202540331Y-135357291D01*
X202404919Y-135388099D01*
X202251117Y-135398848D01*
X202108372Y-135389325D01*
X201981333Y-135361929D01*
X201867655Y-135317759D01*
X201761699Y-135256886D01*
X201669766Y-135184958D01*
X201590562Y-135101605D01*
X201851902Y-134863224D01*
X201930280Y-134945075D01*
X202017743Y-135003297D01*
X202114374Y-135039352D01*
X202215213Y-135051290D01*
X202316491Y-135039911D01*
X202399608Y-135007692D01*
X202468615Y-134955181D01*
X202520927Y-134885830D01*
X202552881Y-134803315D01*
X202564114Y-134703855D01*
X202554142Y-134583141D01*
X202528201Y-134498992D01*
X202490108Y-134441782D01*
X202436461Y-134398766D01*
X202372626Y-134372658D01*
X202295569Y-134363503D01*
X202179187Y-134377913D01*
X202117890Y-134397378D01*
X202051448Y-134429570D01*
X201745656Y-134429570D01*
X201745656Y-133359787D01*
X202957589Y-133359787D01*
G37*
G36*
X228013561Y-133318529D02*
G01*
X228125680Y-133344033D01*
X228229105Y-133385212D01*
X228317289Y-133437334D01*
X228145098Y-133713084D01*
X228085320Y-133676846D01*
X228022244Y-133652023D01*
X227956860Y-133637370D01*
X227893772Y-133632606D01*
X227816571Y-133641510D01*
X227746655Y-133667775D01*
X227682035Y-133712245D01*
X227621563Y-133777686D01*
X227562323Y-133880197D01*
X227518802Y-134016935D01*
X227494557Y-134196929D01*
X227590071Y-134115388D01*
X227694836Y-134059909D01*
X227806527Y-134026708D01*
X227912456Y-134016067D01*
X228013682Y-134024785D01*
X228106913Y-134050386D01*
X228193824Y-134092882D01*
X228271220Y-134150886D01*
X228338052Y-134224838D01*
X228394836Y-134316852D01*
X228435026Y-134417620D01*
X228460524Y-134535950D01*
X228469574Y-134675157D01*
X228459727Y-134806029D01*
X228430885Y-134926774D01*
X228383357Y-135039200D01*
X228317750Y-135141550D01*
X228236569Y-135228465D01*
X228138503Y-135301273D01*
X228028955Y-135354500D01*
X227904853Y-135387387D01*
X227763102Y-135398848D01*
X227632732Y-135389813D01*
X227520756Y-135364204D01*
X227424215Y-135323499D01*
X227335915Y-135266779D01*
X227259676Y-135198099D01*
X227194505Y-135116625D01*
X227118180Y-134977158D01*
X227063835Y-134813642D01*
X227032822Y-134638779D01*
X227023963Y-134481228D01*
X227494557Y-134481228D01*
X227505235Y-134681936D01*
X227527573Y-134826440D01*
X227557694Y-134927093D01*
X227594355Y-134993261D01*
X227640595Y-135037892D01*
X227697606Y-135064771D01*
X227768842Y-135074249D01*
X227847567Y-135061735D01*
X227908535Y-135026080D01*
X227956176Y-134965195D01*
X227988353Y-134890195D01*
X228008614Y-134802903D01*
X228015771Y-134700924D01*
X228007570Y-134564714D01*
X227986754Y-134472717D01*
X227957641Y-134413084D01*
X227913487Y-134366241D01*
X227860201Y-134338653D01*
X227794731Y-134329064D01*
X227714860Y-134338125D01*
X227639272Y-134365303D01*
X227566218Y-134411973D01*
X227494557Y-134481228D01*
X227023963Y-134481228D01*
X227022191Y-134449720D01*
X227034546Y-134227499D01*
X227069876Y-134030955D01*
X227126239Y-133856699D01*
X227207871Y-133694008D01*
X227306869Y-133561299D01*
X227423482Y-133454675D01*
X227523365Y-133391932D01*
X227632424Y-133346834D01*
X227752317Y-133319145D01*
X227885101Y-133309595D01*
X228013561Y-133318529D01*
G37*
G36*
X311963293Y-146544082D02*
G01*
X312394015Y-146677561D01*
X311651639Y-148238394D01*
X312526150Y-148238394D01*
X312526150Y-148580212D01*
X311192218Y-148580212D01*
X311192218Y-148272833D01*
X311963293Y-146544082D01*
G37*
G36*
X371139095Y-146933161D02*
G01*
X371139095Y-146590000D01*
X372432850Y-146590000D01*
X372432850Y-146933161D01*
X371953157Y-146933161D01*
X371953157Y-148133614D01*
X372362508Y-147878014D01*
X372554849Y-148189546D01*
X371912979Y-148580212D01*
X371510955Y-148580212D01*
X371510955Y-146933161D01*
X371139095Y-146933161D01*
G37*
G36*
X302028872Y-146551026D02*
G01*
X302162666Y-146578582D01*
X302274214Y-146621507D01*
X302376454Y-146682776D01*
X302456865Y-146753298D01*
X302518335Y-146833387D01*
X302563513Y-146923792D01*
X302590379Y-147018281D01*
X302599423Y-147118419D01*
X302588098Y-147228882D01*
X302555125Y-147327057D01*
X302500383Y-147415662D01*
X302428210Y-147492592D01*
X302339877Y-147559064D01*
X302233181Y-147615209D01*
X302331187Y-147685402D01*
X302403169Y-147751543D01*
X302453732Y-147814145D01*
X302490100Y-147884781D01*
X302513442Y-147972225D01*
X302521876Y-148080491D01*
X302511708Y-148190601D01*
X302482362Y-148287342D01*
X302434315Y-148373339D01*
X302369702Y-148448670D01*
X302291080Y-148511927D01*
X302196667Y-148563604D01*
X302094619Y-148600058D01*
X301981988Y-148622602D01*
X301857047Y-148630404D01*
X301728999Y-148622848D01*
X301615478Y-148601196D01*
X301514496Y-148566535D01*
X301420856Y-148516754D01*
X301344034Y-148456097D01*
X301281977Y-148384207D01*
X301235865Y-148301701D01*
X301207710Y-148208951D01*
X301197958Y-148103450D01*
X301200440Y-148077561D01*
X301630145Y-148077561D01*
X301636893Y-148146365D01*
X301656023Y-148203976D01*
X301686932Y-148252683D01*
X301729267Y-148289936D01*
X301784595Y-148313231D01*
X301857047Y-148321681D01*
X301928280Y-148314218D01*
X301984334Y-148293528D01*
X302028628Y-148260621D01*
X302061155Y-148216226D01*
X302082026Y-148157627D01*
X302089688Y-148080491D01*
X302081594Y-148013537D01*
X302058247Y-147956599D01*
X302019346Y-147907323D01*
X301936184Y-147846257D01*
X301799528Y-147783248D01*
X301713573Y-147858582D01*
X301666049Y-147924665D01*
X301639257Y-147997117D01*
X301630145Y-148077561D01*
X301200440Y-148077561D01*
X301206625Y-148013049D01*
X301231645Y-147933856D01*
X301272696Y-147863604D01*
X301327435Y-147801932D01*
X301403900Y-147738343D01*
X301506681Y-147672606D01*
X301378686Y-147597367D01*
X301282596Y-147518135D01*
X301213101Y-147434958D01*
X301161581Y-147340104D01*
X301130830Y-147239088D01*
X301120691Y-147132829D01*
X301574092Y-147132829D01*
X301584768Y-147225640D01*
X301613659Y-147293541D01*
X301662064Y-147349424D01*
X301736391Y-147400519D01*
X301826856Y-147443895D01*
X301954622Y-147493210D01*
X302033520Y-147429326D01*
X302093963Y-147350938D01*
X302132143Y-147258778D01*
X302145620Y-147145652D01*
X302137078Y-147066177D01*
X302112792Y-146999880D01*
X302073202Y-146943907D01*
X302019872Y-146902098D01*
X301949577Y-146875488D01*
X301857047Y-146865750D01*
X301761827Y-146875866D01*
X301692162Y-146903100D01*
X301641625Y-146945373D01*
X301604123Y-147001610D01*
X301581741Y-147063496D01*
X301574092Y-147132829D01*
X301120691Y-147132829D01*
X301120411Y-147129898D01*
X301129704Y-147029845D01*
X301157458Y-146934379D01*
X301204430Y-146841936D01*
X301267778Y-146759979D01*
X301350124Y-146687583D01*
X301454291Y-146624438D01*
X301567868Y-146579962D01*
X301704441Y-146551396D01*
X301868526Y-146541151D01*
X302028872Y-146551026D01*
G37*
G36*
X351940334Y-148630404D02*
G01*
X351797944Y-148621948D01*
X351676726Y-148598155D01*
X351573481Y-148560795D01*
X351477768Y-148507485D01*
X351401583Y-148445772D01*
X351342305Y-148375537D01*
X351297832Y-148295423D01*
X351271453Y-148211022D01*
X351262560Y-148120669D01*
X351275748Y-147998743D01*
X351313102Y-147898073D01*
X351373813Y-147814023D01*
X351453721Y-147744773D01*
X351551100Y-147687963D01*
X351668858Y-147643907D01*
X351536205Y-147615028D01*
X351424946Y-147568106D01*
X351331559Y-147503956D01*
X351276405Y-147443392D01*
X351235424Y-147366834D01*
X351209012Y-147270672D01*
X351199423Y-147150048D01*
X351209814Y-147040834D01*
X351240514Y-146939523D01*
X351291991Y-146844134D01*
X351360924Y-146760015D01*
X351448343Y-146686639D01*
X351556873Y-146623705D01*
X351674518Y-146579194D01*
X351810800Y-146551079D01*
X351969032Y-146541151D01*
X352115717Y-146550287D01*
X352248122Y-146576700D01*
X352368247Y-146619431D01*
X352480763Y-146679046D01*
X352580895Y-146752323D01*
X352669765Y-146839860D01*
X352414165Y-147078241D01*
X352321514Y-146991366D01*
X352222434Y-146933893D01*
X352114211Y-146900074D01*
X351999196Y-146888709D01*
X351903209Y-146897766D01*
X351823943Y-146923258D01*
X351758007Y-146964057D01*
X351707034Y-147020268D01*
X351675756Y-147091229D01*
X351664584Y-147181556D01*
X351675793Y-147282941D01*
X351705934Y-147356434D01*
X351752877Y-147409190D01*
X351815476Y-147446040D01*
X351896798Y-147469998D01*
X352002005Y-147478799D01*
X352182989Y-147478799D01*
X352131210Y-147791796D01*
X352002005Y-147791796D01*
X351916128Y-147799583D01*
X351845099Y-147821475D01*
X351785972Y-147856399D01*
X351740387Y-147905203D01*
X351712150Y-147968752D01*
X351701953Y-148051793D01*
X351711292Y-148122590D01*
X351737963Y-148180410D01*
X351782431Y-148228381D01*
X351839204Y-148263337D01*
X351907586Y-148285205D01*
X351990526Y-148292983D01*
X352105553Y-148281174D01*
X352206681Y-148246943D01*
X352299549Y-148193076D01*
X352388275Y-148120669D01*
X352620917Y-148361859D01*
X352525556Y-148443408D01*
X352423851Y-148509899D01*
X352315125Y-148562138D01*
X352200291Y-148599523D01*
X352075850Y-148622506D01*
X351940334Y-148630404D01*
G37*
G36*
X222860519Y-146933161D02*
G01*
X222860519Y-146590000D01*
X224154274Y-146590000D01*
X224154274Y-146933161D01*
X223674581Y-146933161D01*
X223674581Y-148133614D01*
X224083932Y-147878014D01*
X224276273Y-148189546D01*
X223634403Y-148580212D01*
X223232379Y-148580212D01*
X223232379Y-146933161D01*
X222860519Y-146933161D01*
G37*
G36*
X221967267Y-146550186D02*
G01*
X222079244Y-146575795D01*
X222175784Y-146616500D01*
X222264084Y-146673220D01*
X222340323Y-146741900D01*
X222405495Y-146823374D01*
X222481819Y-146962841D01*
X222536165Y-147126357D01*
X222567178Y-147301220D01*
X222577808Y-147490279D01*
X222565453Y-147712500D01*
X222530124Y-147909044D01*
X222473761Y-148083300D01*
X222392128Y-148245991D01*
X222293131Y-148378700D01*
X222176517Y-148485324D01*
X222076635Y-148548067D01*
X221967575Y-148593165D01*
X221847683Y-148620854D01*
X221714898Y-148630404D01*
X221586438Y-148621470D01*
X221474319Y-148595966D01*
X221370894Y-148554787D01*
X221282710Y-148502665D01*
X221454902Y-148226915D01*
X221514679Y-148263153D01*
X221577756Y-148287976D01*
X221643139Y-148302629D01*
X221706228Y-148307393D01*
X221783428Y-148298489D01*
X221853345Y-148272224D01*
X221917964Y-148227754D01*
X221978436Y-148162313D01*
X222037677Y-148059802D01*
X222081197Y-147923064D01*
X222105442Y-147743070D01*
X222009928Y-147824611D01*
X221905163Y-147880090D01*
X221793473Y-147913291D01*
X221687543Y-147923932D01*
X221586318Y-147915214D01*
X221493086Y-147889613D01*
X221406175Y-147847117D01*
X221328780Y-147789113D01*
X221261947Y-147715161D01*
X221205163Y-147623147D01*
X221164974Y-147522379D01*
X221139476Y-147404049D01*
X221130425Y-147264842D01*
X221132364Y-147239075D01*
X221584228Y-147239075D01*
X221592429Y-147375285D01*
X221613246Y-147467282D01*
X221642358Y-147526915D01*
X221686513Y-147573758D01*
X221739799Y-147601346D01*
X221805268Y-147610935D01*
X221885139Y-147601874D01*
X221960728Y-147574696D01*
X222033782Y-147528026D01*
X222105442Y-147458771D01*
X222094765Y-147258063D01*
X222072427Y-147113559D01*
X222042306Y-147012906D01*
X222005644Y-146946738D01*
X221959404Y-146902107D01*
X221902393Y-146875228D01*
X221831158Y-146865750D01*
X221752433Y-146878264D01*
X221691465Y-146913919D01*
X221643823Y-146974804D01*
X221611646Y-147049804D01*
X221591385Y-147137096D01*
X221584228Y-147239075D01*
X221132364Y-147239075D01*
X221140272Y-147133970D01*
X221169115Y-147013225D01*
X221216643Y-146900799D01*
X221282249Y-146798449D01*
X221363431Y-146711534D01*
X221461496Y-146638726D01*
X221571044Y-146585499D01*
X221695147Y-146552612D01*
X221836897Y-146541151D01*
X221967267Y-146550186D01*
G37*
G36*
X143650278Y-148630404D02*
G01*
X143500580Y-148620734D01*
X143375319Y-148593688D01*
X143270481Y-148551392D01*
X143174841Y-148491530D01*
X143099042Y-148422039D01*
X143040648Y-148342442D01*
X142997931Y-148253233D01*
X142972435Y-148159690D01*
X142963834Y-148060341D01*
X142974050Y-147941178D01*
X143004867Y-147824036D01*
X143056622Y-147709392D01*
X143139078Y-147580038D01*
X143242418Y-147450578D01*
X143386740Y-147295006D01*
X143551639Y-147134221D01*
X143768004Y-146936092D01*
X142917916Y-146936092D01*
X142966765Y-146590000D01*
X144289218Y-146590000D01*
X144289218Y-146911667D01*
X143877791Y-147319431D01*
X143721884Y-147485945D01*
X143612177Y-147614476D01*
X143522714Y-147737674D01*
X143469295Y-147834905D01*
X143436512Y-147931295D01*
X143426186Y-148020163D01*
X143434565Y-148097767D01*
X143458063Y-148160320D01*
X143495917Y-148211161D01*
X143546506Y-148249024D01*
X143610934Y-148272878D01*
X143693265Y-148281503D01*
X143801255Y-148269151D01*
X143890003Y-148234120D01*
X143968540Y-148175160D01*
X144050837Y-148080491D01*
X144329396Y-148290052D01*
X144248614Y-148386900D01*
X144157011Y-148469142D01*
X144053768Y-148537714D01*
X143940994Y-148587607D01*
X143807873Y-148619187D01*
X143650278Y-148630404D01*
G37*
G36*
X141331437Y-147827700D02*
G01*
X141331437Y-147348129D01*
X141131890Y-147348129D01*
X141131890Y-147007899D01*
X141331437Y-147007899D01*
X141331437Y-146590000D01*
X141766556Y-146590000D01*
X141769364Y-147007899D01*
X142593684Y-147007899D01*
X142593684Y-147309417D01*
X142040840Y-148630404D01*
X141654570Y-148488255D01*
X142125470Y-147348129D01*
X141768021Y-147348129D01*
X141714898Y-147827700D01*
X141331437Y-147827700D01*
G37*
G36*
X232860519Y-146933161D02*
G01*
X232860519Y-146590000D01*
X234154274Y-146590000D01*
X234154274Y-146933161D01*
X233674581Y-146933161D01*
X233674581Y-148133614D01*
X234083932Y-147878014D01*
X234276273Y-148189546D01*
X233634403Y-148580212D01*
X233232379Y-148580212D01*
X233232379Y-146933161D01*
X232860519Y-146933161D01*
G37*
G36*
X231242410Y-148580212D02*
G01*
X231292724Y-148255614D01*
X232020690Y-148255614D01*
X232020690Y-147826357D01*
X231946127Y-147855839D01*
X231869992Y-147875083D01*
X231726378Y-147889494D01*
X231626146Y-147880742D01*
X231533098Y-147854945D01*
X231445620Y-147811946D01*
X231367555Y-147753593D01*
X231300250Y-147680015D01*
X231243143Y-147589319D01*
X231202386Y-147490011D01*
X231176798Y-147375625D01*
X231167794Y-147243349D01*
X231179047Y-147112166D01*
X231211926Y-146992773D01*
X231266224Y-146882847D01*
X231339799Y-146784738D01*
X231430354Y-146701512D01*
X231539776Y-146632254D01*
X231659669Y-146582708D01*
X231795081Y-146551900D01*
X231948883Y-146541151D01*
X232091628Y-146550674D01*
X232218666Y-146578070D01*
X232332344Y-146622240D01*
X232438300Y-146683113D01*
X232530234Y-146755041D01*
X232609438Y-146838394D01*
X232348098Y-147076775D01*
X232269719Y-146994924D01*
X232182257Y-146936702D01*
X232085626Y-146900647D01*
X231984786Y-146888709D01*
X231883508Y-146900088D01*
X231800392Y-146932307D01*
X231731385Y-146984818D01*
X231679072Y-147054169D01*
X231647119Y-147136684D01*
X231635886Y-147236144D01*
X231645857Y-147356858D01*
X231671799Y-147441007D01*
X231709891Y-147498217D01*
X231763538Y-147541233D01*
X231827374Y-147567341D01*
X231904431Y-147576496D01*
X232020812Y-147562086D01*
X232082109Y-147542621D01*
X232148551Y-147510429D01*
X232454343Y-147510429D01*
X232454343Y-148580212D01*
X231242410Y-148580212D01*
G37*
G36*
X321967267Y-146550186D02*
G01*
X322079243Y-146575795D01*
X322175784Y-146616500D01*
X322264084Y-146673220D01*
X322340323Y-146741900D01*
X322405494Y-146823374D01*
X322481819Y-146962841D01*
X322536164Y-147126357D01*
X322567177Y-147301220D01*
X322577808Y-147490279D01*
X322565453Y-147712500D01*
X322530123Y-147909044D01*
X322473760Y-148083300D01*
X322392128Y-148245991D01*
X322293130Y-148378700D01*
X322176517Y-148485324D01*
X322076634Y-148548067D01*
X321967575Y-148593165D01*
X321847682Y-148620854D01*
X321714898Y-148630404D01*
X321586438Y-148621470D01*
X321474319Y-148595966D01*
X321370894Y-148554787D01*
X321282710Y-148502665D01*
X321454901Y-148226915D01*
X321514679Y-148263153D01*
X321577755Y-148287976D01*
X321643139Y-148302629D01*
X321706227Y-148307393D01*
X321783428Y-148298489D01*
X321853344Y-148272224D01*
X321917964Y-148227754D01*
X321978436Y-148162313D01*
X322037676Y-148059802D01*
X322081197Y-147923064D01*
X322105442Y-147743070D01*
X322009928Y-147824611D01*
X321905163Y-147880090D01*
X321793472Y-147913291D01*
X321687543Y-147923932D01*
X321586317Y-147915214D01*
X321493086Y-147889613D01*
X321406175Y-147847117D01*
X321328779Y-147789113D01*
X321261947Y-147715161D01*
X321205163Y-147623147D01*
X321164973Y-147522379D01*
X321139475Y-147404049D01*
X321130425Y-147264842D01*
X321132364Y-147239075D01*
X321584228Y-147239075D01*
X321592429Y-147375285D01*
X321613245Y-147467282D01*
X321642358Y-147526915D01*
X321686512Y-147573758D01*
X321739798Y-147601346D01*
X321805268Y-147610935D01*
X321885139Y-147601874D01*
X321960727Y-147574696D01*
X322033781Y-147528026D01*
X322105442Y-147458771D01*
X322094764Y-147258063D01*
X322072426Y-147113559D01*
X322042305Y-147012906D01*
X322005644Y-146946738D01*
X321959404Y-146902107D01*
X321902393Y-146875228D01*
X321831157Y-146865750D01*
X321752432Y-146878264D01*
X321691464Y-146913919D01*
X321643823Y-146974804D01*
X321611646Y-147049804D01*
X321591385Y-147137096D01*
X321584228Y-147239075D01*
X321132364Y-147239075D01*
X321140272Y-147133970D01*
X321169114Y-147013225D01*
X321216642Y-146900799D01*
X321282249Y-146798449D01*
X321363430Y-146711534D01*
X321461496Y-146638726D01*
X321571044Y-146585499D01*
X321695146Y-146552612D01*
X321836897Y-146541151D01*
X321967267Y-146550186D01*
G37*
G36*
X183650278Y-148630404D02*
G01*
X183500580Y-148620734D01*
X183375319Y-148593688D01*
X183270481Y-148551392D01*
X183174841Y-148491530D01*
X183099042Y-148422039D01*
X183040648Y-148342442D01*
X182997931Y-148253233D01*
X182972435Y-148159690D01*
X182963834Y-148060341D01*
X182974050Y-147941178D01*
X183004867Y-147824036D01*
X183056622Y-147709392D01*
X183139078Y-147580038D01*
X183242418Y-147450578D01*
X183386740Y-147295006D01*
X183551639Y-147134221D01*
X183768004Y-146936092D01*
X182917916Y-146936092D01*
X182966765Y-146590000D01*
X184289218Y-146590000D01*
X184289218Y-146911667D01*
X183877791Y-147319431D01*
X183721884Y-147485945D01*
X183612177Y-147614476D01*
X183522714Y-147737674D01*
X183469295Y-147834905D01*
X183436512Y-147931295D01*
X183426186Y-148020163D01*
X183434565Y-148097767D01*
X183458063Y-148160320D01*
X183495917Y-148211161D01*
X183546506Y-148249024D01*
X183610934Y-148272878D01*
X183693265Y-148281503D01*
X183801255Y-148269151D01*
X183890003Y-148234120D01*
X183968540Y-148175160D01*
X184050837Y-148080491D01*
X184329396Y-148290052D01*
X184248614Y-148386900D01*
X184157011Y-148469142D01*
X184053768Y-148537714D01*
X183940994Y-148587607D01*
X183807873Y-148619187D01*
X183650278Y-148630404D01*
G37*
G36*
X182001196Y-146553120D02*
G01*
X182122682Y-146587246D01*
X182227938Y-146642232D01*
X182319610Y-146718669D01*
X182399144Y-146818977D01*
X182473012Y-146959455D01*
X182529428Y-147130648D01*
X182566060Y-147338395D01*
X182579274Y-147589441D01*
X182566034Y-147839813D01*
X182529365Y-148046505D01*
X182472951Y-148216385D01*
X182399144Y-148355387D01*
X182319757Y-148454531D01*
X182228179Y-148530186D01*
X182122933Y-148584677D01*
X182001364Y-148618527D01*
X181859856Y-148630404D01*
X181719690Y-148618581D01*
X181598859Y-148584834D01*
X181493850Y-148530408D01*
X181402090Y-148454714D01*
X181322156Y-148355387D01*
X181247655Y-148216284D01*
X181244018Y-148205422D01*
X181650296Y-148205422D01*
X181689733Y-148252202D01*
X181735781Y-148280648D01*
X181789985Y-148295919D01*
X181859856Y-148301531D01*
X181930247Y-148291536D01*
X181989210Y-148262538D01*
X182039676Y-148213160D01*
X182082484Y-148138499D01*
X182117233Y-148025842D01*
X182142722Y-147850075D01*
X182152826Y-147589441D01*
X182148551Y-147364616D01*
X182135606Y-147190226D01*
X181650296Y-148205422D01*
X181244018Y-148205422D01*
X181190753Y-148046367D01*
X181153784Y-147839709D01*
X181140439Y-147589441D01*
X181569818Y-147589441D01*
X181577023Y-147868000D01*
X182035101Y-146921681D01*
X182000604Y-146896275D01*
X181959752Y-146880038D01*
X181859856Y-146868558D01*
X181794886Y-146876530D01*
X181740428Y-146899411D01*
X181694015Y-146937435D01*
X181658469Y-146987363D01*
X181626608Y-147060864D01*
X181599982Y-147165069D01*
X181578353Y-147337039D01*
X181569818Y-147589441D01*
X181140439Y-147589441D01*
X181153757Y-147338497D01*
X181190689Y-147130785D01*
X181247594Y-146959555D01*
X181322156Y-146818977D01*
X181402238Y-146718484D01*
X181494089Y-146642009D01*
X181599107Y-146587088D01*
X181719856Y-146553065D01*
X181859856Y-146541151D01*
X182001196Y-146553120D01*
G37*
G36*
X353739480Y-135006838D02*
G01*
X353739480Y-135350000D01*
X352445725Y-135350000D01*
X352445725Y-135006838D01*
X352925418Y-135006838D01*
X352925418Y-133806385D01*
X352516067Y-134061985D01*
X352323726Y-133750453D01*
X352965596Y-133359787D01*
X353367620Y-133359787D01*
X353367620Y-135006838D01*
X353739480Y-135006838D01*
G37*
G36*
X355460903Y-135006838D02*
G01*
X355460903Y-135350000D01*
X354167149Y-135350000D01*
X354167149Y-135006838D01*
X354646842Y-135006838D01*
X354646842Y-133806385D01*
X354237491Y-134061985D01*
X354045150Y-133750453D01*
X354687020Y-133359787D01*
X355089044Y-133359787D01*
X355089044Y-135006838D01*
X355460903Y-135006838D01*
G37*
G36*
X103650278Y-148630404D02*
G01*
X103500580Y-148620734D01*
X103375319Y-148593688D01*
X103270481Y-148551392D01*
X103174841Y-148491530D01*
X103099042Y-148422039D01*
X103040648Y-148342442D01*
X102997931Y-148253233D01*
X102972435Y-148159690D01*
X102963834Y-148060341D01*
X102974050Y-147941178D01*
X103004867Y-147824036D01*
X103056622Y-147709392D01*
X103139078Y-147580038D01*
X103242418Y-147450578D01*
X103386740Y-147295006D01*
X103551639Y-147134221D01*
X103768004Y-146936092D01*
X102917916Y-146936092D01*
X102966765Y-146590000D01*
X104289218Y-146590000D01*
X104289218Y-146911667D01*
X103877791Y-147319431D01*
X103721884Y-147485945D01*
X103612177Y-147614476D01*
X103522714Y-147737674D01*
X103469295Y-147834905D01*
X103436512Y-147931295D01*
X103426186Y-148020163D01*
X103434565Y-148097767D01*
X103458063Y-148160320D01*
X103495917Y-148211161D01*
X103546506Y-148249024D01*
X103610934Y-148272878D01*
X103693265Y-148281503D01*
X103801255Y-148269151D01*
X103890003Y-148234120D01*
X103968540Y-148175160D01*
X104050837Y-148080491D01*
X104329396Y-148290052D01*
X104248614Y-148386900D01*
X104157011Y-148469142D01*
X104053768Y-148537714D01*
X103940994Y-148587607D01*
X103807873Y-148619187D01*
X103650278Y-148630404D01*
G37*
G36*
X102028872Y-146551026D02*
G01*
X102162666Y-146578582D01*
X102274214Y-146621507D01*
X102376454Y-146682776D01*
X102456865Y-146753298D01*
X102518335Y-146833387D01*
X102563514Y-146923792D01*
X102590379Y-147018281D01*
X102599424Y-147118419D01*
X102588098Y-147228882D01*
X102555126Y-147327057D01*
X102500383Y-147415662D01*
X102428210Y-147492592D01*
X102339877Y-147559064D01*
X102233181Y-147615209D01*
X102331188Y-147685402D01*
X102403169Y-147751543D01*
X102453733Y-147814145D01*
X102490101Y-147884781D01*
X102513443Y-147972225D01*
X102521877Y-148080491D01*
X102511708Y-148190601D01*
X102482362Y-148287342D01*
X102434315Y-148373339D01*
X102369702Y-148448670D01*
X102291080Y-148511927D01*
X102196667Y-148563604D01*
X102094619Y-148600058D01*
X101981989Y-148622602D01*
X101857047Y-148630404D01*
X101728999Y-148622848D01*
X101615478Y-148601196D01*
X101514497Y-148566535D01*
X101420856Y-148516754D01*
X101344034Y-148456097D01*
X101281978Y-148384207D01*
X101235866Y-148301701D01*
X101207711Y-148208951D01*
X101197958Y-148103450D01*
X101200440Y-148077561D01*
X101630146Y-148077561D01*
X101636893Y-148146365D01*
X101656024Y-148203976D01*
X101686932Y-148252683D01*
X101729267Y-148289936D01*
X101784595Y-148313231D01*
X101857047Y-148321681D01*
X101928281Y-148314218D01*
X101984334Y-148293528D01*
X102028628Y-148260621D01*
X102061155Y-148216226D01*
X102082026Y-148157627D01*
X102089689Y-148080491D01*
X102081594Y-148013537D01*
X102058248Y-147956599D01*
X102019347Y-147907323D01*
X101936184Y-147846257D01*
X101799528Y-147783248D01*
X101713573Y-147858582D01*
X101666050Y-147924665D01*
X101639258Y-147997117D01*
X101630146Y-148077561D01*
X101200440Y-148077561D01*
X101206626Y-148013049D01*
X101231646Y-147933856D01*
X101272696Y-147863604D01*
X101327436Y-147801932D01*
X101403901Y-147738343D01*
X101506681Y-147672606D01*
X101378686Y-147597367D01*
X101282596Y-147518135D01*
X101213101Y-147434958D01*
X101161581Y-147340104D01*
X101130830Y-147239088D01*
X101120691Y-147132829D01*
X101574092Y-147132829D01*
X101584769Y-147225640D01*
X101613659Y-147293541D01*
X101662065Y-147349424D01*
X101736392Y-147400519D01*
X101826857Y-147443895D01*
X101954622Y-147493210D01*
X102033521Y-147429326D01*
X102093963Y-147350938D01*
X102132143Y-147258778D01*
X102145620Y-147145652D01*
X102137079Y-147066177D01*
X102112792Y-146999880D01*
X102073202Y-146943907D01*
X102019872Y-146902098D01*
X101949578Y-146875488D01*
X101857047Y-146865750D01*
X101761828Y-146875866D01*
X101692163Y-146903100D01*
X101641625Y-146945373D01*
X101604124Y-147001610D01*
X101581741Y-147063496D01*
X101574092Y-147132829D01*
X101120691Y-147132829D01*
X101120411Y-147129898D01*
X101129704Y-147029845D01*
X101157458Y-146934379D01*
X101204431Y-146841936D01*
X101267779Y-146759979D01*
X101350124Y-146687583D01*
X101454291Y-146624438D01*
X101567869Y-146579962D01*
X101704442Y-146551396D01*
X101868527Y-146541151D01*
X102028872Y-146551026D01*
G37*
G36*
X93650278Y-148630404D02*
G01*
X93500580Y-148620734D01*
X93375319Y-148593688D01*
X93270481Y-148551392D01*
X93174841Y-148491530D01*
X93099042Y-148422039D01*
X93040648Y-148342442D01*
X92997931Y-148253233D01*
X92972435Y-148159690D01*
X92963834Y-148060341D01*
X92974050Y-147941178D01*
X93004867Y-147824036D01*
X93056622Y-147709392D01*
X93139078Y-147580038D01*
X93242418Y-147450578D01*
X93386740Y-147295006D01*
X93551639Y-147134221D01*
X93768004Y-146936092D01*
X92917916Y-146936092D01*
X92966765Y-146590000D01*
X94289218Y-146590000D01*
X94289218Y-146911667D01*
X93877791Y-147319431D01*
X93721884Y-147485945D01*
X93612177Y-147614476D01*
X93522714Y-147737674D01*
X93469295Y-147834905D01*
X93436512Y-147931295D01*
X93426186Y-148020163D01*
X93434565Y-148097767D01*
X93458063Y-148160320D01*
X93495917Y-148211161D01*
X93546506Y-148249024D01*
X93610934Y-148272878D01*
X93693265Y-148281503D01*
X93801255Y-148269151D01*
X93890003Y-148234120D01*
X93968540Y-148175160D01*
X94050837Y-148080491D01*
X94329396Y-148290052D01*
X94248614Y-148386900D01*
X94157011Y-148469142D01*
X94053768Y-148537714D01*
X93940994Y-148587607D01*
X93807873Y-148619187D01*
X93650278Y-148630404D01*
G37*
G36*
X92445673Y-146822641D02*
G01*
X92214396Y-146893355D01*
X92033470Y-146972453D01*
X91894417Y-147058091D01*
X91802122Y-147137603D01*
X91727609Y-147227050D01*
X91669479Y-147327366D01*
X91627215Y-147440087D01*
X91718361Y-147370592D01*
X91811863Y-147320163D01*
X91913415Y-147288828D01*
X92033635Y-147277787D01*
X92135754Y-147286723D01*
X92229950Y-147312995D01*
X92317934Y-147356678D01*
X92396540Y-147415853D01*
X92464074Y-147489497D01*
X92521144Y-147579305D01*
X92562116Y-147677669D01*
X92587598Y-147788897D01*
X92596493Y-147915383D01*
X92585322Y-148056285D01*
X92553164Y-148180716D01*
X92500994Y-148291517D01*
X92429460Y-148391009D01*
X92343287Y-148473858D01*
X92241119Y-148541378D01*
X92128549Y-148590311D01*
X92005982Y-148620158D01*
X91871336Y-148630404D01*
X91711231Y-148618213D01*
X91577355Y-148583979D01*
X91465038Y-148529898D01*
X91365939Y-148454345D01*
X91284988Y-148361915D01*
X91220917Y-148250607D01*
X91176499Y-148128853D01*
X91148775Y-147991634D01*
X91139096Y-147836371D01*
X91144892Y-147711441D01*
X91607187Y-147711441D01*
X91612280Y-147914500D01*
X91629143Y-148059796D01*
X91653837Y-148160115D01*
X91686453Y-148224888D01*
X91732215Y-148269547D01*
X91793142Y-148297304D01*
X91874267Y-148307393D01*
X91951123Y-148296852D01*
X92014627Y-148266522D01*
X92068073Y-148215436D01*
X92105128Y-148149898D01*
X92130300Y-148057075D01*
X92139881Y-147928206D01*
X92129986Y-147807340D01*
X92104465Y-147724666D01*
X92067341Y-147669797D01*
X92015193Y-147628024D01*
X91957733Y-147603509D01*
X91892951Y-147595181D01*
X91813445Y-147602702D01*
X91742131Y-147624612D01*
X91675273Y-147660191D01*
X91607187Y-147711441D01*
X91144892Y-147711441D01*
X91148051Y-147643352D01*
X91173577Y-147472946D01*
X91214033Y-147322462D01*
X91268300Y-147189494D01*
X91340925Y-147064158D01*
X91430589Y-146950913D01*
X91538387Y-146848783D01*
X91666050Y-146757306D01*
X91850959Y-146659549D01*
X92077431Y-146574363D01*
X92352372Y-146503904D01*
X92445673Y-146822641D01*
G37*
G36*
X212860519Y-146933161D02*
G01*
X212860519Y-146590000D01*
X214154274Y-146590000D01*
X214154274Y-146933161D01*
X213674581Y-146933161D01*
X213674581Y-148133614D01*
X214083932Y-147878014D01*
X214276273Y-148189546D01*
X213634403Y-148580212D01*
X213232379Y-148580212D01*
X213232379Y-146933161D01*
X212860519Y-146933161D01*
G37*
G36*
X211963293Y-146544082D02*
G01*
X212394015Y-146677561D01*
X211651639Y-148238394D01*
X212526151Y-148238394D01*
X212526151Y-148580212D01*
X211192218Y-148580212D01*
X211192218Y-148272833D01*
X211963293Y-146544082D01*
G37*
G36*
X278671000Y-133317151D02*
G01*
X278784521Y-133338803D01*
X278885503Y-133373464D01*
X278979143Y-133423245D01*
X279055965Y-133483902D01*
X279118022Y-133555792D01*
X279164134Y-133638298D01*
X279192289Y-133731048D01*
X279202041Y-133836549D01*
X279193374Y-133926950D01*
X279168354Y-134006143D01*
X279127303Y-134076395D01*
X279072564Y-134138067D01*
X278996099Y-134201656D01*
X278893318Y-134267393D01*
X279021313Y-134342632D01*
X279117403Y-134421864D01*
X279186898Y-134505041D01*
X279238418Y-134599895D01*
X279269169Y-134700911D01*
X279279588Y-134810101D01*
X279270295Y-134910154D01*
X279242541Y-135005620D01*
X279195569Y-135098063D01*
X279132221Y-135180020D01*
X279049875Y-135252416D01*
X278945708Y-135315561D01*
X278832131Y-135360037D01*
X278695558Y-135388603D01*
X278531473Y-135398848D01*
X278371127Y-135388973D01*
X278237333Y-135361417D01*
X278125785Y-135318492D01*
X278023545Y-135257223D01*
X277943134Y-135186701D01*
X277881664Y-135106612D01*
X277836486Y-135016207D01*
X277809620Y-134921718D01*
X277800576Y-134821580D01*
X277803368Y-134794347D01*
X278254379Y-134794347D01*
X278262921Y-134873822D01*
X278287207Y-134940119D01*
X278326797Y-134996092D01*
X278380127Y-135037901D01*
X278450422Y-135064511D01*
X278542952Y-135074249D01*
X278638172Y-135064133D01*
X278707837Y-135036899D01*
X278758374Y-134994626D01*
X278795876Y-134938389D01*
X278818258Y-134876503D01*
X278825907Y-134807170D01*
X278815231Y-134714359D01*
X278786340Y-134646458D01*
X278737935Y-134590575D01*
X278663608Y-134539480D01*
X278573143Y-134496104D01*
X278445377Y-134446789D01*
X278366479Y-134510673D01*
X278306036Y-134589061D01*
X278267856Y-134681221D01*
X278254379Y-134794347D01*
X277803368Y-134794347D01*
X277811901Y-134711117D01*
X277844874Y-134612942D01*
X277899616Y-134524337D01*
X277971789Y-134447407D01*
X278060122Y-134380935D01*
X278166818Y-134324790D01*
X278068812Y-134254597D01*
X277996830Y-134188456D01*
X277946267Y-134125854D01*
X277909899Y-134055218D01*
X277886557Y-133967774D01*
X277878123Y-133859508D01*
X278310311Y-133859508D01*
X278318405Y-133926462D01*
X278341752Y-133983400D01*
X278380653Y-134032676D01*
X278463815Y-134093742D01*
X278600471Y-134156751D01*
X278686426Y-134081417D01*
X278733950Y-134015334D01*
X278760742Y-133942882D01*
X278769854Y-133862438D01*
X278763106Y-133793634D01*
X278743976Y-133736023D01*
X278713067Y-133687316D01*
X278670732Y-133650063D01*
X278615404Y-133626768D01*
X278542952Y-133618318D01*
X278471719Y-133625781D01*
X278415665Y-133646471D01*
X278371371Y-133679378D01*
X278338844Y-133723773D01*
X278317973Y-133782372D01*
X278310311Y-133859508D01*
X277878123Y-133859508D01*
X277888291Y-133749398D01*
X277917637Y-133652657D01*
X277965684Y-133566660D01*
X278030297Y-133491329D01*
X278108919Y-133428072D01*
X278203332Y-133376395D01*
X278305380Y-133339941D01*
X278418011Y-133317397D01*
X278542952Y-133309595D01*
X278671000Y-133317151D01*
G37*
G36*
X202860519Y-146933161D02*
G01*
X202860519Y-146590000D01*
X204154274Y-146590000D01*
X204154274Y-146933161D01*
X203674581Y-146933161D01*
X203674581Y-148133614D01*
X204083932Y-147878014D01*
X204276273Y-148189546D01*
X203634403Y-148580212D01*
X203232379Y-148580212D01*
X203232379Y-146933161D01*
X202860519Y-146933161D01*
G37*
G36*
X202028872Y-146551026D02*
G01*
X202162666Y-146578582D01*
X202274214Y-146621507D01*
X202376454Y-146682776D01*
X202456865Y-146753298D01*
X202518335Y-146833387D01*
X202563514Y-146923792D01*
X202590379Y-147018281D01*
X202599424Y-147118419D01*
X202588098Y-147228882D01*
X202555126Y-147327057D01*
X202500383Y-147415662D01*
X202428210Y-147492592D01*
X202339877Y-147559064D01*
X202233181Y-147615209D01*
X202331188Y-147685402D01*
X202403169Y-147751543D01*
X202453733Y-147814145D01*
X202490101Y-147884781D01*
X202513443Y-147972225D01*
X202521877Y-148080491D01*
X202511708Y-148190601D01*
X202482362Y-148287342D01*
X202434315Y-148373339D01*
X202369702Y-148448670D01*
X202291080Y-148511927D01*
X202196667Y-148563604D01*
X202094619Y-148600058D01*
X201981989Y-148622602D01*
X201857047Y-148630404D01*
X201728999Y-148622848D01*
X201615478Y-148601196D01*
X201514497Y-148566535D01*
X201420856Y-148516754D01*
X201344034Y-148456097D01*
X201281978Y-148384207D01*
X201235866Y-148301701D01*
X201207711Y-148208951D01*
X201197958Y-148103450D01*
X201200440Y-148077561D01*
X201630146Y-148077561D01*
X201636893Y-148146365D01*
X201656024Y-148203976D01*
X201686932Y-148252683D01*
X201729267Y-148289936D01*
X201784595Y-148313231D01*
X201857047Y-148321681D01*
X201928281Y-148314218D01*
X201984334Y-148293528D01*
X202028628Y-148260621D01*
X202061155Y-148216226D01*
X202082026Y-148157627D01*
X202089689Y-148080491D01*
X202081594Y-148013537D01*
X202058248Y-147956599D01*
X202019347Y-147907323D01*
X201936184Y-147846257D01*
X201799528Y-147783248D01*
X201713573Y-147858582D01*
X201666050Y-147924665D01*
X201639258Y-147997117D01*
X201630146Y-148077561D01*
X201200440Y-148077561D01*
X201206626Y-148013049D01*
X201231646Y-147933856D01*
X201272696Y-147863604D01*
X201327436Y-147801932D01*
X201403901Y-147738343D01*
X201506681Y-147672606D01*
X201378686Y-147597367D01*
X201282596Y-147518135D01*
X201213101Y-147434958D01*
X201161581Y-147340104D01*
X201130830Y-147239088D01*
X201120691Y-147132829D01*
X201574092Y-147132829D01*
X201584769Y-147225640D01*
X201613659Y-147293541D01*
X201662065Y-147349424D01*
X201736392Y-147400519D01*
X201826857Y-147443895D01*
X201954622Y-147493210D01*
X202033521Y-147429326D01*
X202093963Y-147350938D01*
X202132143Y-147258778D01*
X202145620Y-147145652D01*
X202137079Y-147066177D01*
X202112792Y-146999880D01*
X202073202Y-146943907D01*
X202019872Y-146902098D01*
X201949578Y-146875488D01*
X201857047Y-146865750D01*
X201761828Y-146875866D01*
X201692163Y-146903100D01*
X201641625Y-146945373D01*
X201604124Y-147001610D01*
X201581741Y-147063496D01*
X201574092Y-147132829D01*
X201120691Y-147132829D01*
X201120411Y-147129898D01*
X201129704Y-147029845D01*
X201157458Y-146934379D01*
X201204431Y-146841936D01*
X201267779Y-146759979D01*
X201350124Y-146687583D01*
X201454291Y-146624438D01*
X201567869Y-146579962D01*
X201704442Y-146551396D01*
X201868527Y-146541151D01*
X202028872Y-146551026D01*
G37*
G36*
X341331436Y-147827700D02*
G01*
X341331436Y-147348129D01*
X341131890Y-147348129D01*
X341131890Y-147007899D01*
X341331436Y-147007899D01*
X341331436Y-146590000D01*
X341766555Y-146590000D01*
X341769364Y-147007899D01*
X342593683Y-147007899D01*
X342593683Y-147309417D01*
X342040840Y-148630404D01*
X341654570Y-148488255D01*
X342125470Y-147348129D01*
X341768021Y-147348129D01*
X341714898Y-147827700D01*
X341331436Y-147827700D01*
G37*
G36*
X133650278Y-148630404D02*
G01*
X133500580Y-148620734D01*
X133375319Y-148593688D01*
X133270481Y-148551392D01*
X133174841Y-148491530D01*
X133099042Y-148422039D01*
X133040648Y-148342442D01*
X132997931Y-148253233D01*
X132972435Y-148159690D01*
X132963834Y-148060341D01*
X132974050Y-147941178D01*
X133004867Y-147824036D01*
X133056622Y-147709392D01*
X133139078Y-147580038D01*
X133242418Y-147450578D01*
X133386740Y-147295006D01*
X133551639Y-147134221D01*
X133768004Y-146936092D01*
X132917916Y-146936092D01*
X132966765Y-146590000D01*
X134289218Y-146590000D01*
X134289218Y-146911667D01*
X133877791Y-147319431D01*
X133721884Y-147485945D01*
X133612177Y-147614476D01*
X133522714Y-147737674D01*
X133469295Y-147834905D01*
X133436512Y-147931295D01*
X133426186Y-148020163D01*
X133434565Y-148097767D01*
X133458063Y-148160320D01*
X133495917Y-148211161D01*
X133546506Y-148249024D01*
X133610934Y-148272878D01*
X133693265Y-148281503D01*
X133801255Y-148269151D01*
X133890003Y-148234120D01*
X133968540Y-148175160D01*
X134050837Y-148080491D01*
X134329396Y-148290052D01*
X134248614Y-148386900D01*
X134157011Y-148469142D01*
X134053768Y-148537714D01*
X133940994Y-148587607D01*
X133807873Y-148619187D01*
X133650278Y-148630404D01*
G37*
G36*
X131242410Y-148580212D02*
G01*
X131292724Y-148255614D01*
X132020690Y-148255614D01*
X132020690Y-147826357D01*
X131946127Y-147855839D01*
X131869992Y-147875083D01*
X131726378Y-147889494D01*
X131626146Y-147880742D01*
X131533098Y-147854945D01*
X131445620Y-147811946D01*
X131367555Y-147753593D01*
X131300250Y-147680015D01*
X131243143Y-147589319D01*
X131202386Y-147490011D01*
X131176798Y-147375625D01*
X131167794Y-147243349D01*
X131179047Y-147112166D01*
X131211926Y-146992773D01*
X131266224Y-146882847D01*
X131339799Y-146784738D01*
X131430354Y-146701512D01*
X131539776Y-146632254D01*
X131659669Y-146582708D01*
X131795081Y-146551900D01*
X131948883Y-146541151D01*
X132091628Y-146550674D01*
X132218666Y-146578070D01*
X132332344Y-146622240D01*
X132438300Y-146683113D01*
X132530234Y-146755041D01*
X132609438Y-146838394D01*
X132348098Y-147076775D01*
X132269719Y-146994924D01*
X132182257Y-146936702D01*
X132085626Y-146900647D01*
X131984786Y-146888709D01*
X131883508Y-146900088D01*
X131800392Y-146932307D01*
X131731385Y-146984818D01*
X131679072Y-147054169D01*
X131647119Y-147136684D01*
X131635886Y-147236144D01*
X131645857Y-147356858D01*
X131671799Y-147441007D01*
X131709891Y-147498217D01*
X131763538Y-147541233D01*
X131827374Y-147567341D01*
X131904431Y-147576496D01*
X132020812Y-147562086D01*
X132082109Y-147542621D01*
X132148551Y-147510429D01*
X132454343Y-147510429D01*
X132454343Y-148580212D01*
X131242410Y-148580212D01*
G37*
G36*
X153650278Y-148630404D02*
G01*
X153500580Y-148620734D01*
X153375319Y-148593688D01*
X153270481Y-148551392D01*
X153174841Y-148491530D01*
X153099042Y-148422039D01*
X153040648Y-148342442D01*
X152997931Y-148253233D01*
X152972435Y-148159690D01*
X152963834Y-148060341D01*
X152974050Y-147941178D01*
X153004867Y-147824036D01*
X153056622Y-147709392D01*
X153139078Y-147580038D01*
X153242418Y-147450578D01*
X153386740Y-147295006D01*
X153551639Y-147134221D01*
X153768004Y-146936092D01*
X152917916Y-146936092D01*
X152966765Y-146590000D01*
X154289218Y-146590000D01*
X154289218Y-146911667D01*
X153877791Y-147319431D01*
X153721884Y-147485945D01*
X153612177Y-147614476D01*
X153522714Y-147737674D01*
X153469295Y-147834905D01*
X153436512Y-147931295D01*
X153426186Y-148020163D01*
X153434565Y-148097767D01*
X153458063Y-148160320D01*
X153495917Y-148211161D01*
X153546506Y-148249024D01*
X153610934Y-148272878D01*
X153693265Y-148281503D01*
X153801255Y-148269151D01*
X153890003Y-148234120D01*
X153968540Y-148175160D01*
X154050837Y-148080491D01*
X154329396Y-148290052D01*
X154248614Y-148386900D01*
X154157011Y-148469142D01*
X154053768Y-148537714D01*
X153940994Y-148587607D01*
X153807873Y-148619187D01*
X153650278Y-148630404D01*
G37*
G36*
X151940334Y-148630404D02*
G01*
X151797944Y-148621948D01*
X151676726Y-148598155D01*
X151573482Y-148560795D01*
X151477768Y-148507485D01*
X151401583Y-148445772D01*
X151342306Y-148375537D01*
X151297833Y-148295423D01*
X151271453Y-148211022D01*
X151262560Y-148120669D01*
X151275748Y-147998743D01*
X151313102Y-147898073D01*
X151373813Y-147814023D01*
X151453721Y-147744773D01*
X151551100Y-147687963D01*
X151668858Y-147643907D01*
X151536206Y-147615028D01*
X151424946Y-147568106D01*
X151331559Y-147503956D01*
X151276405Y-147443392D01*
X151235425Y-147366834D01*
X151209013Y-147270672D01*
X151199424Y-147150048D01*
X151209815Y-147040834D01*
X151240515Y-146939523D01*
X151291992Y-146844134D01*
X151360924Y-146760015D01*
X151448344Y-146686639D01*
X151556873Y-146623705D01*
X151674518Y-146579194D01*
X151810800Y-146551079D01*
X151969033Y-146541151D01*
X152115718Y-146550287D01*
X152248123Y-146576700D01*
X152368248Y-146619431D01*
X152480763Y-146679046D01*
X152580895Y-146752323D01*
X152669766Y-146839860D01*
X152414165Y-147078241D01*
X152321515Y-146991366D01*
X152222435Y-146933893D01*
X152114212Y-146900074D01*
X151999197Y-146888709D01*
X151903209Y-146897766D01*
X151823943Y-146923258D01*
X151758007Y-146964057D01*
X151707034Y-147020268D01*
X151675756Y-147091229D01*
X151664584Y-147181556D01*
X151675793Y-147282941D01*
X151705934Y-147356434D01*
X151752878Y-147409190D01*
X151815476Y-147446040D01*
X151896798Y-147469998D01*
X152002006Y-147478799D01*
X152182990Y-147478799D01*
X152131210Y-147791796D01*
X152002006Y-147791796D01*
X151916129Y-147799583D01*
X151845099Y-147821475D01*
X151785973Y-147856399D01*
X151740388Y-147905203D01*
X151712150Y-147968752D01*
X151701953Y-148051793D01*
X151711292Y-148122590D01*
X151737964Y-148180410D01*
X151782431Y-148228381D01*
X151839204Y-148263337D01*
X151907587Y-148285205D01*
X151990526Y-148292983D01*
X152105553Y-148281174D01*
X152206681Y-148246943D01*
X152299549Y-148193076D01*
X152388276Y-148120669D01*
X152620917Y-148361859D01*
X152525556Y-148443408D01*
X152423852Y-148509899D01*
X152315125Y-148562138D01*
X152200291Y-148599523D01*
X152075850Y-148622506D01*
X151940334Y-148630404D01*
G37*
G36*
X328339480Y-135006838D02*
G01*
X328339480Y-135350000D01*
X327045725Y-135350000D01*
X327045725Y-135006838D01*
X327525418Y-135006838D01*
X327525418Y-133806385D01*
X327116067Y-134061985D01*
X326923726Y-133750453D01*
X327565596Y-133359787D01*
X327967620Y-133359787D01*
X327967620Y-135006838D01*
X328339480Y-135006838D01*
G37*
G36*
X329480309Y-133321418D02*
G01*
X329601140Y-133355165D01*
X329706149Y-133409591D01*
X329797909Y-133485285D01*
X329877843Y-133584612D01*
X329952344Y-133723715D01*
X330009246Y-133893632D01*
X330046215Y-134100290D01*
X330059560Y-134350558D01*
X330046242Y-134601502D01*
X330009310Y-134809214D01*
X329952405Y-134980444D01*
X329877843Y-135121022D01*
X329797761Y-135221515D01*
X329705910Y-135297990D01*
X329600892Y-135352911D01*
X329480143Y-135386934D01*
X329340143Y-135398848D01*
X329198803Y-135386879D01*
X329077317Y-135352753D01*
X328972061Y-135297767D01*
X328880389Y-135221330D01*
X328800855Y-135121022D01*
X328746850Y-135018318D01*
X329164898Y-135018318D01*
X329199395Y-135043724D01*
X329240247Y-135059961D01*
X329340143Y-135071441D01*
X329405113Y-135063469D01*
X329459571Y-135040588D01*
X329505984Y-135002564D01*
X329541530Y-134952636D01*
X329573391Y-134879135D01*
X329600017Y-134774930D01*
X329621646Y-134602960D01*
X329630181Y-134350558D01*
X329622976Y-134071999D01*
X329164898Y-135018318D01*
X328746850Y-135018318D01*
X328726987Y-134980544D01*
X328670571Y-134809351D01*
X328633939Y-134601604D01*
X328620725Y-134350558D01*
X329047173Y-134350558D01*
X329051448Y-134575383D01*
X329064393Y-134749773D01*
X329549703Y-133734577D01*
X329510266Y-133687797D01*
X329464218Y-133659351D01*
X329410014Y-133644080D01*
X329340143Y-133638468D01*
X329269752Y-133648463D01*
X329210789Y-133677461D01*
X329160323Y-133726839D01*
X329117515Y-133801500D01*
X329082766Y-133914157D01*
X329057277Y-134089924D01*
X329047173Y-134350558D01*
X328620725Y-134350558D01*
X328633965Y-134100186D01*
X328670634Y-133893494D01*
X328727048Y-133723614D01*
X328800855Y-133584612D01*
X328880242Y-133485468D01*
X328971820Y-133409813D01*
X329077066Y-133355322D01*
X329198635Y-133321472D01*
X329340143Y-133309595D01*
X329480309Y-133321418D01*
G37*
G36*
X361928854Y-148630404D02*
G01*
X361779156Y-148620734D01*
X361653895Y-148593688D01*
X361549057Y-148551392D01*
X361453417Y-148491530D01*
X361377618Y-148422039D01*
X361319224Y-148342442D01*
X361276507Y-148253233D01*
X361251011Y-148159690D01*
X361242410Y-148060341D01*
X361252626Y-147941178D01*
X361283443Y-147824036D01*
X361335198Y-147709392D01*
X361417654Y-147580038D01*
X361520994Y-147450578D01*
X361665316Y-147295006D01*
X361830215Y-147134221D01*
X362046580Y-146936092D01*
X361196492Y-146936092D01*
X361245341Y-146590000D01*
X362567794Y-146590000D01*
X362567794Y-146911667D01*
X362156367Y-147319431D01*
X362000460Y-147485945D01*
X361890753Y-147614476D01*
X361801290Y-147737674D01*
X361747871Y-147834905D01*
X361715088Y-147931295D01*
X361704762Y-148020163D01*
X361713141Y-148097767D01*
X361736639Y-148160320D01*
X361774493Y-148211161D01*
X361825082Y-148249024D01*
X361889510Y-148272878D01*
X361971841Y-148281503D01*
X362079831Y-148269151D01*
X362168579Y-148234120D01*
X362247116Y-148175160D01*
X362329413Y-148080491D01*
X362607972Y-148290052D01*
X362527190Y-148386900D01*
X362435587Y-148469142D01*
X362332344Y-148537714D01*
X362219570Y-148587607D01*
X362086449Y-148619187D01*
X361928854Y-148630404D01*
G37*
G36*
X163650278Y-148630404D02*
G01*
X163500580Y-148620734D01*
X163375319Y-148593688D01*
X163270481Y-148551392D01*
X163174841Y-148491530D01*
X163099042Y-148422039D01*
X163040648Y-148342442D01*
X162997931Y-148253233D01*
X162972435Y-148159690D01*
X162963834Y-148060341D01*
X162974050Y-147941178D01*
X163004867Y-147824036D01*
X163056622Y-147709392D01*
X163139078Y-147580038D01*
X163242418Y-147450578D01*
X163386740Y-147295006D01*
X163551639Y-147134221D01*
X163768004Y-146936092D01*
X162917916Y-146936092D01*
X162966765Y-146590000D01*
X164289218Y-146590000D01*
X164289218Y-146911667D01*
X163877791Y-147319431D01*
X163721884Y-147485945D01*
X163612177Y-147614476D01*
X163522714Y-147737674D01*
X163469295Y-147834905D01*
X163436512Y-147931295D01*
X163426186Y-148020163D01*
X163434565Y-148097767D01*
X163458063Y-148160320D01*
X163495917Y-148211161D01*
X163546506Y-148249024D01*
X163610934Y-148272878D01*
X163693265Y-148281503D01*
X163801255Y-148269151D01*
X163890003Y-148234120D01*
X163968540Y-148175160D01*
X164050837Y-148080491D01*
X164329396Y-148290052D01*
X164248614Y-148386900D01*
X164157011Y-148469142D01*
X164053768Y-148537714D01*
X163940994Y-148587607D01*
X163807873Y-148619187D01*
X163650278Y-148630404D01*
G37*
G36*
X161928855Y-148630404D02*
G01*
X161779156Y-148620734D01*
X161653895Y-148593688D01*
X161549057Y-148551392D01*
X161453417Y-148491530D01*
X161377618Y-148422039D01*
X161319225Y-148342442D01*
X161276507Y-148253233D01*
X161251012Y-148159690D01*
X161242410Y-148060341D01*
X161252627Y-147941178D01*
X161283443Y-147824036D01*
X161335199Y-147709392D01*
X161417655Y-147580038D01*
X161520994Y-147450578D01*
X161665317Y-147295006D01*
X161830215Y-147134221D01*
X162046580Y-146936092D01*
X161196493Y-146936092D01*
X161245341Y-146590000D01*
X162567794Y-146590000D01*
X162567794Y-146911667D01*
X162156367Y-147319431D01*
X162000461Y-147485945D01*
X161890753Y-147614476D01*
X161801291Y-147737674D01*
X161747871Y-147834905D01*
X161715088Y-147931295D01*
X161704762Y-148020163D01*
X161713141Y-148097767D01*
X161736640Y-148160320D01*
X161774493Y-148211161D01*
X161825082Y-148249024D01*
X161889510Y-148272878D01*
X161971842Y-148281503D01*
X162079831Y-148269151D01*
X162168579Y-148234120D01*
X162247117Y-148175160D01*
X162329413Y-148080491D01*
X162607972Y-148290052D01*
X162527191Y-148386900D01*
X162435587Y-148469142D01*
X162332344Y-148537714D01*
X162219570Y-148587607D01*
X162086449Y-148619187D01*
X161928855Y-148630404D01*
G37*
G36*
X126071145Y-133309595D02*
G01*
X126220843Y-133319265D01*
X126346104Y-133346311D01*
X126450942Y-133388607D01*
X126546582Y-133448469D01*
X126622381Y-133517960D01*
X126680775Y-133597557D01*
X126723492Y-133686766D01*
X126748988Y-133780309D01*
X126757589Y-133879658D01*
X126747373Y-133998821D01*
X126716556Y-134115963D01*
X126664801Y-134230607D01*
X126582345Y-134359961D01*
X126479005Y-134489421D01*
X126334683Y-134644993D01*
X126169784Y-134805778D01*
X125953419Y-135003907D01*
X126803507Y-135003907D01*
X126754658Y-135350000D01*
X125432205Y-135350000D01*
X125432205Y-135028332D01*
X125843632Y-134620568D01*
X125999539Y-134454054D01*
X126109246Y-134325523D01*
X126198709Y-134202325D01*
X126252128Y-134105094D01*
X126284911Y-134008704D01*
X126295237Y-133919836D01*
X126286858Y-133842232D01*
X126263360Y-133779679D01*
X126225506Y-133728838D01*
X126174917Y-133690975D01*
X126110489Y-133667121D01*
X126028158Y-133658496D01*
X125920168Y-133670848D01*
X125831420Y-133705879D01*
X125752883Y-133764839D01*
X125670586Y-133859508D01*
X125392027Y-133649947D01*
X125472809Y-133553099D01*
X125564412Y-133470857D01*
X125667655Y-133402285D01*
X125780429Y-133352392D01*
X125913550Y-133320812D01*
X126071145Y-133309595D01*
G37*
G36*
X177468563Y-134112299D02*
G01*
X177468563Y-134591870D01*
X177668109Y-134591870D01*
X177668109Y-134932100D01*
X177468563Y-134932100D01*
X177468563Y-135350000D01*
X177033444Y-135350000D01*
X177030635Y-134932100D01*
X176206316Y-134932100D01*
X176206316Y-134630582D01*
X176759159Y-133309595D01*
X177145429Y-133451744D01*
X176674529Y-134591870D01*
X177031978Y-134591870D01*
X177085101Y-134112299D01*
X177468563Y-134112299D01*
G37*
G36*
X331242410Y-148580212D02*
G01*
X331292724Y-148255614D01*
X332020690Y-148255614D01*
X332020690Y-147826357D01*
X331946126Y-147855839D01*
X331869992Y-147875083D01*
X331726377Y-147889494D01*
X331626145Y-147880742D01*
X331533098Y-147854945D01*
X331445620Y-147811946D01*
X331367554Y-147753593D01*
X331300250Y-147680015D01*
X331243143Y-147589319D01*
X331202386Y-147490011D01*
X331176798Y-147375625D01*
X331167794Y-147243349D01*
X331179046Y-147112166D01*
X331211925Y-146992773D01*
X331266224Y-146882847D01*
X331339798Y-146784738D01*
X331430354Y-146701512D01*
X331539776Y-146632254D01*
X331659668Y-146582708D01*
X331795080Y-146551900D01*
X331948882Y-146541151D01*
X332091627Y-146550674D01*
X332218666Y-146578070D01*
X332332344Y-146622240D01*
X332438300Y-146683113D01*
X332530233Y-146755041D01*
X332609437Y-146838394D01*
X332348097Y-147076775D01*
X332269719Y-146994924D01*
X332182256Y-146936702D01*
X332085625Y-146900647D01*
X331984786Y-146888709D01*
X331883508Y-146900088D01*
X331800391Y-146932307D01*
X331731384Y-146984818D01*
X331679072Y-147054169D01*
X331647118Y-147136684D01*
X331635885Y-147236144D01*
X331645857Y-147356858D01*
X331671798Y-147441007D01*
X331709891Y-147498217D01*
X331763538Y-147541233D01*
X331827373Y-147567341D01*
X331904430Y-147576496D01*
X332020812Y-147562086D01*
X332082109Y-147542621D01*
X332148551Y-147510429D01*
X332454343Y-147510429D01*
X332454343Y-148580212D01*
X331242410Y-148580212D01*
G37*
G36*
X83661758Y-148630404D02*
G01*
X83519368Y-148621948D01*
X83398150Y-148598155D01*
X83294905Y-148560795D01*
X83199192Y-148507485D01*
X83123007Y-148445772D01*
X83063729Y-148375537D01*
X83019256Y-148295423D01*
X82992877Y-148211022D01*
X82983984Y-148120669D01*
X82997172Y-147998743D01*
X83034526Y-147898073D01*
X83095237Y-147814023D01*
X83175145Y-147744773D01*
X83272524Y-147687963D01*
X83390282Y-147643907D01*
X83257629Y-147615028D01*
X83146370Y-147568106D01*
X83052983Y-147503956D01*
X82997829Y-147443392D01*
X82956848Y-147366834D01*
X82930436Y-147270672D01*
X82920847Y-147150048D01*
X82931238Y-147040834D01*
X82961938Y-146939523D01*
X83013415Y-146844134D01*
X83082348Y-146760015D01*
X83169767Y-146686639D01*
X83278297Y-146623705D01*
X83395942Y-146579194D01*
X83532224Y-146551079D01*
X83690456Y-146541151D01*
X83837141Y-146550287D01*
X83969546Y-146576700D01*
X84089671Y-146619431D01*
X84202187Y-146679046D01*
X84302319Y-146752323D01*
X84391189Y-146839860D01*
X84135589Y-147078241D01*
X84042938Y-146991366D01*
X83943858Y-146933893D01*
X83835635Y-146900074D01*
X83720620Y-146888709D01*
X83624633Y-146897766D01*
X83545367Y-146923258D01*
X83479431Y-146964057D01*
X83428458Y-147020268D01*
X83397180Y-147091229D01*
X83386008Y-147181556D01*
X83397217Y-147282941D01*
X83427358Y-147356434D01*
X83474301Y-147409190D01*
X83536900Y-147446040D01*
X83618222Y-147469998D01*
X83723429Y-147478799D01*
X83904413Y-147478799D01*
X83852634Y-147791796D01*
X83723429Y-147791796D01*
X83637552Y-147799583D01*
X83566523Y-147821475D01*
X83507396Y-147856399D01*
X83461811Y-147905203D01*
X83433574Y-147968752D01*
X83423377Y-148051793D01*
X83432716Y-148122590D01*
X83459387Y-148180410D01*
X83503855Y-148228381D01*
X83560628Y-148263337D01*
X83629010Y-148285205D01*
X83711950Y-148292983D01*
X83826977Y-148281174D01*
X83928105Y-148246943D01*
X84020973Y-148193076D01*
X84109699Y-148120669D01*
X84342341Y-148361859D01*
X84246980Y-148443408D01*
X84145275Y-148509899D01*
X84036549Y-148562138D01*
X83921715Y-148599523D01*
X83797274Y-148622506D01*
X83661758Y-148630404D01*
G37*
G36*
X82001196Y-146553120D02*
G01*
X82122682Y-146587246D01*
X82227938Y-146642232D01*
X82319610Y-146718669D01*
X82399144Y-146818977D01*
X82473012Y-146959455D01*
X82529428Y-147130648D01*
X82566060Y-147338395D01*
X82579274Y-147589441D01*
X82566034Y-147839813D01*
X82529365Y-148046505D01*
X82472951Y-148216385D01*
X82399144Y-148355387D01*
X82319757Y-148454531D01*
X82228179Y-148530186D01*
X82122933Y-148584677D01*
X82001364Y-148618527D01*
X81859856Y-148630404D01*
X81719690Y-148618581D01*
X81598859Y-148584834D01*
X81493850Y-148530408D01*
X81402090Y-148454714D01*
X81322156Y-148355387D01*
X81247655Y-148216284D01*
X81244018Y-148205422D01*
X81650296Y-148205422D01*
X81689733Y-148252202D01*
X81735781Y-148280648D01*
X81789985Y-148295919D01*
X81859856Y-148301531D01*
X81930247Y-148291536D01*
X81989210Y-148262538D01*
X82039676Y-148213160D01*
X82082484Y-148138499D01*
X82117233Y-148025842D01*
X82142722Y-147850075D01*
X82152826Y-147589441D01*
X82148551Y-147364616D01*
X82135606Y-147190226D01*
X81650296Y-148205422D01*
X81244018Y-148205422D01*
X81190753Y-148046367D01*
X81153784Y-147839709D01*
X81140439Y-147589441D01*
X81569818Y-147589441D01*
X81577023Y-147868000D01*
X82035101Y-146921681D01*
X82000604Y-146896275D01*
X81959752Y-146880038D01*
X81859856Y-146868558D01*
X81794886Y-146876530D01*
X81740428Y-146899411D01*
X81694015Y-146937435D01*
X81658469Y-146987363D01*
X81626608Y-147060864D01*
X81599982Y-147165069D01*
X81578353Y-147337039D01*
X81569818Y-147589441D01*
X81140439Y-147589441D01*
X81153757Y-147338497D01*
X81190689Y-147130785D01*
X81247594Y-146959555D01*
X81322156Y-146818977D01*
X81402238Y-146718484D01*
X81494089Y-146642009D01*
X81599107Y-146587088D01*
X81719856Y-146553065D01*
X81859856Y-146541151D01*
X82001196Y-146553120D01*
G37*
G36*
X262860519Y-146933161D02*
G01*
X262860519Y-146590000D01*
X264154274Y-146590000D01*
X264154274Y-146933161D01*
X263674581Y-146933161D01*
X263674581Y-148133614D01*
X264083932Y-147878014D01*
X264276273Y-148189546D01*
X263634403Y-148580212D01*
X263232379Y-148580212D01*
X263232379Y-146933161D01*
X262860519Y-146933161D01*
G37*
G36*
X261928855Y-148630404D02*
G01*
X261779156Y-148620734D01*
X261653895Y-148593688D01*
X261549057Y-148551392D01*
X261453417Y-148491530D01*
X261377618Y-148422039D01*
X261319225Y-148342442D01*
X261276507Y-148253233D01*
X261251012Y-148159690D01*
X261242410Y-148060341D01*
X261252627Y-147941178D01*
X261283443Y-147824036D01*
X261335199Y-147709392D01*
X261417655Y-147580038D01*
X261520994Y-147450578D01*
X261665317Y-147295006D01*
X261830215Y-147134221D01*
X262046580Y-146936092D01*
X261196493Y-146936092D01*
X261245341Y-146590000D01*
X262567794Y-146590000D01*
X262567794Y-146911667D01*
X262156367Y-147319431D01*
X262000461Y-147485945D01*
X261890753Y-147614476D01*
X261801291Y-147737674D01*
X261747871Y-147834905D01*
X261715088Y-147931295D01*
X261704762Y-148020163D01*
X261713141Y-148097767D01*
X261736640Y-148160320D01*
X261774493Y-148211161D01*
X261825082Y-148249024D01*
X261889510Y-148272878D01*
X261971842Y-148281503D01*
X262079831Y-148269151D01*
X262168579Y-148234120D01*
X262247117Y-148175160D01*
X262329413Y-148080491D01*
X262607972Y-148290052D01*
X262527191Y-148386900D01*
X262435587Y-148469142D01*
X262332344Y-148537714D01*
X262219570Y-148587607D01*
X262086449Y-148619187D01*
X261928855Y-148630404D01*
G37*
G36*
X252860519Y-146933161D02*
G01*
X252860519Y-146590000D01*
X254154274Y-146590000D01*
X254154274Y-146933161D01*
X253674581Y-146933161D01*
X253674581Y-148133614D01*
X254083932Y-147878014D01*
X254276273Y-148189546D01*
X253634403Y-148580212D01*
X253232379Y-148580212D01*
X253232379Y-146933161D01*
X252860519Y-146933161D01*
G37*
G36*
X251940334Y-148630404D02*
G01*
X251797944Y-148621948D01*
X251676726Y-148598155D01*
X251573482Y-148560795D01*
X251477768Y-148507485D01*
X251401583Y-148445772D01*
X251342306Y-148375537D01*
X251297833Y-148295423D01*
X251271453Y-148211022D01*
X251262560Y-148120669D01*
X251275748Y-147998743D01*
X251313102Y-147898073D01*
X251373813Y-147814023D01*
X251453721Y-147744773D01*
X251551100Y-147687963D01*
X251668858Y-147643907D01*
X251536206Y-147615028D01*
X251424946Y-147568106D01*
X251331559Y-147503956D01*
X251276405Y-147443392D01*
X251235425Y-147366834D01*
X251209013Y-147270672D01*
X251199424Y-147150048D01*
X251209815Y-147040834D01*
X251240515Y-146939523D01*
X251291992Y-146844134D01*
X251360924Y-146760015D01*
X251448344Y-146686639D01*
X251556873Y-146623705D01*
X251674518Y-146579194D01*
X251810800Y-146551079D01*
X251969033Y-146541151D01*
X252115718Y-146550287D01*
X252248123Y-146576700D01*
X252368248Y-146619431D01*
X252480763Y-146679046D01*
X252580895Y-146752323D01*
X252669766Y-146839860D01*
X252414165Y-147078241D01*
X252321515Y-146991366D01*
X252222435Y-146933893D01*
X252114212Y-146900074D01*
X251999197Y-146888709D01*
X251903209Y-146897766D01*
X251823943Y-146923258D01*
X251758007Y-146964057D01*
X251707034Y-147020268D01*
X251675756Y-147091229D01*
X251664584Y-147181556D01*
X251675793Y-147282941D01*
X251705934Y-147356434D01*
X251752878Y-147409190D01*
X251815476Y-147446040D01*
X251896798Y-147469998D01*
X252002006Y-147478799D01*
X252182990Y-147478799D01*
X252131210Y-147791796D01*
X252002006Y-147791796D01*
X251916129Y-147799583D01*
X251845099Y-147821475D01*
X251785973Y-147856399D01*
X251740388Y-147905203D01*
X251712150Y-147968752D01*
X251701953Y-148051793D01*
X251711292Y-148122590D01*
X251737964Y-148180410D01*
X251782431Y-148228381D01*
X251839204Y-148263337D01*
X251907587Y-148285205D01*
X251990526Y-148292983D01*
X252105553Y-148281174D01*
X252206681Y-148246943D01*
X252299549Y-148193076D01*
X252388276Y-148120669D01*
X252620917Y-148361859D01*
X252525556Y-148443408D01*
X252423852Y-148509899D01*
X252315125Y-148562138D01*
X252200291Y-148599523D01*
X252075850Y-148622506D01*
X251940334Y-148630404D01*
G37*
G36*
X151459665Y-133309595D02*
G01*
X151602055Y-133318051D01*
X151723273Y-133341844D01*
X151826518Y-133379204D01*
X151922231Y-133432514D01*
X151998416Y-133494227D01*
X152057694Y-133564462D01*
X152102167Y-133644576D01*
X152128546Y-133728977D01*
X152137439Y-133819330D01*
X152124251Y-133941256D01*
X152086897Y-134041926D01*
X152026186Y-134125976D01*
X151946278Y-134195226D01*
X151848899Y-134252036D01*
X151731141Y-134296092D01*
X151863794Y-134324971D01*
X151975053Y-134371893D01*
X152068440Y-134436043D01*
X152123594Y-134496607D01*
X152164575Y-134573165D01*
X152190987Y-134669327D01*
X152200576Y-134789951D01*
X152190185Y-134899165D01*
X152159485Y-135000476D01*
X152108008Y-135095865D01*
X152039075Y-135179984D01*
X151951656Y-135253360D01*
X151843126Y-135316294D01*
X151725481Y-135360805D01*
X151589199Y-135388920D01*
X151430967Y-135398848D01*
X151284282Y-135389712D01*
X151151877Y-135363299D01*
X151031752Y-135320568D01*
X150919236Y-135260953D01*
X150819104Y-135187676D01*
X150730234Y-135100139D01*
X150985834Y-134861758D01*
X151078485Y-134948633D01*
X151177565Y-135006106D01*
X151285788Y-135039925D01*
X151400803Y-135051290D01*
X151496790Y-135042233D01*
X151576056Y-135016741D01*
X151641992Y-134975942D01*
X151692965Y-134919731D01*
X151724243Y-134848770D01*
X151735415Y-134758443D01*
X151724206Y-134657058D01*
X151694065Y-134583565D01*
X151647122Y-134530809D01*
X151584523Y-134493959D01*
X151503201Y-134470001D01*
X151397994Y-134461200D01*
X151217010Y-134461200D01*
X151268789Y-134148203D01*
X151397994Y-134148203D01*
X151483871Y-134140416D01*
X151554900Y-134118524D01*
X151614027Y-134083600D01*
X151659612Y-134034796D01*
X151687849Y-133971247D01*
X151698046Y-133888206D01*
X151688707Y-133817409D01*
X151662036Y-133759589D01*
X151617568Y-133711618D01*
X151560795Y-133676662D01*
X151492413Y-133654794D01*
X151409473Y-133647016D01*
X151294446Y-133658825D01*
X151193318Y-133693056D01*
X151100450Y-133746923D01*
X151011724Y-133819330D01*
X150779082Y-133578140D01*
X150874443Y-133496591D01*
X150976148Y-133430100D01*
X151084874Y-133377861D01*
X151199708Y-133340476D01*
X151324149Y-133317493D01*
X151459665Y-133309595D01*
G37*
G36*
X173650278Y-148630404D02*
G01*
X173500580Y-148620734D01*
X173375319Y-148593688D01*
X173270481Y-148551392D01*
X173174841Y-148491530D01*
X173099042Y-148422039D01*
X173040648Y-148342442D01*
X172997931Y-148253233D01*
X172972435Y-148159690D01*
X172963834Y-148060341D01*
X172974050Y-147941178D01*
X173004867Y-147824036D01*
X173056622Y-147709392D01*
X173139078Y-147580038D01*
X173242418Y-147450578D01*
X173386740Y-147295006D01*
X173551639Y-147134221D01*
X173768004Y-146936092D01*
X172917916Y-146936092D01*
X172966765Y-146590000D01*
X174289218Y-146590000D01*
X174289218Y-146911667D01*
X173877791Y-147319431D01*
X173721884Y-147485945D01*
X173612177Y-147614476D01*
X173522714Y-147737674D01*
X173469295Y-147834905D01*
X173436512Y-147931295D01*
X173426186Y-148020163D01*
X173434565Y-148097767D01*
X173458063Y-148160320D01*
X173495917Y-148211161D01*
X173546506Y-148249024D01*
X173610934Y-148272878D01*
X173693265Y-148281503D01*
X173801255Y-148269151D01*
X173890003Y-148234120D01*
X173968540Y-148175160D01*
X174050837Y-148080491D01*
X174329396Y-148290052D01*
X174248614Y-148386900D01*
X174157011Y-148469142D01*
X174053768Y-148537714D01*
X173940994Y-148587607D01*
X173807873Y-148619187D01*
X173650278Y-148630404D01*
G37*
G36*
X171139096Y-146933161D02*
G01*
X171139096Y-146590000D01*
X172432850Y-146590000D01*
X172432850Y-146933161D01*
X171953157Y-146933161D01*
X171953157Y-148133614D01*
X172362508Y-147878014D01*
X172554849Y-148189546D01*
X171912979Y-148580212D01*
X171510955Y-148580212D01*
X171510955Y-146933161D01*
X171139096Y-146933161D01*
G37*
G36*
X123650278Y-148630404D02*
G01*
X123500580Y-148620734D01*
X123375319Y-148593688D01*
X123270481Y-148551392D01*
X123174841Y-148491530D01*
X123099042Y-148422039D01*
X123040648Y-148342442D01*
X122997931Y-148253233D01*
X122972435Y-148159690D01*
X122963834Y-148060341D01*
X122974050Y-147941178D01*
X123004867Y-147824036D01*
X123056622Y-147709392D01*
X123139078Y-147580038D01*
X123242418Y-147450578D01*
X123386740Y-147295006D01*
X123551639Y-147134221D01*
X123768004Y-146936092D01*
X122917916Y-146936092D01*
X122966765Y-146590000D01*
X124289218Y-146590000D01*
X124289218Y-146911667D01*
X123877791Y-147319431D01*
X123721884Y-147485945D01*
X123612177Y-147614476D01*
X123522714Y-147737674D01*
X123469295Y-147834905D01*
X123436512Y-147931295D01*
X123426186Y-148020163D01*
X123434565Y-148097767D01*
X123458063Y-148160320D01*
X123495917Y-148211161D01*
X123546506Y-148249024D01*
X123610934Y-148272878D01*
X123693265Y-148281503D01*
X123801255Y-148269151D01*
X123890003Y-148234120D01*
X123968540Y-148175160D01*
X124050837Y-148080491D01*
X124329396Y-148290052D01*
X124248614Y-148386900D01*
X124157011Y-148469142D01*
X124053768Y-148537714D01*
X123940994Y-148587607D01*
X123807873Y-148619187D01*
X123650278Y-148630404D01*
G37*
G36*
X121967267Y-146550186D02*
G01*
X122079244Y-146575795D01*
X122175784Y-146616500D01*
X122264084Y-146673220D01*
X122340323Y-146741900D01*
X122405495Y-146823374D01*
X122481819Y-146962841D01*
X122536165Y-147126357D01*
X122567178Y-147301220D01*
X122577808Y-147490279D01*
X122565453Y-147712500D01*
X122530124Y-147909044D01*
X122473761Y-148083300D01*
X122392128Y-148245991D01*
X122293131Y-148378700D01*
X122176517Y-148485324D01*
X122076635Y-148548067D01*
X121967575Y-148593165D01*
X121847683Y-148620854D01*
X121714898Y-148630404D01*
X121586438Y-148621470D01*
X121474319Y-148595966D01*
X121370894Y-148554787D01*
X121282710Y-148502665D01*
X121454902Y-148226915D01*
X121514679Y-148263153D01*
X121577756Y-148287976D01*
X121643139Y-148302629D01*
X121706228Y-148307393D01*
X121783428Y-148298489D01*
X121853345Y-148272224D01*
X121917964Y-148227754D01*
X121978436Y-148162313D01*
X122037677Y-148059802D01*
X122081197Y-147923064D01*
X122105442Y-147743070D01*
X122009928Y-147824611D01*
X121905163Y-147880090D01*
X121793473Y-147913291D01*
X121687543Y-147923932D01*
X121586318Y-147915214D01*
X121493086Y-147889613D01*
X121406175Y-147847117D01*
X121328780Y-147789113D01*
X121261947Y-147715161D01*
X121205163Y-147623147D01*
X121164974Y-147522379D01*
X121139476Y-147404049D01*
X121130425Y-147264842D01*
X121132364Y-147239075D01*
X121584228Y-147239075D01*
X121592429Y-147375285D01*
X121613246Y-147467282D01*
X121642358Y-147526915D01*
X121686513Y-147573758D01*
X121739799Y-147601346D01*
X121805268Y-147610935D01*
X121885139Y-147601874D01*
X121960728Y-147574696D01*
X122033782Y-147528026D01*
X122105442Y-147458771D01*
X122094765Y-147258063D01*
X122072427Y-147113559D01*
X122042306Y-147012906D01*
X122005644Y-146946738D01*
X121959404Y-146902107D01*
X121902393Y-146875228D01*
X121831158Y-146865750D01*
X121752433Y-146878264D01*
X121691465Y-146913919D01*
X121643823Y-146974804D01*
X121611646Y-147049804D01*
X121591385Y-147137096D01*
X121584228Y-147239075D01*
X121132364Y-147239075D01*
X121140272Y-147133970D01*
X121169115Y-147013225D01*
X121216643Y-146900799D01*
X121282249Y-146798449D01*
X121363431Y-146711534D01*
X121461496Y-146638726D01*
X121571044Y-146585499D01*
X121695147Y-146552612D01*
X121836897Y-146541151D01*
X121967267Y-146550186D01*
G37*
G36*
X282860519Y-146933161D02*
G01*
X282860519Y-146590000D01*
X284154274Y-146590000D01*
X284154274Y-146933161D01*
X283674581Y-146933161D01*
X283674581Y-148133614D01*
X284083932Y-147878014D01*
X284276273Y-148189546D01*
X283634403Y-148580212D01*
X283232379Y-148580212D01*
X283232379Y-146933161D01*
X282860519Y-146933161D01*
G37*
G36*
X282001196Y-146553120D02*
G01*
X282122682Y-146587246D01*
X282227938Y-146642232D01*
X282319610Y-146718669D01*
X282399144Y-146818977D01*
X282473012Y-146959455D01*
X282529428Y-147130648D01*
X282566060Y-147338395D01*
X282579274Y-147589441D01*
X282566034Y-147839813D01*
X282529365Y-148046505D01*
X282472951Y-148216385D01*
X282399144Y-148355387D01*
X282319757Y-148454531D01*
X282228179Y-148530186D01*
X282122933Y-148584677D01*
X282001364Y-148618527D01*
X281859856Y-148630404D01*
X281719690Y-148618581D01*
X281598859Y-148584834D01*
X281493850Y-148530408D01*
X281402090Y-148454714D01*
X281322156Y-148355387D01*
X281247655Y-148216284D01*
X281244018Y-148205422D01*
X281650296Y-148205422D01*
X281689733Y-148252202D01*
X281735781Y-148280648D01*
X281789985Y-148295919D01*
X281859856Y-148301531D01*
X281930247Y-148291536D01*
X281989210Y-148262538D01*
X282039676Y-148213160D01*
X282082484Y-148138499D01*
X282117233Y-148025842D01*
X282142722Y-147850075D01*
X282152826Y-147589441D01*
X282148551Y-147364616D01*
X282135606Y-147190226D01*
X281650296Y-148205422D01*
X281244018Y-148205422D01*
X281190753Y-148046367D01*
X281153784Y-147839709D01*
X281140439Y-147589441D01*
X281569818Y-147589441D01*
X281577023Y-147868000D01*
X282035101Y-146921681D01*
X282000604Y-146896275D01*
X281959752Y-146880038D01*
X281859856Y-146868558D01*
X281794886Y-146876530D01*
X281740428Y-146899411D01*
X281694015Y-146937435D01*
X281658469Y-146987363D01*
X281626608Y-147060864D01*
X281599982Y-147165069D01*
X281578353Y-147337039D01*
X281569818Y-147589441D01*
X281140439Y-147589441D01*
X281153757Y-147338497D01*
X281190689Y-147130785D01*
X281247594Y-146959555D01*
X281322156Y-146818977D01*
X281402238Y-146718484D01*
X281494089Y-146642009D01*
X281599107Y-146587088D01*
X281719856Y-146553065D01*
X281859856Y-146541151D01*
X282001196Y-146553120D01*
G37*
G36*
X292445672Y-146822641D02*
G01*
X292214395Y-146893355D01*
X292033469Y-146972453D01*
X291894416Y-147058091D01*
X291802122Y-147137603D01*
X291727608Y-147227050D01*
X291669479Y-147327366D01*
X291627215Y-147440087D01*
X291718361Y-147370592D01*
X291811862Y-147320163D01*
X291913414Y-147288828D01*
X292033635Y-147277787D01*
X292135753Y-147286723D01*
X292229950Y-147312995D01*
X292317933Y-147356678D01*
X292396540Y-147415853D01*
X292464074Y-147489497D01*
X292521143Y-147579305D01*
X292562115Y-147677669D01*
X292587598Y-147788897D01*
X292596492Y-147915383D01*
X292585321Y-148056285D01*
X292553163Y-148180716D01*
X292500993Y-148291517D01*
X292429460Y-148391009D01*
X292343287Y-148473858D01*
X292241119Y-148541378D01*
X292128549Y-148590311D01*
X292005982Y-148620158D01*
X291871335Y-148630404D01*
X291711231Y-148618213D01*
X291577355Y-148583979D01*
X291465037Y-148529898D01*
X291365938Y-148454345D01*
X291284987Y-148361915D01*
X291220917Y-148250607D01*
X291176499Y-148128853D01*
X291148775Y-147991634D01*
X291139095Y-147836371D01*
X291144892Y-147711441D01*
X291607187Y-147711441D01*
X291612279Y-147914500D01*
X291629143Y-148059796D01*
X291653837Y-148160115D01*
X291686453Y-148224888D01*
X291732214Y-148269547D01*
X291793142Y-148297304D01*
X291874266Y-148307393D01*
X291951122Y-148296852D01*
X292014626Y-148266522D01*
X292068073Y-148215436D01*
X292105128Y-148149898D01*
X292130300Y-148057075D01*
X292139880Y-147928206D01*
X292129986Y-147807340D01*
X292104465Y-147724666D01*
X292067340Y-147669797D01*
X292015193Y-147628024D01*
X291957733Y-147603509D01*
X291892951Y-147595181D01*
X291813445Y-147602702D01*
X291742131Y-147624612D01*
X291675273Y-147660191D01*
X291607187Y-147711441D01*
X291144892Y-147711441D01*
X291148051Y-147643352D01*
X291173577Y-147472946D01*
X291214032Y-147322462D01*
X291268300Y-147189494D01*
X291340925Y-147064158D01*
X291430589Y-146950913D01*
X291538387Y-146848783D01*
X291666049Y-146757306D01*
X291850959Y-146659549D01*
X292077430Y-146574363D01*
X292352372Y-146503904D01*
X292445672Y-146822641D01*
G37*
D12*
X365760000Y-139700000D03*
M02*
