G04 #@! TF.GenerationSoftware,KiCad,Pcbnew,9.0.2*
G04 #@! TF.CreationDate,2025-05-24T20:46:17-04:00*
G04 #@! TF.ProjectId,pcb_ruler,7063625f-7275-46c6-9572-2e6b69636164,rev?*
G04 #@! TF.SameCoordinates,Original*
G04 #@! TF.FileFunction,Copper,L2,Bot*
G04 #@! TF.FilePolarity,Positive*
%FSLAX46Y46*%
G04 Gerber Fmt 4.6, Leading zero omitted, Abs format (unit mm)*
G04 Created by KiCad (PCBNEW 9.0.2) date 2025-05-24 20:46:17*
%MOMM*%
%LPD*%
G01*
G04 APERTURE LIST*
G04 #@! TA.AperFunction,Conductor*
%ADD10C,0.423333*%
G04 #@! TD*
G04 #@! TA.AperFunction,Conductor*
%ADD11C,0.100000*%
G04 #@! TD*
G04 #@! TA.AperFunction,Conductor*
%ADD12C,0.000000*%
G04 #@! TD*
%ADD13C,2.500000*%
%ADD14C,0.150000*%
G04 #@! TA.AperFunction,ComponentPad*
%ADD15C,9.400000*%
G04 #@! TD*
G04 APERTURE END LIST*
D10*
X123016930Y-136923416D02*
X122708920Y-136656654D01*
X124113057Y-137689566D02*
X123865781Y-137540116D01*
X126856074Y-137440864D02*
X126846560Y-137522591D01*
X126638486Y-137975590D02*
X126588428Y-138025863D01*
D11*
X111735732Y-136724707D02*
X111735732Y-140534707D01*
X113158132Y-140915707D01*
X113132732Y-141423707D01*
X111354732Y-140915707D01*
X111354732Y-136851707D01*
X109449732Y-133549707D01*
X107036732Y-137740707D01*
X106655732Y-137359707D01*
X109449732Y-132533707D01*
X111735732Y-136724707D01*
G04 #@! TA.AperFunction,Conductor*
G36*
X111735732Y-136724707D02*
G01*
X111735732Y-140534707D01*
X113158132Y-140915707D01*
X113132732Y-141423707D01*
X111354732Y-140915707D01*
X111354732Y-136851707D01*
X109449732Y-133549707D01*
X107036732Y-137740707D01*
X106655732Y-137359707D01*
X109449732Y-132533707D01*
X111735732Y-136724707D01*
G37*
G04 #@! TD.AperFunction*
D10*
X125381947Y-135662822D02*
X125629223Y-135812271D01*
X122931972Y-135305218D02*
X122960818Y-135285081D01*
D11*
X108814732Y-141804707D02*
X111100732Y-141169707D01*
X113386732Y-141804707D01*
X113767732Y-137613707D01*
X114148732Y-137613707D01*
X113767732Y-142439707D01*
X111100732Y-141677707D01*
X108433732Y-142439707D01*
X108052732Y-137613707D01*
X108433732Y-137613707D01*
X108814732Y-141804707D01*
G04 #@! TA.AperFunction,Conductor*
G36*
X108814732Y-141804707D02*
G01*
X111100732Y-141169707D01*
X113386732Y-141804707D01*
X113767732Y-137613707D01*
X114148732Y-137613707D01*
X113767732Y-142439707D01*
X111100732Y-141677707D01*
X108433732Y-142439707D01*
X108052732Y-137613707D01*
X108433732Y-137613707D01*
X108814732Y-141804707D01*
G37*
G04 #@! TD.AperFunction*
D10*
X125975796Y-138211761D02*
X125855559Y-138217274D01*
X125730888Y-138217142D02*
X125603031Y-138211237D01*
X125911454Y-134263643D02*
X126094257Y-134713544D01*
X126090349Y-138200731D02*
X125975796Y-138211761D01*
X122662990Y-135752752D02*
X122682579Y-135680175D01*
X125342752Y-138181596D02*
X125212827Y-138157604D01*
X126563032Y-138047170D02*
X126534186Y-138067307D01*
X122707221Y-135611851D02*
X122736925Y-135547565D01*
X126812425Y-137672213D02*
X126787783Y-137740537D01*
X122634438Y-135998146D02*
X122638930Y-135911524D01*
X122638930Y-135911524D02*
X122648444Y-135829797D01*
X125212827Y-138157604D02*
X125084709Y-138127326D01*
X126466771Y-138104001D02*
X126387431Y-138135819D01*
X121124187Y-134795313D02*
X120820592Y-134306875D01*
X123400747Y-138638844D02*
X123237258Y-138224812D01*
X126787783Y-137740537D02*
X126758078Y-137804823D01*
X126716929Y-136459293D02*
X126752247Y-136592798D01*
X126478074Y-136428971D02*
X126786085Y-136695734D01*
X125084709Y-138127326D02*
X124959647Y-138090635D01*
X124959647Y-138090635D02*
X124838889Y-138047403D01*
X126526455Y-135854888D02*
X126631512Y-136171597D01*
X123237258Y-138224812D02*
X123093165Y-137844935D01*
X122863492Y-137180791D02*
X122778074Y-136893094D01*
X124021768Y-135152957D02*
X124152252Y-135170792D01*
X127740724Y-137700939D02*
X128058527Y-138109391D01*
X125603031Y-138211237D02*
X125473236Y-138199431D01*
X128674412Y-139045513D02*
X128821954Y-139305491D01*
X123093165Y-137844935D02*
X122968549Y-137497500D01*
X126808051Y-136840190D02*
X126828517Y-136954506D01*
X126844012Y-137062855D02*
X126854525Y-137165451D01*
X122686952Y-136512198D02*
X122666487Y-136397881D01*
X124535357Y-135261753D02*
X124656115Y-135304985D01*
X126257746Y-135127576D02*
X126401839Y-135507452D01*
X122650992Y-136289532D02*
X122640479Y-136186936D01*
X122778074Y-136893094D02*
X122742756Y-136759590D01*
X125855559Y-138217274D02*
X125730888Y-138217142D01*
X126786085Y-136695734D02*
X127101319Y-136995634D01*
X124960009Y-135438959D02*
X125157814Y-135538892D01*
X123764116Y-135135246D02*
X123891973Y-135141150D01*
X126846560Y-137522591D02*
X126832013Y-137599635D01*
X123583550Y-139088745D02*
X123400747Y-138638844D01*
X123197588Y-135189756D02*
X123297032Y-135168076D01*
X127101319Y-136995634D02*
X127420594Y-137330194D01*
X122906575Y-135326525D02*
X122931972Y-135305218D01*
X121436477Y-135242996D02*
X121124187Y-134795313D01*
X122393685Y-136356754D02*
X122074410Y-136022193D01*
X126197972Y-138184312D02*
X126090349Y-138200731D01*
X123107573Y-135216569D02*
X123197588Y-135189756D01*
X126758078Y-137804823D02*
X126723301Y-137865284D01*
X124534996Y-137913429D02*
X124337190Y-137813495D01*
X126832013Y-137599635D02*
X126812425Y-137672213D01*
X126828517Y-136954506D02*
X126844012Y-137062855D01*
X124656115Y-135304985D02*
X124960009Y-135438959D01*
D11*
X115570000Y-137359707D02*
X115189000Y-137740707D01*
X112776000Y-133549707D01*
X110871000Y-136851707D01*
X110871000Y-140915707D01*
X109068732Y-141423707D01*
X109043332Y-140915707D01*
X110490000Y-140534707D01*
X110490000Y-136724707D01*
X112776000Y-132533707D01*
X115570000Y-137359707D01*
G04 #@! TA.AperFunction,Conductor*
G36*
X115570000Y-137359707D02*
G01*
X115189000Y-137740707D01*
X112776000Y-133549707D01*
X110871000Y-136851707D01*
X110871000Y-140915707D01*
X109068732Y-141423707D01*
X109043332Y-140915707D01*
X110490000Y-140534707D01*
X110490000Y-136724707D01*
X112776000Y-132533707D01*
X115570000Y-137359707D01*
G37*
G04 #@! TD.AperFunction*
D10*
X122634957Y-136089879D02*
X122634438Y-135998146D01*
X126094257Y-134713544D02*
X126257746Y-135127576D01*
X122712379Y-136632696D02*
X122686952Y-136512198D01*
X122708920Y-136656654D02*
X122393685Y-136356754D01*
X126631512Y-136171597D02*
X126716929Y-136459293D01*
X126683440Y-137922135D02*
X126638486Y-137975590D01*
X122742756Y-136759590D02*
X122712379Y-136632696D01*
X122640479Y-136186936D02*
X122634957Y-136089879D01*
X125473236Y-138199431D02*
X125342752Y-138181596D01*
X125157814Y-135538892D02*
X125381947Y-135662822D01*
X123639445Y-135135114D02*
X123764116Y-135135246D01*
D12*
G04 #@! TA.AperFunction,Conductor*
G36*
X138170060Y-135373761D02*
G01*
X138607242Y-135850011D01*
X140215384Y-135852466D01*
X140306989Y-135373761D01*
X140709749Y-135373761D01*
X140246004Y-137637705D01*
X139843341Y-137641940D01*
X138528691Y-136273342D01*
X138998845Y-136273342D01*
X139947683Y-137227479D01*
X140136567Y-136262961D01*
X138998845Y-136273342D01*
X138528691Y-136273342D01*
X137664350Y-135373533D01*
X138170060Y-135373761D01*
G37*
G04 #@! TD.AperFunction*
D10*
X126860566Y-137354241D02*
X126856074Y-137440864D01*
D12*
G04 #@! TA.AperFunction,Conductor*
G36*
X129439760Y-135378824D02*
G01*
X129876942Y-135855074D01*
X131485085Y-135857530D01*
X131576690Y-135378824D01*
X131979451Y-135378824D01*
X131515706Y-137642769D01*
X131113044Y-137647006D01*
X129798392Y-136278408D01*
X130268547Y-136278408D01*
X131217385Y-137232545D01*
X131406267Y-136268027D01*
X130268547Y-136278408D01*
X129798392Y-136278408D01*
X128934050Y-135378598D01*
X129439760Y-135378824D01*
G37*
G04 #@! TD.AperFunction*
D10*
X122666487Y-136397881D02*
X122650992Y-136289532D01*
X126534186Y-138067307D02*
X126466771Y-138104001D01*
X126860046Y-137262509D02*
X126860566Y-137354241D01*
X120820592Y-134306875D02*
X120673050Y-134046896D01*
X126387431Y-138135819D02*
X126297415Y-138162632D01*
X123865781Y-137540116D02*
X123598545Y-137363624D01*
X126297415Y-138162632D02*
X126197972Y-138184312D01*
X128058527Y-138109391D02*
X128370817Y-138557074D01*
X124152252Y-135170792D02*
X124282177Y-135194784D01*
X126782625Y-136719692D02*
X126808051Y-136840190D01*
X123598545Y-137363624D02*
X123314533Y-137158565D01*
X122682579Y-135680175D02*
X122707221Y-135611851D01*
X124410295Y-135225062D02*
X124535357Y-135261753D01*
X122960818Y-135285081D02*
X123028233Y-135248387D01*
X122074410Y-136022193D02*
X121754280Y-135651449D01*
X123028233Y-135248387D02*
X123107573Y-135216569D01*
X126752247Y-136592798D02*
X126782625Y-136719692D01*
X122811563Y-135430253D02*
X122856518Y-135376798D01*
X124282177Y-135194784D02*
X124410295Y-135225062D01*
X125629223Y-135812271D02*
X125896459Y-135988764D01*
X122968549Y-137497500D02*
X122863492Y-137180791D01*
X122648444Y-135829797D02*
X122662990Y-135752752D01*
X122736925Y-135547565D02*
X122771703Y-135487104D01*
X121754280Y-135651449D02*
X121436477Y-135242996D01*
X126723301Y-137865284D02*
X126683440Y-137922135D01*
X128370817Y-138557074D02*
X128674412Y-139045513D01*
X125896459Y-135988764D02*
X126180471Y-136193822D01*
X123519208Y-135140627D02*
X123639445Y-135135114D01*
X126588428Y-138025863D02*
X126563032Y-138047170D01*
X122771703Y-135487104D02*
X122811563Y-135430253D01*
X120673050Y-134046896D02*
X120528877Y-133776158D01*
X123891973Y-135141150D02*
X124021768Y-135152957D01*
X126854525Y-137165451D02*
X126860046Y-137262509D01*
X123297032Y-135168076D02*
X123404655Y-135151657D01*
X128821954Y-139305491D02*
X128966127Y-139576229D01*
X126180471Y-136193822D02*
X126478074Y-136428971D01*
X123404655Y-135151657D02*
X123519208Y-135140627D01*
X127420594Y-137330194D02*
X127740724Y-137700939D01*
D12*
G04 #@! TA.AperFunction,Conductor*
G36*
X138676751Y-137659533D02*
G01*
X138029157Y-137659533D01*
X136402343Y-136013040D01*
X136085700Y-137647006D01*
X135573119Y-137646177D01*
X136020546Y-135378824D01*
X136475934Y-135373533D01*
X138676751Y-137659533D01*
G37*
G04 #@! TD.AperFunction*
D10*
X123314533Y-137158565D02*
X123016930Y-136923416D01*
X124337190Y-137813495D02*
X124113057Y-137689566D01*
X126401839Y-135507452D02*
X126526455Y-135854888D01*
D12*
G04 #@! TA.AperFunction,Conductor*
G36*
X135094507Y-135754533D02*
G01*
X133407175Y-135772507D01*
X134085074Y-137622505D01*
X133586380Y-137627782D01*
X132765171Y-135388396D01*
X134978090Y-135378824D01*
X135094507Y-135754533D01*
G37*
G04 #@! TD.AperFunction*
D10*
X122856518Y-135376798D02*
X122906575Y-135326525D01*
X125709418Y-133776158D02*
X125911454Y-134263643D01*
X124838889Y-138047403D02*
X124534996Y-137913429D01*
X123785586Y-139576230D02*
X123583550Y-139088745D01*
G04 #@! TA.AperFunction,NonConductor*
G36*
X104127301Y-143450000D02*
G01*
X140970000Y-143450000D01*
X140970000Y-143600000D01*
X104127301Y-143600000D01*
X104127301Y-143450000D01*
G37*
G04 #@! TD.AperFunction*
D13*
G36*
X200790510Y-129603669D02*
G01*
X198536148Y-130292434D01*
X206246895Y-147638561D01*
X196971773Y-147638561D01*
X196971773Y-149648679D01*
X208674669Y-149648679D01*
X208674669Y-147796097D01*
X200790510Y-129603669D01*
G37*
G36*
X221347196Y-129640388D02*
G01*
X222382326Y-129917413D01*
X223353664Y-130377919D01*
X224224185Y-131007122D01*
X224973223Y-131800148D01*
X225608025Y-132776383D01*
X226062656Y-133850614D01*
X226347855Y-135089444D01*
X226448221Y-136524290D01*
X226354540Y-137915202D01*
X226093753Y-139064284D01*
X225687404Y-140013299D01*
X225112155Y-140867847D01*
X224434897Y-141548275D01*
X223647977Y-142073487D01*
X222774572Y-142450910D01*
X221845659Y-142678713D01*
X220847732Y-142756146D01*
X219897440Y-142683774D01*
X219023953Y-142472077D01*
X218213573Y-142123557D01*
X217477723Y-141638502D01*
X216768160Y-140969010D01*
X216081333Y-140085351D01*
X216212798Y-141927627D01*
X216494910Y-143476770D01*
X216905886Y-144774297D01*
X217430775Y-145856809D01*
X218153872Y-146828237D01*
X218971348Y-147485729D01*
X219900238Y-147876558D01*
X220977181Y-148011031D01*
X222036054Y-147917765D01*
X223031233Y-147641395D01*
X223978926Y-147178163D01*
X224926588Y-148815811D01*
X224060607Y-149308364D01*
X223124076Y-149669440D01*
X222128015Y-149888131D01*
X221021145Y-149963752D01*
X219880942Y-149877188D01*
X218852033Y-149625960D01*
X217915662Y-149215688D01*
X217057083Y-148642399D01*
X216070883Y-147674042D01*
X215230269Y-146444575D01*
X214537718Y-144909147D01*
X214071234Y-143278631D01*
X213774420Y-141395869D01*
X213669435Y-139223173D01*
X213718958Y-137973871D01*
X216109421Y-137973871D01*
X216943163Y-139113398D01*
X217947348Y-139998644D01*
X218715904Y-140427724D01*
X219552211Y-140685897D01*
X220475262Y-140774115D01*
X221489757Y-140662579D01*
X222323591Y-140346968D01*
X223016609Y-139833780D01*
X223397824Y-139340692D01*
X223698343Y-138654098D01*
X223902185Y-137718852D01*
X223978926Y-136466893D01*
X223860366Y-134950027D01*
X223536222Y-133758779D01*
X223037369Y-132826453D01*
X222516788Y-132252794D01*
X221889402Y-131843945D01*
X221133794Y-131589374D01*
X220216365Y-131498993D01*
X219199267Y-131605410D01*
X218374103Y-131904149D01*
X217699196Y-132384567D01*
X217149896Y-133063369D01*
X216651065Y-134158220D01*
X216285185Y-135744010D01*
X216109421Y-137973871D01*
X213718958Y-137973871D01*
X213747110Y-137263708D01*
X213966078Y-135567851D01*
X214308130Y-134103843D01*
X214844894Y-132719273D01*
X215539683Y-131611449D01*
X216389079Y-130736956D01*
X217136778Y-130234106D01*
X218009935Y-129863344D01*
X219031747Y-129629176D01*
X220231019Y-129546272D01*
X221347196Y-129640388D01*
G37*
G36*
X238458974Y-129657845D02*
G01*
X239537128Y-129977770D01*
X240481590Y-130497584D01*
X241314517Y-131227422D01*
X242046790Y-132195085D01*
X242713219Y-133525853D01*
X243229266Y-135185996D01*
X243568353Y-137241780D01*
X243691766Y-139769056D01*
X243568394Y-142288460D01*
X243229385Y-144338129D01*
X242713364Y-145993653D01*
X242046790Y-147321045D01*
X241314832Y-148286138D01*
X240482102Y-149014274D01*
X239537659Y-149533028D01*
X238459328Y-149852370D01*
X237215667Y-149963752D01*
X235972023Y-149852383D01*
X234893554Y-149533060D01*
X233948848Y-149014313D01*
X233115749Y-148286163D01*
X232383322Y-147321045D01*
X231717275Y-145993731D01*
X231201630Y-144338236D01*
X230862856Y-142288541D01*
X230739568Y-139769056D01*
X233295569Y-139769056D01*
X233380977Y-142077228D01*
X233608084Y-143833702D01*
X233938718Y-145142056D01*
X234343371Y-146093725D01*
X234952190Y-146980253D01*
X235623452Y-147567501D01*
X236368282Y-147909588D01*
X237215667Y-148025685D01*
X238051741Y-147940334D01*
X238750929Y-147698007D01*
X239341936Y-147304989D01*
X239842498Y-146748295D01*
X233797488Y-134599656D01*
X233539310Y-135869760D01*
X233362054Y-137562243D01*
X233295569Y-139769056D01*
X230739568Y-139769056D01*
X230862898Y-137241700D01*
X231201749Y-135185889D01*
X231717419Y-133525775D01*
X232099762Y-132761729D01*
X234616923Y-132761729D01*
X240632624Y-144953110D01*
X240897750Y-143691628D01*
X241080451Y-141996118D01*
X241149198Y-139769056D01*
X241063880Y-137461402D01*
X240836906Y-135703416D01*
X240506278Y-134392247D01*
X240101396Y-133437060D01*
X239492820Y-132548532D01*
X238819557Y-131959385D01*
X238070314Y-131615757D01*
X237215667Y-131498993D01*
X236393700Y-131583046D01*
X235703202Y-131822147D01*
X235116621Y-132210668D01*
X234616923Y-132761729D01*
X232099762Y-132761729D01*
X232383322Y-132195085D01*
X233116065Y-131227397D01*
X233949360Y-130497546D01*
X234894085Y-129977738D01*
X235972377Y-129657832D01*
X237215667Y-129546272D01*
X238458974Y-129657845D01*
G37*
G36*
X259799582Y-149648679D02*
G01*
X259440545Y-147724046D01*
X251629658Y-147724046D01*
X251629658Y-141492189D01*
X252533784Y-141902976D01*
X253345464Y-142152866D01*
X254169215Y-142292231D01*
X255046616Y-142339712D01*
X256226531Y-142232440D01*
X257252497Y-141924352D01*
X258154112Y-141422698D01*
X258952059Y-140716718D01*
X259578147Y-139869416D01*
X260042902Y-138848357D01*
X260339454Y-137618607D01*
X260445604Y-136135944D01*
X260348578Y-134836786D01*
X260069965Y-133692006D01*
X259620063Y-132676244D01*
X258993990Y-131762100D01*
X258223177Y-130998027D01*
X257293650Y-130371812D01*
X256263961Y-129923107D01*
X255093357Y-129643892D01*
X253754571Y-129546272D01*
X252581021Y-129620131D01*
X251526199Y-129833296D01*
X250573308Y-130177639D01*
X249243402Y-130926518D01*
X248025855Y-131928861D01*
X249519400Y-133365009D01*
X250460931Y-132558373D01*
X251472802Y-131995699D01*
X252572206Y-131657304D01*
X253783880Y-131541736D01*
X254748461Y-131623147D01*
X255559453Y-131853069D01*
X256245423Y-132219999D01*
X256827146Y-132726314D01*
X257279714Y-133344039D01*
X257619824Y-134108158D01*
X257839494Y-135049832D01*
X257918912Y-136207995D01*
X257857672Y-137266586D01*
X257692471Y-138088682D01*
X257445080Y-138720033D01*
X256875585Y-139519600D01*
X256159142Y-140034060D01*
X255313694Y-140328534D01*
X254357851Y-140429733D01*
X253509270Y-140384084D01*
X252806909Y-140257542D01*
X251270621Y-139769056D01*
X249332554Y-139769056D01*
X249332554Y-149648679D01*
X259799582Y-149648679D01*
G37*
D14*
G36*
X104758034Y-143960710D02*
G01*
X104831329Y-143979231D01*
X104899077Y-144012669D01*
X104961113Y-144065418D01*
X105010855Y-144135483D01*
X105052063Y-144236144D01*
X105076233Y-144353373D01*
X105085494Y-144515588D01*
X105080955Y-144634512D01*
X105068698Y-144728220D01*
X105050506Y-144800986D01*
X105022858Y-144870706D01*
X104991657Y-144924330D01*
X104957358Y-144964659D01*
X104895067Y-145011893D01*
X104827024Y-145040039D01*
X104754337Y-145054606D01*
X104680570Y-145059456D01*
X104543825Y-145059456D01*
X104543825Y-143954501D01*
X104681669Y-143954501D01*
X104758034Y-143960710D01*
G37*
G36*
X107364005Y-145057349D02*
G01*
X107149682Y-144315279D01*
X107576130Y-144315279D01*
X107364005Y-145057349D01*
G37*
G36*
X109946140Y-145057349D02*
G01*
X109731817Y-144315279D01*
X110158265Y-144315279D01*
X109946140Y-145057349D01*
G37*
G36*
X113277554Y-145417823D02*
G01*
X104127297Y-145417823D01*
X104127297Y-145059456D01*
X104293964Y-145059456D01*
X104293964Y-145251156D01*
X104633217Y-145251156D01*
X104767495Y-145243811D01*
X104896542Y-145222030D01*
X104979115Y-145197072D01*
X105055291Y-145161435D01*
X105125886Y-145114869D01*
X105187326Y-145057501D01*
X105241396Y-144984074D01*
X105288002Y-144891936D01*
X105319663Y-144793462D01*
X105340601Y-144669729D01*
X105348269Y-144515588D01*
X105340657Y-144362260D01*
X105319767Y-144237837D01*
X105288002Y-144137592D01*
X105241495Y-144043442D01*
X105187946Y-143968230D01*
X105176135Y-143956700D01*
X105630278Y-143956700D01*
X105951213Y-143956700D01*
X105951213Y-145060555D01*
X105630278Y-145060555D01*
X105630278Y-145251156D01*
X106524115Y-145251156D01*
X106524115Y-145060555D01*
X106203180Y-145060555D01*
X106203180Y-143956700D01*
X106524115Y-143956700D01*
X106524115Y-143765000D01*
X106740453Y-143765000D01*
X106915514Y-144315279D01*
X107213246Y-145251156D01*
X107523374Y-145251156D01*
X107997174Y-143765000D01*
X108068157Y-143765000D01*
X108152146Y-145251156D01*
X108451466Y-145251156D01*
X108663682Y-144255012D01*
X108866099Y-145251156D01*
X109166609Y-145251156D01*
X109250598Y-143765000D01*
X109322588Y-143765000D01*
X109497649Y-144315279D01*
X109795382Y-145251156D01*
X110105509Y-145251156D01*
X110749303Y-145251156D01*
X111073535Y-145251156D01*
X111547336Y-143985734D01*
X111533872Y-144118175D01*
X111518759Y-144322789D01*
X111511798Y-144573749D01*
X111511798Y-145251156D01*
X111733632Y-145251156D01*
X111733632Y-145049747D01*
X111958579Y-145049747D01*
X111958579Y-145251156D01*
X113110887Y-145251156D01*
X113085058Y-145049747D01*
X112654214Y-145049747D01*
X112654214Y-143765000D01*
X112404445Y-143765000D01*
X112404445Y-145049747D01*
X111958579Y-145049747D01*
X111733632Y-145049747D01*
X111733632Y-143765000D01*
X111408392Y-143765000D01*
X110935690Y-145029323D01*
X110948605Y-144892028D01*
X110964175Y-144679811D01*
X110971228Y-144440209D01*
X110971228Y-143765000D01*
X110749303Y-143765000D01*
X110749303Y-145251156D01*
X110105509Y-145251156D01*
X110579310Y-143765000D01*
X110314428Y-143765000D01*
X110211022Y-144122571D01*
X109680160Y-144122571D01*
X109576754Y-143765000D01*
X109322588Y-143765000D01*
X109250598Y-143765000D01*
X109022261Y-143765000D01*
X108986724Y-144488661D01*
X108980221Y-144792926D01*
X108985625Y-145031429D01*
X108767089Y-144026675D01*
X108549468Y-144026675D01*
X108314720Y-145031429D01*
X108323879Y-144790178D01*
X108321223Y-144486554D01*
X108292097Y-143765000D01*
X108068157Y-143765000D01*
X107997174Y-143765000D01*
X107732293Y-143765000D01*
X107628886Y-144122571D01*
X107098025Y-144122571D01*
X106994618Y-143765000D01*
X106740453Y-143765000D01*
X106524115Y-143765000D01*
X105630278Y-143765000D01*
X105630278Y-143956700D01*
X105176135Y-143956700D01*
X105127534Y-143909255D01*
X105057999Y-143860733D01*
X104983918Y-143823386D01*
X104904602Y-143796782D01*
X104781247Y-143772900D01*
X104658039Y-143765000D01*
X104293964Y-143765000D01*
X104293964Y-145059456D01*
X104127297Y-145059456D01*
X104127297Y-143598333D01*
X113277554Y-143598333D01*
X113277554Y-145417823D01*
G37*
G36*
X105357612Y-130025707D02*
G01*
X105889695Y-130025707D01*
X106225651Y-131307249D01*
X106595190Y-130025707D01*
X107113229Y-130025707D01*
X107670469Y-131971834D01*
X107180396Y-131971834D01*
X106866788Y-130665012D01*
X106513980Y-131960598D01*
X105984827Y-131960598D01*
X105646063Y-130625811D01*
X105343690Y-131971834D01*
X104797685Y-131971834D01*
X105357612Y-130025707D01*
G37*
G36*
X107859513Y-130025707D02*
G01*
X109253896Y-130025707D01*
X109253896Y-130451300D01*
X108343969Y-130451300D01*
X108343969Y-130799468D01*
X109175494Y-130799468D01*
X109175494Y-131225061D01*
X108343969Y-131225061D01*
X108343969Y-131546118D01*
X109253896Y-131546118D01*
X109253896Y-131971834D01*
X107859513Y-131971834D01*
X107859513Y-130025707D01*
G37*
G36*
X109592661Y-130025707D02*
G01*
X110880675Y-130025707D01*
X110880675Y-130453986D01*
X110077116Y-130453986D01*
X110077116Y-131971834D01*
X109592661Y-131971834D01*
X109592661Y-130025707D01*
G37*
G36*
X111153861Y-130025707D02*
G01*
X111624273Y-130025707D01*
X111624273Y-131119304D01*
X112027518Y-130325759D01*
X112394248Y-130325759D01*
X112805920Y-131169740D01*
X112805920Y-130025707D01*
X113276331Y-130025707D01*
X113276331Y-131971834D01*
X112814346Y-131971834D01*
X112234636Y-130836104D01*
X111621464Y-131971834D01*
X111153861Y-131971834D01*
X111153861Y-130025707D01*
G37*
G36*
X113672493Y-130025707D02*
G01*
X115066876Y-130025707D01*
X115066876Y-130451300D01*
X114156949Y-130451300D01*
X114156949Y-130799468D01*
X114988474Y-130799468D01*
X114988474Y-131225061D01*
X114156949Y-131225061D01*
X114156949Y-131546118D01*
X115066876Y-131546118D01*
X115066876Y-131971834D01*
X113672493Y-131971834D01*
X113672493Y-130025707D01*
G37*
G36*
X115405640Y-130025707D02*
G01*
X115904140Y-130025707D01*
X115904140Y-130987535D01*
X116520121Y-130025707D01*
X117169684Y-130025707D01*
X116458449Y-131074485D01*
X117124866Y-131971834D01*
X116539660Y-131971834D01*
X115904140Y-131094025D01*
X115904140Y-131971834D01*
X115405640Y-131971834D01*
X115405640Y-130025707D01*
G37*
D15*
X365760000Y-139700000D03*
M02*
