G04 #@! TF.GenerationSoftware,KiCad,Pcbnew,9.0.2*
G04 #@! TF.CreationDate,2025-05-24T20:46:17-04:00*
G04 #@! TF.ProjectId,pcb_ruler,7063625f-7275-46c6-9572-2e6b69636164,rev?*
G04 #@! TF.SameCoordinates,Original*
G04 #@! TF.FileFunction,Copper,L1,Top*
G04 #@! TF.FilePolarity,Positive*
%FSLAX46Y46*%
G04 Gerber Fmt 4.6, Leading zero omitted, Abs format (unit mm)*
G04 Created by KiCad (PCBNEW 9.0.2) date 2025-05-24 20:46:17*
%MOMM*%
%LPD*%
G01*
G04 APERTURE LIST*
G04 #@! TA.AperFunction,ComponentPad*
%ADD10C,9.400000*%
G04 #@! TD*
G04 APERTURE END LIST*
D10*
X365760000Y-139700000D03*
G04 #@! TA.AperFunction,Conductor*
G36*
X380996132Y-127003868D02*
G01*
X380999500Y-127012000D01*
X380999500Y-152388000D01*
X380996132Y-152396132D01*
X380988000Y-152399500D01*
X76212000Y-152399500D01*
X76203868Y-152396132D01*
X76200500Y-152388000D01*
X76200500Y-139605726D01*
X360959500Y-139605726D01*
X360959500Y-139794273D01*
X360966901Y-139982650D01*
X360981695Y-140170638D01*
X361003854Y-140357859D01*
X361033346Y-140544061D01*
X361070132Y-140728995D01*
X361114144Y-140912318D01*
X361114145Y-140912320D01*
X361165322Y-141093780D01*
X361223584Y-141273092D01*
X361288840Y-141449978D01*
X361360991Y-141624166D01*
X361439925Y-141795387D01*
X361439926Y-141795388D01*
X361525523Y-141963382D01*
X361617649Y-142127883D01*
X361716153Y-142288628D01*
X361820896Y-142445388D01*
X361931729Y-142597936D01*
X361990086Y-142671960D01*
X362048448Y-142745992D01*
X362170894Y-142889359D01*
X362298875Y-143027808D01*
X362432192Y-143161125D01*
X362570641Y-143289106D01*
X362714008Y-143411552D01*
X362862071Y-143528276D01*
X363014602Y-143639097D01*
X363171367Y-143743844D01*
X363332124Y-143842355D01*
X363496623Y-143934480D01*
X363664613Y-144020075D01*
X363835834Y-144099009D01*
X364010022Y-144171160D01*
X364186908Y-144236416D01*
X364366220Y-144294678D01*
X364547680Y-144345855D01*
X364731010Y-144389869D01*
X364915927Y-144426651D01*
X364915931Y-144426651D01*
X364915938Y-144426653D01*
X365102140Y-144456145D01*
X365289361Y-144478304D01*
X365289378Y-144478306D01*
X365477336Y-144493098D01*
X365630406Y-144499112D01*
X365665727Y-144500500D01*
X365665730Y-144500500D01*
X365854273Y-144500500D01*
X365887516Y-144499193D01*
X366042664Y-144493098D01*
X366230622Y-144478306D01*
X366264948Y-144474243D01*
X366417859Y-144456145D01*
X366604061Y-144426653D01*
X366604063Y-144426652D01*
X366604073Y-144426651D01*
X366788990Y-144389869D01*
X366972320Y-144345855D01*
X367153780Y-144294678D01*
X367333092Y-144236416D01*
X367509978Y-144171160D01*
X367684166Y-144099009D01*
X367855387Y-144020075D01*
X368023377Y-143934480D01*
X368187876Y-143842355D01*
X368348633Y-143743844D01*
X368505398Y-143639097D01*
X368657929Y-143528276D01*
X368805992Y-143411552D01*
X368949359Y-143289106D01*
X369087808Y-143161125D01*
X369221125Y-143027808D01*
X369349106Y-142889359D01*
X369471552Y-142745992D01*
X369588276Y-142597929D01*
X369699097Y-142445398D01*
X369803844Y-142288633D01*
X369902355Y-142127876D01*
X369994480Y-141963377D01*
X370080075Y-141795387D01*
X370159009Y-141624166D01*
X370231160Y-141449978D01*
X370296416Y-141273092D01*
X370354678Y-141093780D01*
X370405855Y-140912320D01*
X370449869Y-140728990D01*
X370486651Y-140544073D01*
X370486653Y-140544061D01*
X370516145Y-140357859D01*
X370538304Y-140170638D01*
X370538306Y-140170622D01*
X370553098Y-139982664D01*
X370560500Y-139794270D01*
X370560500Y-139605730D01*
X370553098Y-139417336D01*
X370538306Y-139229378D01*
X370538304Y-139229361D01*
X370516145Y-139042140D01*
X370486653Y-138855938D01*
X370486651Y-138855927D01*
X370449869Y-138671010D01*
X370405855Y-138487680D01*
X370354678Y-138306220D01*
X370296416Y-138126908D01*
X370231160Y-137950022D01*
X370159009Y-137775834D01*
X370080075Y-137604613D01*
X369994480Y-137436623D01*
X369902355Y-137272124D01*
X369803844Y-137111367D01*
X369699097Y-136954602D01*
X369588276Y-136802071D01*
X369471552Y-136654008D01*
X369349106Y-136510641D01*
X369221125Y-136372192D01*
X369087808Y-136238875D01*
X368949359Y-136110894D01*
X368805992Y-135988448D01*
X368731960Y-135930086D01*
X368657936Y-135871729D01*
X368505388Y-135760896D01*
X368429704Y-135710326D01*
X368348633Y-135656156D01*
X368187876Y-135557645D01*
X368023377Y-135465520D01*
X367855387Y-135379925D01*
X367684166Y-135300991D01*
X367509978Y-135228840D01*
X367509967Y-135228836D01*
X367509960Y-135228833D01*
X367333097Y-135163586D01*
X367333092Y-135163584D01*
X367240318Y-135133440D01*
X367153778Y-135105321D01*
X366972318Y-135054144D01*
X366788995Y-135010132D01*
X366604061Y-134973346D01*
X366417859Y-134943854D01*
X366230638Y-134921695D01*
X366095657Y-134911072D01*
X366042664Y-134906902D01*
X366042661Y-134906901D01*
X366042650Y-134906901D01*
X365854273Y-134899500D01*
X365854270Y-134899500D01*
X365665730Y-134899500D01*
X365665727Y-134899500D01*
X365477349Y-134906901D01*
X365289361Y-134921695D01*
X365102140Y-134943854D01*
X364915938Y-134973346D01*
X364731004Y-135010132D01*
X364547681Y-135054144D01*
X364366221Y-135105321D01*
X364186902Y-135163586D01*
X364010039Y-135228833D01*
X363835835Y-135300990D01*
X363664611Y-135379926D01*
X363496617Y-135465523D01*
X363332116Y-135557649D01*
X363171371Y-135656153D01*
X363014611Y-135760896D01*
X362862063Y-135871729D01*
X362714014Y-135988443D01*
X362570633Y-136110901D01*
X362432197Y-136238870D01*
X362298870Y-136372197D01*
X362170901Y-136510633D01*
X362048443Y-136654014D01*
X361931729Y-136802063D01*
X361820896Y-136954611D01*
X361716153Y-137111371D01*
X361617649Y-137272116D01*
X361525523Y-137436617D01*
X361439926Y-137604611D01*
X361360990Y-137775835D01*
X361288833Y-137950039D01*
X361223586Y-138126902D01*
X361165321Y-138306221D01*
X361114144Y-138487681D01*
X361070132Y-138671004D01*
X361033346Y-138855938D01*
X361003854Y-139042140D01*
X360981695Y-139229361D01*
X360966901Y-139417349D01*
X360959500Y-139605726D01*
X76200500Y-139605726D01*
X76200500Y-127012000D01*
X76203868Y-127003868D01*
X76212000Y-127000500D01*
X380988000Y-127000500D01*
X380996132Y-127003868D01*
G37*
G04 #@! TD.AperFunction*
M02*
